<svg xmlns="http://www.w3.org/2000/svg" xmlns:xlink="http://www.w3.org/1999/xlink" viewBox="0 0 511.13 375.12"><defs><style>.cls-1{fill:#fff;}.cls-2{fill:url(#Degradado_sin_nombre_6);}</style><linearGradient id="Degradado_sin_nombre_6" x1="98.28" y1="216.86" x2="417.33" y2="216.86" gradientUnits="userSpaceOnUse"><stop offset="0" stop-color="#d69c47"/><stop offset="0.1" stop-color="#8c5e1c"/><stop offset="0.13" stop-color="#9c6f27"/><stop offset="0.17" stop-color="#c59c43"/><stop offset="0.23" stop-color="#fedb6b"/><stop offset="0.25" stop-color="#dfba57"/><stop offset="0.29" stop-color="#8f6724"/><stop offset="0.31" stop-color="#704710"/><stop offset="0.38" stop-color="#986926"/><stop offset="0.48" stop-color="#d69c47"/><stop offset="0.5" stop-color="#e4bb71"/><stop offset="0.53" stop-color="#f0d596"/><stop offset="0.55" stop-color="#f8e8b0"/><stop offset="0.57" stop-color="#fdf4bf"/><stop offset="0.59" stop-color="#fff8c5"/><stop offset="0.62" stop-color="#fff4ba"/><stop offset="0.68" stop-color="#ffeb9c"/><stop offset="0.75" stop-color="#fedb6b"/><stop offset="0.76" stop-color="#e0bc58"/><stop offset="0.77" stop-color="#b8923e"/><stop offset="0.78" stop-color="#99712a"/><stop offset="0.79" stop-color="#825a1c"/><stop offset="0.81" stop-color="#754c13"/><stop offset="0.81" stop-color="#704710"/><stop offset="0.84" stop-color="#7d5215"/><stop offset="0.89" stop-color="#a17023"/><stop offset="0.9" stop-color="#ab7927"/><stop offset="1" stop-color="#8c5e1c"/></linearGradient></defs><g id="Capa_2" data-name="Capa 2"><g id="Capa_1-2" data-name="Capa 1"><path class="cls-1" d="M10.92,238.3v7.18H0v-1H1.57a7.42,7.42,0,0,0,4.73-1.63,6.66,6.66,0,0,0,2.45-4.57Zm5.21-63.06h1l2,5.81-5.8,64.43H8Zm-2.36,64.63v.49a4.43,4.43,0,0,0,1.13,2.91,3.47,3.47,0,0,0,2.71,1.32h1.47v.89h-6v-5.61Zm3.35-64.63,28.33,61.29-2.27,10.33-27.93-60.6Zm54.3,0,.78,6.59-24.69,55c-1,2.23-1.74,4.12-2.26,5.66a23.27,23.27,0,0,0-1.08,4.38h-1l-1.37-6.2Zm1.18,64.63h.69v5.61h-6v-.89h1.47a3.39,3.39,0,0,0,2.75-1.32,4.49,4.49,0,0,0,1.09-2.91v-.49Zm-.3-64.63,8.46,70.24H73.09l-5.41-59.61,3.74-10.63Zm5.51,63.06h2.07a7,7,0,0,0,2.55,4.57,7.27,7.27,0,0,0,4.63,1.63h1.57v1H77.81Z"/><path class="cls-1" d="M128.47,183.8h-.29a6.4,6.4,0,0,0-1.92-4.38,6,6,0,0,0-4.38-1.82H120.6v-1h7.87Zm0,54.5v7.18H120.6v-1h1.28a6,6,0,0,0,4.38-1.82,6.4,6.4,0,0,0,1.92-4.38Zm6.1-61.68v68.86h-6.39V176.62Zm-3.84-7q2.07-2.26,4.14-4.48c1.37-1.47,2.76-2.92,4.18-4.33s2.8-2.77,4.18-4.08q1.08,1.19,2.16,2.46a16.06,16.06,0,0,1,1.87,2.75l-5.31,3q-2.65,1.47-5.27,2.8c-1.73.88-3.49,1.75-5.26,2.61Zm3.54,14.16v-7.18h7.87v1h-1.27a6,6,0,0,0-4.38,1.82,6.31,6.31,0,0,0-1.92,4.38Zm0,54.5h.3a6.31,6.31,0,0,0,1.92,4.38,6,6,0,0,0,4.38,1.82h1.27v1h-7.87Z"/><path class="cls-1" d="M186.31,183.8H186a6.4,6.4,0,0,0-1.92-4.38,6,6,0,0,0-4.38-1.82h-1.28v-1h7.87Zm0,54.5v7.18h-7.87v-1h1.28a6,6,0,0,0,4.38-1.82A6.4,6.4,0,0,0,186,238.3Zm6.1-61.68v68.86H186V176.62Zm12.59,0a23.88,23.88,0,0,1,8,1.28,15.9,15.9,0,0,1,9.84,9.49,21.22,21.22,0,0,1,1.32,7.72,19.54,19.54,0,0,1-2.21,9,19.22,19.22,0,0,1-6,7,14.3,14.3,0,0,1-8.51,2.7,11,11,0,0,1,3.64,2.81,50.49,50.49,0,0,1,3.44,4.08c1.77,2.56,3.33,4.75,4.68,6.59s2.7,3.64,4.08,5.41,2.56,3.18,3.54,4.23a44,44,0,0,0,3.93,3.84,16.76,16.76,0,0,0,4.28,2.65,13,13,0,0,0,5.17,1v1h-5.41A20.13,20.13,0,0,1,227,244.1a19.56,19.56,0,0,1-5.56-3.39,37.65,37.65,0,0,1-3.84-3.89L216,234.56c-.89-1.24-1.93-2.74-3.15-4.48s-2.41-3.45-3.59-5.16l-3-4.38c-.85-1.21-1.34-1.92-1.47-2.11a34.87,34.87,0,0,0-4.13-4.53,7.2,7.2,0,0,0-4.92-2.06v-1c2,.07,3.77.07,5.21,0a30.48,30.48,0,0,0,5.61-.78,13.72,13.72,0,0,0,5.7-2.86,13.36,13.36,0,0,0,4-6.59,20.2,20.2,0,0,0,.49-2.7,18.11,18.11,0,0,0,.1-3.2q-.1-6.69-3.4-10.67a11.71,11.71,0,0,0-8.8-4.28c-1.84-.13-3.72-.18-5.66-.15s-4.21,0-6.83,0a7.73,7.73,0,0,0-.25-.84c-.16-.49-.41-1.23-.74-2.21ZM192.12,238.3h.29a5.9,5.9,0,0,0,1.87,4.38,6.13,6.13,0,0,0,4.43,1.82h1.18v1h-7.77Z"/><path class="cls-1" d="M262.05,238.3a5,5,0,0,0-.19,3.34,4.1,4.1,0,0,0,1.62,2.12,4.21,4.21,0,0,0,2.31.74h.89v1H246.91v-1h.88a9.15,9.15,0,0,0,4.67-1.43,10.49,10.49,0,0,0,4-4.77Zm21.15-63.06.89,6.89L259.4,245.19h-5.9l25.18-59.81q1.08-2.46,1.82-4.23c.49-1.18.92-2.33,1.28-3.45a9,9,0,0,0,.54-2.46Zm13.87,43.38v3H266.29v-3ZM283.2,175.24l29.12,69.65H304l-22.72-60.3Zm18.3,63.06h8.07a9.83,9.83,0,0,0,3.93,4.77,9.43,9.43,0,0,0,4.72,1.43H319v1H296.88v-1h.88a4.43,4.43,0,0,0,3.35-1.63Q302.58,241.25,301.5,238.3Z"/><path class="cls-1" d="M354.92,238.3v7.18H344v-1h1.57a7.4,7.4,0,0,0,4.72-1.63,6.63,6.63,0,0,0,2.46-4.57Zm5.21-63.06h1l2,5.81-5.8,64.43H352Zm-2.36,64.63v.49a4.38,4.38,0,0,0,1.13,2.91,3.43,3.43,0,0,0,2.7,1.32h1.48v.89h-6v-5.61Zm3.34-64.63,28.33,61.29-2.26,10.33-27.94-60.6Zm54.3,0,.79,6.59-24.69,55q-1.49,3.35-2.26,5.66a24.13,24.13,0,0,0-1.09,4.38h-1l-1.38-6.2Zm1.18,64.63h.69v5.61h-6v-.89h1.48a3.4,3.4,0,0,0,2.75-1.32,4.53,4.53,0,0,0,1.08-2.91v-.49Zm-.29-64.63,8.46,70.24h-7.68l-5.41-59.61,3.74-10.63Zm5.51,63.06h2.06a7,7,0,0,0,2.56,4.57,7.26,7.26,0,0,0,4.62,1.63h1.58v1H421.81Z"/><path class="cls-1" d="M472.47,183.8h-.3a5.9,5.9,0,0,0-1.87-4.38,6.13,6.13,0,0,0-4.42-1.82H464.7l-.1-1h7.87Zm0,54.5v7.18H464.6v-1h1.28a6,6,0,0,0,4.37-1.82,6.31,6.31,0,0,0,1.92-4.38Zm6.1-61.68v68.86h-6.4V176.62Zm26.56,0v3H478.27v-3Zm-4.23,33.45v3H478.27v-3Zm4.23,32.36v3H478.27v-3Zm6-12.89-5.71,15.94H489.09l3.54-3a19.32,19.32,0,0,0,8.51-1.62,13.86,13.86,0,0,0,5.36-4.58,35.35,35.35,0,0,0,3.64-6.69Zm-6-54.69v2.85l-12-1.08a39.11,39.11,0,0,0,4.58-.29c1.6-.2,3.1-.43,4.47-.69A14.86,14.86,0,0,0,505.13,174.85Zm-4.23,28.92v6.49h-5.71v-.19a4.88,4.88,0,0,0,3.35-1.53,4.74,4.74,0,0,0,1.37-3.39v-1.38Zm0,9v6.49h-1v-1.47a4.78,4.78,0,0,0-1.37-3.4,4.49,4.49,0,0,0-3.35-1.42v-.2Zm4.23-33.44v7.87h-1v-1.78a5.68,5.68,0,0,0-1.67-4.08,5.93,5.93,0,0,0-4.13-1.82v-.19Z"/><path class="cls-1" d="M325.21,100l-17.63,2.27.44.29-4.3.41v.37h12.2c0,.18.05.36.08.54l-15.56,2.55c0,.21,0,.4,0,.6l10.14.91c-2.63,1.46-6.17,1.44-17.66.12l6.59,2c0,.1,0,.21-.06.31l-6-.46c0,.19-.09.39-.13.58l5.79,2.08,0,.31c-3.58-.21-7.23,0-10.69-.75s-7-2.35-10.06-3.44c2.37,4,6.55,5.68,11.22,6.65-5.26.1-10-1.45-14.85-3.66,1.11.86,2.19,1.78,3.36,2.57a13.43,13.43,0,0,1,3.6,2.95l-8.72-3,.61.91c-.08.17-.17.33-.25.5l-7.94-4.19c3.81,3.82,8.52,6.12,13.84,8-4.28.39-7.78-1.16-18.77-8.18.62,1,1,1.79,1.47,2.52l-.61.59-8.18-8.92c1.76,5.25,5.35,9.14,9.94,12.28-5.57-1.58-9.57-5.24-13.45-9.42,1.64,2.53,3.26,5.07,5,7.72l-7.43-3.24,1.32,2.57-5-3.59c-.12.08-.23.17-.34.26q1.84,2.41,3.7,4.81l-.48.43q-3-3.18-6.05-6.38c-.1.19-.32.56-.62,1.07-.74-1.54-1.41-3-2.09-4.4a3.37,3.37,0,0,0-.34.09c.16,1.17.33,2.33.49,3.51l-.34.15-3.4-5.78c.35,3.84.66,7.32,1,10.81l-.62,0c-.69-2.49-1.33-5-2.07-7.47a3.81,3.81,0,0,0-1.63-2v7.35l-.31,0-2.22-8.71-.7.16,1.64,7.18-.42.12-3.48-8.09c-.21.06-.41.13-.62.18.07,1.2.15,2.41.26,4.21-1.18-2-2-3.53-3.21-5.53l.42,9.16-.43,0c-1-3.2-1.92-6.41-3.11-10.37l-1.13,1.81L214.19,101c1,2.67,1.76,4.64,2.51,6.61l-.49.21q-1.65-2.25-3.31-4.49l-.46.19.87,4-.43.19L210.19,103l-.3.13q.86,3.59,1.7,7.16l-.34.11-4.79-8-.68.32,1.59,4.62-.46.18a24.15,24.15,0,0,0-1.9-2.66c-3-3.33-6.46-5-11.08-3.64a29,29,0,0,0-14.13,8.65,13.7,13.7,0,0,1,.92-1.93c5.32-8.07,13.34-12.08,22.42-13.64s18.22-2.38,27.37-3c12.72-1,25.42-1.74,37.83-4.93,14.74-3.79,27.32-10.74,37.61-21.08l1-1c1.5-1.57,3-3.21,4.36-4.94,1.18-1.44,2.31-2.93,3.42-4.47.49-.7,1-1.36,1.67-2.18l.09-.11a.61.61,0,0,1,0,.14c-.08,1.51-1.05,4.22-2.65,7.41-.89,1.78-2,3.72-3.2,5.67-.23.36-.46.73-.7,1.08-.83,1.27-1.72,2.54-2.66,3.77C303.15,76,298.36,80.94,294,86h6l-3.21,1.67c0,.23,0,.47.08.71L307,87.16c0,.14.09.28.14.42l-8.6,2.35c7.52,1,14.48-.63,21.3-3.29l.33.71-8.62,4.26,1.57.42-2.56,1.81,10.18-1.41.14.47-6.55,2.24.09.42,10.8-.7c0,.32.06.63.08.94l-18.63,2,18.4,1.74A4.42,4.42,0,0,0,325.21,100Z"/><path class="cls-1" d="M381.58,41.14l-.83.88c-.72-.49-1.47-1-2.17-1.49-29.86-23-62.36-27.95-97.08-13-8.22,3.53-16.21,7.6-24.17,11.78l-1,.53-4.38,2.3-4.86,2.54-1.88,1c-2,1.07-4.08,2.11-6.14,3.14l-1.68.83a.6.6,0,0,1-.16.08C229.5,53.46,221.8,57.3,214.05,61c-6.89,3.33-13.82,6.57-20.82,9.65a67.41,67.41,0,0,1-8.32,3,66.77,66.77,0,0,1-19.7,2.76c-.33,0-.68,0-1,0-.8,0-1.6-.18-3.33-.38,1.23-3.19,2.49-6.17,3.61-9.16.33-.87.64-1.74.94-2.62a15.25,15.25,0,0,1,.67-1.69c1.86-4,5-6.36,9.3-8.53,9.58-4.84,19.06-9.88,28.49-15,.94-.5,1.87-1,2.81-1.53L211.5,35,224,28.13,229.68,25c16.38-9,32.82-17.86,51.1-22.29,33.26-8.06,61.7,2.35,86.84,23.94C372.68,31,376.94,36.3,381.58,41.14Z"/><path class="cls-2" d="M144.6,78.44a158.56,158.56,0,0,0-46.32,67.73h3.37c8.09-24.78,23.48-47.19,43.65-64.82A16,16,0,0,1,144.6,78.44Zm4.58,9.22c-1.56,1.22-3.11,2.48-4.63,3.77a158.87,158.87,0,0,0-42,54.74h6a158.12,158.12,0,0,1,38.79-52,4.27,4.27,0,0,1,2-1,175.33,175.33,0,0,0-33.82,53h2.8A162.46,162.46,0,0,1,139,113a164.84,164.84,0,0,1,19.64-20.58A16.39,16.39,0,0,1,149.18,87.66Zm261.05,58.51h7.1q-2.74-6.84-6.2-13.45A163.56,163.56,0,0,0,332,58.6a45.79,45.79,0,0,1-2.77,7.31,125.75,125.75,0,0,1,15.33,8C350,77.15,354.72,81.58,359.24,86a163.42,163.42,0,0,1,39,60.15h2.86a159.53,159.53,0,0,0-25.84-46.46c-2.35-3-4.85-5.83-7.27-8.74C385.56,105.08,400.21,124.2,410.23,146.17ZM313.59,361.54c6.7-3.7,13.42-7.08,19.8-11a156.49,156.49,0,0,0,54.47-56.32,161.19,161.19,0,0,0,8.69-17.46h-1.7a154.4,154.4,0,0,1-28.37,42.94c-24.09,25.93-53.56,42.13-88.31,48.25-7.84,1.38-16.16.89-24.17.24a162.06,162.06,0,0,1-49.61-12,150.46,150.46,0,0,1-13.88-6.65c44.91,15.5,89,14.81,131.74-6.9,30.56-15.51,53-37.72,68.38-65.88h-3.15a165.8,165.8,0,0,1-15.26,22.09C346.08,330.91,312.17,350,271.28,356c-28.73,4.2-56.5-.1-83.45-11.08-27.63-11.27-47-31.26-62-56.19q-3.56-5.89-6.49-12h-3q3.91,9.56,8.9,18.9a113,113,0,0,1-13.17-18.9h-3c2.94,5,5.91,10,9.21,14.75a186,186,0,0,0,15.24,18.73c6.15,6.76,12.87,13,19.25,19.57,8.81,9.08,18.9,16.49,29.64,23.09.78.47,1.53,1,2.58,1.62-7.83,0-33-17.67-49.4-34.72a141.16,141.16,0,0,1-28.26-43h-6.87a160.22,160.22,0,0,0,48.23,63.49,156,156,0,0,0,66.43,31.22,175.29,175.29,0,0,0,41.76,3.45,150.48,150.48,0,0,0,39.23-3.15,166,166,0,0,0,83.72-45.12,167.87,167.87,0,0,0,34.54-49.89H411.2C390.69,321.75,350.29,352.49,313.59,361.54Z"/><path class="cls-1" d="M230.51,91.29c12.72-1,25.42-1.74,37.83-4.93,14.74-3.79,27.32-10.74,37.61-21.08l1-1c1.5-1.57,3-3.21,4.36-4.94,1.18-1.44,2.31-2.93,3.42-4.47.49-.7,1-1.36,1.67-2.18l.09-.11a.61.61,0,0,1,0,.14c-.08,1.51-1.05,4.22-2.65,7.41-.89,1.78-2,3.72-3.2,5.67-.23.36-.46.73-.7,1.08-.83,1.27-1.72,2.54-2.66,3.77C303.15,76,298.36,80.94,294,86h6l-3.21,1.67c0,.23,0,.47.08.71L307,87.16c0,.14.09.28.14.42l-8.6,2.35c7.52,1,14.48-.63,21.3-3.29l.33.71-8.62,4.26,1.57.42-2.56,1.81,10.18-1.41.14.47-6.55,2.24.09.42,10.8-.7c0,.32.06.63.08.94l-18.63,2,18.4,1.74a4.42,4.42,0,0,0,.15.48l-17.63,2.27.44.29-4.3.41v.37h12.2c0,.18.05.36.08.54l-15.56,2.55c0,.21,0,.4,0,.6l10.14.91c-2.63,1.46-6.17,1.44-17.66.12l6.59,2c0,.1,0,.21-.06.31l-6-.46c0,.19-.09.39-.13.58l5.79,2.08,0,.31c-3.58-.21-7.23,0-10.69-.75s-7-2.35-10.06-3.44c2.37,4,6.55,5.68,11.22,6.65-5.26.1-10-1.45-14.85-3.66,1.11.86,2.19,1.78,3.36,2.57a13.43,13.43,0,0,1,3.6,2.95l-8.72-3,.61.91c-.08.17-.17.33-.25.5l-7.94-4.19c3.81,3.82,8.52,6.12,13.84,8-4.28.39-7.78-1.16-18.77-8.18.62,1,1,1.79,1.47,2.52l-.61.59-8.18-8.92c1.76,5.25,5.35,9.14,9.94,12.28-5.57-1.58-9.57-5.24-13.45-9.42,1.64,2.53,3.26,5.07,5,7.72l-7.43-3.24,1.32,2.57-5-3.59c-.12.08-.23.17-.34.26q1.84,2.41,3.7,4.81l-.48.43q-3-3.18-6.05-6.38c-.1.19-.32.56-.62,1.07-.74-1.54-1.41-3-2.09-4.4a3.37,3.37,0,0,0-.34.09c.16,1.17.33,2.33.49,3.51l-.34.15-3.4-5.78c.35,3.84.66,7.32,1,10.81l-.62,0c-.69-2.49-1.33-5-2.07-7.47a3.81,3.81,0,0,0-1.63-2v7.35l-.31,0-2.22-8.71-.7.16,1.64,7.18-.42.12-3.48-8.09c-.21.06-.41.13-.62.18.07,1.2.15,2.41.26,4.21-1.18-2-2-3.53-3.21-5.53l.42,9.16-.43,0c-1-3.2-1.92-6.41-3.11-10.37l-1.13,1.81L214.19,101c1,2.67,1.76,4.64,2.51,6.61l-.49.21q-1.65-2.25-3.31-4.49l-.46.19.87,4-.43.19L210.19,103l-.3.13q.86,3.59,1.7,7.16l-.34.11-4.79-8-.68.32,1.59,4.62-.46.18a24.15,24.15,0,0,0-1.9-2.66c-3-3.33-6.46-5-11.08-3.64a29,29,0,0,0-14.13,8.65,13.7,13.7,0,0,1,.92-1.93c5.32-8.07,13.34-12.08,22.42-13.64S221.36,92,230.51,91.29Z"/></g></g></svg>