<svg xmlns="http://www.w3.org/2000/svg" xmlns:xlink="http://www.w3.org/1999/xlink" viewBox="0 0 1273.12 1112.17"><defs><style>.cls-1{fill:#f9f8f6;}.cls-2{fill:#272727;}.cls-3{fill:url(#linear-gradient);}.cls-4{fill:url(#linear-gradient-2);}.cls-5{fill:url(#Degradado_sin_nombre_6);}.cls-6{fill:url(#Degradado_sin_nombre_6-2);}.cls-7{fill:url(#Degradado_sin_nombre_6-3);}</style><linearGradient id="linear-gradient" x1="505.21" y1="177.05" x2="1159.6" y2="177.05" gradientUnits="userSpaceOnUse"><stop offset="0.01" stop-color="#f59fa2"/><stop offset="0.22" stop-color="#e7dddf"/><stop offset="0.34" stop-color="#f27e81"/><stop offset="0.78" stop-color="#f59294"/><stop offset="0.87" stop-color="#fcf0f0"/><stop offset="1" stop-color="#f27f82"/></linearGradient><linearGradient id="linear-gradient-2" x1="265.01" y1="254.95" x2="1131.74" y2="254.95" xlink:href="#linear-gradient"/><linearGradient id="Degradado_sin_nombre_6" x1="270.78" y1="254.95" x2="1137.51" y2="254.95" gradientUnits="userSpaceOnUse"><stop offset="0" stop-color="#d69c47"/><stop offset="0.1" stop-color="#8c5e1c"/><stop offset="0.13" stop-color="#9c6f27"/><stop offset="0.17" stop-color="#c59c43"/><stop offset="0.23" stop-color="#fedb6b"/><stop offset="0.25" stop-color="#dfba57"/><stop offset="0.29" stop-color="#8f6724"/><stop offset="0.31" stop-color="#704710"/><stop offset="0.38" stop-color="#986926"/><stop offset="0.48" stop-color="#d69c47"/><stop offset="0.5" stop-color="#e4bb71"/><stop offset="0.53" stop-color="#f0d596"/><stop offset="0.55" stop-color="#f8e8b0"/><stop offset="0.57" stop-color="#fdf4bf"/><stop offset="0.59" stop-color="#fff8c5"/><stop offset="0.62" stop-color="#fff4ba"/><stop offset="0.68" stop-color="#ffeb9c"/><stop offset="0.75" stop-color="#fedb6b"/><stop offset="0.76" stop-color="#e0bc58"/><stop offset="0.77" stop-color="#b8923e"/><stop offset="0.78" stop-color="#99712a"/><stop offset="0.79" stop-color="#825a1c"/><stop offset="0.81" stop-color="#754c13"/><stop offset="0.81" stop-color="#704710"/><stop offset="0.84" stop-color="#7d5215"/><stop offset="0.89" stop-color="#a17023"/><stop offset="0.9" stop-color="#ab7927"/><stop offset="1" stop-color="#8c5e1c"/></linearGradient><linearGradient id="Degradado_sin_nombre_6-2" x1="341.82" y1="113.42" x2="1840.34" y2="113.42" xlink:href="#Degradado_sin_nombre_6"/><linearGradient id="Degradado_sin_nombre_6-3" x1="140.84" y1="642.95" x2="1086.77" y2="642.95" xlink:href="#Degradado_sin_nombre_6"/></defs><g id="Capa_2" data-name="Capa 2"><g id="Capa_1-2" data-name="Capa 1"><path class="cls-1" d="M603.4,188.29l-3.2.21C601.26,188.4,602.33,188.32,603.4,188.29Z"/><path class="cls-2" d="M1266.86,443.26a12.18,12.18,0,0,1,4.59,4.72,13.77,13.77,0,0,1,1.67,6.76,13.56,13.56,0,0,1-1.67,6.72,12.24,12.24,0,0,1-4.59,4.69,12.94,12.94,0,0,1-6.66,1.7,13.11,13.11,0,0,1-6.69-1.7,12.31,12.31,0,0,1-4.62-4.69,13.56,13.56,0,0,1-1.67-6.72,13.77,13.77,0,0,1,1.67-6.76,12.26,12.26,0,0,1,4.62-4.72,13.11,13.11,0,0,1,6.69-1.71A13,13,0,0,1,1266.86,443.26Zm1,19.35a12.07,12.07,0,0,0,0-15.74,11.09,11.09,0,0,0-15.34,0,12.07,12.07,0,0,0,0,15.74,11.09,11.09,0,0,0,15.34,0Zm-2.85-8a4.34,4.34,0,0,1-2.56,1.41l3.94,5.64-3.35.07-3.6-5.57h-1.51v5.57h-2.82v-14.1h6.1a4.93,4.93,0,0,1,3.44,1.15,4,4,0,0,1,1.28,3.11A4.05,4.05,0,0,1,1265,454.57Zm-7.08-.82H1261a2.38,2.38,0,0,0,1.51-.46,1.63,1.63,0,0,0,.59-1.37,1.57,1.57,0,0,0-.59-1.35,2.56,2.56,0,0,0-1.51-.42h-3.08Z"/><path class="cls-2" d="M26.27,638.93v17.28H0v-2.37H3.79a17.91,17.91,0,0,0,11.36-3.9,16,16,0,0,0,5.91-11ZM38.81,487.24h2.37l4.73,14-14,155H19.17ZM33.13,642.72v1.18a10.57,10.57,0,0,0,2.72,7,8.31,8.31,0,0,0,6.51,3.19h3.55v2.13H31.48V642.72Zm8-155.48,68.16,147.43-5.45,24.85L36.68,513.74Zm130.63,0,1.89,15.86L114.3,635.38q-3.54,8.05-5.44,13.61a58.47,58.47,0,0,0-2.6,10.53h-2.37l-3.31-14.91Zm2.84,155.48h1.66v13.49H161.87v-2.13h3.55a8.22,8.22,0,0,0,6.63-3.19,10.85,10.85,0,0,0,2.6-7v-1.18Zm-.71-155.48,20.35,169H175.83l-13-143.41,9-25.56Zm13.25,151.69h5a16.9,16.9,0,0,0,6.16,11,17.56,17.56,0,0,0,11.12,3.9h3.78v2.37h-26Z"/><path class="cls-2" d="M309.07,507.83h-.71a15.28,15.28,0,0,0-4.61-10.53,14.37,14.37,0,0,0-10.53-4.38h-3.08v-2.37h18.93Zm0,131.1v17.28H290.14v-2.37h3.08a14.36,14.36,0,0,0,10.53-4.37,15.28,15.28,0,0,0,4.61-10.54Zm14.67-148.38V656.21H308.36V490.55Zm-9.23-16.8q5-5.44,9.94-10.77t10.06-10.41q5.08-5.08,10.06-9.82c1.73,1.89,3.47,3.86,5.2,5.91a37.57,37.57,0,0,1,4.5,6.63l-12.78,7.1q-6.39,3.56-12.66,6.74t-12.66,6.28ZM323,507.83V490.55H342v2.37h-3.08a14.34,14.34,0,0,0-10.53,4.38,15.25,15.25,0,0,0-4.62,10.53Zm0,131.1h.71a15.25,15.25,0,0,0,4.62,10.54,14.33,14.33,0,0,0,10.53,4.37H342v2.37H323Z"/><path class="cls-2" d="M448.22,507.83h-.71a15.24,15.24,0,0,0-4.61-10.53,14.36,14.36,0,0,0-10.53-4.38h-3.08v-2.37h18.93Zm0,131.1v17.28H429.29v-2.37h3.08a14.35,14.35,0,0,0,10.53-4.37,15.24,15.24,0,0,0,4.61-10.54Zm14.67-148.38V656.21H447.51V490.55Zm30.3,0a57.17,57.17,0,0,1,19.28,3.08,38.16,38.16,0,0,1,23.67,22.83A50.72,50.72,0,0,1,539.33,535,47.17,47.17,0,0,1,534,556.81a46.28,46.28,0,0,1-14.44,16.93,34.42,34.42,0,0,1-20.47,6.5q4,1.66,8.76,6.75a122.3,122.3,0,0,1,8.28,9.82q6.39,9.23,11.24,15.85t9.82,13q5,6.39,8.52,10.18a104.36,104.36,0,0,0,9.47,9.23,40,40,0,0,0,10.29,6.39,31.41,31.41,0,0,0,12.43,2.36v2.37h-13a48.55,48.55,0,0,1-18.81-3.31,47,47,0,0,1-13.37-8.17,91.42,91.42,0,0,1-9.23-9.35c-.48-.62-1.78-2.44-3.91-5.44s-4.65-6.58-7.57-10.77-5.8-8.32-8.64-12.42-5.29-7.61-7.33-10.53-3.24-4.62-3.55-5.09a82.27,82.27,0,0,0-9.94-10.89,17.26,17.26,0,0,0-11.84-5v-2.37q7.33.23,12.55,0A75.4,75.4,0,0,0,496.74,571a33.23,33.23,0,0,0,13.72-6.87q6.39-5.21,9.7-15.85a46.44,46.44,0,0,0,1.19-6.51,42.41,42.41,0,0,0,.23-7.7q-.23-16.08-8.16-25.67t-21.18-10.3q-6.63-.47-13.61-.35t-16.45.12a12.86,12.86,0,0,0-.59-2c-.39-1.19-1-3-1.77-5.33Zm-31,148.38h.71a14.17,14.17,0,0,0,4.5,10.54A14.75,14.75,0,0,0,478,653.84h2.84v2.37h-18.7Z"/><path class="cls-2" d="M630.44,638.93c-1.11,3.16-1.26,5.84-.47,8.05a9.76,9.76,0,0,0,3.9,5.09,10.08,10.08,0,0,0,5.56,1.77h2.13v2.37H594v-2.37h2.13a22.07,22.07,0,0,0,11.24-3.43q5.79-3.43,9.58-11.48Zm50.88-151.69,2.13,16.57L624.05,655.5h-14.2l60.58-143.89q2.61-5.91,4.38-10.17c1.19-2.84,2.21-5.6,3.08-8.29a21.67,21.67,0,0,0,1.3-5.91ZM714.69,591.6v7.1H640.62v-7.1ZM681.32,487.24l70,167.55H731.25L676.59,509.72Zm44,151.69h19.4q3.56,8.05,9.47,11.48a22.64,22.64,0,0,0,11.36,3.43h1.89v2.37H714.22v-2.37h2.13a10.67,10.67,0,0,0,8-3.9Q727.95,646,725.34,638.93Z"/><path class="cls-2" d="M853.84,638.93v17.28H827.57v-2.37h3.79a17.91,17.91,0,0,0,11.36-3.9,16,16,0,0,0,5.91-11Zm12.54-151.69h2.37l4.73,14-14,155H846.74ZM860.7,642.72v1.18a10.57,10.57,0,0,0,2.72,7,8.33,8.33,0,0,0,6.51,3.19h3.55v2.13H859.05V642.72Zm8-155.48,68.16,147.43-5.45,24.85L864.25,513.74Zm130.63,0,1.9,15.86-59.4,132.28q-3.55,8.05-5.45,13.61a58.47,58.47,0,0,0-2.6,10.53h-2.37l-3.31-14.91Zm2.84,155.48h1.66v13.49H989.44v-2.13H993a8.22,8.22,0,0,0,6.63-3.19,10.85,10.85,0,0,0,2.6-7v-1.18Zm-.71-155.48,20.35,169h-18.45l-13-143.41,9-25.56Zm13.26,151.69h5a16.9,16.9,0,0,0,6.16,11,17.56,17.56,0,0,0,11.12,3.9h3.79v2.37h-26Z"/><path class="cls-2" d="M1136.64,507.83h-.71a14.17,14.17,0,0,0-4.5-10.53,14.72,14.72,0,0,0-10.64-4.38H1118l-.24-2.37h18.93Zm0,131.1v17.28h-18.93v-2.37h3.08a14.36,14.36,0,0,0,10.53-4.37,15.28,15.28,0,0,0,4.61-10.54Zm14.67-148.38V656.21h-15.38V490.55Zm63.9,0v7.34H1150.6v-7.34ZM1205,571v7.09H1150.6V571Zm10.18,77.85v7.34H1150.6v-7.34Zm14.44-31-13.73,38.34h-39.29l8.53-7.34q12.54,0,20.47-3.9a33.5,33.5,0,0,0,12.89-11,86.15,86.15,0,0,0,8.76-16.09Zm-14.44-131.58v6.86l-28.87-2.6a89.25,89.25,0,0,0,11-.71q5.81-.7,10.77-1.65A35.67,35.67,0,0,0,1215.21,486.29ZM1205,555.87v15.62h-13.72V571a11.63,11.63,0,0,0,8-3.68,11.35,11.35,0,0,0,3.31-8.16v-3.31Zm0,21.77v15.62h-2.36v-3.55a11.41,11.41,0,0,0-3.31-8.17,10.83,10.83,0,0,0-8-3.43v-.47Zm10.18-80.46v18.93h-2.37v-4.26a13.61,13.61,0,0,0-4-9.82,14.16,14.16,0,0,0-9.94-4.38v-.47Z"/><path class="cls-2" d="M226.49,741l-.79,10.31a20.19,20.19,0,0,1-4.3,5,19.8,19.8,0,0,1-6.12,3.48,23.28,23.28,0,0,1-8.05,1.29,25.21,25.21,0,0,1-12.16-3,21,21,0,0,1-8.31-8.31,28.17,28.17,0,0,1,0-25.18,21.06,21.06,0,0,1,8.32-8.34,25.46,25.46,0,0,1,12.59-3,28,28,0,0,1,15.57,4.47l1.32,9.27h-.59a14.31,14.31,0,0,0-5.92-8.78,18.26,18.26,0,0,0-27,7.36,29.47,29.47,0,0,0,0,23,18.31,18.31,0,0,0,6.51,7.69,17.89,17.89,0,0,0,9.69,2.89,21.14,21.14,0,0,0,8.64-1.74,15.53,15.53,0,0,0,6.68-5.71A23.46,23.46,0,0,0,226,741Z"/><path class="cls-2" d="M258.7,719h-.2a4,4,0,0,0-1.25-2.93,4.1,4.1,0,0,0-3-1.22h-.79l-.06-.65h5.26Zm0,36.41v4.8h-5.26v-.66h.85a4,4,0,0,0,2.93-1.22,4.24,4.24,0,0,0,1.28-2.92Zm4.07-41.21v46H258.5v-46Zm17.75,0v2H262.57v-2Zm-2.83,22.35v2H262.57v-2Zm2.83,21.62v2H262.57v-2Zm4-8.61-3.82,10.65H269.8l2.37-2a13,13,0,0,0,5.69-1.08,9.4,9.4,0,0,0,3.58-3.06,24,24,0,0,0,2.43-4.47Zm-4-36.55v1.91l-8-.72a25.42,25.42,0,0,0,3.05-.2c1.08-.13,2.07-.29,3-.46A9.29,9.29,0,0,0,280.52,713Zm-2.83,19.33v4.34h-3.81v-.13a3.27,3.27,0,0,0,2.23-1,3.13,3.13,0,0,0,.92-2.27v-.92Zm0,6.05v4.33H277v-1a3.13,3.13,0,0,0-.92-2.27,3,3,0,0,0-2.23-1v-.13ZM280.52,716v5.26h-.66v-1.19a3.78,3.78,0,0,0-1.12-2.73,4,4,0,0,0-2.76-1.21V716Z"/><path class="cls-2" d="M320.41,714.17v46a14.19,14.19,0,0,1-.92,5.16,12.81,12.81,0,0,1-2.56,4.17,12.25,12.25,0,0,1-3.81,2.79,10.84,10.84,0,0,1-4.67,1v-.59a9.65,9.65,0,0,0,3.91-2.73,14.65,14.65,0,0,0,2.76-4.57,14.93,14.93,0,0,0,1-5.45V714.17Zm-4.07,4.8h-.2a4.22,4.22,0,0,0-1.28-2.93,4,4,0,0,0-2.93-1.22h-.85v-.65h5.26Zm3.88,0v-4.8h5.25v.65h-.85a4,4,0,0,0-2.93,1.22,4.27,4.27,0,0,0-1.28,2.93Z"/><path class="cls-2" d="M357.62,755.38a3.31,3.31,0,0,0-.14,2.23,2.7,2.7,0,0,0,1.09,1.42,2.77,2.77,0,0,0,1.54.49h.59v.66H347.49v-.66h.59a6.21,6.21,0,0,0,3.13-.95,7.06,7.06,0,0,0,2.66-3.19Zm14.13-42.13.59,4.6L355.84,760H351.9l16.82-40c.48-1.1.89-2,1.22-2.83s.61-1.55.85-2.3a6,6,0,0,0,.36-1.64Zm9.26,29v2H360.44v-2Zm-9.26-29,19.45,46.53h-5.59l-15.18-40.29ZM384,755.38h5.39a6.66,6.66,0,0,0,2.63,3.19,6.34,6.34,0,0,0,3.16.95h.52v.66H380.88v-.66h.59a3,3,0,0,0,2.24-1.08A2.84,2.84,0,0,0,384,755.38Z"/><path class="cls-2" d="M431.16,713.25a20.61,20.61,0,0,1,2.27.13q1.21.14,2.37.36c.76.15,1.46.31,2.1.46a6.62,6.62,0,0,1,1.48.5V722h-.59a6.12,6.12,0,0,0-2.17-5,7.93,7.93,0,0,0-5.26-1.81,7.82,7.82,0,0,0-5.85,2.27,7.3,7.3,0,0,0-2.24,5.29,9.53,9.53,0,0,0,.56,2.92,7.85,7.85,0,0,0,2.08,3.13l12.94,12a9.12,9.12,0,0,1,2.63,3.94,13.58,13.58,0,0,1,.66,4.08,12.22,12.22,0,0,1-3.32,8.87,11.91,11.91,0,0,1-9,3.42,24.93,24.93,0,0,1-3.72-.33,18.2,18.2,0,0,1-4.14-1.15,9.91,9.91,0,0,1-3.31-2.14,13.79,13.79,0,0,1-.2-2.63,23,23,0,0,1,.26-3.32,21.14,21.14,0,0,1,.72-3.19h.6a10.89,10.89,0,0,0,.85,5.86,8.28,8.28,0,0,0,3.45,3.77,9.24,9.24,0,0,0,5.16,1.15,9.78,9.78,0,0,0,6.21-2.53,8,8,0,0,0,2.6-6.27,8.7,8.7,0,0,0-.66-3.45,7.45,7.45,0,0,0-1.91-2.67l-12.62-11.7a10.3,10.3,0,0,1-2.76-4,12.32,12.32,0,0,1-.78-4.1,11.5,11.5,0,0,1,1.31-5.33,10.42,10.42,0,0,1,3.91-4.17A11.73,11.73,0,0,1,431.16,713.25Zm8.22.65v1.39h-5V713.9Z"/><path class="cls-2" d="M540.53,738.55a23,23,0,0,1,.4,6.91,19.08,19.08,0,0,1-1.61,6.07,16,16,0,0,1-3.48,4.9,15.58,15.58,0,0,1-5.23,3.26,19.08,19.08,0,0,1-6.77,1.14,35.38,35.38,0,0,1-7-.65,21.33,21.33,0,0,1-5.62-1.94,14.7,14.7,0,0,1-4.11-3.16,12.72,12.72,0,0,1-2.53-4.27,15.89,15.89,0,0,1-.85-5.35,13.42,13.42,0,0,1,.43-3.52,12,12,0,0,1,3.08-5.46,18.71,18.71,0,0,1,2.4-2,16.57,16.57,0,0,1,2.83-1.58l.92,1.44a12.34,12.34,0,0,0-2.24,2.34,14.08,14.08,0,0,0-1.51,2.7,13.34,13.34,0,0,0-.85,3,18.11,18.11,0,0,0-.26,3.13,14.1,14.1,0,0,0,1,5.42,11.9,11.9,0,0,0,3,4.24,13.57,13.57,0,0,0,4.8,2.76,20.21,20.21,0,0,0,6.54,1,12.72,12.72,0,0,0,5.95-1.35,13.29,13.29,0,0,0,4.34-3.54,15.62,15.62,0,0,0,3.31-10.32,12.51,12.51,0,0,0-1.31-5.1,6.79,6.79,0,0,0-1.68-2.17,3.89,3.89,0,0,0-2.59-.85h-1v-.66H544v.66h-1a2.37,2.37,0,0,0-2.07.85A2.66,2.66,0,0,0,540.53,738.55Zm-18.14-25.3a15.73,15.73,0,0,1,4.34.59,16.76,16.76,0,0,1,3.88,1.61,10.71,10.71,0,0,1,3,2.46l-1.19,7.43h-.65a11.56,11.56,0,0,0-1.19-5.42,8.42,8.42,0,0,0-3.25-3.48,9.4,9.4,0,0,0-4.9-1.22,8.15,8.15,0,0,0-6.21,2.63,9.32,9.32,0,0,0-2.46,6.64,12.5,12.5,0,0,0,2.69,7.69,60.76,60.76,0,0,0,7.76,8.08c1,.83,2,1.79,3.19,2.86s2.49,2.27,4,3.58,3.2,2.76,5.09,4.34q2.1,1.71,4.31,3.61a29.9,29.9,0,0,0,4.53,3.29,11.07,11.07,0,0,0,4.83,1.58v.66c-.83,0-2,0-3.58-.07a19.69,19.69,0,0,1-5.16-.92,16.65,16.65,0,0,1-5.65-3.15q-2.5-2-4.57-3.78L527.36,749c-1.17-1-2.25-1.93-3.26-2.83l-3-2.66q-3.81-3.56-6.47-6.41a23.38,23.38,0,0,1-4.07-5.85,15.61,15.61,0,0,1-1.42-6.8,10.8,10.8,0,0,1,.92-4.47,10.34,10.34,0,0,1,2.66-3.55,12.73,12.73,0,0,1,4.18-2.37A16.36,16.36,0,0,1,522.39,713.25Z"/><path class="cls-2" d="M609.28,719h-.19a4,4,0,0,0-1.25-2.93,4.1,4.1,0,0,0-3-1.22h-.79l-.06-.65h5.25Zm0,36.41v4.8H604v-.66h.85a4,4,0,0,0,2.93-1.22,4.24,4.24,0,0,0,1.28-2.92Zm4.08-41.21v46h-4.27v-46Zm7.82,0a16,16,0,0,1,7.23,1.51,10.9,10.9,0,0,1,4.67,4.37,13.5,13.5,0,0,1,1.64,6.8,12.1,12.1,0,0,1-1.18,5.43,12.32,12.32,0,0,1-3.16,4,13.58,13.58,0,0,1-9.63,3.09,12.94,12.94,0,0,1-5.15-1.52v-.65a19.42,19.42,0,0,0,4,.23,15.22,15.22,0,0,0,3.68-.72,9.55,9.55,0,0,0,3.62-2.21,9.81,9.81,0,0,0,2.53-4.4,13.59,13.59,0,0,0,.33-1.81,11.81,11.81,0,0,0,.06-2.14,11.28,11.28,0,0,0-2.36-7.29,8,8,0,0,0-6.51-2.76h-7.76c-.22-.66-.44-1.32-.65-2Zm-8,41.21h.2a4.2,4.2,0,0,0,1.28,2.92,4,4,0,0,0,2.93,1.22h.85v.66h-5.26Z"/><path class="cls-2" d="M666.6,719h-.2a3.92,3.92,0,0,0-1.25-2.93,4.1,4.1,0,0,0-3-1.22h-.78l-.07-.65h5.26Zm0,36.41v4.8h-5.26v-.66h.85a4,4,0,0,0,2.93-1.22,4.2,4.2,0,0,0,1.28-2.92Zm4.07-41.21v46H666.4v-46Zm17.75,0v2H670.48v-2Zm-2.83,22.35v2H670.48v-2Zm2.83,21.62v2H670.48v-2Zm4-8.61-3.81,10.65H677.71l2.36-2a12.94,12.94,0,0,0,5.69-1.08,9.33,9.33,0,0,0,3.58-3.06,24,24,0,0,0,2.43-4.47Zm-4-36.55v1.91l-8-.72a25.58,25.58,0,0,0,3.06-.2c1.07-.13,2.07-.29,3-.46A9.11,9.11,0,0,0,688.42,713Zm-2.83,19.33v4.34h-3.81v-.13a3.3,3.3,0,0,0,2.24-1,3.17,3.17,0,0,0,.92-2.27v-.92Zm0,6.05v4.33h-.65v-1a3.17,3.17,0,0,0-.92-2.27,3,3,0,0,0-2.24-1v-.13ZM688.42,716v5.26h-.66v-1.19a3.81,3.81,0,0,0-1.11-2.73,4,4,0,0,0-2.76-1.21V716Z"/><path class="cls-2" d="M731.54,713.25a20.43,20.43,0,0,1,2.26.13q1.22.14,2.37.36c.77.15,1.47.31,2.1.46a6.62,6.62,0,0,1,1.48.5V722h-.59a6.09,6.09,0,0,0-2.17-5,7.91,7.91,0,0,0-5.26-1.81,7.82,7.82,0,0,0-5.85,2.27,7.29,7.29,0,0,0-2.23,5.29,9.53,9.53,0,0,0,.56,2.92,7.71,7.71,0,0,0,2.07,3.13l13,12a9.21,9.21,0,0,1,2.63,3.94,13.88,13.88,0,0,1,.65,4.08,12.18,12.18,0,0,1-3.32,8.87,11.91,11.91,0,0,1-9,3.42,24.7,24.7,0,0,1-3.71-.33,17.92,17.92,0,0,1-4.14-1.15,9.86,9.86,0,0,1-3.32-2.14,14.66,14.66,0,0,1-.2-2.63,23,23,0,0,1,.26-3.32,21.11,21.11,0,0,1,.73-3.19h.59a11.08,11.08,0,0,0,.85,5.86,8.28,8.28,0,0,0,3.45,3.77,9.28,9.28,0,0,0,5.16,1.15,9.78,9.78,0,0,0,6.21-2.53,8,8,0,0,0,2.6-6.27,8.7,8.7,0,0,0-.66-3.45,7.55,7.55,0,0,0-1.9-2.67l-12.62-11.7a10.09,10.09,0,0,1-2.76-4,12.1,12.1,0,0,1-.79-4.1,11.63,11.63,0,0,1,1.31-5.33,10.49,10.49,0,0,1,3.91-4.17A11.79,11.79,0,0,1,731.54,713.25Zm8.21.65v1.39h-5V713.9Z"/><path class="cls-2" d="M767.29,712.92a12.17,12.17,0,0,0,2,.52c.89.18,1.89.34,3,.46a23.75,23.75,0,0,0,3,.2l-8,.72Zm38.06,1.18v2H767.29v-2Zm-33.52,1.78v.19a4,4,0,0,0-2.76,1.19A3.72,3.72,0,0,0,768,720v1.11l-.66.07v-5.32Zm12.55,39.5v4.8h-5.26v-.66H780a3.94,3.94,0,0,0,2.92-1.22,4.26,4.26,0,0,0,1.29-2.92Zm4.08-41v45.81h-4.27V714.37Zm-.2,41h.2a4.2,4.2,0,0,0,1.28,2.92,4,4,0,0,0,2.93,1.22h.85v.66h-5.26Zm17.09-42.46v1.9l-8-.72a23.77,23.77,0,0,0,3.06-.2c1.07-.12,2.07-.28,3-.46A9.89,9.89,0,0,0,805.35,712.92Zm0,3v5.32l-.66-.07V720a3.67,3.67,0,0,0-1.15-2.76,4,4,0,0,0-2.73-1.19v-.19Z"/><path class="cls-2" d="M831.18,755.38a3.31,3.31,0,0,0-.13,2.23,2.74,2.74,0,0,0,1.08,1.42,2.8,2.8,0,0,0,1.55.49h.59v.66H821.06v-.66h.59a6.15,6.15,0,0,0,3.12-.95,7,7,0,0,0,2.66-3.19Zm14.13-42.13.59,4.6L829.41,760h-3.95l16.83-40c.48-1.1.89-2,1.22-2.83s.61-1.55.85-2.3a6,6,0,0,0,.36-1.64Zm9.27,29v2H834v-2Zm-9.27-29,19.46,46.53h-5.59L844,719.49Zm12.23,42.13h5.39a6.56,6.56,0,0,0,2.63,3.19,6.31,6.31,0,0,0,3.15.95h.53v.66H854.45v-.66H855a3,3,0,0,0,2.23-1.08A2.84,2.84,0,0,0,857.54,755.38Z"/><path class="cls-2" d="M896.65,755.51v4.67h-5.46v-.66h1.25a4,4,0,0,0,4-4Zm-.14-42.33,2.9,3.68.06,43.32h-3V721.4a70.76,70.76,0,0,0-.59-8.22Zm0,0,38.19,40.75.59,7.17-38.18-40.69Zm3,42.33a4,4,0,0,0,4,4h1.25v.66h-5.46v-4.67Zm9.2-45.75h.66a6,6,0,0,1,.89-1.51,3.08,3.08,0,0,1,1.18-.88,3.66,3.66,0,0,1,1.48-.3,4.94,4.94,0,0,1,2.4.72c.85.48,1.76,1,2.73,1.45a6.28,6.28,0,0,0,2.82.72,3.49,3.49,0,0,0,1.58-.36,4,4,0,0,0,1.28-1,5.36,5.36,0,0,0,.92-1.64,9,9,0,0,0,.49-2.17h-.65a3.46,3.46,0,0,1-.79,1.25,3,3,0,0,1-1.22.75,4.89,4.89,0,0,1-1.61.23,4.75,4.75,0,0,1-2.36-.72c-.84-.48-1.72-.95-2.66-1.41a6.63,6.63,0,0,0-2.93-.69,3,3,0,0,0-1.48.39,4.15,4.15,0,0,0-1.22,1.12,7.87,7.87,0,0,0-.92,1.74A11.16,11.16,0,0,0,908.67,709.76ZM927,714.17h5.46v4.66h-.13a4.16,4.16,0,0,0-1.22-2.86,3.91,3.91,0,0,0-2.86-1.15H927Zm8.28,0v38.51c0,1.41.05,2.75.13,4.05s.25,2.75.46,4.37h-.59l-2.95-3.49V714.17Zm5.26,0v.65h-1.18a3.94,3.94,0,0,0-2.83,1.15,4.1,4.1,0,0,0-1.25,2.86h-.19v-4.66Z"/><path class="cls-2" d="M971.71,755.38a3.31,3.31,0,0,0-.14,2.23,2.7,2.7,0,0,0,1.09,1.42,2.77,2.77,0,0,0,1.54.49h.6v.66H961.58v-.66h.59a6.21,6.21,0,0,0,3.13-.95,7.06,7.06,0,0,0,2.66-3.19Zm14.13-42.13.59,4.6L969.93,760H966l16.82-40c.49-1.1.89-2,1.22-2.83s.61-1.55.85-2.3a6.15,6.15,0,0,0,.37-1.64Zm9.27,29v2H974.53v-2Zm-9.27-29,19.45,46.53h-5.58l-15.19-40.29Zm12.22,42.13h5.39a6.66,6.66,0,0,0,2.63,3.19,6.37,6.37,0,0,0,3.16.95h.52v.66H995v-.66h.6a3,3,0,0,0,2.23-1.08A2.84,2.84,0,0,0,998.06,755.38Z"/><path class="cls-2" d="M1045.25,713.25a20.61,20.61,0,0,1,2.27.13q1.21.14,2.37.36c.76.15,1.46.31,2.1.46a6.62,6.62,0,0,1,1.48.5V722h-.59a6.09,6.09,0,0,0-2.17-5,7.93,7.93,0,0,0-5.26-1.81,7.82,7.82,0,0,0-5.85,2.27,7.29,7.29,0,0,0-2.23,5.29,9.48,9.48,0,0,0,.55,2.92,7.85,7.85,0,0,0,2.08,3.13l12.94,12a9,9,0,0,1,2.63,3.94,13.58,13.58,0,0,1,.66,4.08,12.22,12.22,0,0,1-3.32,8.87,11.91,11.91,0,0,1-9,3.42,24.7,24.7,0,0,1-3.71-.33,18.14,18.14,0,0,1-4.15-1.15,9.91,9.91,0,0,1-3.31-2.14,13.79,13.79,0,0,1-.2-2.63,23,23,0,0,1,.26-3.32,22.44,22.44,0,0,1,.72-3.19h.6a11,11,0,0,0,.85,5.86,8.28,8.28,0,0,0,3.45,3.77,9.24,9.24,0,0,0,5.16,1.15,9.78,9.78,0,0,0,6.21-2.53,8,8,0,0,0,2.6-6.27,8.7,8.7,0,0,0-.66-3.45,7.45,7.45,0,0,0-1.91-2.67l-12.61-11.7a10.22,10.22,0,0,1-2.77-4,12.32,12.32,0,0,1-.78-4.1A11.5,11.5,0,0,1,1035,719a10.49,10.49,0,0,1,3.91-4.17A11.76,11.76,0,0,1,1045.25,713.25Zm8.22.65v1.39h-5V713.9Z"/><path class="cls-3" d="M532.88,270.66c37.7-2.81,75.37-5.17,112.16-14.63,43.7-11.22,81-31.83,111.49-62.5,1-1,2-2,3-3,4.45-4.66,8.79-9.53,12.94-14.65,3.5-4.26,6.86-8.67,10.13-13.26,1.46-2.06,3.08-4,5-6.44.09-.1.16-.21.26-.33a2,2,0,0,1,0,.42c-.23,4.45-3.1,12.49-7.83,22-2.65,5.29-5.87,11-9.51,16.81-.67,1.07-1.37,2.16-2.06,3.22-2.48,3.76-5.13,7.51-7.91,11.15C748.23,225.41,734,240,721,254.92h17.87l-9.53,4.94c.07.69.14,1.39.24,2.11l30.06-3.55.42,1.23c-8.32,2.29-16.64,4.56-25.48,7,22.28,3.08,42.92-1.88,63.13-9.76.33.69.65,1.41,1,2.11-8.63,4.26-17.23,8.53-25.57,12.63.74.21,2.27.63,4.66,1.25l-7.61,5.36c11.66-1.63,20.94-2.9,30.21-4.18l.42,1.4q-9.7,3.3-19.43,6.63c.07.41.16.83.25,1.25,10.67-.7,21.33-1.37,32-2.07.09.93.19,1.86.26,2.79L758.64,290l54.55,5.17c.14.46.28.95.44,1.41l-52.25,6.75,1.29.86-12.75,1.2v1.09h36.17c.07.53.16,1.07.23,1.6l-46.11,7.58c0,.6-.05,1.18-.07,1.79l30.07,2.69c-7.81,4.31-18.29,4.26-52.35.34l19.52,5.92c0,.3-.09.6-.16.9q-8.94-.66-17.92-1.37c-.12.58-.26,1.16-.37,1.74,5.72,2.06,11.45,4.13,17.15,6.17l-.07.9c-10.59-.62-21.42-.09-31.69-2.22-10.62-2.18-20.7-7-29.81-10.18,7,11.73,19.4,16.83,33.24,19.7-15.57.31-29.76-4.31-44-10.85,3.29,2.55,6.49,5.27,10,7.61,3.64,2.48,7.53,4.63,10.66,8.76-8.65-3-17.29-6-25.85-9l1.81,2.69c-.23.51-.49,1-.72,1.5l-23.55-12.42c11.29,11.31,25.27,18.15,41,23.64-12.68,1.16-23.06-3.43-55.64-24.25,1.83,3.13,3.09,5.31,4.34,7.49L624,338.91c-8.11-8.86-16.23-17.71-24.25-26.45,5.22,15.58,15.88,27.1,29.49,36.42-16.53-4.68-28.38-15.53-39.88-27.94,4.85,7.51,9.67,15,14.7,22.89l-22-9.6c1,1.94,1.83,3.57,3.89,7.62l-14.83-10.66c-.35.26-.7.51-1,.79q5.46,7.13,11,14.26l-1.41,1.27-18-18.92c-.3.56-.95,1.67-1.83,3.18-2.18-4.57-4.17-8.81-6.19-13l-1,.25c.49,3.48,1,6.93,1.46,10.41-.32.14-.65.3-1,.47-3.27-5.54-6.54-11.09-10.11-17.16,1,11.41,2,21.72,2.92,32.06-.6.05-1.23.07-1.83.12-2-7.4-3.94-14.84-6.15-22.16-.64-2.18-2.15-4.08-4.82-5.94v21.79l-.92-.11q-3.31-12.9-6.59-25.85l-2.08.48,4.86,21.29-1.25.34q-5.15-12-10.29-24c-.63.19-1.23.37-1.86.54.21,3.57.44,7.14.77,12.47-3.48-6-6.08-10.46-9.51-16.39.47,10.34.86,18.75,1.23,27.15l-1.27.13c-2.85-9.5-5.68-19-9.21-30.76-2,3.25-2.62,4.2-3.36,5.38l-9.13-9.88c3,7.93,5.24,13.77,7.46,19.59l-1.46.63c-3.27-4.43-6.54-8.88-9.8-13.31l-1.37.56q1.29,5.91,2.57,11.84l-1.27.56q-4-7-8-13.91l-.9.4q2.53,10.61,5,21.23c-.32.12-.67.21-1,.33l-14.19-23.58c-.67.32-1.34.62-2,.95l4.7,13.7c-.44.16-.88.35-1.34.53a78.39,78.39,0,0,0-5.64-7.9c-8.83-9.85-19.17-14.72-32.85-10.78-16.29,4.7-30.32,12.59-41.91,25.64a43.74,43.74,0,0,1,2.73-5.73c15.77-23.92,39.55-35.79,66.47-40.43S505.74,272.65,532.88,270.66ZM978.3,124.58c-2.13-1.46-4.36-2.85-6.42-4.42C883.34,52.11,787,37.3,684.06,81.46,659.67,91.94,636,104,612.4,116.4c-1,.51-2,1-3,1.58l-13,6.81c-4.8,2.53-9.62,5-14.42,7.54-1.85,1-3.71,1.92-5.56,2.87-6,3.15-12.1,6.24-18.2,9.3l-5,2.48c-.17.09-.33.16-.49.23C529.87,158.5,507,169.88,484.08,181c-20.44,9.88-41,19.5-61.73,28.64a207.09,207.09,0,0,1-24.67,9,198.26,198.26,0,0,1-58.4,8.18c-1,0-2,0-3,0-2.37,0-4.73-.51-9.88-1.12,3.66-9.45,7.39-18.29,10.71-27.14,1-2.6,1.9-5.17,2.78-7.79a49.32,49.32,0,0,1,2-5c5.49-11.89,14.81-18.85,27.56-25.29,28.4-14.35,56.5-29.28,84.48-44.44,2.78-1.49,5.54-3,8.32-4.53,4.78-2.59,9.53-5.16,14.28-7.78Q495,93.58,513.57,83.39c5.61-3.09,11.25-6.17,16.86-9.25C579,47.55,627.73,21.19,681.9,8.07c98.63-23.91,182.94,7,257.48,71,15,12.91,27.63,28.58,41.38,43C979.92,122.84,979.11,123.73,978.3,124.58Z"/><path class="cls-4" d="M813.63,296.53l-52.25,6.75,1.29.86-12.75,1.2v1.09h36.17c.07.53.16,1.07.23,1.6l-46.11,7.58c0,.6-.05,1.18-.07,1.79l30.07,2.69c-7.81,4.31-18.29,4.26-52.35.34l19.52,5.92c0,.3-.09.6-.16.9q-8.94-.66-17.92-1.37c-.12.58-.26,1.16-.37,1.74,5.72,2.06,11.45,4.13,17.15,6.17l-.07.9c-10.59-.62-21.42-.09-31.69-2.22-10.62-2.18-20.7-7-29.81-10.18,7,11.73,19.4,16.83,33.24,19.7-15.57.31-29.76-4.31-44-10.85,3.29,2.55,6.49,5.27,10,7.61,3.64,2.48,7.53,4.63,10.66,8.76-8.65-3-17.29-6-25.85-9l1.81,2.69c-.23.51-.49,1-.72,1.5l-23.55-12.42c11.29,11.31,25.27,18.15,41,23.64-12.68,1.16-23.06-3.43-55.64-24.25,1.83,3.13,3.09,5.31,4.34,7.49L624,338.91c-8.11-8.86-16.23-17.71-24.25-26.45,5.22,15.58,15.88,27.1,29.49,36.42-16.53-4.68-28.38-15.53-39.88-27.94,4.85,7.51,9.67,15,14.7,22.89l-22-9.6c1,1.94,1.83,3.57,3.89,7.62l-14.83-10.66c-.35.26-.7.51-1,.79q5.46,7.13,11,14.26l-1.41,1.27-18-18.92c-.3.56-.95,1.67-1.83,3.18-2.18-4.57-4.17-8.81-6.19-13l-1,.25c.49,3.48,1,6.93,1.46,10.41-.32.14-.65.3-1,.47-3.27-5.54-6.54-11.09-10.11-17.16,1,11.41,2,21.72,2.92,32.06-.6.05-1.23.07-1.83.12-2-7.4-3.94-14.84-6.15-22.16-.64-2.18-2.15-4.08-4.82-5.94v21.79l-.92-.11q-3.31-12.9-6.59-25.85l-2.08.48,4.86,21.29-1.25.34q-5.15-12-10.29-24c-.63.19-1.23.37-1.86.54.21,3.57.44,7.14.77,12.47-3.48-6-6.08-10.46-9.51-16.39.47,10.34.86,18.75,1.23,27.15l-1.27.13c-2.85-9.5-5.68-19-9.21-30.76-2,3.25-2.62,4.2-3.36,5.38l-9.13-9.88c3,7.93,5.24,13.77,7.46,19.59l-1.46.63c-3.27-4.43-6.54-8.88-9.8-13.31l-1.37.56q1.29,5.91,2.57,11.84l-1.27.56q-4-7-8-13.91l-.9.4q2.53,10.61,5,21.23c-.32.12-.67.21-1,.33l-14.19-23.58c-.67.32-1.34.62-2,.95l4.7,13.7c-.44.16-.88.35-1.34.53a78.39,78.39,0,0,0-5.64-7.9c-8.83-9.85-19.17-14.72-32.85-10.78-16.29,4.7-30.32,12.59-41.91,25.64a43.74,43.74,0,0,1,2.73-5.73c15.77-23.92,39.55-35.79,66.47-40.43s54-7.05,81.16-9c37.7-2.81,75.37-5.17,112.16-14.63,43.7-11.22,81-31.83,111.49-62.5,1-1,2-2,3-3,4.45-4.66,8.79-9.53,12.94-14.65,3.5-4.26,6.86-8.67,10.13-13.26,1.46-2.06,3.08-4,5-6.44.09-.1.16-.21.26-.33a2,2,0,0,1,0,.42c-.23,4.45-3.1,12.49-7.83,22-2.65,5.29-5.87,11-9.51,16.81-.67,1.07-1.37,2.16-2.06,3.22-2.48,3.76-5.13,7.51-7.91,11.15C748.23,225.41,734,240,721,254.92h17.87l-9.53,4.94c.07.69.14,1.39.24,2.11l30.06-3.55.42,1.23c-8.32,2.29-16.64,4.56-25.48,7,22.28,3.08,42.92-1.88,63.13-9.76.33.69.65,1.41,1,2.11-8.63,4.26-17.23,8.53-25.57,12.63.74.21,2.27.63,4.66,1.25l-7.61,5.36c11.66-1.63,20.94-2.9,30.21-4.18l.42,1.4q-9.7,3.3-19.43,6.63c.07.41.16.83.25,1.25,10.67-.7,21.33-1.37,32-2.07.09.93.19,1.86.26,2.79L758.64,290l54.55,5.17C813.33,295.58,813.47,296.07,813.63,296.53Z"/><path class="cls-5" d="M813.63,296.53l-52.25,6.75,1.29.86-12.75,1.2v1.09h36.17c.07.53.16,1.07.23,1.6l-46.11,7.58c0,.6-.05,1.18-.07,1.79l30.07,2.69c-7.81,4.31-18.29,4.26-52.35.34l19.52,5.92c0,.3-.09.6-.16.9q-8.94-.66-17.92-1.37c-.12.58-.26,1.16-.37,1.74,5.72,2.06,11.45,4.13,17.15,6.17l-.07.9c-10.59-.62-21.42-.09-31.69-2.22-10.62-2.18-20.7-7-29.81-10.18,7,11.73,19.4,16.83,33.24,19.7-15.57.31-29.76-4.31-44-10.85,3.29,2.55,6.49,5.27,10,7.61,3.64,2.48,7.53,4.63,10.66,8.76-8.65-3-17.29-6-25.85-9l1.81,2.69c-.23.51-.49,1-.72,1.5l-23.55-12.42c11.29,11.31,25.27,18.15,41,23.64-12.68,1.16-23.06-3.43-55.64-24.25,1.83,3.13,3.09,5.31,4.34,7.49L624,338.91c-8.11-8.86-16.23-17.71-24.25-26.45,5.22,15.58,15.88,27.1,29.49,36.42-16.53-4.68-28.38-15.53-39.88-27.94,4.85,7.51,9.67,15,14.7,22.89l-22-9.6c1,1.94,1.83,3.57,3.89,7.62l-14.83-10.66c-.35.26-.7.51-1,.79q5.46,7.13,11,14.26l-1.41,1.27-18-18.92c-.3.56-.95,1.67-1.83,3.18-2.18-4.57-4.17-8.81-6.19-13l-1,.25c.49,3.48,1,6.93,1.46,10.41-.32.14-.65.3-1,.47-3.27-5.54-6.54-11.09-10.11-17.16,1,11.41,2,21.72,2.92,32.06-.6.05-1.23.07-1.83.12-2-7.4-3.94-14.84-6.15-22.16-.64-2.18-2.15-4.08-4.82-5.94v21.79l-.92-.11q-3.31-12.9-6.59-25.85l-2.08.48,4.86,21.29-1.25.34q-5.15-12-10.29-24c-.63.19-1.23.37-1.86.54.21,3.57.44,7.14.77,12.47-3.48-6-6.08-10.46-9.51-16.39.47,10.34.86,18.75,1.23,27.15l-1.27.13c-2.85-9.5-5.68-19-9.21-30.76-2,3.25-2.62,4.2-3.36,5.38l-9.13-9.88c3,7.93,5.24,13.77,7.46,19.59l-1.46.63c-3.27-4.43-6.54-8.88-9.8-13.31l-1.37.56q1.29,5.91,2.57,11.84l-1.27.56q-4-7-8-13.91l-.9.4q2.53,10.61,5,21.23c-.32.12-.67.21-1,.33l-14.19-23.58c-.67.32-1.34.62-2,.95l4.7,13.7c-.44.16-.88.35-1.34.53a78.39,78.39,0,0,0-5.64-7.9c-8.83-9.85-19.17-14.72-32.85-10.78-16.29,4.7-30.32,12.59-41.91,25.64a43.74,43.74,0,0,1,2.73-5.73c15.77-23.92,39.55-35.79,66.47-40.43s54-7.05,81.16-9c37.7-2.81,75.37-5.17,112.16-14.63,43.7-11.22,81-31.83,111.49-62.5,1-1,2-2,3-3,4.45-4.66,8.79-9.53,12.94-14.65,3.5-4.26,6.86-8.67,10.13-13.26,1.46-2.06,3.08-4,5-6.44.09-.1.16-.21.26-.33a2,2,0,0,1,0,.42c-.23,4.45-3.1,12.49-7.83,22-2.65,5.29-5.87,11-9.51,16.81-.67,1.07-1.37,2.16-2.06,3.22-2.48,3.76-5.13,7.51-7.91,11.15C748.23,225.41,734,240,721,254.92h17.87l-9.53,4.94c.07.69.14,1.39.24,2.11l30.06-3.55.42,1.23c-8.32,2.29-16.64,4.56-25.48,7,22.28,3.08,42.92-1.88,63.13-9.76.33.69.65,1.41,1,2.11-8.63,4.26-17.23,8.53-25.57,12.63.74.21,2.27.63,4.66,1.25l-7.61,5.36c11.66-1.63,20.94-2.9,30.21-4.18l.42,1.4q-9.7,3.3-19.43,6.63c.07.41.16.83.25,1.25,10.67-.7,21.33-1.37,32-2.07.09.93.19,1.86.26,2.79L758.64,290l54.55,5.17C813.33,295.58,813.47,296.07,813.63,296.53Z"/><path class="cls-6" d="M980.76,122c-.84.85-1.65,1.74-2.46,2.59-2.13-1.46-4.36-2.85-6.42-4.42C883.34,52.11,787,37.3,684.06,81.46,659.67,91.94,636,104,612.4,116.4c-1,.51-2,1-3,1.58l-13,6.81c-4.8,2.53-9.62,5-14.42,7.54-1.85,1-3.71,1.92-5.56,2.87-6,3.15-12.1,6.24-18.2,9.3l-5,2.48c-.17.09-.33.16-.49.23C529.87,158.5,507,169.88,484.08,181c-20.44,9.88-41,19.5-61.73,28.64a207.09,207.09,0,0,1-24.67,9,198.26,198.26,0,0,1-58.4,8.18c-1,0-2,0-3,0-2.37,0-4.73-.51-9.88-1.12,3.66-9.45,7.39-18.29,10.71-27.14,1-2.6,1.9-5.17,2.78-7.79a49.32,49.32,0,0,1,2-5c5.49-11.89,14.81-18.85,27.56-25.29,28.4-14.35,56.5-29.28,84.48-44.44,2.78-1.49,5.54-3,8.32-4.53,4.78-2.59,9.53-5.16,14.28-7.78Q495,93.58,513.57,83.39c5.61-3.09,11.25-6.17,16.86-9.25C579,47.55,627.73,21.19,681.9,8.07c98.63-23.91,182.94,7,257.48,71C954.37,91.94,967,107.61,980.76,122Z"/><path class="cls-7" d="M278.17,232.57q-95.1,82.2-137.33,200.81h10c24-73.49,69.62-139.93,129.41-192.19A47.47,47.47,0,0,1,278.17,232.57Zm13.59,27.33q-7,5.43-13.75,11.18c-53.3,45.09-95.14,99.06-124.59,162.3h17.65c27.14-58.72,65.63-110.09,115-154.19a12.7,12.7,0,0,1,5.82-3q-65.55,71.64-100.27,157.23h8.3A480.8,480.8,0,0,1,261.5,335a486.75,486.75,0,0,1,58.24-61A48.47,48.47,0,0,1,291.76,259.9Zm774,173.48h21q-8.16-20.31-18.38-39.9A476.91,476.91,0,0,0,960.31,254.92c-38.16-33.69-80.07-61.25-126.46-81.19a134.14,134.14,0,0,1-8.19,21.68A376.18,376.18,0,0,1,871.1,219c15.91,9.74,30,22.89,43.45,36.05a485.77,485.77,0,0,1,115.59,178.35h8.46Q1012.86,360,962,295.63c-7-8.81-14.37-17.3-21.56-25.92C992.58,311.55,1036,368.24,1065.72,433.38ZM779.2,1071.89c19.85-11,39.79-21,58.7-32.6,68-41.82,121.69-97.74,161.5-167a481.36,481.36,0,0,0,25.75-51.77h-5.05A457.17,457.17,0,0,1,936,947.86c-71.43,76.87-158.78,124.89-261.83,143-23.23,4.1-47.89,2.64-71.66.72A480.1,480.1,0,0,1,455.43,1056a450.86,450.86,0,0,1-41.15-19.7c133.16,45.94,263.82,43.9,390.59-20.45,90.6-46,157.2-111.84,202.73-195.34h-9.34A489.38,489.38,0,0,1,953,886c-77.5,95.05-178,151.71-299.29,169.49-85.18,12.47-167.5-.28-247.41-32.85C324.42,989.26,267,930,222.53,856.08q-10.5-17.46-19.24-35.54h-8.83q11.61,28.34,26.4,56a333.87,333.87,0,0,1-39-56h-9c8.71,14.86,17.52,29.63,27.3,43.74,13.59,19.55,29.12,37.89,45.17,55.53,18.24,20,38.15,38.55,57.07,58,26.13,26.94,56.06,48.9,87.89,68.46,2.29,1.42,4.54,2.88,7.65,4.82-23.21,0-98-52.39-146.47-102.93a418.49,418.49,0,0,1-83.78-127.62H147.26q47,111.24,143,188.24c58.08,46.56,124,77.25,196.94,92.55,40.74,8.53,81.93,11.59,123.8,10.25a446.24,446.24,0,0,0,116.33-9.34c95.66-20.38,178.61-65,248.2-133.79,43.42-42.92,77.09-92.71,102.4-147.91h-9.37C1007.77,953.93,888,1045.07,779.2,1071.89Z"/></g></g></svg>