<svg xmlns="http://www.w3.org/2000/svg" xmlns:xlink="http://www.w3.org/1999/xlink" viewBox="0 0 1349.78 1179.13"><defs><style>.cls-1{fill:#fff;}.cls-2{fill:url(#Degradado_sin_nombre_6);}</style><linearGradient id="Degradado_sin_nombre_6" x1="149.32" y1="681.66" x2="1152.21" y2="681.66" gradientUnits="userSpaceOnUse"><stop offset="0" stop-color="#d69c47"/><stop offset="0.1" stop-color="#8c5e1c"/><stop offset="0.13" stop-color="#9c6f27"/><stop offset="0.17" stop-color="#c59c43"/><stop offset="0.23" stop-color="#fedb6b"/><stop offset="0.25" stop-color="#dfba57"/><stop offset="0.29" stop-color="#8f6724"/><stop offset="0.31" stop-color="#704710"/><stop offset="0.38" stop-color="#986926"/><stop offset="0.48" stop-color="#d69c47"/><stop offset="0.5" stop-color="#e4bb71"/><stop offset="0.53" stop-color="#f0d596"/><stop offset="0.55" stop-color="#f8e8b0"/><stop offset="0.57" stop-color="#fdf4bf"/><stop offset="0.59" stop-color="#fff8c5"/><stop offset="0.62" stop-color="#fff4ba"/><stop offset="0.68" stop-color="#ffeb9c"/><stop offset="0.75" stop-color="#fedb6b"/><stop offset="0.76" stop-color="#e0bc58"/><stop offset="0.77" stop-color="#b8923e"/><stop offset="0.78" stop-color="#99712a"/><stop offset="0.79" stop-color="#825a1c"/><stop offset="0.81" stop-color="#754c13"/><stop offset="0.81" stop-color="#704710"/><stop offset="0.84" stop-color="#7d5215"/><stop offset="0.89" stop-color="#a17023"/><stop offset="0.9" stop-color="#ab7927"/><stop offset="1" stop-color="#8c5e1c"/></linearGradient></defs><g id="Capa_2" data-name="Capa 2"><g id="Capa_1-2" data-name="Capa 1"><path class="cls-1" d="M1343.14,470a13,13,0,0,1,4.87,5,14.57,14.57,0,0,1,1.77,7.17,14.3,14.3,0,0,1-1.77,7.12,13.06,13.06,0,0,1-4.87,5,13.69,13.69,0,0,1-7.06,1.81,13.85,13.85,0,0,1-7.09-1.81,12.86,12.86,0,0,1-4.9-5,14.3,14.3,0,0,1-1.78-7.12,14.58,14.58,0,0,1,1.78-7.17,12.8,12.8,0,0,1,4.9-5,13.85,13.85,0,0,1,7.09-1.81A13.69,13.69,0,0,1,1343.14,470Zm1,20.51a12.78,12.78,0,0,0,0-16.69,11.75,11.75,0,0,0-16.27,0,12.81,12.81,0,0,0,0,16.69,11.75,11.75,0,0,0,16.27,0Zm-3-8.52a4.6,4.6,0,0,1-2.71,1.5l4.17,6-3.55.07-3.82-5.91h-1.6v5.91h-3V474.54h6.46a5.26,5.26,0,0,1,3.65,1.21,4.23,4.23,0,0,1,1.36,3.31A4.27,4.27,0,0,1,1341.16,481.94Zm-7.51-.87h3.27a2.58,2.58,0,0,0,1.6-.48,1.76,1.76,0,0,0,.62-1.46,1.66,1.66,0,0,0-.62-1.43,2.7,2.7,0,0,0-1.6-.45h-3.27Z"/><path class="cls-1" d="M27.85,677.4v18.32H0v-2.51H4a19,19,0,0,0,12-4.14,17,17,0,0,0,6.27-11.67Zm13.3-160.83h2.51l5,14.81L33.87,695.72H20.32Zm-6,164.85v1.25a11.18,11.18,0,0,0,2.88,7.4,8.77,8.77,0,0,0,6.9,3.39h3.77v2.26H33.37v-14.3Zm8.53-164.85,72.26,156.31-5.77,26.35L38.89,544.67Zm138.5,0,2,16.81-63,140.26q-3.76,8.54-5.77,14.43a61.69,61.69,0,0,0-2.76,11.16h-2.51l-3.52-15.81Zm3,164.85h1.75v14.3h-15.3v-2.26h3.76a8.7,8.7,0,0,0,7-3.39,11.46,11.46,0,0,0,2.76-7.4v-1.25Zm-.76-164.85L206,695.72H186.42l-13.8-152.05,9.54-27.1ZM198.46,677.4h5.27a17.94,17.94,0,0,0,6.53,11.67,18.6,18.6,0,0,0,11.79,4.14h4v2.51H198.46Z"/><path class="cls-1" d="M327.68,538.4h-.75a16.17,16.17,0,0,0-4.9-11.17,15.21,15.21,0,0,0-11.16-4.63h-3.26v-2.51h20.07Zm0,139v18.32H307.61v-2.51h3.26A15.22,15.22,0,0,0,322,688.57a16.17,16.17,0,0,0,4.9-11.17Zm15.56-157.31V695.72H326.93V520.09Zm-9.79-17.82q5.26-5.76,10.54-11.41t10.66-11q5.4-5.4,10.66-10.42,2.76,3,5.52,6.28a39.82,39.82,0,0,1,4.77,7l-13.55,7.53q-6.76,3.76-13.42,7.15T335.21,504Zm9,36.13V520.09h20.07v2.51h-3.26a15.21,15.21,0,0,0-11.16,4.63,16.11,16.11,0,0,0-4.89,11.17Zm0,139h.76a16.11,16.11,0,0,0,4.89,11.17,15.22,15.22,0,0,0,11.16,4.64h3.26v2.51H342.48Z"/><path class="cls-1" d="M475.21,538.4h-.75a16.17,16.17,0,0,0-4.9-11.17,15.21,15.21,0,0,0-11.16-4.63h-3.26v-2.51h20.07Zm0,139v18.32H455.14v-2.51h3.26a15.22,15.22,0,0,0,11.16-4.64,16.17,16.17,0,0,0,4.9-11.17Zm15.55-157.31V695.72h-16.3V520.09Zm32.12,0a60.76,60.76,0,0,1,20.45,3.26,40.51,40.51,0,0,1,25.09,24.21,53.69,53.69,0,0,1,3.39,19.69,50.13,50.13,0,0,1-5.65,23.09,49.19,49.19,0,0,1-15.3,17.94,36.46,36.46,0,0,1-21.71,6.9q4.26,1.76,9.29,7.15a132.29,132.29,0,0,1,8.78,10.41q6.76,9.78,11.92,16.81t10.41,13.8q5.26,6.78,9,10.79a109,109,0,0,0,10,9.79,42.35,42.35,0,0,0,10.91,6.77,33.36,33.36,0,0,0,13.17,2.51v2.51H598.9q-11.53,0-19.94-3.52a50,50,0,0,1-14.18-8.65,97.12,97.12,0,0,1-9.78-9.91q-.76-1-4.14-5.77t-8-11.42q-4.65-6.65-9.16-13.17t-7.78-11.17q-3.27-4.64-3.76-5.39a86.2,86.2,0,0,0-10.54-11.54q-5.77-5.26-12.55-5.27V607.4q7.79.26,13.3,0a78.54,78.54,0,0,0,14.3-2,35.15,35.15,0,0,0,14.56-7.27q6.76-5.52,10.28-16.81a49,49,0,0,0,1.26-6.9,45.68,45.68,0,0,0,.25-8.16q-.25-17.06-8.66-27.22t-22.45-10.92q-7-.5-14.43-.37t-17.44.13a14.8,14.8,0,0,0-.63-2.14q-.61-1.87-1.88-5.64ZM490,677.4h.75a15,15,0,0,0,4.77,11.17,15.66,15.66,0,0,0,11.29,4.64h3v2.51H490Z"/><path class="cls-1" d="M668.4,677.4q-1.75,5-.5,8.53a10.33,10.33,0,0,0,4.14,5.4,10.71,10.71,0,0,0,5.9,1.88h2.25v2.51H629.76v-2.51H632a23.35,23.35,0,0,0,11.92-3.64q6.13-3.63,10.16-12.17Zm53.94-160.83,2.26,17.56L661.63,695H646.57L710.8,542.42q2.76-6.27,4.64-10.79t3.27-8.79a23.46,23.46,0,0,0,1.38-6.27Zm35.38,110.65v7.53H679.19v-7.53ZM722.34,516.57l74.27,177.64H775.29l-58-153.8ZM769,677.4h20.58q3.76,8.54,10,12.17a24,24,0,0,0,12,3.64h2v2.51H757.22v-2.51h2.26a11.31,11.31,0,0,0,8.53-4.14Q771.78,684.93,769,677.4Z"/><path class="cls-1" d="M905.25,677.4v18.32H877.4v-2.51h4a19,19,0,0,0,12.05-4.14,17,17,0,0,0,6.27-11.67Zm13.3-160.83h2.51l5,14.81L911.27,695.72H897.72Zm-6,164.85v1.25a11.18,11.18,0,0,0,2.88,7.4,8.77,8.77,0,0,0,6.9,3.39h3.77v2.26H910.77v-14.3Zm8.53-164.85,72.26,156.31-5.77,26.35L916.29,544.67Zm138.5,0,2,16.81-63,140.26q-3.76,8.54-5.77,14.43a62.6,62.6,0,0,0-2.77,11.16h-2.5L984,683.42Zm3,164.85h1.75v14.3H1049v-2.26h3.76a8.7,8.7,0,0,0,7-3.39,11.46,11.46,0,0,0,2.76-7.4v-1.25Zm-.76-164.85,21.58,179.15h-19.57L1050,543.67l9.54-27.1Zm14,160.83h5.27a17.94,17.94,0,0,0,6.53,11.67,18.6,18.6,0,0,0,11.79,4.14h4v2.51h-27.6Z"/><path class="cls-1" d="M1205.08,538.4h-.75a15.07,15.07,0,0,0-4.77-11.17,15.65,15.65,0,0,0-11.29-4.63h-3l-.25-2.51h20.07Zm0,139v18.32H1185v-2.51h3.26a15.22,15.22,0,0,0,11.16-4.64,16.17,16.17,0,0,0,4.9-11.17Zm15.55-157.31V695.72h-16.3V520.09Zm67.75,0v7.78h-68.5v-7.78Zm-10.79,85.3v7.53h-57.71v-7.53Zm10.79,82.55v7.78h-68.5v-7.78Zm15.3-32.87-14.55,40.65h-41.65l9-7.78q13.31,0,21.71-4.14a35.59,35.59,0,0,0,13.67-11.67,91.4,91.4,0,0,0,9.28-17.06Zm-15.3-139.5v7.27l-30.61-2.75a98.36,98.36,0,0,0,11.66-.75q6.15-.76,11.42-1.76A38,38,0,0,0,1288.38,515.57Zm-10.79,73.77V605.9H1263v-.51a12.3,12.3,0,0,0,8.53-3.89,12,12,0,0,0,3.51-8.65v-3.51Zm0,23.08V629h-2.51v-3.77a12,12,0,0,0-3.51-8.65,11.46,11.46,0,0,0-8.53-3.64v-.5Zm10.79-85.31v20.07h-2.51v-4.51a14.41,14.41,0,0,0-4.27-10.41,15,15,0,0,0-10.53-4.65v-.5Z"/><path class="cls-1" d="M240.13,785.6l-.84,10.94a21.13,21.13,0,0,1-11,9,25,25,0,0,1-8.54,1.36,26.7,26.7,0,0,1-12.89-3.21,22.35,22.35,0,0,1-8.81-8.81,29.84,29.84,0,0,1,0-26.69,22.22,22.22,0,0,1,8.82-8.85,26.84,26.84,0,0,1,13.34-3.17,29.91,29.91,0,0,1,9.3,1.35,30.57,30.57,0,0,1,7.22,3.38l1.39,9.83h-.63a15.08,15.08,0,0,0-6.27-9.3,19.35,19.35,0,0,0-28.6,7.8,31.15,31.15,0,0,0,0,24.36,19.41,19.41,0,0,0,6.9,8.15,19.08,19.08,0,0,0,10.27,3.07,22.63,22.63,0,0,0,9.17-1.85,16.51,16.51,0,0,0,7.07-6.06q2.85-4.21,3.62-11.33Z"/><path class="cls-1" d="M274.28,762.26h-.21a4.15,4.15,0,0,0-1.33-3.1,4.34,4.34,0,0,0-3.13-1.29h-.84l-.07-.7h5.58Zm0,38.6V806H268.7v-.7h.91a4.24,4.24,0,0,0,3.1-1.29,4.48,4.48,0,0,0,1.36-3.1Zm4.32-43.69V806h-4.53V757.17Zm18.81,0v2.16h-19v-2.16Zm-3,23.69V783h-16v-2.09Zm3,22.93V806h-19v-2.16Zm4.25-9.13-4,11.29H286.05l2.51-2.16a13.65,13.65,0,0,0,6-1.15,10,10,0,0,0,3.8-3.24,25.94,25.94,0,0,0,2.58-4.74Zm-4.25-38.74v2l-8.5-.77a26.63,26.63,0,0,0,3.24-.21c1.14-.14,2.2-.3,3.17-.49A10.57,10.57,0,0,0,297.41,755.92Zm-3,20.48V781h-4.05v-.14a3.37,3.37,0,0,0,2.37-1.08,3.33,3.33,0,0,0,1-2.4v-1Zm0,6.41v4.6h-.7v-1a3.33,3.33,0,0,0-1-2.4,3.16,3.16,0,0,0-2.37-1v-.14Zm3-23.69v5.58h-.7v-1.26a4,4,0,0,0-1.18-2.89,4.2,4.2,0,0,0-2.93-1.29v-.14Z"/><path class="cls-1" d="M339.71,757.17V806a15,15,0,0,1-1,5.47,13.65,13.65,0,0,1-2.71,4.43,13.06,13.06,0,0,1-4,3,11.54,11.54,0,0,1-5,1.08v-.63a10.31,10.31,0,0,0,4.14-2.89,15.7,15.7,0,0,0,2.93-4.84,15.9,15.9,0,0,0,1.08-5.79V757.17Zm-4.32,5.09h-.21a4.49,4.49,0,0,0-1.36-3.1,4.22,4.22,0,0,0-3.1-1.29h-.9v-.7h5.57Zm4.11,0v-5.09h5.58v.7h-.91a4.22,4.22,0,0,0-3.1,1.29,4.49,4.49,0,0,0-1.36,3.1Z"/><path class="cls-1" d="M379.15,800.86a3.6,3.6,0,0,0-.14,2.37,2.91,2.91,0,0,0,1.15,1.5,3,3,0,0,0,1.64.52h.63v.7h-14v-.7h.63a6.43,6.43,0,0,0,3.31-1,7.38,7.38,0,0,0,2.82-3.38Zm15-44.66.63,4.87-17.49,44.67h-4.18l17.84-42.37c.51-1.16.94-2.16,1.29-3s.65-1.65.9-2.44a6.33,6.33,0,0,0,.39-1.74ZM404,786.93V789H382.15v-2.09Zm-9.83-30.73,20.63,49.33h-5.92l-16.1-42.71Zm13,44.66h5.71a7,7,0,0,0,2.79,3.38,6.59,6.59,0,0,0,3.34,1h.56v.7H403.82v-.7h.63a3.14,3.14,0,0,0,2.37-1.15C407.51,803.34,407.61,802.26,407.1,800.86Z"/><path class="cls-1" d="M457.13,756.2a23.08,23.08,0,0,1,2.4.13c.86.1,1.7.23,2.51.39s1.56.32,2.23.49a7.33,7.33,0,0,1,1.57.52v7.73h-.63a6.46,6.46,0,0,0-2.3-5.26,8.44,8.44,0,0,0-5.57-1.91,8.3,8.3,0,0,0-6.2,2.4,7.73,7.73,0,0,0-2.37,5.61,9.84,9.84,0,0,0,.59,3.1,8.05,8.05,0,0,0,2.19,3.31l13.73,12.68a9.77,9.77,0,0,1,2.79,4.18,14.65,14.65,0,0,1,.7,4.33,12.94,12.94,0,0,1-3.52,9.4q-3.53,3.63-9.52,3.63a26.67,26.67,0,0,1-3.93-.35,19.08,19.08,0,0,1-4.39-1.22,10.54,10.54,0,0,1-3.52-2.27,15.36,15.36,0,0,1-.21-2.78,23,23,0,0,1,.28-3.52,21.91,21.91,0,0,1,.76-3.38h.63a11.61,11.61,0,0,0,.91,6.2,8.72,8.72,0,0,0,3.66,4,10,10,0,0,0,5.47,1.22,10.4,10.4,0,0,0,6.58-2.69,8.47,8.47,0,0,0,2.75-6.65,9.33,9.33,0,0,0-.69-3.66,8,8,0,0,0-2-2.82l-13.38-12.41a10.89,10.89,0,0,1-2.93-4.28,12.94,12.94,0,0,1-.84-4.36,12.2,12.2,0,0,1,1.4-5.64,11.2,11.2,0,0,1,4.14-4.43A12.62,12.62,0,0,1,457.13,756.2Zm8.71.69v1.47h-5.3v-1.47Z"/><path class="cls-1" d="M573.08,783a24.5,24.5,0,0,1,.42,7.32,20.32,20.32,0,0,1-1.7,6.45,16.91,16.91,0,0,1-3.7,5.19,16.23,16.23,0,0,1-5.54,3.45,20.14,20.14,0,0,1-7.18,1.22A37.19,37.19,0,0,1,548,806a22.57,22.57,0,0,1-6-2.05,15.61,15.61,0,0,1-4.35-3.35A13.3,13.3,0,0,1,535,796a16.67,16.67,0,0,1-.91-5.68,14.61,14.61,0,0,1,.45-3.73,14.05,14.05,0,0,1,1.29-3.17,12.51,12.51,0,0,1,2-2.61,18.84,18.84,0,0,1,2.54-2.13,17.48,17.48,0,0,1,3-1.67l1,1.53a12.53,12.53,0,0,0-2.36,2.48,14.08,14.08,0,0,0-2.51,6,19.29,19.29,0,0,0-.28,3.31,14.91,14.91,0,0,0,1.08,5.75,12.43,12.43,0,0,0,3.13,4.49,14.34,14.34,0,0,0,5.09,2.93,21.12,21.12,0,0,0,6.93,1,13.52,13.52,0,0,0,6.31-1.43,14,14,0,0,0,4.6-3.76,16.62,16.62,0,0,0,3.52-10.94,13.5,13.5,0,0,0-1.39-5.41,7.19,7.19,0,0,0-1.78-2.29,4.11,4.11,0,0,0-2.75-.91h-1v-.7h13.87v.7h-1.05a2.51,2.51,0,0,0-2.19.91A2.82,2.82,0,0,0,573.08,783ZM553.85,756.2a16.85,16.85,0,0,1,4.6.62,18,18,0,0,1,4.11,1.71,11.22,11.22,0,0,1,3.14,2.61L564.44,769h-.69a12.23,12.23,0,0,0-1.26-5.75,8.92,8.92,0,0,0-3.45-3.69,10,10,0,0,0-5.19-1.29,8.65,8.65,0,0,0-6.58,2.78,9.87,9.87,0,0,0-2.62,7,13.2,13.2,0,0,0,2.86,8.16,64.6,64.6,0,0,0,8.22,8.57q1.53,1.32,3.38,3c1.23,1.14,2.65,2.4,4.25,3.8s3.41,2.92,5.4,4.59q2.24,1.82,4.57,3.84a32.84,32.84,0,0,0,4.81,3.48,11.72,11.72,0,0,0,5.12,1.67v.7c-.88,0-2.15,0-3.8-.07a21,21,0,0,1-5.47-1,17.66,17.66,0,0,1-6-3.35c-1.77-1.44-3.38-2.78-4.85-4l-4-3.41c-1.23-1-2.38-2-3.45-3s-2.11-1.89-3.13-2.82q-4-3.77-6.87-6.79a24.58,24.58,0,0,1-4.32-6.21,16.63,16.63,0,0,1-1.5-7.21,11.39,11.39,0,0,1,1-4.74,10.86,10.86,0,0,1,2.82-3.76,13.57,13.57,0,0,1,4.43-2.51A17.44,17.44,0,0,1,553.85,756.2Z"/><path class="cls-1" d="M646,762.26h-.2a4.18,4.18,0,0,0-1.33-3.1,4.34,4.34,0,0,0-3.13-1.29h-.84l-.07-.7H646Zm0,38.6V806H640.4v-.7h.91a4.24,4.24,0,0,0,3.1-1.29,4.48,4.48,0,0,0,1.36-3.1Zm4.32-43.69V806h-4.52V757.17Zm8.3,0a17,17,0,0,1,7.66,1.6,11.51,11.51,0,0,1,5,4.64,14.23,14.23,0,0,1,1.74,7.21,12.68,12.68,0,0,1-4.6,10,14.24,14.24,0,0,1-10.21,3.28,13.87,13.87,0,0,1-5.47-1.6v-.7a21.26,21.26,0,0,0,4.22.24,15.24,15.24,0,0,0,3.9-.76,10.11,10.11,0,0,0,3.84-2.34,10.44,10.44,0,0,0,2.68-4.67,14.78,14.78,0,0,0,.35-1.91,13.32,13.32,0,0,0,.07-2.27,12,12,0,0,0-2.51-7.73,8.5,8.5,0,0,0-6.9-2.93h-8.22c-.24-.7-.47-1.39-.7-2.09Zm-8.5,43.69h.2a4.48,4.48,0,0,0,1.36,3.1,4.24,4.24,0,0,0,3.1,1.29h.91v.7h-5.57Z"/><path class="cls-1" d="M706.74,762.26h-.21a4.17,4.17,0,0,0-1.32-3.1,4.36,4.36,0,0,0-3.14-1.29h-.83l-.07-.7h5.57Zm0,38.6V806h-5.57v-.7h.9a4.22,4.22,0,0,0,3.1-1.29,4.48,4.48,0,0,0,1.36-3.1Zm4.32-43.69V806h-4.53V757.17Zm18.82,0v2.16h-19v-2.16Zm-3,23.69V783h-16v-2.09Zm3,22.93V806h-19v-2.16Zm4.25-9.13-4,11.29H718.52l2.51-2.16a13.57,13.57,0,0,0,6-1.15,9.89,9.89,0,0,0,3.8-3.24,24.79,24.79,0,0,0,2.58-4.74Zm-4.25-38.74v2l-8.51-.77a26.38,26.38,0,0,0,3.24-.21c1.14-.14,2.2-.3,3.18-.49A10.77,10.77,0,0,0,729.88,755.92Zm-3,20.48V781h-4v-.14a3.37,3.37,0,0,0,2.37-1.08,3.32,3.32,0,0,0,1-2.4v-1Zm0,6.41v4.6h-.7v-1a3.32,3.32,0,0,0-1-2.4,3.16,3.16,0,0,0-2.37-1v-.14Zm3-23.69v5.58h-.7v-1.26a4,4,0,0,0-1.19-2.89,4.18,4.18,0,0,0-2.92-1.29v-.14Z"/><path class="cls-1" d="M775.59,756.2a23.08,23.08,0,0,1,2.4.13c.86.1,1.7.23,2.51.39s1.56.32,2.23.49a7.33,7.33,0,0,1,1.57.52v7.73h-.63a6.46,6.46,0,0,0-2.3-5.26,8.44,8.44,0,0,0-5.57-1.91,8.3,8.3,0,0,0-6.2,2.4,7.73,7.73,0,0,0-2.37,5.61,9.84,9.84,0,0,0,.59,3.1,8.15,8.15,0,0,0,2.19,3.31l13.73,12.68a9.77,9.77,0,0,1,2.79,4.18,14.65,14.65,0,0,1,.7,4.33,12.94,12.94,0,0,1-3.52,9.4,12.64,12.64,0,0,1-9.51,3.63,26.68,26.68,0,0,1-3.94-.35,19.08,19.08,0,0,1-4.39-1.22,10.54,10.54,0,0,1-3.52-2.27,15.36,15.36,0,0,1-.21-2.78,23,23,0,0,1,.28-3.52,20.77,20.77,0,0,1,.77-3.38h.62a11.61,11.61,0,0,0,.91,6.2,8.72,8.72,0,0,0,3.66,4,10,10,0,0,0,5.47,1.22,10.4,10.4,0,0,0,6.58-2.69,8.47,8.47,0,0,0,2.75-6.65,9.33,9.33,0,0,0-.69-3.66,8,8,0,0,0-2-2.82l-13.38-12.41a10.89,10.89,0,0,1-2.93-4.28,12.94,12.94,0,0,1-.84-4.36,12.2,12.2,0,0,1,1.4-5.64,11.2,11.2,0,0,1,4.14-4.43A12.62,12.62,0,0,1,775.59,756.2Zm8.71.69v1.47H779v-1.47Z"/><path class="cls-1" d="M813.5,755.85a12.68,12.68,0,0,0,2.12.55c1,.19,2,.35,3.17.49a26.93,26.93,0,0,0,3.21.21l-8.5.77Zm40.34,1.25v2.09H813.5V757.1ZM818.31,759v.21a4.24,4.24,0,0,0-2.93,1.26,4,4,0,0,0-1.19,2.92v1.19l-.69.07V759Zm13.31,41.88V806H826v-.7H827a4.24,4.24,0,0,0,3.1-1.29,4.48,4.48,0,0,0,1.36-3.1Zm4.32-43.48V806h-4.53V757.38Zm-.21,43.48h.21a4.42,4.42,0,0,0,1.35,3.1,4.24,4.24,0,0,0,3.11,1.29h.9v.7h-5.57Zm18.11-45v2l-8.5-.77a26.63,26.63,0,0,0,3.24-.21c1.14-.14,2.2-.3,3.17-.49A10.37,10.37,0,0,0,853.84,755.85Zm0,3.13v5.65l-.69-.07v-1.19a3.92,3.92,0,0,0-1.22-2.92,4.3,4.3,0,0,0-2.89-1.26V759Z"/><path class="cls-1" d="M881.23,800.86a3.6,3.6,0,0,0-.14,2.37,2.91,2.91,0,0,0,1.15,1.5,3,3,0,0,0,1.64.52h.63v.7h-14v-.7h.63a6.43,6.43,0,0,0,3.31-1,7.38,7.38,0,0,0,2.82-3.38Zm15-44.66.63,4.87-17.49,44.67h-4.18L893,763.37c.51-1.16.94-2.16,1.29-3s.65-1.65.9-2.44a6.33,6.33,0,0,0,.39-1.74ZM906,786.93V789H884.23v-2.09Zm-9.83-30.73,20.63,49.33h-5.92l-16.1-42.71Zm13,44.66h5.71a7,7,0,0,0,2.79,3.38,6.59,6.59,0,0,0,3.34,1h.56v.7H905.9v-.7h.63a3.14,3.14,0,0,0,2.37-1.15C909.59,803.34,909.69,802.26,909.18,800.86Z"/><path class="cls-1" d="M950.64,801v5h-5.79v-.7h1.33a4,4,0,0,0,3-1.25,4.1,4.1,0,0,0,1.26-3Zm-.14-44.87,3.06,3.9.07,45.92h-3.2V764.84a73.65,73.65,0,0,0-.63-8.71Zm0,0L991,799.33l.63,7.6-40.48-43.14ZM953.63,801a4.1,4.1,0,0,0,1.26,3,4,4,0,0,0,3,1.25h1.33v.7h-5.79v-5Zm9.76-48.5h.7a6.2,6.2,0,0,1,.94-1.6,3.28,3.28,0,0,1,1.25-.94,3.93,3.93,0,0,1,1.57-.31,5.19,5.19,0,0,1,2.54.76c.91.51,1.87,1,2.89,1.53a6.62,6.62,0,0,0,3,.77,3.76,3.76,0,0,0,1.67-.38,4.39,4.39,0,0,0,1.36-1.08,5.81,5.81,0,0,0,1-1.74,10.06,10.06,0,0,0,.52-2.3h-.7a3.49,3.49,0,0,1-.83,1.32,3.22,3.22,0,0,1-1.29.8,5.5,5.5,0,0,1-1.71.25,5,5,0,0,1-2.51-.77q-1.32-.76-2.82-1.5a7,7,0,0,0-3.1-.73,3.11,3.11,0,0,0-1.57.42,4.11,4.11,0,0,0-1.29,1.18,8.22,8.22,0,0,0-1,1.85A11.55,11.55,0,0,0,963.39,752.5Zm19.44,4.67h5.79v5h-.14a4.38,4.38,0,0,0-1.29-3,4.11,4.11,0,0,0-3-1.22h-1.33Zm8.78,0V798c0,1.48,0,2.91.14,4.28s.26,2.92.49,4.64h-.63l-3.13-3.7V757.17Zm5.58,0v.7h-1.26a4.1,4.1,0,0,0-3,1.22,4.29,4.29,0,0,0-1.33,3h-.21v-5Z"/><path class="cls-1" d="M1030.22,800.86a3.47,3.47,0,0,0-.14,2.37,2.86,2.86,0,0,0,1.15,1.5,2.93,2.93,0,0,0,1.63.52h.63v.7h-14v-.7h.62a6.43,6.43,0,0,0,3.31-1,7.38,7.38,0,0,0,2.82-3.38Zm15-44.66.63,4.87-17.49,44.67h-4.19L1042,763.37c.51-1.16.94-2.16,1.29-3s.65-1.65.91-2.44a6.61,6.61,0,0,0,.38-1.74Zm9.82,30.73V789h-21.81v-2.09Zm-9.82-30.73,20.63,49.33h-5.93l-16.09-42.71Zm13,44.66h5.71a7,7,0,0,0,2.79,3.38,6.62,6.62,0,0,0,3.35,1h.55v.7h-15.67v-.7h.62a3.12,3.12,0,0,0,2.37-1.15C1058.58,803.34,1058.67,802.26,1058.16,800.86Z"/><path class="cls-1" d="M1108.19,756.2a23.12,23.12,0,0,1,2.41.13c.86.1,1.69.23,2.51.39s1.55.32,2.23.49a7.22,7.22,0,0,1,1.56.52v7.73h-.62a6.49,6.49,0,0,0-2.3-5.26,8.47,8.47,0,0,0-5.58-1.91,8.33,8.33,0,0,0-6.2,2.4,7.73,7.73,0,0,0-2.37,5.61,10.13,10.13,0,0,0,.59,3.1,8.18,8.18,0,0,0,2.2,3.31l13.73,12.68a9.75,9.75,0,0,1,2.78,4.18,14.34,14.34,0,0,1,.7,4.33,12.9,12.9,0,0,1-3.52,9.4q-3.51,3.63-9.51,3.63a26.79,26.79,0,0,1-3.94-.35,19.22,19.22,0,0,1-4.39-1.22,10.64,10.64,0,0,1-3.52-2.27,15.36,15.36,0,0,1-.21-2.78,24.36,24.36,0,0,1,.28-3.52,21.88,21.88,0,0,1,.77-3.38h.63a11.61,11.61,0,0,0,.9,6.2,8.82,8.82,0,0,0,3.66,4,10,10,0,0,0,5.47,1.22,10.42,10.42,0,0,0,6.59-2.69,8.51,8.51,0,0,0,2.75-6.65,9.15,9.15,0,0,0-.7-3.66,7.87,7.87,0,0,0-2-2.82l-13.38-12.41a10.86,10.86,0,0,1-2.92-4.28,12.94,12.94,0,0,1-.84-4.36,12.18,12.18,0,0,1,1.39-5.64,11.15,11.15,0,0,1,4.15-4.43A12.58,12.58,0,0,1,1108.19,756.2Zm8.71.69v1.47h-5.29v-1.47Z"/><path class="cls-1" d="M1039.81,129.33c-.88.91-1.74,1.85-2.6,2.75-2.26-1.54-4.62-3-6.81-4.69-93.87-72.14-196-87.85-305.15-41-25.86,11.11-51,23.91-76,37-1.08.54-2.14,1.1-3.22,1.67l-13.77,7.23c-5.09,2.67-10.2,5.33-15.29,8-2,1-3.93,2-5.89,3.05-6.42,3.34-12.83,6.61-19.3,9.86l-5.28,2.63a4.74,4.74,0,0,1-.52.24c-24.23,12-48.44,24-72.78,35.79-21.68,10.47-43.45,20.67-65.45,30.36a218.42,218.42,0,0,1-26.15,9.58,210.19,210.19,0,0,1-61.92,8.68c-1,0-2.14,0-3.22,0-2.5,0-5-.54-10.47-1.18,3.89-10,7.84-19.39,11.36-28.78,1-2.75,2-5.48,2.95-8.26a52,52,0,0,1,2.11-5.31c5.83-12.61,15.71-20,29.22-26.81,30.11-15.22,59.9-31,89.57-47.12,2.95-1.57,5.87-3.17,8.82-4.79,5.07-2.76,10.11-5.48,15.15-8.26q19.65-10.72,39.3-21.53l17.87-9.81C613.83,50.41,665.52,22.46,723,8.55c104.56-25.34,194,7.37,273,75.24C1011.84,97.48,1025.24,114.09,1039.81,129.33Z"/><path class="cls-2" d="M294.92,246.57q-100.83,87.17-145.6,212.91h10.59c25.41-77.92,73.81-148.36,137.2-203.76A50.78,50.78,0,0,1,294.92,246.57Zm14.41,29q-7.38,5.76-14.58,11.85c-56.51,47.8-100.87,105-132.09,172.08h18.71Q224.54,366.09,303.3,296a13.62,13.62,0,0,1,6.17-3.22q-69.5,75.95-106.3,166.7H212a509.84,509.84,0,0,1,65.28-104.37A517.91,517.91,0,0,1,339,290.4,51.35,51.35,0,0,1,309.33,275.55Zm820.56,183.93h22.32q-8.67-21.54-19.49-42.3a505.33,505.33,0,0,0-114.59-146.91c-40.45-35.72-84.89-64.94-134.08-86.08a142,142,0,0,1-8.67,23,397.65,397.65,0,0,1,48.17,25c16.86,10.32,31.83,24.26,46.06,38.22a514,514,0,0,1,122.55,189.09h9q-27.29-77.76-81.21-146c-7.4-9.34-15.24-18.34-22.86-27.48C1052.35,330.31,1098.38,390.41,1129.89,459.48Zm-303.77,677c21-11.63,42.18-22.25,62.24-34.56,72.11-44.34,129-103.62,171.21-177a507.88,507.88,0,0,0,27.31-54.89h-5.36a484.48,484.48,0,0,1-89.17,135c-75.73,81.51-168.34,132.41-277.59,151.65-24.63,4.35-50.79,2.81-76,.77a509.26,509.26,0,0,1-155.93-37.73,475,475,0,0,1-43.62-20.9c141.18,48.72,279.7,46.56,414.1-21.67,96.06-48.77,166.67-118.57,214.94-207.11h-9.9a519.25,519.25,0,0,1-47.95,69.44c-82.17,100.77-188.77,160.84-317.32,179.7-90.3,13.22-177.58-.3-262.31-34.83C344,1048.83,283.08,986,235.93,907.62q-11.13-18.5-20.4-37.68h-9.36a656.55,656.55,0,0,0,28,59.41,353.9,353.9,0,0,1-41.39-59.41h-9.56c9.24,15.76,18.58,31.42,29,46.38,14.4,20.72,30.87,40.17,47.88,58.87,19.34,21.24,40.45,40.88,60.51,61.5,27.7,28.56,59.43,51.83,93.18,72.58,2.43,1.5,4.81,3,8.11,5.11-24.61,0-103.9-55.55-155.29-109.13a443.57,443.57,0,0,1-88.83-135.31h-21.6q49.8,117.94,151.62,199.59c61.57,49.35,131.45,81.89,208.8,98.11,43.19,9,86.86,12.29,131.25,10.87a472.9,472.9,0,0,0,123.34-9.91c101.41-21.6,189.36-68.92,263.14-141.84,46-45.5,81.73-98.29,108.57-156.82h-9.93C1068.45,1011.37,941.47,1108,826.12,1136.43Z"/><path class="cls-1" d="M565,287c40-3,79.91-5.48,118.91-15.51,46.34-11.9,85.88-33.75,118.2-66.27,1.09-1.05,2.12-2.11,3.17-3.22,4.72-4.94,9.32-10.1,13.72-15.53,3.71-4.52,7.27-9.19,10.74-14.06,1.55-2.19,3.27-4.25,5.26-6.83a3.55,3.55,0,0,0,.27-.35,3.17,3.17,0,0,1,0,.44c-.25,4.72-3.3,13.25-8.31,23.28-2.8,5.61-6.22,11.7-10.08,17.82-.71,1.13-1.45,2.29-2.19,3.42-2.63,4-5.43,8-8.38,11.82-13,17-28,32.44-41.88,48.3h19l-10.1,5.23c.07.74.15,1.48.24,2.24L805.35,274l.45,1.3c-8.83,2.43-17.65,4.84-27,7.4,23.62,3.27,45.5-2,66.93-10.35.35.74.69,1.5,1.06,2.24-9.14,4.52-18.26,9-27.11,13.39.78.23,2.41.67,4.94,1.33L816.54,295l32-4.43L849,292q-10.29,3.5-20.6,7c.07.44.17.88.27,1.33q17-1.11,33.94-2.19c.1,1,.2,2,.27,2.95-20.55,2.21-41.12,4.4-58.57,6.27l57.84,5.48c.14.49.29,1,.46,1.5l-55.4,7.15c.35.22.81.54,1.38.91l-13.52,1.28v1.15h38.34c.08.57.17,1.13.25,1.7l-48.89,8c0,.63,0,1.25-.07,1.89l31.88,2.85c-8.29,4.57-19.4,4.52-55.5.37L781.78,346c0,.32-.1.64-.17,1-6.32-.46-12.66-1-19-1.45-.12.62-.27,1.23-.39,1.85q9.1,3.27,18.19,6.53l-.08,1c-11.23-.66-22.71-.09-33.6-2.36-11.25-2.31-22-7.37-31.61-10.79,7.45,12.44,20.58,17.85,35.25,20.9-16.52.32-31.56-4.58-46.65-11.51,3.49,2.71,6.88,5.58,10.54,8.06,3.86,2.63,8,4.92,11.31,9.3-9.17-3.18-18.34-6.37-27.41-9.54.57.86,1.26,1.87,1.92,2.85-.24.54-.51,1.06-.76,1.6l-25-13.18c12,12,26.79,19.25,43.5,25.07-13.44,1.23-24.45-3.63-59-25.71,1.94,3.32,3.27,5.63,4.6,7.94l-1.92,1.85c-8.6-9.39-17.2-18.78-25.71-28.05,5.53,16.52,16.84,28.73,31.27,38.62-17.53-5-30.09-16.47-42.28-29.62,5.14,8,10.25,15.93,15.58,24.26-7.74-3.37-15.14-6.59-23.35-10.18,1.06,2.07,2,3.79,4.13,8.09l-15.73-11.31c-.37.27-.73.54-1.08.84q5.79,7.56,11.63,15.11l-1.5,1.36-19-20.06c-.32.59-1,1.77-1.94,3.37-2.31-4.85-4.42-9.34-6.56-13.84-.37.1-.74.17-1.08.27.51,3.69,1,7.35,1.55,11-.35.15-.69.32-1.06.5l-10.72-18.19c1.11,12.09,2.09,23,3.1,34-.64.05-1.3.07-1.94.12-2.16-7.84-4.18-15.73-6.52-23.49-.68-2.31-2.28-4.33-5.11-6.3V359l-1-.12q-3.51-13.68-7-27.41l-2.21.52,5.16,22.56-1.33.37-10.91-25.42c-.67.2-1.3.4-2,.57.22,3.78.47,7.57.81,13.22-3.68-6.34-6.44-11.08-10.07-17.38.49,11,.9,19.89,1.3,28.79l-1.35.14c-3-10.07-6-20.15-9.76-32.61-2.14,3.44-2.78,4.45-3.57,5.7l-9.68-10.47,7.91,20.77-1.54.66c-3.47-4.69-6.93-9.41-10.4-14.11l-1.45.59q1.36,6.27,2.73,12.56l-1.35.59q-4.24-7.37-8.46-14.74l-1,.41q2.7,11.25,5.36,22.52c-.34.12-.71.22-1.08.34q-7.53-12.5-15-25l-2.14,1c1.67,4.85,3.32,9.69,5,14.53-.47.17-.94.37-1.43.57a82.49,82.49,0,0,0-6-8.39c-9.37-10.44-20.33-15.6-34.83-11.43-17.28,5-32.15,13.35-44.44,27.19a45.79,45.79,0,0,1,2.9-6.07c16.72-25.37,41.93-38,70.47-42.87C507.31,291.68,536.19,289.07,565,287Z"/></g></g></svg>