<svg xmlns="http://www.w3.org/2000/svg" viewBox="0 0 1171.47 1023.37"><defs><style>.cls-1{fill:#fff;}</style></defs><g id="Capa_2" data-name="Capa 2"><g id="Capa_1-2" data-name="Capa 1"><path class="cls-1" d="M1165.71,407.87a11.15,11.15,0,0,1,4.22,4.34,12.55,12.55,0,0,1,1.54,6.22,12.38,12.38,0,0,1-1.54,6.18,11.3,11.3,0,0,1-4.22,4.32,12,12,0,0,1-6.13,1.57,12.13,12.13,0,0,1-6.15-1.57,11.33,11.33,0,0,1-4.26-4.32,12.48,12.48,0,0,1-1.53-6.18,12.66,12.66,0,0,1,1.53-6.22,11.18,11.18,0,0,1,4.26-4.34,12,12,0,0,1,6.15-1.57A11.88,11.88,0,0,1,1165.71,407.87Zm.9,17.8a11.09,11.09,0,0,0,0-14.48,10.2,10.2,0,0,0-14.12,0,11.12,11.12,0,0,0,0,14.48,10.2,10.2,0,0,0,14.12,0Zm-2.62-7.39a4,4,0,0,1-2.36,1.29l3.63,5.19-3.08.07-3.32-5.14h-1.39v5.14h-2.59v-13h5.61a4.55,4.55,0,0,1,3.17,1.06,3.66,3.66,0,0,1,1.17,2.86A3.77,3.77,0,0,1,1164,418.28Zm-6.52-.76h2.84a2.23,2.23,0,0,0,1.39-.42,1.5,1.5,0,0,0,.54-1.27,1.41,1.41,0,0,0-.54-1.23,2.29,2.29,0,0,0-1.39-.4h-2.84Z"/><path class="cls-1" d="M24.17,587.92v15.89H0v-2.17H3.48A16.44,16.44,0,0,0,13.94,598a14.74,14.74,0,0,0,5.44-10.12ZM35.71,448.33h2.18l4.36,12.85L29.4,603.81H17.64ZM30.49,591.4v1.09a9.69,9.69,0,0,0,2.5,6.42,7.62,7.62,0,0,0,6,2.94h3.27v2H29V591.4Zm7.4-143.07L100.61,584l-5,22.87L33.75,472.72Zm120.2,0,1.74,14.59L105.18,584.65q-3.27,7.41-5,12.52a54.49,54.49,0,0,0-2.4,9.69H95.6l-3-13.72Zm2.62,143.07h1.52v12.41H149v-2h3.26a7.53,7.53,0,0,0,6.1-2.94,9.94,9.94,0,0,0,2.4-6.42V591.4Zm-.66-143.07,18.73,155.48h-17l-12-132,8.27-23.52Zm12.2,139.59h4.57A15.57,15.57,0,0,0,182.48,598a16.14,16.14,0,0,0,10.24,3.6h3.48v2.17H172.25Z"/><path class="cls-1" d="M284.39,467.28h-.65a14,14,0,0,0-4.25-9.69,13.19,13.19,0,0,0-9.69-4H267v-2.18h17.42Zm0,120.64v15.89H267v-2.17h2.83a13.23,13.23,0,0,0,9.69-4,14,14,0,0,0,4.25-9.69Zm13.5-136.54V603.81H283.74V451.38Zm-8.49-15.46q4.58-5,9.15-9.91t9.25-9.58q4.68-4.68,9.26-9c1.59,1.75,3.19,3.56,4.79,5.45a35,35,0,0,1,4.13,6.1l-11.75,6.53q-5.88,3.25-11.65,6.2t-11.65,5.77Zm7.84,31.36v-15.9h17.42v2.18h-2.83a13.18,13.18,0,0,0-9.69,4,14,14,0,0,0-4.25,9.69Zm0,120.64h.65a14,14,0,0,0,4.25,9.69,13.22,13.22,0,0,0,9.69,4h2.83v2.17H297.24Z"/><path class="cls-1" d="M412.43,467.28h-.65a14,14,0,0,0-4.25-9.69,13.18,13.18,0,0,0-9.69-4H395v-2.18h17.42Zm0,120.64v15.89H395v-2.17h2.83a13.22,13.22,0,0,0,9.69-4,14,14,0,0,0,4.25-9.69Zm13.5-136.54V603.81H411.78V451.38Zm27.88,0a52.88,52.88,0,0,1,17.75,2.83,35.15,35.15,0,0,1,21.77,21,46.56,46.56,0,0,1,2.94,17.09,43.43,43.43,0,0,1-4.9,20,42.69,42.69,0,0,1-13.28,15.56,31.59,31.59,0,0,1-18.84,6q3.71,1.53,8.06,6.21a112.13,112.13,0,0,1,7.62,9q5.88,8.49,10.34,14.58t9,12q4.57,5.88,7.84,9.37a94.38,94.38,0,0,0,8.71,8.49,36.68,36.68,0,0,0,9.47,5.88,29,29,0,0,0,11.44,2.18v2.17h-12a44.57,44.57,0,0,1-17.31-3,43.34,43.34,0,0,1-12.31-7.51,84,84,0,0,1-8.49-8.6c-.44-.58-1.63-2.25-3.59-5s-4.29-6.06-7-9.91-5.34-7.65-7.95-11.43-4.86-7-6.75-9.69-3-4.25-3.27-4.68a75,75,0,0,0-9.14-10,15.86,15.86,0,0,0-10.89-4.57v-2.18q6.75.23,11.54,0a67.82,67.82,0,0,0,12.41-1.74,30.59,30.59,0,0,0,12.63-6.31q5.88-4.8,8.93-14.6a42,42,0,0,0,1.09-6,39.22,39.22,0,0,0,.22-7.08q-.22-14.81-7.52-23.63t-19.48-9.47q-6.1-.44-12.52-.33t-15.14.11a13.19,13.19,0,0,0-.54-1.85c-.37-1.09-.91-2.72-1.64-4.9ZM425.28,587.92h.65a13,13,0,0,0,4.14,9.69,13.59,13.59,0,0,0,9.8,4h2.61v2.17h-17.2Z"/><path class="cls-1" d="M580.1,587.92c-1,2.9-1.16,5.37-.43,7.4a9,9,0,0,0,3.59,4.68,9.28,9.28,0,0,0,5.12,1.64h2v2.17H546.57v-2.17h2a20.25,20.25,0,0,0,10.34-3.16q5.34-3.16,8.82-10.56Zm46.82-139.59,2,15.24L574.22,603.16H561.16l55.75-132.4q2.39-5.44,4-9.36c1.09-2.61,2-5.15,2.84-7.63a20.16,20.16,0,0,0,1.19-5.44Zm30.7,96v6.54H589.47v-6.54Zm-30.7-96,64.46,154.18H672.87L622.57,469Zm40.5,139.59h17.86q3.27,7.4,8.71,10.56a20.81,20.81,0,0,0,10.45,3.16h1.75v2.17h-49v-2.17h2a9.78,9.78,0,0,0,7.4-3.6Q669.82,594.45,667.42,587.92Z"/><path class="cls-1" d="M785.67,587.92v15.89H761.49v-2.17H765a16.43,16.43,0,0,0,10.45-3.6,14.79,14.79,0,0,0,5.45-10.12Zm11.54-139.59h2.18l4.35,12.85L790.89,603.81H779.13ZM792,591.4v1.09a9.65,9.65,0,0,0,2.51,6.42,7.6,7.6,0,0,0,6,2.94h3.27v2H790.46V591.4Zm7.41-143.07L862.1,584l-5,22.87L795.25,472.72Zm120.2,0,1.74,14.59L866.67,584.65q-3.27,7.41-5,12.52a53.57,53.57,0,0,0-2.39,9.69h-2.18L854,593.14ZM922.2,591.4h1.52v12.41H910.44v-2h3.27a7.53,7.53,0,0,0,6.09-2.94,9.94,9.94,0,0,0,2.4-6.42V591.4Zm-.65-143.07,18.72,155.48h-17l-12-132,8.28-23.52Zm12.19,139.59h4.57A15.58,15.58,0,0,0,944,598a16.09,16.09,0,0,0,10.23,3.6h3.49v2.17h-24Z"/><path class="cls-1" d="M1045.89,467.28h-.66a13.06,13.06,0,0,0-4.13-9.69,13.57,13.57,0,0,0-9.8-4h-2.62l-.21-2.18h17.42Zm0,120.64v15.89h-17.42v-2.17h2.83a13.25,13.25,0,0,0,9.69-4,14,14,0,0,0,4.24-9.69Zm13.5-136.54V603.81h-14.16V451.38Zm58.79,0v6.75h-59.45v-6.75Zm-9.36,74V532h-50.09v-6.53Zm9.36,71.64v6.75h-59.45v-6.75Zm13.28-28.52-12.62,35.27h-36.15l7.84-6.75q11.54,0,18.83-3.59a30.87,30.87,0,0,0,11.87-10.13,79.9,79.9,0,0,0,8.06-14.8Zm-13.28-121.08v6.31l-26.57-2.39a84.59,84.59,0,0,0,10.13-.65c3.56-.44,6.86-.94,9.91-1.52A32.54,32.54,0,0,0,1118.18,447.46Zm-9.36,64v14.38h-12.63v-.44a10.68,10.68,0,0,0,7.4-3.37,10.47,10.47,0,0,0,3.05-7.52v-3Zm0,20v14.37h-2.18v-3.27a10.46,10.46,0,0,0-3.05-7.51,9.92,9.92,0,0,0-7.4-3.16v-.43Zm9.36-74V474.9H1116V471a12.53,12.53,0,0,0-3.7-9,13.09,13.09,0,0,0-9.14-4v-.43Z"/><path class="cls-1" d="M208.41,681.82l-.72,9.5a18.59,18.59,0,0,1-4,4.63,18.07,18.07,0,0,1-5.62,3.2,21.5,21.5,0,0,1-7.41,1.18,23.19,23.19,0,0,1-11.19-2.78,19.35,19.35,0,0,1-7.65-7.65,25.9,25.9,0,0,1,0-23.17,19.33,19.33,0,0,1,7.65-7.67,23.34,23.34,0,0,1,11.58-2.76,26,26,0,0,1,8.08,1.18,26.88,26.88,0,0,1,6.26,2.93l1.21,8.53h-.55a13.14,13.14,0,0,0-5.44-8.07,16.82,16.82,0,0,0-9.56-2.75,16.1,16.1,0,0,0-15.27,9.52,27.17,27.17,0,0,0,0,21.14,17,17,0,0,0,6,7.08,16.55,16.55,0,0,0,8.92,2.66,19.57,19.57,0,0,0,7.95-1.6,14.32,14.32,0,0,0,6.14-5.27,21.56,21.56,0,0,0,3.15-9.83Z"/><path class="cls-1" d="M238.05,661.57h-.19a3.66,3.66,0,0,0-1.14-2.7,3.82,3.82,0,0,0-2.73-1.12h-.72l-.06-.6h4.84Zm0,33.5v4.42h-4.84v-.61H234a3.68,3.68,0,0,0,2.7-1.12,3.89,3.89,0,0,0,1.17-2.69Zm3.75-37.92v42.34h-3.94V657.15Zm16.32,0V659H241.61v-1.87Zm-2.6,20.56v1.82H241.61v-1.82Zm2.6,19.9v1.88H241.61v-1.88Zm3.69-7.92-3.5,9.8h-10l2.17-1.88a11.85,11.85,0,0,0,5.24-1A8.54,8.54,0,0,0,259,693.8a22.26,22.26,0,0,0,2.24-4.11Zm-3.69-33.63v1.76l-7.37-.67a23.44,23.44,0,0,0,2.81-.18c1-.12,1.9-.27,2.75-.42A9.57,9.57,0,0,0,258.12,656.06Zm-2.6,17.78v4H252v-.13a3,3,0,0,0,2-.93,2.89,2.89,0,0,0,.85-2.09v-.85Zm0,5.56v4h-.6v-.91a2.85,2.85,0,0,0-.85-2.08,2.72,2.72,0,0,0-2-.88v-.13Zm2.6-20.56v4.84h-.6v-1.09a3.48,3.48,0,0,0-1-2.51A3.62,3.62,0,0,0,254,659v-.12Z"/><path class="cls-1" d="M294.84,657.15v42.34a13.21,13.21,0,0,1-.85,4.74,11.8,11.8,0,0,1-2.36,3.84,11.21,11.21,0,0,1-3.51,2.57,9.89,9.89,0,0,1-4.29.94V711a9.11,9.11,0,0,0,3.6-2.51,13.56,13.56,0,0,0,2.54-4.21,13.84,13.84,0,0,0,.93-5V657.15Zm-3.75,4.42h-.19a3.93,3.93,0,0,0-1.17-2.7,3.72,3.72,0,0,0-2.7-1.12h-.78v-.6h4.84Zm3.56,0v-4.42h4.84v.6h-.78a3.72,3.72,0,0,0-2.7,1.12,3.89,3.89,0,0,0-1.17,2.7Z"/><path class="cls-1" d="M329.06,695.07a3,3,0,0,0-.11,2.06,2.55,2.55,0,0,0,1,1.3,2.58,2.58,0,0,0,1.42.45h.55v.61H319.75v-.61h.55a5.69,5.69,0,0,0,2.87-.87,6.53,6.53,0,0,0,2.45-2.94Zm13-38.77.54,4.24L327.43,699.3H323.8l15.49-36.77c.44-1,.81-1.87,1.11-2.6s.57-1.43.79-2.11a5.63,5.63,0,0,0,.33-1.52ZM350.6,683v1.81H331.67V683Zm-8.53-26.68L360,699.12h-5.14l-14-37.07Zm11.25,38.77h5A6.08,6.08,0,0,0,360.7,698a5.79,5.79,0,0,0,2.9.87h.48v.61h-13.6v-.61H351a2.72,2.72,0,0,0,2.06-1A2.62,2.62,0,0,0,353.32,695.07Z"/><path class="cls-1" d="M396.74,656.3a19.69,19.69,0,0,1,2.09.12c.75.09,1.47.2,2.18.34s1.35.28,1.93.42a6.5,6.5,0,0,1,1.36.45v6.72h-.54a5.63,5.63,0,0,0-2-4.57,7.95,7.95,0,0,0-10.22.42,6.74,6.74,0,0,0-2.06,4.87,8.78,8.78,0,0,0,.52,2.69,7.16,7.16,0,0,0,1.9,2.88l11.92,11a8.53,8.53,0,0,1,2.42,3.63,12.64,12.64,0,0,1,.6,3.75,11.26,11.26,0,0,1-3,8.17,11,11,0,0,1-8.26,3.14,22.84,22.84,0,0,1-3.41-.3,16.21,16.21,0,0,1-3.81-1.06,9.13,9.13,0,0,1-3.06-2,13.47,13.47,0,0,1-.18-2.41,20.72,20.72,0,0,1,.24-3.06,19.17,19.17,0,0,1,.67-2.93h.54a10,10,0,0,0,.79,5.38,7.57,7.57,0,0,0,3.17,3.48,8.73,8.73,0,0,0,4.75,1.06,9.11,9.11,0,0,0,5.72-2.33,7.4,7.4,0,0,0,2.39-5.78,8.07,8.07,0,0,0-.61-3.17,6.8,6.8,0,0,0-1.75-2.45L389.36,674a9.46,9.46,0,0,1-2.54-3.72,11.28,11.28,0,0,1-.72-3.78,10.53,10.53,0,0,1,1.21-4.89,9.61,9.61,0,0,1,3.59-3.85A11,11,0,0,1,396.74,656.3Zm7.56.61v1.27h-4.6v-1.27Z"/><path class="cls-1" d="M497.38,679.59a21.57,21.57,0,0,1,.36,6.35,17.27,17.27,0,0,1-1.48,5.59,14.29,14.29,0,0,1-3.21,4.51,14.07,14.07,0,0,1-4.8,3,17.33,17.33,0,0,1-6.23,1.06,32.13,32.13,0,0,1-6.44-.6,19.51,19.51,0,0,1-5.17-1.79,13,13,0,0,1-3.78-2.9,11.67,11.67,0,0,1-2.33-3.93,14.53,14.53,0,0,1-.79-4.93,12.73,12.73,0,0,1,.39-3.24A12.11,12.11,0,0,1,465,680a10.81,10.81,0,0,1,1.73-2.27,16.49,16.49,0,0,1,2.2-1.84,14.4,14.4,0,0,1,2.61-1.45l.84,1.33a11.24,11.24,0,0,0-2.06,2.14,13.27,13.27,0,0,0-1.39,2.49,12.34,12.34,0,0,0-.78,2.72,17.1,17.1,0,0,0-.24,2.87,13.08,13.08,0,0,0,.93,5,10.93,10.93,0,0,0,2.73,3.9,12.29,12.29,0,0,0,4.41,2.54,18.53,18.53,0,0,0,6,.91,11.79,11.79,0,0,0,5.47-1.24,12.26,12.26,0,0,0,4-3.27,13.88,13.88,0,0,0,2.39-4.51,14.23,14.23,0,0,0,.67-5,11.67,11.67,0,0,0-1.21-4.68,6.21,6.21,0,0,0-1.54-2,3.64,3.64,0,0,0-2.39-.78h-.91v-.61h12v.61h-.91a2.21,2.21,0,0,0-1.91.78A2.47,2.47,0,0,0,497.38,679.59ZM480.69,656.3a14.78,14.78,0,0,1,4,.55,15.77,15.77,0,0,1,3.57,1.48A9.63,9.63,0,0,1,491,660.6l-1.09,6.83h-.6a10.72,10.72,0,0,0-1.09-5,7.89,7.89,0,0,0-3-3.21,8.78,8.78,0,0,0-4.5-1.11,7.53,7.53,0,0,0-5.72,2.42,8.57,8.57,0,0,0-2.27,6.11,11.49,11.49,0,0,0,2.48,7.07,56.35,56.35,0,0,0,7.14,7.44c.89.77,1.86,1.64,2.93,2.63s2.3,2.09,3.69,3.3,3,2.54,4.69,4q1.94,1.57,4,3.33a29.21,29.21,0,0,0,4.18,3,10.12,10.12,0,0,0,4.44,1.45v.61c-.77,0-1.87,0-3.3-.07a18.39,18.39,0,0,1-4.74-.84,15.25,15.25,0,0,1-5.2-2.91q-2.31-1.86-4.21-3.47l-3.51-3c-1.07-.9-2.06-1.77-3-2.6s-1.83-1.64-2.72-2.45c-2.34-2.17-4.33-4.14-6-5.89a21.69,21.69,0,0,1-3.75-5.38,14.45,14.45,0,0,1-1.3-6.26,9.8,9.8,0,0,1,.85-4.12,9.35,9.35,0,0,1,2.45-3.26,11.62,11.62,0,0,1,3.84-2.18A15.15,15.15,0,0,1,480.69,656.3Z"/><path class="cls-1" d="M560.64,661.57h-.18a3.63,3.63,0,0,0-1.15-2.7,3.8,3.8,0,0,0-2.72-1.12h-.73l-.06-.6h4.84Zm0,33.5v4.42H555.8v-.61h.79a3.66,3.66,0,0,0,2.69-1.12,3.86,3.86,0,0,0,1.18-2.69Zm3.75-37.92v42.34h-3.93V657.15Zm7.2,0a14.67,14.67,0,0,1,6.65,1.39,10.07,10.07,0,0,1,4.3,4,12.45,12.45,0,0,1,1.51,6.26,11.08,11.08,0,0,1-4,8.71,12.29,12.29,0,0,1-4.12,2.27,12,12,0,0,1-4.74.57,11.91,11.91,0,0,1-4.75-1.39v-.6a18.45,18.45,0,0,0,3.66.21,13.21,13.21,0,0,0,3.38-.67,8.71,8.71,0,0,0,3.33-2,9.07,9.07,0,0,0,2.33-4,12.28,12.28,0,0,0,.3-1.66,10.9,10.9,0,0,0,.06-2,10.41,10.41,0,0,0-2.18-6.72,7.35,7.35,0,0,0-6-2.54h-7.14l-.6-1.81Zm-7.38,37.92h.18a3.86,3.86,0,0,0,1.18,2.69,3.66,3.66,0,0,0,2.69,1.12h.79v.61h-4.84Z"/><path class="cls-1" d="M613.38,661.57h-.18a3.67,3.67,0,0,0-1.15-2.7,3.8,3.8,0,0,0-2.72-1.12h-.73l-.06-.6h4.84Zm0,33.5v4.42h-4.84v-.61h.79a3.66,3.66,0,0,0,2.69-1.12,3.9,3.9,0,0,0,1.18-2.69Zm3.75-37.92v42.34H613.2V657.15Zm16.33,0V659H617v-1.87Zm-2.6,20.56v1.82H617v-1.82Zm2.6,19.9v1.88H617v-1.88Zm3.69-7.92-3.51,9.8h-10l2.18-1.88a11.77,11.77,0,0,0,5.23-1,8.57,8.57,0,0,0,3.3-2.81,22.24,22.24,0,0,0,2.23-4.11Zm-3.69-33.63v1.76l-7.38-.67a23.32,23.32,0,0,0,2.81-.18c1-.12,1.91-.27,2.75-.42A9.72,9.72,0,0,0,633.46,656.06Zm-2.6,17.78v4h-3.51v-.13a3,3,0,0,0,2.06-.93,2.92,2.92,0,0,0,.84-2.09v-.85Zm0,5.56v4h-.61v-.91a2.88,2.88,0,0,0-.84-2.08,2.75,2.75,0,0,0-2.06-.88v-.13Zm2.6-20.56v4.84h-.6v-1.09a3.52,3.52,0,0,0-1-2.51,3.66,3.66,0,0,0-2.54-1.12v-.12Z"/><path class="cls-1" d="M673.13,656.3a19.69,19.69,0,0,1,2.09.12c.75.09,1.47.2,2.18.34s1.35.28,1.93.42a6.5,6.5,0,0,1,1.36.45v6.72h-.54a5.63,5.63,0,0,0-2-4.57,7.95,7.95,0,0,0-10.22.42,6.73,6.73,0,0,0-2,4.87,8.74,8.74,0,0,0,.51,2.69,7.09,7.09,0,0,0,1.91,2.88l11.91,11a8.44,8.44,0,0,1,2.42,3.63,12.64,12.64,0,0,1,.6,3.75,11.26,11.26,0,0,1-3.05,8.17,11,11,0,0,1-8.26,3.14,23.06,23.06,0,0,1-3.41-.3A16.35,16.35,0,0,1,664.7,699a9.13,9.13,0,0,1-3.06-2,13.47,13.47,0,0,1-.18-2.41,20.72,20.72,0,0,1,.24-3.06,19.17,19.17,0,0,1,.67-2.93h.54a10,10,0,0,0,.79,5.38,7.57,7.57,0,0,0,3.17,3.48,8.75,8.75,0,0,0,4.75,1.06,9.11,9.11,0,0,0,5.72-2.33,7.4,7.4,0,0,0,2.39-5.78,8.07,8.07,0,0,0-.61-3.17,6.8,6.8,0,0,0-1.75-2.45L665.76,674a9.36,9.36,0,0,1-2.54-3.72,11.06,11.06,0,0,1-.73-3.78,10.53,10.53,0,0,1,1.21-4.89,9.7,9.7,0,0,1,3.6-3.85A10.93,10.93,0,0,1,673.13,656.3Zm7.56.61v1.27H676.1v-1.27Z"/><path class="cls-1" d="M706,656a11.66,11.66,0,0,0,1.84.49c.82.16,1.74.3,2.75.42a23.75,23.75,0,0,0,2.78.18l-7.37.66Zm35,1.09v1.81H706v-1.81Zm-30.84,1.63v.18a3.68,3.68,0,0,0-2.54,1.09,3.45,3.45,0,0,0-1,2.54v1l-.6.06v-4.9Zm11.55,36.35v4.42h-4.84v-.61h.79a3.66,3.66,0,0,0,2.69-1.12,3.9,3.9,0,0,0,1.18-2.69Zm3.75-37.74v42.16h-3.93V657.33Zm-.18,37.74h.18a3.86,3.86,0,0,0,1.18,2.69,3.64,3.64,0,0,0,2.69,1.12h.79v.61h-4.84ZM741.05,656v1.75l-7.38-.66a23.48,23.48,0,0,0,2.82-.18c1-.12,1.9-.26,2.75-.42A9.57,9.57,0,0,0,741.05,656Zm0,2.72v4.9l-.6-.06v-1a3.44,3.44,0,0,0-1.06-2.54,3.74,3.74,0,0,0-2.51-1.09v-.18Z"/><path class="cls-1" d="M764.82,695.07a3.11,3.11,0,0,0-.12,2.06,2.52,2.52,0,0,0,1,1.3,2.56,2.56,0,0,0,1.42.45h.54v.61H755.51v-.61h.54a5.63,5.63,0,0,0,2.87-.87,6.47,6.47,0,0,0,2.45-2.94Zm13-38.77.55,4.24L763.19,699.3h-3.63L775,662.53c.45-1,.82-1.87,1.12-2.6s.57-1.43.79-2.11a5.63,5.63,0,0,0,.33-1.52ZM786.35,683v1.81H767.42V683Zm-8.53-26.68,17.91,42.82h-5.14l-14-37.07Zm11.25,38.77h5a6.13,6.13,0,0,0,2.42,2.94,5.85,5.85,0,0,0,2.9.87h.49v.61H786.23v-.61h.54a2.7,2.7,0,0,0,2.06-1A2.58,2.58,0,0,0,789.07,695.07Z"/><path class="cls-1" d="M825.06,695.19v4.3h-5v-.61h1.15a3.7,3.7,0,0,0,3.68-3.69Zm-.12-39,2.66,3.39.06,39.86h-2.79V663.8a65,65,0,0,0-.54-7.56Zm0,0,35.13,37.5.55,6.59L825.48,662.9Zm2.72,39a3.72,3.72,0,0,0,3.69,3.69h1.15v.61h-5v-4.3Zm8.47-42.09h.6a5.21,5.21,0,0,1,.82-1.39,2.78,2.78,0,0,1,1.08-.82,3.49,3.49,0,0,1,1.37-.27,4.53,4.53,0,0,1,2.2.66c.79.45,1.62.89,2.51,1.33a5.75,5.75,0,0,0,2.6.67,3.19,3.19,0,0,0,1.45-.33,3.8,3.8,0,0,0,1.18-.94,4.76,4.76,0,0,0,.85-1.51,8.62,8.62,0,0,0,.45-2h-.6a3,3,0,0,1-.73,1.15,2.83,2.83,0,0,1-1.11.7,4.78,4.78,0,0,1-1.49.21,4.29,4.29,0,0,1-2.17-.67c-.77-.44-1.59-.88-2.45-1.3A6.13,6.13,0,0,0,840,648a2.75,2.75,0,0,0-1.37.36,3.48,3.48,0,0,0-1.11,1,6.69,6.69,0,0,0-.85,1.6A9.65,9.65,0,0,0,836.13,653.1Zm16.87,4h5v4.29h-.12a3.82,3.82,0,0,0-1.12-2.63,3.61,3.61,0,0,0-2.63-1.06H853Zm7.62,0v35.44q0,1.93.12,3.72t.42,4h-.54l-2.72-3.2v-40Zm4.84,0v.6h-1.09a3.61,3.61,0,0,0-2.6,1.06,3.72,3.72,0,0,0-1.15,2.63h-.18v-4.29Z"/><path class="cls-1" d="M894.12,695.07a3.11,3.11,0,0,0-.12,2.06,2.62,2.62,0,0,0,1,1.3,2.58,2.58,0,0,0,1.42.45H897v.61H884.81v-.61h.54a5.69,5.69,0,0,0,2.88-.87,6.59,6.59,0,0,0,2.45-2.94Zm13-38.77.54,4.24L892.49,699.3h-3.63l15.48-36.77c.45-1,.82-1.87,1.12-2.6s.57-1.43.79-2.11a5.63,5.63,0,0,0,.33-1.52ZM915.65,683v1.81H896.72V683Zm-8.52-26.68L925,699.12h-5.14l-14-37.07Zm11.25,38.77h5a6.08,6.08,0,0,0,2.42,2.94,5.79,5.79,0,0,0,2.9.87h.48v.61H915.53v-.61h.55a2.73,2.73,0,0,0,2.06-1A2.62,2.62,0,0,0,918.38,695.07Z"/><path class="cls-1" d="M961.8,656.3a19.84,19.84,0,0,1,2.09.12c.74.09,1.47.2,2.17.34s1.35.28,1.94.42a6.71,6.71,0,0,1,1.36.45v6.72h-.55a5.63,5.63,0,0,0-2-4.57,7.29,7.29,0,0,0-4.84-1.66,7.21,7.21,0,0,0-5.38,2.08,6.74,6.74,0,0,0-2.06,4.87,8.49,8.49,0,0,0,.52,2.69,7.06,7.06,0,0,0,1.9,2.88l11.92,11a8.53,8.53,0,0,1,2.42,3.63,12.64,12.64,0,0,1,.6,3.75,11.23,11.23,0,0,1-3.06,8.17,11,11,0,0,1-8.25,3.14,23.07,23.07,0,0,1-3.42-.3,16.35,16.35,0,0,1-3.81-1.06,9.08,9.08,0,0,1-3.05-2,13.47,13.47,0,0,1-.18-2.41,20.72,20.72,0,0,1,.24-3.06,19.2,19.2,0,0,1,.66-2.93h.55a10.14,10.14,0,0,0,.78,5.38,7.64,7.64,0,0,0,3.18,3.48,8.71,8.71,0,0,0,4.75,1.06,9.09,9.09,0,0,0,5.71-2.33,7.36,7.36,0,0,0,2.39-5.78,8.07,8.07,0,0,0-.6-3.17,6.83,6.83,0,0,0-1.76-2.45L954.42,674a9.36,9.36,0,0,1-2.54-3.72,11.28,11.28,0,0,1-.72-3.78,10.64,10.64,0,0,1,1.2-4.89,9.7,9.7,0,0,1,3.6-3.85A11,11,0,0,1,961.8,656.3Zm7.56.61v1.27h-4.6v-1.27Z"/><path class="cls-1" d="M748.67,272.86l-48.08,6.2,1.19.79L690.05,281v1h33.28c.06.49.15,1,.21,1.48l-42.43,7c0,.56,0,1.09-.06,1.64,9.47.86,18.92,1.69,27.66,2.48-7.19,4-16.83,3.92-48.16.32l18,5.44c0,.28-.09.55-.15.83-5.48-.4-11-.83-16.49-1.26-.11.54-.24,1.07-.34,1.6l15.78,5.68-.06.83c-9.75-.58-19.71-.09-29.16-2.05-9.77-2-19.05-6.4-27.44-9.36,6.47,10.79,17.86,15.48,30.6,18.13-14.34.27-27.4-4-40.49-10,3,2.35,6,4.85,9.15,7,3.35,2.28,6.93,4.27,9.81,8.06-8-2.75-15.91-5.52-23.78-8.27.49.74,1.08,1.62,1.66,2.47-.21.47-.45.92-.66,1.39l-21.67-11.44c10.38,10.42,23.25,16.71,37.75,21.76-11.67,1.07-21.22-3.15-51.19-22.31,1.68,2.88,2.83,4.89,4,6.89l-1.66,1.6c-7.47-8.15-14.93-16.3-22.31-24.34,4.8,14.34,14.61,24.94,27.13,33.51-15.21-4.31-26.11-14.29-36.69-25.7,4.46,6.91,8.9,13.82,13.53,21.05-6.72-2.92-13.15-5.71-20.27-8.83.92,1.79,1.69,3.29,3.58,7l-13.65-9.81c-.32.23-.64.47-.94.72q5,6.57,10.09,13.12c-.42.39-.87.79-1.3,1.17l-16.51-17.4c-.28.51-.87,1.53-1.68,2.92-2-4.2-3.84-8.11-5.7-12-.32.09-.64.15-.94.23l1.35,9.58c-.3.13-.6.28-.92.43-3-5.1-6-10.2-9.3-15.79,1,10.5,1.81,20,2.68,29.51l-1.68.1c-1.88-6.8-3.63-13.65-5.65-20.39-.6-2-2-3.75-4.44-5.46v20c-.3,0-.58-.06-.85-.11q-3-11.87-6.06-23.78l-1.92.45,4.48,19.58L485,308l-9.48-22.06c-.57.17-1.13.34-1.7.49.19,3.29.4,6.57.7,11.48-3.2-5.5-5.59-9.62-8.74-15.08.42,9.51.79,17.26,1.13,25l-1.18.13c-2.62-8.75-5.22-17.5-8.47-28.31-1.85,3-2.41,3.86-3.09,4.95l-8.4-9.09c2.77,7.3,4.82,12.67,6.87,18l-1.35.58c-3-4.07-6-8.17-9-12.24l-1.26.51q1.18,5.43,2.37,10.9l-1.18.51q-3.68-6.4-7.33-12.8l-.84.36c1.56,6.51,3.12,13,4.65,19.54-.29.11-.61.2-.93.3q-6.54-10.85-13.06-21.69l-1.86.87c1.45,4.21,2.88,8.41,4.33,12.61l-1.23.49a70.25,70.25,0,0,0-5.19-7.27c-8.12-9.07-17.64-13.55-30.22-9.92-15,4.33-27.91,11.58-38.57,23.59a39.29,39.29,0,0,1,2.52-5.27c14.5-22,36.39-32.94,61.15-37.2s49.71-6.49,74.69-8.32c34.68-2.58,69.35-4.76,103.2-13.46,40.21-10.33,74.54-29.29,102.59-57.51.94-.92,1.83-1.84,2.75-2.8q6.15-6.42,11.9-13.48,4.83-5.88,9.32-12.2c1.35-1.9,2.84-3.69,4.57-5.93a2.37,2.37,0,0,0,.23-.3,2.36,2.36,0,0,1,0,.38c-.21,4.1-2.86,11.5-7.21,20.21-2.43,4.86-5.39,10.15-8.74,15.46-.62,1-1.26,2-1.9,3-2.28,3.45-4.72,6.91-7.28,10.26-11.26,14.76-24.31,28.16-36.35,41.91h16.45l-8.77,4.55c.07.64.13,1.28.22,1.94L699,237.79c.13.38.26.74.39,1.13-7.66,2.11-15.32,4.2-23.45,6.42,20.5,2.83,39.49-1.73,58.09-9,.3.64.6,1.3.92,1.94-7.94,3.92-15.85,7.85-23.53,11.62.68.2,2.09.58,4.29,1.16l-7,4.92,27.8-3.84.38,1.28L719,259.54c.07.39.15.77.24,1.16l29.46-1.9c.08.85.17,1.7.23,2.56-17.83,1.92-35.69,3.82-50.83,5.44l50.19,4.75C748.39,272,748.52,272.43,748.67,272.86Z"/><path class="cls-1" d="M902.45,112.25c-.77.79-1.51,1.6-2.26,2.39-2-1.35-4-2.63-5.91-4.08C812.81,48,724.16,34.32,629.44,75,607,84.6,585.22,95.71,563.51,107.11c-.94.47-1.86,1-2.8,1.45l-11.94,6.27c-4.42,2.32-8.86,4.63-13.27,6.93-1.71.9-3.42,1.77-5.12,2.65-5.57,2.9-11.14,5.73-16.75,8.55-1.53.77-3.07,1.54-4.58,2.28a4.66,4.66,0,0,1-.45.22c-21,10.38-42.05,20.86-63.17,31.06-18.81,9.08-37.71,17.94-56.8,26.34a189.94,189.94,0,0,1-22.7,8.32,182.45,182.45,0,0,1-53.74,7.53c-.91,0-1.85,0-2.79,0-2.18,0-4.35-.47-9.09-1,3.37-8.7,6.81-16.83,9.86-25,.89-2.39,1.75-4.76,2.56-7.17a44.7,44.7,0,0,1,1.83-4.61c5.06-10.94,13.63-17.34,25.37-23.27,26.13-13.21,52-26.95,77.73-40.9,2.56-1.36,5.1-2.75,7.66-4.16,4.39-2.39,8.77-4.75,13.14-7.16q17.06-9.32,34.11-18.69l15.51-8.51c44.67-24.47,89.53-48.72,139.38-60.8,90.75-22,168.33,6.4,236.91,65.3C878.17,84.6,889.8,99,902.45,112.25Z"/><path class="cls-1" d="M256,214q-87.51,75.64-126.37,184.78h9.2C160.84,331.16,202.85,270,257.86,221.94A45.43,45.43,0,0,1,256,214Zm12.5,25.15c-4.26,3.33-8.49,6.76-12.65,10.28-49,41.49-87.54,91.15-114.63,149.35h16.23q37.47-81.06,105.83-141.88a11.75,11.75,0,0,1,5.35-2.8Q208.28,320,176.33,398.78H184a442.1,442.1,0,0,1,56.66-90.58A448.16,448.16,0,0,1,294.21,252,44.57,44.57,0,0,1,268.46,239.15ZM980.63,398.78H1000q-7.51-18.69-16.91-36.71a439,439,0,0,0-99.45-127.51c-35.12-31-73.68-56.35-116.37-74.7a123.73,123.73,0,0,1-7.53,19.95,345,345,0,0,1,41.81,21.69c14.63,9,27.63,21.05,40,33.17A446.87,446.87,0,0,1,947.89,398.78h7.78Q932,331.3,885.19,272c-6.42-8.1-13.22-15.91-19.84-23.85C913.33,286.68,953.28,338.84,980.63,398.78ZM717,986.31c18.26-10.09,36.61-19.31,54-30,62.59-38.48,112-89.93,148.6-153.65A440.85,440.85,0,0,0,943.3,755h-4.65a420.39,420.39,0,0,1-77.39,117.16c-65.73,70.74-146.1,114.91-240.92,131.62-21.38,3.77-44.08,2.43-65.94.66a441.54,441.54,0,0,1-135.33-32.75,414.48,414.48,0,0,1-37.87-18.13C503.73,995.86,624,994,740.6,934.77,824,892.44,885.26,831.86,927.15,755h-8.59a451.3,451.3,0,0,1-41.62,60.27c-71.32,87.46-163.83,139.59-275.4,156C523.17,982.72,447.42,971,373.89,941c-75.37-30.74-128.21-85.27-169.12-153.29q-9.68-16.07-17.71-32.71h-8.13q10.69,26.09,24.3,51.56A306.3,306.3,0,0,1,167.31,755H159c8,13.68,16.13,27.27,25.13,40.26,12.5,18,26.79,34.85,41.55,51.09,16.79,18.43,35.12,35.47,52.52,53.37,24,24.79,51.58,45,80.87,63,2.11,1.3,4.18,2.65,7,4.44-21.35,0-90.17-48.21-134.77-94.71A385.21,385.21,0,0,1,154.25,755H135.5q43.23,102.36,131.6,173.22c53.43,42.83,114.08,71.08,181.21,85.16,37.48,7.85,75.39,10.66,113.92,9.43a410.84,410.84,0,0,0,107-8.6q132-28.12,228.38-123.11c40-39.48,70.93-85.31,94.22-136.1h-8.61C927.3,877.77,817.1,961.62,717,986.31Z"/><path class="cls-1" d="M490.34,249.05c34.68-2.58,69.35-4.76,103.2-13.46,40.21-10.33,74.54-29.29,102.59-57.51.94-.92,1.83-1.84,2.75-2.8q6.15-6.42,11.9-13.48,4.83-5.88,9.32-12.2c1.35-1.9,2.84-3.69,4.57-5.93a2.37,2.37,0,0,0,.23-.3,2.36,2.36,0,0,1,0,.38c-.21,4.1-2.86,11.5-7.21,20.21-2.43,4.86-5.39,10.15-8.74,15.46-.62,1-1.26,2-1.9,3-2.28,3.45-4.72,6.91-7.28,10.26-11.26,14.76-24.31,28.16-36.35,41.91h16.45l-8.77,4.55c.07.64.13,1.28.22,1.94L699,237.79c.13.38.26.74.39,1.13-7.66,2.11-15.32,4.2-23.45,6.42,20.5,2.83,39.49-1.73,58.09-9,.3.64.6,1.3.92,1.94-7.94,3.92-15.85,7.85-23.53,11.62.68.2,2.09.58,4.29,1.16l-7,4.92,27.8-3.84.38,1.28L719,259.54c.07.39.15.77.24,1.16l29.46-1.9c.08.85.17,1.7.23,2.56-17.83,1.92-35.69,3.82-50.83,5.44l50.19,4.75c.13.43.26.88.41,1.31l-48.08,6.2,1.19.79L690.05,281v1h33.28c.06.49.15,1,.21,1.48l-42.43,7c0,.56,0,1.09-.06,1.64,9.47.86,18.92,1.69,27.66,2.48-7.19,4-16.83,3.92-48.16.32l18,5.44c0,.28-.09.55-.15.83-5.48-.4-11-.83-16.49-1.26-.11.54-.24,1.07-.34,1.6l15.78,5.68-.06.83c-9.75-.58-19.71-.09-29.16-2.05-9.77-2-19.05-6.4-27.44-9.36,6.47,10.79,17.86,15.48,30.6,18.13-14.34.27-27.4-4-40.49-10,3,2.35,6,4.85,9.15,7,3.35,2.28,6.93,4.27,9.81,8.06-8-2.75-15.91-5.52-23.78-8.27.49.74,1.08,1.62,1.66,2.47-.21.47-.45.92-.66,1.39l-21.67-11.44c10.38,10.42,23.25,16.71,37.75,21.76-11.67,1.07-21.22-3.15-51.19-22.31,1.68,2.88,2.83,4.89,4,6.89l-1.66,1.6c-7.47-8.15-14.93-16.3-22.31-24.34,4.8,14.34,14.61,24.94,27.13,33.51-15.21-4.31-26.11-14.29-36.69-25.7,4.46,6.91,8.9,13.82,13.53,21.05-6.72-2.92-13.15-5.71-20.27-8.83.92,1.79,1.69,3.29,3.58,7l-13.65-9.81c-.32.23-.64.47-.94.72q5,6.57,10.09,13.12c-.42.39-.87.79-1.3,1.17l-16.51-17.4c-.28.51-.87,1.53-1.68,2.92-2-4.2-3.84-8.11-5.7-12-.32.09-.64.15-.94.23l1.35,9.58c-.3.13-.6.28-.92.43-3-5.1-6-10.2-9.3-15.79,1,10.5,1.81,20,2.68,29.51l-1.68.1c-1.88-6.8-3.63-13.65-5.65-20.39-.6-2-2-3.75-4.44-5.46v20c-.3,0-.58-.06-.85-.11q-3-11.87-6.06-23.78l-1.92.45,4.48,19.58L485,308l-9.48-22.06c-.57.17-1.13.34-1.7.49.19,3.29.4,6.57.7,11.48-3.2-5.5-5.59-9.62-8.74-15.08.42,9.51.79,17.26,1.13,25l-1.18.13c-2.62-8.75-5.22-17.5-8.47-28.31-1.85,3-2.41,3.86-3.09,4.95l-8.4-9.09c2.77,7.3,4.82,12.67,6.87,18l-1.35.58c-3-4.07-6-8.17-9-12.24l-1.26.51q1.18,5.43,2.37,10.9l-1.18.51q-3.68-6.4-7.33-12.8l-.84.36c1.56,6.51,3.12,13,4.65,19.54-.29.11-.61.2-.93.3q-6.54-10.85-13.06-21.69l-1.86.87c1.45,4.21,2.88,8.41,4.33,12.61l-1.23.49a70.25,70.25,0,0,0-5.19-7.27c-8.12-9.07-17.64-13.55-30.22-9.92-15,4.33-27.91,11.58-38.57,23.59a39.29,39.29,0,0,1,2.52-5.27c14.5-22,36.39-32.94,61.15-37.2S465.36,250.88,490.34,249.05Z"/></g></g></svg>