<svg xmlns="http://www.w3.org/2000/svg" viewBox="0 0 1120 734"><defs><style>.cls-1{fill:none;}.cls-2{fill:#fff;}.cls-3{fill:#b90161;}.cls-4{fill:#55006a;}</style></defs><g id="Capa_2" data-name="Capa 2"><g id="Capa_1-2" data-name="Capa 1"><rect class="cls-1" x="4" width="1108" height="728"/><rect class="cls-2" y="584" width="1120" height="150" rx="75"/><path class="cls-3" d="M128.56,659.59v1.2h-4.2V659l-.6-5v-1.7a10.21,10.21,0,0,0-1.1-2.9h0l-1.7-3.1-1.2-1.8v-.4a27.43,27.43,0,0,0-7.1-6.9,9.5,9.5,0,0,0-1.7-1,18.69,18.69,0,0,0-3.1-1.7h0a33.89,33.89,0,0,0-4.8-1.7,27.19,27.19,0,0,0-6.3-.8h0v-3.5c0-.6,0-.6.6-.6h2.3a.48.48,0,0,1,.7,0h.1a37.36,37.36,0,0,1,6.6,1.6,36,36,0,0,1,15.2,11.2h0l.6.9a17.77,17.77,0,0,1,1.7,2.7,29.73,29.73,0,0,1,2.9,6.9,1.28,1.28,0,0,1,0,1.2,40,40,0,0,1,.8,4.8v2.6Z"/><path class="cls-3" d="M61.26,641.79v-.5c0-.1-.1-.3-.1-.4v-.7c0-.4,1.9-2.7,4.8-5.6l1.5-1.2a8.49,8.49,0,0,1,2.2-.9h5.2a8.79,8.79,0,0,1,5.2,4.8,9.24,9.24,0,0,1,.8,2.7c.6,2,1.2,4.3,1.7,6.4a8.9,8.9,0,0,1-.8,6,10.38,10.38,0,0,0-1.2,1.7l-2.3,2a1.05,1.05,0,0,0,0,1.3l.9,2.5a33.36,33.36,0,0,0,5,8.8,12,12,0,0,0,1.1,1.2,32.09,32.09,0,0,0,8.8,6.7l3.2,1.4c.8.4,1.9.6,2.7,1a.75.75,0,0,0,.9,0l2.3-2.3a8.08,8.08,0,0,1,6.2-2.5,13.56,13.56,0,0,1,2.9.6l5.3,1.6h.6a8.2,8.2,0,0,1,5.4,6,2.44,2.44,0,0,1,0,1.2v3.3a8.86,8.86,0,0,1-2.3,3.8l-2.8,3.3a2.59,2.59,0,0,1-1.4,1.1,4.65,4.65,0,0,1-2.3.6h-3.9a14.08,14.08,0,0,1-4.1,0,8.32,8.32,0,0,1-4.4-.9,41.73,41.73,0,0,1-7.8-2.5h-.8l-1.5-.6-3.7-1.8a30.26,30.26,0,0,1-4.8-3.1l-4-3.2-4-3.7-3.1-3.7-.8-1.1-.4-.6c-.4-.6-2.1-3.1-3.2-4.8l-1.9-3.5-.6-1.2c-.5-1.2-1-2.5-1.4-3.8a45.8,45.8,0,0,1-1.5-4.9v-1.2a3.75,3.75,0,0,0,0-2.1l-.2-.5a22.26,22.26,0,0,1-1.3-4.4C61,646.09,61.66,643.89,61.26,641.79Z"/><path class="cls-3" d="M94.86,644.49v-4h3.2a1.27,1.27,0,0,1,1.2,0,28.64,28.64,0,0,1,4.1,1.5,21,21,0,0,1,11.6,14.3h0a.75.75,0,0,1,0,.9h0V660c0,1.1,0,.9-.6.6h-3.2v-3.1a3.41,3.41,0,0,0,0-2,14.91,14.91,0,0,0-4.4-6.9,17.24,17.24,0,0,0-6.6-4,5.44,5.44,0,0,0-1.8,0h-2.8Z"/><path class="cls-3" d="M95.56,657.09s-.6,0-.6-.8v-3.5a9.6,9.6,0,0,1,3.3.6h1.5a10.71,10.71,0,0,1,1.9,1.8l1.1,1.7a6.26,6.26,0,0,1,.6,2.7v.6H100c-.6,0-.6,0-.6-.6a4.28,4.28,0,0,0-3.2-3.5h0Z"/><path class="cls-3" d="M654.76,631.29a21.72,21.72,0,0,0-11.5-5.5,22.85,22.85,0,0,1-3.7,0h-6a20.9,20.9,0,0,0-5.5.8,27,27,0,0,0-17.8,25.2,31.84,31.84,0,0,0,3.6,15.2,79.13,79.13,0,0,0,18.2,24.4,6.55,6.55,0,0,0,3.9,2.1h2.1a6.41,6.41,0,0,0,3-1.4c2.3-2,4.3-4.1,6.4-6a74.88,74.88,0,0,0,10.8-14.8,39.43,39.43,0,0,0,5.8-18.2,26.74,26.74,0,0,0-9.6-21.9Zm-17.5,33.9a13.2,13.2,0,1,1,13.4-13.1,12.91,12.91,0,0,1-12.9,13.1h-.5Z"/><path class="cls-4" d="M163.65,643.69a13.9,13.9,0,0,1,9.16-2.89,14.82,14.82,0,0,1,6.63,1.36,9.65,9.65,0,0,1,4.16,3.66A9.82,9.82,0,0,1,185,651a9.15,9.15,0,0,1-1.73,5.65,8.46,8.46,0,0,1-4.11,3.11V660a8.93,8.93,0,0,1,4.8,3.4,10.58,10.58,0,0,1,1.73,6.26,11,11,0,0,1-1.46,5.67,9.85,9.85,0,0,1-4.3,3.9,17.22,17.22,0,0,1-16.58-1.62q-3.77-3-4-8.91h7.22a5.78,5.78,0,0,0,1.78,4.17,6.45,6.45,0,0,0,4.59,1.56,5.5,5.5,0,0,0,4.16-1.51,5.4,5.4,0,0,0,1.46-3.9,5.11,5.11,0,0,0-2-4.56q-2-1.38-6.26-1.38h-1.54V657h1.54q7.53,0,7.54-5a4.62,4.62,0,0,0-1.36-3.56,5.47,5.47,0,0,0-3.9-1.27,5.19,5.19,0,0,0-3.84,1.35,5.46,5.46,0,0,0-1.57,3.42h-7.27A10.87,10.87,0,0,1,163.65,643.69Z"/><path class="cls-4" d="M190.69,648.55v-6.84h12.78v38.67h-7.64V648.55Z"/><path class="cls-4" d="M214.64,643.69a13.89,13.89,0,0,1,9.15-2.89,14.84,14.84,0,0,1,6.64,1.36A9.49,9.49,0,0,1,236,651a9.15,9.15,0,0,1-1.73,5.65,8.46,8.46,0,0,1-4.11,3.11V660a8.93,8.93,0,0,1,4.8,3.4,10.58,10.58,0,0,1,1.73,6.26,11,11,0,0,1-1.46,5.67,9.9,9.9,0,0,1-4.3,3.9,17.22,17.22,0,0,1-16.58-1.62q-3.76-3-4-8.91h7.22a5.82,5.82,0,0,0,1.77,4.17,6.48,6.48,0,0,0,4.59,1.56,5.53,5.53,0,0,0,4.17-1.51,5.4,5.4,0,0,0,1.46-3.9,5.14,5.14,0,0,0-2-4.56q-2-1.38-6.26-1.38h-1.54V657h1.54q7.53,0,7.53-5a4.65,4.65,0,0,0-1.35-3.56,5.47,5.47,0,0,0-3.9-1.27,5.19,5.19,0,0,0-3.84,1.35,5.41,5.41,0,0,0-1.57,3.42H210.9A10.84,10.84,0,0,1,214.64,643.69Z"/><path class="cls-4" d="M259.05,643.69a13.89,13.89,0,0,1,9.15-2.89,14.82,14.82,0,0,1,6.63,1.36,9.74,9.74,0,0,1,4.17,3.66,9.9,9.9,0,0,1,1.4,5.22,9.15,9.15,0,0,1-1.72,5.65,8.46,8.46,0,0,1-4.11,3.11V660a8.93,8.93,0,0,1,4.8,3.4,10.57,10.57,0,0,1,1.72,6.26,10.93,10.93,0,0,1-1.46,5.67,9.82,9.82,0,0,1-4.29,3.9,17.22,17.22,0,0,1-16.58-1.62q-3.78-3-4-8.91H262a5.82,5.82,0,0,0,1.78,4.17,6.45,6.45,0,0,0,4.59,1.56,5.54,5.54,0,0,0,4.17-1.51A5.39,5.39,0,0,0,274,669a5.13,5.13,0,0,0-2-4.56c-1.35-.92-3.43-1.38-6.26-1.38h-1.54V657h1.54q7.53,0,7.53-5a4.65,4.65,0,0,0-1.35-3.56,5.47,5.47,0,0,0-3.9-1.27,5.22,5.22,0,0,0-3.85,1.35,5.45,5.45,0,0,0-1.56,3.42h-7.27A10.8,10.8,0,0,1,259.05,643.69Z"/><path class="cls-4" d="M290.3,646.16q3.31-5.19,11-5.2t11,5.2q3.31,5.21,3.31,14.38c0,6.16-1.1,11-3.31,14.49s-5.88,5.25-11,5.25-8.8-1.75-11-5.25S287,666.7,287,660.54,288.09,649.63,290.3,646.16Zm17.51,7.78a8.91,8.91,0,0,0-2-4.38,6.77,6.77,0,0,0-9,0,8.9,8.9,0,0,0-2,4.38,36,36,0,0,0-.51,6.6,39.92,39.92,0,0,0,.48,6.76,8.49,8.49,0,0,0,2,4.41,6.92,6.92,0,0,0,9,0,8.48,8.48,0,0,0,2-4.41,39.92,39.92,0,0,0,.48-6.76A37,37,0,0,0,307.81,653.94Z"/><path class="cls-4" d="M347.25,648.13H330.06v9.07a8.13,8.13,0,0,1,3.19-2.26,11.22,11.22,0,0,1,4.4-.87,12.08,12.08,0,0,1,7,1.85,10.81,10.81,0,0,1,3.93,4.75,15.81,15.81,0,0,1,1.22,6.18,13.79,13.79,0,0,1-3.48,9.82q-3.47,3.72-9.89,3.71-6,0-9.66-3a11.38,11.38,0,0,1-4.08-7.91h7.21a5.73,5.73,0,0,0,2.15,3.4,6.86,6.86,0,0,0,4.27,1.27,5.71,5.71,0,0,0,4.72-2,8,8,0,0,0,1.6-5.2,7.05,7.05,0,0,0-1.62-5,6.2,6.2,0,0,0-4.75-1.73,5.93,5.93,0,0,0-3.71,1.12,6,6,0,0,0-2.13,3h-7.11V641.6h24Z"/><path class="cls-4" d="M394.05,648.13H376.86v9.07a8,8,0,0,1,3.18-2.26,11.27,11.27,0,0,1,4.41-.87,12.1,12.1,0,0,1,6.95,1.85,10.79,10.79,0,0,1,3.92,4.75,15.63,15.63,0,0,1,1.22,6.18,13.83,13.83,0,0,1-3.47,9.82q-3.48,3.72-9.9,3.71-6,0-9.65-3a11.35,11.35,0,0,1-4.09-7.91h7.22a5.68,5.68,0,0,0,2.15,3.4,6.82,6.82,0,0,0,4.27,1.27,5.72,5.72,0,0,0,4.72-2,8,8,0,0,0,1.59-5.2,7.05,7.05,0,0,0-1.62-5,6.2,6.2,0,0,0-4.75-1.73,5.83,5.83,0,0,0-5.83,4.09h-7.11V641.6h24Z"/><path class="cls-4" d="M412.75,673.09a6.19,6.19,0,0,0,4.06,1.24,5,5,0,0,0,4.78-2.73q1.49-2.73,1.48-9.2a8,8,0,0,1-3.42,2.65,11.76,11.76,0,0,1-4.75,1,13.18,13.18,0,0,1-6.13-1.41,10.43,10.43,0,0,1-4.32-4.19,13.45,13.45,0,0,1-1.59-6.77q0-5.88,3.5-9.36t9.55-3.48q7.53,0,10.64,4.83t3.1,14.54a44.55,44.55,0,0,1-1.19,11.3,11.09,11.09,0,0,1-12,9,13.68,13.68,0,0,1-6.68-1.52,10.73,10.73,0,0,1-4.22-4,12.29,12.29,0,0,1-1.67-5.44h6.9A5.77,5.77,0,0,0,412.75,673.09Zm8-14.83a6.4,6.4,0,0,0,1.59-4.56,6.71,6.71,0,0,0-1.67-4.86,6,6,0,0,0-4.54-1.72,5.92,5.92,0,0,0-4.53,1.77,7.4,7.4,0,0,0-.06,9.29,6.23,6.23,0,0,0,4.86,1.78A5.68,5.68,0,0,0,420.79,658.26Z"/><path class="cls-4" d="M439.28,643.69a13.89,13.89,0,0,1,9.15-2.89,14.82,14.82,0,0,1,6.63,1.36,9.47,9.47,0,0,1,5.58,8.88,9.15,9.15,0,0,1-1.73,5.65,8.46,8.46,0,0,1-4.11,3.11V660a8.93,8.93,0,0,1,4.8,3.4,10.57,10.57,0,0,1,1.72,6.26,11,11,0,0,1-1.45,5.67,9.9,9.9,0,0,1-4.3,3.9A17.22,17.22,0,0,1,439,677.62q-3.76-3-4-8.91h7.21a5.82,5.82,0,0,0,1.78,4.17,6.48,6.48,0,0,0,4.59,1.56,5.53,5.53,0,0,0,4.17-1.51,5.4,5.4,0,0,0,1.46-3.9,5.14,5.14,0,0,0-2-4.56c-1.35-.92-3.43-1.38-6.26-1.38H444.4V657h1.54q7.53,0,7.53-5a4.65,4.65,0,0,0-1.35-3.56,5.47,5.47,0,0,0-3.9-1.27,5.23,5.23,0,0,0-3.85,1.35,5.45,5.45,0,0,0-1.56,3.42h-7.27A10.84,10.84,0,0,1,439.28,643.69Z"/><path class="cls-4" d="M469.55,672q5.08-4.25,8.12-7.08a33.32,33.32,0,0,0,5-5.92,11,11,0,0,0,2-6,6.46,6.46,0,0,0-1.27-4.24,4.8,4.8,0,0,0-3.93-1.54,4.91,4.91,0,0,0-4.08,1.78A7.72,7.72,0,0,0,474,653.8h-7.21q.21-6.36,3.79-9.65a12.9,12.9,0,0,1,9.1-3.29q6,0,9.28,3.21a11.38,11.38,0,0,1,3.24,8.46,15.23,15.23,0,0,1-2.23,7.9,31,31,0,0,1-5.09,6.56q-2.86,2.78-7.48,6.71H493v6.15H466.79v-5.52Z"/><path class="cls-4" d="M691.53,635.51a12.58,12.58,0,0,1,4.8-4.8,13.62,13.62,0,0,1,6.83-1.72,13.37,13.37,0,0,1,7.75,2.27,11.81,11.81,0,0,1,4.65,6.28h-6.08a6.34,6.34,0,0,0-2.56-2.84,7.47,7.47,0,0,0-3.8-1,7.8,7.8,0,0,0-4.1,1.08,7.39,7.39,0,0,0-2.8,3,11.1,11.1,0,0,0,0,9.21,7.35,7.35,0,0,0,2.8,3.06,7.8,7.8,0,0,0,4.1,1.08,7.38,7.38,0,0,0,3.8-1,6.42,6.42,0,0,0,2.56-2.85h6.08a11.78,11.78,0,0,1-4.63,6.29,14.49,14.49,0,0,1-14.6.53,12.52,12.52,0,0,1-4.8-4.78,14.68,14.68,0,0,1,0-13.94Z"/><path class="cls-4" d="M728.06,635.42a7.43,7.43,0,0,1,3.77-.95V640h-1.4a5.39,5.39,0,0,0-3.77,1.17c-.84.79-1.26,2.15-1.26,4.09v10.44h-5.3v-21h5.3V638A7.47,7.47,0,0,1,728.06,635.42Z"/><path class="cls-4" d="M735.29,639.54a9.1,9.1,0,0,1,8.3-5.11,8.53,8.53,0,0,1,4.1,1,8.37,8.37,0,0,1,2.82,2.38v-3h5.33v21h-5.33v-3.07a7.77,7.77,0,0,1-2.82,2.44,8.55,8.55,0,0,1-4.14,1,9,9,0,0,1-4.82-1.36,9.52,9.52,0,0,1-3.44-3.84,12.26,12.26,0,0,1-1.27-5.69A12.08,12.08,0,0,1,735.29,639.54Zm14.46,2.4a5.34,5.34,0,0,0-2-2.12,5.57,5.57,0,0,0-5.48,0,5.4,5.4,0,0,0-2,2.1,6.66,6.66,0,0,0-.77,3.28,6.82,6.82,0,0,0,.77,3.3,5.54,5.54,0,0,0,2,2.18,5.2,5.2,0,0,0,2.7.76,5.49,5.49,0,0,0,2.76-.74,5.28,5.28,0,0,0,2-2.12,7.59,7.59,0,0,0,0-6.62Z"/><path class="cls-4" d="M761,655.1a3.11,3.11,0,0,1,0-4.42,3.3,3.3,0,0,1,2.37-.89,3.19,3.19,0,0,1,2.31.89,3.16,3.16,0,0,1,0,4.42,3.15,3.15,0,0,1-2.31.89A3.26,3.26,0,0,1,761,655.1Z"/><path class="cls-4" d="M797.78,632.73H785.53v6.47a5.73,5.73,0,0,1,2.27-1.61,8.07,8.07,0,0,1,3.14-.62,8.56,8.56,0,0,1,4.95,1.32,7.6,7.6,0,0,1,2.8,3.39,11.18,11.18,0,0,1,.87,4.4,9.81,9.81,0,0,1-2.48,7,9.2,9.2,0,0,1-7.05,2.65,10.35,10.35,0,0,1-6.88-2.16,8,8,0,0,1-2.91-5.63h5.14a4.14,4.14,0,0,0,1.53,2.42,4.93,4.93,0,0,0,3.05.9,4,4,0,0,0,3.36-1.4,5.66,5.66,0,0,0,1.14-3.7,5.05,5.05,0,0,0-1.16-3.58,4.45,4.45,0,0,0-3.38-1.22,4.13,4.13,0,0,0-4.16,2.91h-5.07V628.08h17.09Z"/><path class="cls-4" d="M803.38,650.36V646.2l12.37-17.7h6.16v17.24h3.33v4.62h-3.33v5.37h-5.29v-5.37ZM817,634.17l-7.75,11.57H817Z"/><path class="cls-4" d="M861.47,638.75l-1.25,5.82H865v4.73H859.2l-1.36,6.43h-5l1.36-6.43h-6.88l-1.36,6.43h-5l1.36-6.43h-5.71v-4.73h6.73l1.25-5.82h-5.68V634h6.7l1.32-6.28h5L850.58,634h6.88l1.33-6.28h5L862.49,634h4.84v4.73Zm-5,0h-6.88l-1.25,5.82h6.88Z"/><path class="cls-4" d="M870.93,650.36V646.2l12.36-17.7h6.17v17.24h3.33v4.62h-3.33v5.37h-5.3v-5.37Zm13.57-16.19-7.75,11.57h7.75Z"/><path class="cls-4" d="M903.66,650.53a4.42,4.42,0,0,0,2.89.89,3.6,3.6,0,0,0,3.41-1.95c.7-1.3,1.06-3.49,1.06-6.56a5.86,5.86,0,0,1-2.44,1.89,8.52,8.52,0,0,1-3.39.68,9.53,9.53,0,0,1-4.37-1,7.51,7.51,0,0,1-3.08-3,9.65,9.65,0,0,1-1.13-4.82A9,9,0,0,1,899.1,630a9.27,9.27,0,0,1,6.81-2.48q5.37,0,7.58,3.44t2.22,10.37a31.82,31.82,0,0,1-.85,8,7.9,7.9,0,0,1-8.53,6.39,9.78,9.78,0,0,1-4.77-1.07,7.69,7.69,0,0,1-3-2.84,8.62,8.62,0,0,1-1.2-3.88h4.92A4.15,4.15,0,0,0,903.66,650.53ZM909.39,640a4.58,4.58,0,0,0,1.14-3.26,4.76,4.76,0,0,0-1.2-3.46A4.28,4.28,0,0,0,906.1,632a4.23,4.23,0,0,0-3.23,1.27,5.27,5.27,0,0,0,0,6.62,4.46,4.46,0,0,0,3.46,1.27A4.07,4.07,0,0,0,909.39,640Z"/><path class="cls-4" d="M936.55,640v4.47h-16V640Z"/><path class="cls-4" d="M944.24,631.33c1.58-2.47,4.19-3.7,7.85-3.7s6.27,1.23,7.85,3.7,2.36,5.89,2.36,10.25-.79,7.83-2.36,10.33-4.2,3.74-7.85,3.74-6.27-1.25-7.85-3.74-2.36-5.94-2.36-10.33S942.67,633.8,944.24,631.33Zm12.48,5.54a6.37,6.37,0,0,0-1.44-3.12,4.82,4.82,0,0,0-6.39,0,6.36,6.36,0,0,0-1.43,3.12,26.08,26.08,0,0,0-.36,4.71,28.22,28.22,0,0,0,.34,4.82,6,6,0,0,0,1.43,3.14,4.94,4.94,0,0,0,6.43,0,6.07,6.07,0,0,0,1.44-3.14,28.22,28.22,0,0,0,.34-4.82A26.08,26.08,0,0,0,956.72,636.87Z"/><path class="cls-4" d="M983.86,632.17,973.8,655.73h-5.37l10.13-23H965.63v-4.54h18.23Z"/><path class="cls-4" d="M1000.78,655.05a8.19,8.19,0,0,1-3.5-2.73,7.15,7.15,0,0,1-1.32-4.19h5.67a3.67,3.67,0,0,0,1.16,2.57,4.07,4.07,0,0,0,2.85.94,4.33,4.33,0,0,0,2.91-.89,2.86,2.86,0,0,0,1.06-2.32,2.68,2.68,0,0,0-.72-1.93,4.93,4.93,0,0,0-1.79-1.19c-.72-.29-1.71-.61-3-1a31.13,31.13,0,0,1-4.18-1.49,7.37,7.37,0,0,1-2.76-2.23,6.37,6.37,0,0,1-1.15-4,7.15,7.15,0,0,1,1.17-4.09,7.39,7.39,0,0,1,3.29-2.66,11.91,11.91,0,0,1,4.84-.93,10.5,10.5,0,0,1,6.64,2,7.33,7.33,0,0,1,2.81,5.54H1009a3,3,0,0,0-1.15-2.25,4.31,4.31,0,0,0-2.86-.89,3.69,3.69,0,0,0-2.48.79,2.9,2.9,0,0,0-.92,2.31,2.39,2.39,0,0,0,.7,1.76,5.29,5.29,0,0,0,1.74,1.13,28.94,28.94,0,0,0,2.93,1,31.26,31.26,0,0,1,4.2,1.52,7.48,7.48,0,0,1,2.79,2.27,6.23,6.23,0,0,1,1.18,4A7.48,7.48,0,0,1,1014,652a7.67,7.67,0,0,1-3.21,2.89,11,11,0,0,1-5,1.08A12.55,12.55,0,0,1,1000.78,655.05Z"/><path class="cls-4" d="M1039.45,634.77v21h-5.33v-2.65a7,7,0,0,1-2.67,2.14,8.32,8.32,0,0,1-3.57.77,8.8,8.8,0,0,1-4.35-1,7.31,7.31,0,0,1-3-3.06,10.12,10.12,0,0,1-1.08-4.82v-12.3h5.3v11.54a5.42,5.42,0,0,0,1.25,3.84,4.42,4.42,0,0,0,3.4,1.34,4.48,4.48,0,0,0,3.44-1.34,5.46,5.46,0,0,0,1.25-3.84V634.77Z"/><path class="cls-4" d="M1052.63,635.42a7.43,7.43,0,0,1,3.77-.95V640H1055a5.39,5.39,0,0,0-3.77,1.17c-.84.79-1.26,2.15-1.26,4.09v10.44h-5.3v-21h5.3V638A7.47,7.47,0,0,1,1052.63,635.42Z"/><path class="cls-4" d="M707.58,663.78v2.8H700.4v23.56H697V666.58h-7.23v-2.8Z"/><path class="cls-4" d="M730.2,669.42v20.72h-3.44v-3.06a6.72,6.72,0,0,1-2.74,2.48,8.55,8.55,0,0,1-3.88.89,9.3,9.3,0,0,1-4.35-1,7.2,7.2,0,0,1-3-3,9.86,9.86,0,0,1-1.12-4.88V669.42H715V681.1a6.6,6.6,0,0,0,1.55,4.71,5.55,5.55,0,0,0,4.24,1.65,5.68,5.68,0,0,0,4.35-1.7,7,7,0,0,0,1.59-5V669.42Z"/><path class="cls-4" d="M752.25,671.33q2.34,2.28,2.34,6.6v12.21h-3.4V678.42a6.69,6.69,0,0,0-1.55-4.75A5.57,5.57,0,0,0,745.4,672a5.67,5.67,0,0,0-4.33,1.7,7,7,0,0,0-1.6,4.95v11.46H736V669.42h3.45v3a6.78,6.78,0,0,1,2.78-2.46,8.59,8.59,0,0,1,3.87-.87A8.39,8.39,0,0,1,752.25,671.33Z"/><path class="cls-4" d="M763.78,694.64a5.27,5.27,0,0,1-1.39,4.05A5.85,5.85,0,0,1,758.3,700h-2v-2.92h1.43a2.88,2.88,0,0,0,2-.56,2.62,2.62,0,0,0,.58-1.93V669.42h3.44Zm-3.34-29.27a2.29,2.29,0,0,1-.66-1.66,2.32,2.32,0,0,1,.66-1.67,2.33,2.33,0,0,1,3.29,0,2.32,2.32,0,0,1,.66,1.67,2.29,2.29,0,0,1-.66,1.66,2.33,2.33,0,0,1-3.29,0Z"/><path class="cls-4" d="M788,669.42v20.72h-3.44v-3.06a6.72,6.72,0,0,1-2.74,2.48,8.55,8.55,0,0,1-3.88.89,9.3,9.3,0,0,1-4.35-1,7.2,7.2,0,0,1-3-3,9.86,9.86,0,0,1-1.12-4.88V669.42h3.4V681.1a6.6,6.6,0,0,0,1.55,4.71,5.55,5.55,0,0,0,4.24,1.65,5.68,5.68,0,0,0,4.35-1.7,7,7,0,0,0,1.59-5V669.42Z"/><path class="cls-4" d="M812.61,681.07H796.05a6.5,6.5,0,0,0,6.73,6.5,6.3,6.3,0,0,0,3.72-1,5.45,5.45,0,0,0,2.1-2.78h3.71a9,9,0,0,1-3.33,4.86,10,10,0,0,1-6.2,1.87,10.5,10.5,0,0,1-5.28-1.32,9.37,9.37,0,0,1-3.65-3.76,11.71,11.71,0,0,1-1.32-5.66,11.9,11.9,0,0,1,1.28-5.63,9,9,0,0,1,3.62-3.73,10.73,10.73,0,0,1,5.35-1.3,10.51,10.51,0,0,1,5.22,1.28,8.87,8.87,0,0,1,3.49,3.54,10.44,10.44,0,0,1,1.23,5.09A19.11,19.11,0,0,1,812.61,681.07Zm-4.31-6.19a5.69,5.69,0,0,0-2.36-2.15,7.41,7.41,0,0,0-3.31-.74,6.38,6.38,0,0,0-4.45,1.66,6.82,6.82,0,0,0-2.1,4.62h13.09A6.38,6.38,0,0,0,808.3,674.88Z"/><path class="cls-4" d="M820.7,662.16v28h-3.44v-28Z"/><path class="cls-4" d="M826.68,665.37a2.38,2.38,0,0,1,0-3.33,2.27,2.27,0,0,1,1.66-.68A2.18,2.18,0,0,1,830,662a2.32,2.32,0,0,1,.66,1.67,2.29,2.29,0,0,1-.66,1.66,2.14,2.14,0,0,1-1.61.68A2.23,2.23,0,0,1,826.68,665.37Zm3.33,4v20.72h-3.44V669.42Z"/><path class="cls-4" d="M840.07,672.25v12.22a2.91,2.91,0,0,0,.64,2.14,3.2,3.2,0,0,0,2.23.62h2.53v2.91h-3.1a6.19,6.19,0,0,1-4.31-1.32c-1-.88-1.43-2.33-1.43-4.35V672.25h-2.69v-2.83h2.69V664.2h3.44v5.22h5.4v2.83Z"/><path class="cls-4" d="M853.4,689.16a9.45,9.45,0,0,1-3.71-3.76,11.61,11.61,0,0,1-1.34-5.66,11.19,11.19,0,0,1,1.38-5.61,9.48,9.48,0,0,1,3.76-3.75,11.6,11.6,0,0,1,10.67,0,9.5,9.5,0,0,1,3.76,3.73,11.16,11.16,0,0,1,1.38,5.63,11,11,0,0,1-1.42,5.66,9.77,9.77,0,0,1-3.84,3.76,11,11,0,0,1-5.37,1.32A10.6,10.6,0,0,1,853.4,689.16Zm8.75-2.57a6.6,6.6,0,0,0,2.63-2.61,8.34,8.34,0,0,0,1-4.24,8.43,8.43,0,0,0-1-4.23,6.41,6.41,0,0,0-2.57-2.59,7.43,7.43,0,0,0-6.9,0,6.18,6.18,0,0,0-2.52,2.59,8.76,8.76,0,0,0-.94,4.23,9,9,0,0,0,.92,4.28,6.21,6.21,0,0,0,2.48,2.59,7,7,0,0,0,3.4.85A7.24,7.24,0,0,0,862.15,686.59Z"/><rect class="cls-3" x="552" y="624" width="3" height="71"/></g></g></svg>