<svg xmlns="http://www.w3.org/2000/svg" viewBox="0 0 754.99 453.98"><defs><style>.cls-1{fill:#b90161;}.cls-2{fill:#55006a;}.cls-3{fill:#fff;}</style></defs><g id="Capa_2" data-name="Capa 2"><g id="Capa_1-2" data-name="Capa 1"><path class="cls-1" d="M14.09,10.33V34.86H39v5.45H14.09V65.2H41.81v5.45H7.52V4.89H41.81v5.44Z"/><path class="cls-1" d="M61.35,1.13V70.65H54.77V1.13Z"/><path class="cls-1" d="M177.8,24.1q5.69,5.68,5.69,16.49V70.65H177V41.34c0-5.58-1.34-9.83-4-12.78s-6.35-4.41-11-4.41q-7.23,0-11.56,4.79t-4.32,13.9V70.65h-6.48V41.34c0-5.58-1.35-9.83-4-12.78s-6.39-4.41-11.09-4.41-8.67,1.59-11.55,4.79-4.32,7.83-4.32,13.9V70.65H102V19.35h6.58v8.84a16.73,16.73,0,0,1,7-7.29,20.51,20.51,0,0,1,10-2.49,21.34,21.34,0,0,1,11.7,3.2A18,18,0,0,1,144.59,31a17.33,17.33,0,0,1,7.09-9.34,20.55,20.55,0,0,1,11.42-3.25Q172.12,18.41,177.8,24.1Z"/><path class="cls-1" d="M244.27,47.54H201.71a20.71,20.71,0,0,0,2.82,10,16.54,16.54,0,0,0,6.67,6.25,19.51,19.51,0,0,0,9,2.11A18.11,18.11,0,0,0,231,62.76a14.57,14.57,0,0,0,5.78-8.36h7a21.76,21.76,0,0,1-8,12.26q-6.17,4.74-15.46,4.74a25.9,25.9,0,0,1-13-3.24,22.86,22.86,0,0,1-9-9.21A28.75,28.75,0,0,1,195,45a29.42,29.42,0,0,1,3.19-14,22.26,22.26,0,0,1,8.93-9.2,26.35,26.35,0,0,1,13.06-3.2A25,25,0,0,1,233,21.8a22,22,0,0,1,8.46,8.59,24.59,24.59,0,0,1,3,12A51.5,51.5,0,0,1,244.27,47.54Zm-8.78-15.13a15.54,15.54,0,0,0-6.53-6.1,19.89,19.89,0,0,0-9-2.07,17.94,17.94,0,0,0-12.5,4.7q-5.16,4.69-5.73,13.24h36.08A18.35,18.35,0,0,0,235.49,32.41Z"/><path class="cls-1" d="M263.44,82.77q0,6.21-3.1,9.16t-9.3,3h-4.61V89.25H250c2.44,0,4.2-.51,5.26-1.55s1.6-2.77,1.6-5.21V19.35h6.58Zm-6.58-74.5a4.73,4.73,0,0,1-1.41-3.48,4.57,4.57,0,0,1,1.41-3.43A4.73,4.73,0,0,1,260.24,0a4.57,4.57,0,0,1,3.34,1.36,4.64,4.64,0,0,1,1.36,3.43,4.81,4.81,0,0,1-1.36,3.48,4.46,4.46,0,0,1-3.34,1.41A4.62,4.62,0,0,1,256.86,8.27Z"/><path class="cls-1" d="M287.91,68.16A23.39,23.39,0,0,1,278.8,59a28,28,0,0,1-3.34-14,27.87,27.87,0,0,1,3.38-13.95,23.77,23.77,0,0,1,9.21-9.21,26.43,26.43,0,0,1,13.06-3.24,26.71,26.71,0,0,1,13.11,3.24,23.38,23.38,0,0,1,9.21,9.21,28.17,28.17,0,0,1,3.33,14,28,28,0,0,1-3.38,13.91,23.44,23.44,0,0,1-9.3,9.25,27,27,0,0,1-13.16,3.24A26.14,26.14,0,0,1,287.91,68.16Zm22.41-4.79a17.58,17.58,0,0,0,7-6.95A22.62,22.62,0,0,0,320,45a22.9,22.9,0,0,0-2.63-11.41,17.3,17.3,0,0,0-7-7,20.26,20.26,0,0,0-18.79,0,16.92,16.92,0,0,0-6.9,7A23.11,23.11,0,0,0,282.13,45a23.15,23.15,0,0,0,2.59,11.42,17,17,0,0,0,6.86,6.95,19.29,19.29,0,0,0,9.34,2.3A19.61,19.61,0,0,0,310.32,63.37Z"/><path class="cls-1" d="M352,21.05a21.13,21.13,0,0,1,10.94-2.64v6.86h-1.78q-7.14,0-11.47,3.86T345.36,42V70.65h-6.57V19.35h6.57v9.12A16,16,0,0,1,352,21.05Z"/><path class="cls-1" d="M401.78,67.32a14.91,14.91,0,0,1-6.25-11.14h6.77a9.66,9.66,0,0,0,4.08,7q3.62,2.68,9.73,2.68c3.57,0,6.37-.84,8.41-2.54A7.88,7.88,0,0,0,427.57,57a5.83,5.83,0,0,0-1.69-4.32A12,12,0,0,0,421.6,50a65.32,65.32,0,0,0-7-2.11,72.67,72.67,0,0,1-9.3-3,15.85,15.85,0,0,1-6.06-4.46,12,12,0,0,1-2.49-7.94,11.78,11.78,0,0,1,2.26-7,15.47,15.47,0,0,1,6.39-5.07,22.46,22.46,0,0,1,9.39-1.88q8.26,0,13.34,4.18a15.17,15.17,0,0,1,5.45,11.51H427A10,10,0,0,0,423.48,27q-3.24-2.78-8.88-2.77a13,13,0,0,0-8.08,2.35,7.08,7.08,0,0,0-3.1,5.82,6.85,6.85,0,0,0,1.84,4.94,12.64,12.64,0,0,0,4.55,3q2.73,1.08,7.33,2.4A68.45,68.45,0,0,1,426,45.66a15.45,15.45,0,0,1,5.64,4.13A11.1,11.1,0,0,1,434.05,57a12.59,12.59,0,0,1-2.25,7.37,15.34,15.34,0,0,1-6.3,5.12,21.69,21.69,0,0,1-9.3,1.88Q407.37,71.4,401.78,67.32Z"/><path class="cls-1" d="M460.69,22a22.8,22.8,0,0,1,12.63-3.43,24.58,24.58,0,0,1,12.55,3.24,22.62,22.62,0,0,1,8.73,9.21,29.27,29.27,0,0,1,3.15,13.86,29.49,29.49,0,0,1-3.15,13.9,22.89,22.89,0,0,1-8.73,9.31,24.31,24.31,0,0,1-12.55,3.28A22.81,22.81,0,0,1,460.73,68a20.56,20.56,0,0,1-7.79-8.59V94.89h-6.49V19.35h6.49V30.63A20.68,20.68,0,0,1,460.69,22Zm27.9,11.84a17.32,17.32,0,0,0-6.81-7.09A19.5,19.5,0,0,0,472,24.33a18.83,18.83,0,0,0-9.63,2.54,18.07,18.07,0,0,0-6.91,7.24A22.57,22.57,0,0,0,452.94,45a22.58,22.58,0,0,0,2.53,10.9,18.2,18.2,0,0,0,6.91,7.24A18.83,18.83,0,0,0,472,65.67a19.22,19.22,0,0,0,9.77-2.49A17.51,17.51,0,0,0,488.59,56a23.41,23.41,0,0,0,2.49-11A23.07,23.07,0,0,0,488.59,33.87Z"/><path class="cls-1" d="M510,31.05a22.58,22.58,0,0,1,8.74-9.21,24.72,24.72,0,0,1,12.64-3.24A23,23,0,0,1,544,22a19.74,19.74,0,0,1,7.66,8.65V19.35h6.58v51.3h-6.58V59.28A20.55,20.55,0,0,1,543.93,68a22.75,22.75,0,0,1-12.64,3.43,24.27,24.27,0,0,1-12.54-3.28A22.85,22.85,0,0,1,510,58.81a29.49,29.49,0,0,1-3.15-13.9A29.27,29.27,0,0,1,510,31.05Zm39.13,3.06a18.05,18.05,0,0,0-6.9-7.24,18.89,18.89,0,0,0-9.63-2.54,19.47,19.47,0,0,0-9.77,2.45A17.28,17.28,0,0,0,516,33.87a23.07,23.07,0,0,0-2.49,11A23.41,23.41,0,0,0,516,56a17.47,17.47,0,0,0,6.82,7.23,19.19,19.19,0,0,0,9.77,2.49,18.88,18.88,0,0,0,9.63-2.53,18.18,18.18,0,0,0,6.9-7.24A22.58,22.58,0,0,0,551.68,45,22.57,22.57,0,0,0,549.14,34.11Z"/><path class="cls-1" d="M599.22,31.05A22.87,22.87,0,0,1,608,21.84a24.75,24.75,0,0,1,12.64-3.24,23.18,23.18,0,0,1,12.21,3.29,20.11,20.11,0,0,1,8,8.55V1.13h6.57V70.65h-6.57V59.19A19.77,19.77,0,0,1,633.13,68a22.79,22.79,0,0,1-12.59,3.43,24.45,24.45,0,0,1-12.63-3.28,22.85,22.85,0,0,1-8.74-9.31A29.49,29.49,0,0,1,596,44.91,28.94,28.94,0,0,1,599.22,31.05Zm39.08,3.06a18.05,18.05,0,0,0-6.9-7.24,18.9,18.9,0,0,0-9.64-2.54A19.5,19.5,0,0,0,612,26.78a17.32,17.32,0,0,0-6.81,7.09,23.07,23.07,0,0,0-2.49,11,23.41,23.41,0,0,0,2.49,11A17.51,17.51,0,0,0,612,63.18a19.22,19.22,0,0,0,9.77,2.49,18.89,18.89,0,0,0,9.64-2.53,18.18,18.18,0,0,0,6.9-7.24A22.58,22.58,0,0,0,640.84,45,22.57,22.57,0,0,0,638.3,34.11Z"/><path class="cls-1" d="M708.67,47.54H666.11a20.71,20.71,0,0,0,2.82,10,16.54,16.54,0,0,0,6.67,6.25,19.48,19.48,0,0,0,9,2.11,18.11,18.11,0,0,0,10.76-3.1,14.56,14.56,0,0,0,5.77-8.36h7a21.72,21.72,0,0,1-8,12.26q-6.15,4.74-15.45,4.74a25.88,25.88,0,0,1-13-3.24,22.86,22.86,0,0,1-9-9.21,28.75,28.75,0,0,1-3.24-14,29.42,29.42,0,0,1,3.19-14,22.26,22.26,0,0,1,8.93-9.2,26.35,26.35,0,0,1,13.06-3.2,25,25,0,0,1,12.82,3.2,22,22,0,0,1,8.46,8.59,24.59,24.59,0,0,1,3,12C708.86,44.63,708.79,46.35,708.67,47.54Zm-8.78-15.13a15.54,15.54,0,0,0-6.53-6.1,19.89,19.89,0,0,0-9-2.07,17.92,17.92,0,0,0-12.5,4.7q-5.16,4.69-5.73,13.24h36.08A18.35,18.35,0,0,0,699.89,32.41Z"/><path class="cls-1" d="M6.78,125.53a26.32,26.32,0,0,1,10.57-10.68,31.66,31.66,0,0,1,15.53-3.73q11.22,0,18.74,5.87t9.88,16.55H42.06q-2.45-6.84-9.5-6.84a9.56,9.56,0,0,0-8,3.9q-3,3.9-3,11.16t3,11.15a9.56,9.56,0,0,0,8,3.9q7,0,9.5-6.83H61.5a28,28,0,0,1-9.93,16.44q-7.59,6-18.69,6a31.66,31.66,0,0,1-15.53-3.74A26.32,26.32,0,0,1,6.78,158,33.26,33.26,0,0,1,3,141.76,33.3,33.3,0,0,1,6.78,125.53Z"/><path class="cls-1" d="M82.58,168.66a27.37,27.37,0,0,1-11-10.68,32,32,0,0,1-4-16.22,31.61,31.61,0,0,1,4.06-16.18,27.48,27.48,0,0,1,11.1-10.73,33.23,33.23,0,0,1,15.8-3.73,33.17,33.17,0,0,1,15.8,3.73,27.57,27.57,0,0,1,11.11,10.73,31.71,31.71,0,0,1,4,16.18,31.31,31.31,0,0,1-4.11,16.17,27.76,27.76,0,0,1-11.21,10.73,33.52,33.52,0,0,1-15.85,3.74A32.89,32.89,0,0,1,82.58,168.66Zm24.66-15.91q3.69-3.84,3.69-11t-3.58-11a12.14,12.14,0,0,0-17.67,0q-3.53,3.78-3.52,11t3.47,11a11.2,11.2,0,0,0,8.7,3.85A11.85,11.85,0,0,0,107.24,152.75Z"/><path class="cls-1" d="M149.57,169.73a23.78,23.78,0,0,1-9.6-7.31A19.21,19.21,0,0,1,136,152h18a6.91,6.91,0,0,0,2.88,5,10.16,10.16,0,0,0,6.3,1.93,9,9,0,0,0,5.29-1.34,4.08,4.08,0,0,0,1.86-3.47,4,4,0,0,0-2.67-3.79,53.91,53.91,0,0,0-8.64-2.72,82.48,82.48,0,0,1-10.68-3.15,18.49,18.49,0,0,1-7.37-5.23q-3.09-3.58-3.09-9.66a16.42,16.42,0,0,1,2.83-9.35,19,19,0,0,1,8.32-6.67,31.87,31.87,0,0,1,13.08-2.45q11.22,0,17.67,5.55a21.58,21.58,0,0,1,7.42,14.73H170.39a7.26,7.26,0,0,0-2.72-4.91,9.44,9.44,0,0,0-6-1.81,8.32,8.32,0,0,0-4.91,1.22,3.92,3.92,0,0,0-1.71,3.37,4.12,4.12,0,0,0,2.72,3.84,43.86,43.86,0,0,0,8.49,2.56A93.53,93.53,0,0,1,177,139a18.72,18.72,0,0,1,7.32,5.34q3.15,3.69,3.25,9.88a15.71,15.71,0,0,1-2.93,9.34,19.46,19.46,0,0,1-8.44,6.46,32.35,32.35,0,0,1-12.76,2.35A34.26,34.26,0,0,1,149.57,169.73Z"/><path class="cls-1" d="M292.48,118.06q6.57,6.72,6.56,18.68v34.8H280.89V139.19q0-5.76-3-8.91t-8.38-3.15q-5.34,0-8.38,3.15t-3,8.91v32.35H239.9V139.19q0-5.76-3.05-8.91c-2-2.1-4.82-3.15-8.38-3.15s-6.35,1.05-8.38,3.15-3,5.07-3,8.91v32.35H198.79V112h18.26v7.47a19.54,19.54,0,0,1,7.26-5.92,22.81,22.81,0,0,1,10.14-2.19,24.66,24.66,0,0,1,12,2.88,20.66,20.66,0,0,1,8.28,8.22,23.92,23.92,0,0,1,8.43-8,22.75,22.75,0,0,1,11.64-3.1Q285.91,111.33,292.48,118.06Z"/><path class="cls-1" d="M367.69,146.13H326.37q.44,5.56,3.58,8.49a10.92,10.92,0,0,0,7.74,2.94q6.84,0,9.5-5.77h19.43a26.51,26.51,0,0,1-5.39,10.57,26.89,26.89,0,0,1-9.77,7.37,31.34,31.34,0,0,1-13.13,2.67,32,32,0,0,1-15.59-3.74A26.56,26.56,0,0,1,312.07,158a32.94,32.94,0,0,1-3.85-16.22,33.3,33.3,0,0,1,3.8-16.23,26.14,26.14,0,0,1,10.62-10.68,34.63,34.63,0,0,1,31.07-.1,26,26,0,0,1,10.51,10.35A31.43,31.43,0,0,1,368,140.8,45.14,45.14,0,0,1,367.69,146.13ZM349.33,136a9.4,9.4,0,0,0-3.2-7.47,11.82,11.82,0,0,0-8-2.78,11.56,11.56,0,0,0-7.74,2.67,11.88,11.88,0,0,0-3.9,7.58Z"/><path class="cls-1" d="M410.82,156.06v15.48h-9.28q-9.93,0-15.48-4.85t-5.56-15.86v-23.7h-7.26V112h7.26V97.45h18.26V112h12v15.16h-12v23.92a5,5,0,0,0,1.28,3.84,6.28,6.28,0,0,0,4.27,1.17Z"/><path class="cls-1" d="M432.34,168.66a27.3,27.3,0,0,1-11-10.68,34.61,34.61,0,0,1,.05-32.4,27.57,27.57,0,0,1,11.11-10.73,35.33,35.33,0,0,1,31.6,0,27.48,27.48,0,0,1,11.1,10.73,34.07,34.07,0,0,1-.05,32.35,27.82,27.82,0,0,1-11.21,10.73,33.56,33.56,0,0,1-15.86,3.74A32.88,32.88,0,0,1,432.34,168.66ZM457,152.75q3.67-3.84,3.68-11t-3.57-11a12.14,12.14,0,0,0-17.67,0q-3.53,3.78-3.53,11t3.47,11a11.23,11.23,0,0,0,8.7,3.85A11.89,11.89,0,0,0,457,152.75Z"/><path class="cls-1" d="M507.73,92.54v79H489.47v-79Z"/><path class="cls-1" d="M532.34,168.66a27.37,27.37,0,0,1-11-10.68,31.85,31.85,0,0,1-4-16.22,31.61,31.61,0,0,1,4.06-16.18,27.48,27.48,0,0,1,11.1-10.73,35.33,35.33,0,0,1,31.6,0,27.48,27.48,0,0,1,11.1,10.73,34.07,34.07,0,0,1-.05,32.35,27.82,27.82,0,0,1-11.21,10.73,33.52,33.52,0,0,1-15.85,3.74A32.89,32.89,0,0,1,532.34,168.66ZM557,152.75q3.69-3.84,3.68-11t-3.57-11a12.14,12.14,0,0,0-17.67,0q-3.53,3.78-3.52,11t3.47,11a11.2,11.2,0,0,0,8.7,3.85A11.86,11.86,0,0,0,557,152.75Z"/><path class="cls-1" d="M622.66,113.68A18.83,18.83,0,0,1,630,120.4V112h18.26v59.47A33.51,33.51,0,0,1,645,186.33,24.81,24.81,0,0,1,635.05,197q-6.67,4-16.61,4-13.23,0-21.46-6.24a23.58,23.58,0,0,1-9.39-16.92h18a8.65,8.65,0,0,0,4.06,5.39,14.84,14.84,0,0,0,7.9,2,12.41,12.41,0,0,0,9-3.25Q630,178.6,630,171.44V163a20.18,20.18,0,0,1-7.36,6.78,22.21,22.21,0,0,1-11,2.62,24.41,24.41,0,0,1-13.35-3.79,26.21,26.21,0,0,1-9.44-10.78,35.9,35.9,0,0,1-3.47-16.18,35.52,35.52,0,0,1,3.47-16.12,25.86,25.86,0,0,1,9.44-10.68,24.7,24.7,0,0,1,13.35-3.73A22.91,22.91,0,0,1,622.66,113.68ZM626.18,131a12.83,12.83,0,0,0-18.47-.05q-3.78,3.9-3.79,10.73t3.79,10.84a12.72,12.72,0,0,0,18.47,0q3.8-3.94,3.79-10.78T626.18,131Z"/><path class="cls-1" d="M684.42,97.13l-25.73,10.78V95.32l25.73-12.39ZM681.11,112v59.57H662.86V112Z"/><path class="cls-1" d="M695.58,125.53A25.81,25.81,0,0,1,705,114.85a24.64,24.64,0,0,1,13.34-3.73,22.88,22.88,0,0,1,11,2.56,18.93,18.93,0,0,1,7.32,6.72V112H755v59.57H736.74v-8.43a19.76,19.76,0,0,1-7.42,6.73,23,23,0,0,1-11.05,2.56A24.19,24.19,0,0,1,705,168.61a26.17,26.17,0,0,1-9.45-10.78,36,36,0,0,1-3.47-16.18A35.66,35.66,0,0,1,695.58,125.53ZM733,131a12.83,12.83,0,0,0-18.47-.05q-3.79,3.9-3.79,10.73t3.79,10.84a12.21,12.21,0,0,0,9.23,4,12.34,12.34,0,0,0,9.24-4q3.78-3.94,3.79-10.78T733,131Z"/><path class="cls-2" d="M55.88,323a5.29,5.29,0,0,1-1.92-.37,7.89,7.89,0,0,1-3.76-2.81,12,12,0,0,1-2.08-7.15,29.34,29.34,0,0,1,.67-6.2l9.54-54q-2.49,7.71-5.68,15.27a66.85,66.85,0,0,1-8.08,14.13,23.9,23.9,0,0,1-5,4.9A10.46,10.46,0,0,1,33.31,289a7.5,7.5,0,0,1-2-.27,8.63,8.63,0,0,1-4.22-2.55q-3.45-3.7-3.44-10.48c0-1.18,0-2.34.15-3.49a232.71,232.71,0,0,1,3.71-25.28q1.5-8.14,2.71-16.27a111.2,111.2,0,0,0,1.19-16.26,34.15,34.15,0,0,0-.33-6.21,1.72,1.72,0,0,0-1.91-1.3,14.52,14.52,0,0,0-9.07,4.07A20.16,20.16,0,0,0,15,218.63a37.11,37.11,0,0,0-2,13c0,1.74,0,3.46.16,5.16a8,8,0,0,1-.16,1.51,1.76,1.76,0,0,1-.73,1.18,2.35,2.35,0,0,1-1.15.44,9.86,9.86,0,0,1-1,0,8.84,8.84,0,0,1-4.66-1.3,10.67,10.67,0,0,1-3.52-3.39A13.27,13.27,0,0,1,0,228.12a31.11,31.11,0,0,1,1.67-9.18,24.78,24.78,0,0,1,9.59-13.24,26.93,26.93,0,0,1,22.31-3.59A14.72,14.72,0,0,1,40.35,206a11.82,11.82,0,0,1,2.71,5.24,26.91,26.91,0,0,1,.68,6,115.13,115.13,0,0,1-1.46,16.16q-1.16,7.26-2.56,14.44c-.93,4.8-1.79,9.65-2.55,14.55a130.93,130.93,0,0,0-1.46,14.86,2.47,2.47,0,0,0,.47,1.51,1.45,1.45,0,0,0,1,.47,2.91,2.91,0,0,0,1.57-.52,5.56,5.56,0,0,0,1.3-1.2,81.71,81.71,0,0,0,9.43-15.64,167.79,167.79,0,0,0,16-57.82c0-1.07.4-1.61,1.09-1.61a7.53,7.53,0,0,1,2.87,1.2,14.79,14.79,0,0,1,6.62,8.7,17.9,17.9,0,0,1,.52,4.28,32.7,32.7,0,0,1-.83,7.24l-15.8,95C59.72,321.62,58.35,323,55.88,323Z"/><path class="cls-2" d="M118.86,278.89a13.75,13.75,0,0,1-2.71-.26,14.52,14.52,0,0,1-7.67-4.48A20.08,20.08,0,0,1,103.27,260a40.11,40.11,0,0,1,8.39-23.2,18.51,18.51,0,0,1,11.53-6.41,12.76,12.76,0,0,1,1.61-.1,8.36,8.36,0,0,1,4.8,1.27,7.52,7.52,0,0,1,2.76,3.39,11.7,11.7,0,0,1,.89,4.56,15.65,15.65,0,0,1-3,9,27.25,27.25,0,0,1-6.2,5.63,72.57,72.57,0,0,1-7.35,4.28,2.06,2.06,0,0,0-.94.67,9.57,9.57,0,0,0-.42,3.44,19.64,19.64,0,0,0,1.83,8.24,6,6,0,0,0,4.12,1.62,10.88,10.88,0,0,0,6.1-2.45,34,34,0,0,0,7.27-7.64A69.3,69.3,0,0,0,140,253c.87-1.74,1.85-2.61,2.92-2.61a1.92,1.92,0,0,1,1.78,1.3,2.59,2.59,0,0,1,.26,1.15q0,2.15-5.27,10.37a65,65,0,0,1-4.33,6.16,25.43,25.43,0,0,1-10.58,8.34A16.23,16.23,0,0,1,118.86,278.89Zm-2.4-25.54a25.87,25.87,0,0,0,9.18-6.67,11.89,11.89,0,0,0,2.65-4.43,6.53,6.53,0,0,0,.21-1.78,7.16,7.16,0,0,0-.44-2.45,1.58,1.58,0,0,0-1.54-1.2,2.94,2.94,0,0,0-2.24,1.15,24.57,24.57,0,0,0-6.2,10.17Q117.14,250.74,116.46,253.35Z"/><path class="cls-2" d="M154.57,279.83a6.48,6.48,0,0,1-1.83-.15h-.31a11.61,11.61,0,0,1-8.34-4.8,12.33,12.33,0,0,1-2-6.78q0-3.39,1.14-4.17a2.71,2.71,0,0,1,1.41-.41l.57.05a1.72,1.72,0,0,1,1.2.81,2.57,2.57,0,0,1,.42,1.43l-.05.52a10.43,10.43,0,0,0-.21,1.56,7,7,0,0,0,1.33,4,3.9,3.9,0,0,0,3.26,1.93,4.08,4.08,0,0,0,2.6-1.15,6.11,6.11,0,0,0,1.93-4.74,11.46,11.46,0,0,0-.73-4,36.44,36.44,0,0,0-2.29-5.63l-.94-2.08c-.69-1.36-1.34-2.73-1.93-4.12A31.92,31.92,0,0,1,148,247q-1.62,3.35-3.13,6.73a2,2,0,0,1-2,1.09,2.1,2.1,0,0,1-1.77-.83,2.84,2.84,0,0,1-.47-1.31,2.43,2.43,0,0,1,.31-1.19A118.05,118.05,0,0,1,147.11,239a36.26,36.26,0,0,1,3.7-5.47,11.35,11.35,0,0,1,5.32-3.65l.26,0a14.53,14.53,0,0,1,4.54-.84,13,13,0,0,1,5.16,1.1,3.44,3.44,0,0,1,1,.42l.68.41.54.34a1.59,1.59,0,0,1,.5.5,2.13,2.13,0,0,1,.78,1.67l-.05.57a2,2,0,0,1-.83,1.22,2.4,2.4,0,0,1-1.41.5,1.81,1.81,0,0,1-.58-.1,6.52,6.52,0,0,0-1.72-.53.63.63,0,0,0-.26,0L164,235l-.41.05a3.19,3.19,0,0,0-2.19,1.31l-.05.1a3.93,3.93,0,0,0-.73,1.41,10.38,10.38,0,0,0-.68,3.8,15.25,15.25,0,0,0,1.09,5.68c.73,1.85,1.55,3.65,2.45,5.43a47.12,47.12,0,0,1,2.84,6.41,19.87,19.87,0,0,1,1.23,6.83,15.71,15.71,0,0,1-.26,2.81,29.51,29.51,0,0,0,2.45-2.55A69.32,69.32,0,0,0,179,251.53a2.31,2.31,0,0,1,1.93-1.1,2.55,2.55,0,0,1,1.14.26,2.19,2.19,0,0,1,1.1,1.88,2.58,2.58,0,0,1-.31,1.2,70.83,70.83,0,0,1-9,14.49q-6.32,7.92-14.23,10.69A15.22,15.22,0,0,1,154.57,279.83Z"/><path class="cls-2" d="M185.33,279.36a8.84,8.84,0,0,1-3.81-.88q-6-3.28-6.05-11.84c0-1.11.05-2.22.16-3.33q.68-8.55,5.32-32c.59-3,1.14-6,1.66-9h-6.15a2.06,2.06,0,0,1-1.56-.65,2.47,2.47,0,0,1-.68-1.64,2.12,2.12,0,0,1,.68-1.59,2.16,2.16,0,0,1,1.56-.65h7c.66-3.37,1-5.74,1.15-7.09l.05-.32q.15-1.09.21-2.19l-.11-.57a2.11,2.11,0,0,1,.71-1.56,2.28,2.28,0,0,1,1.64-.68,1.82,1.82,0,0,1,.55.08c.15.05.32.09.49.13l3.18.83a7.51,7.51,0,0,1,4.64,4.8,6.56,6.56,0,0,1,.26,1.82,11.3,11.3,0,0,1-.42,3l-.31,1.72h5.32a2.14,2.14,0,0,1,1.59.67,2.47,2.47,0,0,1,.7,1.62,2.07,2.07,0,0,1-.7,1.59,2.26,2.26,0,0,1-1.59.65H194.5q-1.14,5.53-2.4,11-1.71,7.77-3.13,15.54-.72,4.59-1.25,9.12c-.28,1.91-.48,3.82-.62,5.74a22.27,22.27,0,0,0-.16,2.71c0,.38.06.8.08,1.25a4.44,4.44,0,0,0,.31,1.41,2.21,2.21,0,0,0,1,1.14,2.33,2.33,0,0,0,1.09.26,3.62,3.62,0,0,0,1.46-.31l1.62-.94a15.22,15.22,0,0,0,3.23-3.28c1-1.32,2-2.68,2.87-4.07a102.27,102.27,0,0,0,5.84-10.27,2.21,2.21,0,0,1,1.93-1.09,2.42,2.42,0,0,1,1.14.26,2.35,2.35,0,0,1,1.1,2,2.29,2.29,0,0,1-.32,1.3l-.15.21c-1.43,2.89-2.82,5.42-4.17,7.61a51.81,51.81,0,0,1-4.54,6.67,41.46,41.46,0,0,1-3.7,4.49Q190.33,279.36,185.33,279.36Z"/><path class="cls-2" d="M216.19,278.89a13.75,13.75,0,0,1-2.71-.26,14.52,14.52,0,0,1-7.67-4.48A20.08,20.08,0,0,1,200.6,260a39.92,39.92,0,0,1,8.39-23.2,18.51,18.51,0,0,1,11.52-6.41,13,13,0,0,1,1.62-.1,8.38,8.38,0,0,1,4.8,1.27,7.52,7.52,0,0,1,2.76,3.39,11.69,11.69,0,0,1,.88,4.56,15.64,15.64,0,0,1-3,9,27.25,27.25,0,0,1-6.2,5.63,74.84,74.84,0,0,1-7.35,4.28,2,2,0,0,0-.94.67,9.57,9.57,0,0,0-.42,3.44,19.64,19.64,0,0,0,1.83,8.24,6,6,0,0,0,4.11,1.62,10.85,10.85,0,0,0,6.1-2.45,33.87,33.87,0,0,0,7.28-7.64,69.3,69.3,0,0,0,5.39-9.25c.87-1.74,1.84-2.61,2.92-2.61a1.9,1.9,0,0,1,1.77,1.3,2.46,2.46,0,0,1,.26,1.15q0,2.15-5.26,10.37a65,65,0,0,1-4.33,6.16,25.43,25.43,0,0,1-10.58,8.34A16.23,16.23,0,0,1,216.19,278.89Zm-1.1-53.22a2.37,2.37,0,0,1-1.54-.58,8.47,8.47,0,0,1-1.27-1.27,11.64,11.64,0,0,1-1-1.46,2.88,2.88,0,0,1,.86-3.94q6.51-6,12.56-12.46a12.41,12.41,0,0,1,1.78-1.64,3.21,3.21,0,0,1,2-.7,3.74,3.74,0,0,1,2.92,1.48,5,5,0,0,1,1.25,3.31,3.93,3.93,0,0,1-.76,2.4,11,11,0,0,1-1.85,2q-6.51,5.69-12.77,11.68a3.79,3.79,0,0,1-1.83,1.15Zm-1.3,27.68a25.75,25.75,0,0,0,9.17-6.67,11.78,11.78,0,0,0,2.66-4.43,6.53,6.53,0,0,0,.21-1.78,7.16,7.16,0,0,0-.44-2.45,1.58,1.58,0,0,0-1.54-1.2,2.94,2.94,0,0,0-2.24,1.15,24.59,24.59,0,0,0-6.21,10.17Q214.47,250.74,213.79,253.35Z"/><path class="cls-2" d="M244.81,279.36a8.84,8.84,0,0,1-3.81-.88q-6-3.28-6.05-11.84c0-1.11.06-2.22.16-3.33q.67-8.55,5.32-32c.59-3,1.14-6,1.67-9h-6.16a2.06,2.06,0,0,1-1.56-.65,2.47,2.47,0,0,1-.68-1.64,2.12,2.12,0,0,1,.68-1.59,2.16,2.16,0,0,1,1.56-.65h7c.66-3.37,1-5.74,1.15-7.09l0-.32q.15-1.09.21-2.19l-.11-.57a2.11,2.11,0,0,1,.71-1.56,2.29,2.29,0,0,1,1.64-.68,1.82,1.82,0,0,1,.55.08c.15.05.32.09.49.13l3.18.83a7.49,7.49,0,0,1,4.64,4.8,6.56,6.56,0,0,1,.26,1.82,11.3,11.3,0,0,1-.42,3L255,217.8h5.32a2.12,2.12,0,0,1,1.59.67,2.47,2.47,0,0,1,.7,1.62,2.07,2.07,0,0,1-.7,1.59,2.26,2.26,0,0,1-1.59.65H254q-1.14,5.53-2.4,11-1.71,7.77-3.12,15.54-.74,4.59-1.26,9.12-.4,2.86-.62,5.74a22.27,22.27,0,0,0-.16,2.71c0,.38.06.8.08,1.25a4.44,4.44,0,0,0,.31,1.41,2.21,2.21,0,0,0,1,1.14,2.33,2.33,0,0,0,1.09.26,3.62,3.62,0,0,0,1.46-.31l1.62-.94a15.22,15.22,0,0,0,3.23-3.28q1.52-2,2.87-4.07a102.27,102.27,0,0,0,5.84-10.27,2.22,2.22,0,0,1,1.93-1.09,2.42,2.42,0,0,1,1.14.26,2.35,2.35,0,0,1,1.1,2,2.38,2.38,0,0,1-.31,1.3l-.16.21c-1.43,2.89-2.82,5.42-4.17,7.61a51.81,51.81,0,0,1-4.54,6.67,41.46,41.46,0,0,1-3.7,4.49Q249.82,279.36,244.81,279.36Z"/><path class="cls-2" d="M270.61,278.84h-.88A9.77,9.77,0,0,1,264.2,277a10.48,10.48,0,0,1-3.7-6.16,21.27,21.27,0,0,1-.42-4.22c0-1,0-2.08.11-3.13a98.17,98.17,0,0,1,1.87-12c.87-3.95,1.83-7.86,2.87-11.76.31-1,.57-2,.78-3a14.82,14.82,0,0,0,.31-3V232c0-1.81.77-2.71,2.3-2.71a7.87,7.87,0,0,1,2.76.52l.42.15a7.49,7.49,0,0,1,4.79,3.34,6.78,6.78,0,0,1,.68,3,13.25,13.25,0,0,1-.62,4l-1.2,5q-2.36,8.91-3.86,17.93a20.19,20.19,0,0,0-.31,3.55,7.36,7.36,0,0,0,.6,3.36,1.84,1.84,0,0,0,1.69,1.12,3.69,3.69,0,0,0,2.71-1.67,33.49,33.49,0,0,0,4-5.81c1.11-2.07,2.16-4.18,3.13-6.34q1.1-2.45,2.29-4.84a4.49,4.49,0,0,1,1.46-1.88,2.09,2.09,0,0,1,1-.26,2.34,2.34,0,0,1,1.41.49,1.85,1.85,0,0,1,.78,1.28l.06.42a3.79,3.79,0,0,1-.58,2,144.27,144.27,0,0,1-9,17.62,16.33,16.33,0,0,1-4.75,5.32A10.52,10.52,0,0,1,270.61,278.84ZM273.17,227h-.32a3.31,3.31,0,0,1-1.46-.36,5.38,5.38,0,0,1-2.86-3.81,4.24,4.24,0,0,1-.11-.94,3.08,3.08,0,0,1,.86-2.13,4.39,4.39,0,0,1,2.14-1.28,8.66,8.66,0,0,1,1.9-.34h.21a3.78,3.78,0,0,1,2.74,1.15,5.85,5.85,0,0,1,1.59,2.71,3.44,3.44,0,0,1,.21,1.2,3.29,3.29,0,0,1-.53,1.77Q276.36,226.71,273.17,227Z"/><path class="cls-2" d="M297.51,279.26a15.07,15.07,0,0,1-3.86-.52,14.16,14.16,0,0,1-7.09-4.95,19.93,19.93,0,0,1-4.17-12.67,31,31,0,0,1,.68-6.39,41.3,41.3,0,0,1,1.83-6.23,34.24,34.24,0,0,1,5.55-10.66,19.1,19.1,0,0,1,9.62-6.75,12.34,12.34,0,0,1,3.33-.47,9,9,0,0,1,6.31,2.24,10.18,10.18,0,0,1,2.81,7.46,12.82,12.82,0,0,1-3.23,8.44,4.92,4.92,0,0,1-3.18,1.72,2.58,2.58,0,0,1-1.3-.36,1.76,1.76,0,0,1-1-1.67,2.54,2.54,0,0,1,.44-1.36,15,15,0,0,1,1-1.35,8.12,8.12,0,0,0,1.93-5.16,7.85,7.85,0,0,0-.47-2.66c-.28-.7-.66-1-1.15-1a1.59,1.59,0,0,0-1.15.52,19.1,19.1,0,0,0-5.78,8A45.38,45.38,0,0,0,294.75,260a25.14,25.14,0,0,0-.21,3.23,21.8,21.8,0,0,0,.83,5.95,5.22,5.22,0,0,0,2.35,3.44,4,4,0,0,0,1.82.42,6.65,6.65,0,0,0,1.83-.27q5.1-1.4,10.09-6.8a56.18,56.18,0,0,0,8.42-12l.2-.42a5.92,5.92,0,0,1,1.88-2.4,3.35,3.35,0,0,1,1.62-.62,1.3,1.3,0,0,1,.88.31,3.14,3.14,0,0,1,.63,2,6.13,6.13,0,0,1-.52,2.51,70.07,70.07,0,0,1-8.87,13.13,34.41,34.41,0,0,1-9.64,8.45A17.73,17.73,0,0,1,297.51,279.26Z"/><path class="cls-2" d="M327.23,279.1a8.15,8.15,0,0,1-6-2.66q-3.5-4.32-3.49-12.61a51.28,51.28,0,0,1,.83-9,66,66,0,0,1,2.19-8.76q4-13.29,12.83-15.22a13.48,13.48,0,0,1,2.34-.21,19,19,0,0,1,9.38,2.82v-.89l-.05-.47-.05-.21a1.75,1.75,0,0,1,0-.47,2.11,2.11,0,0,1,.68-1.59,2.26,2.26,0,0,1,1.61-.65c.21,0,1.44.3,3.7.89a7.19,7.19,0,0,1,3.7,2.27,5.9,5.9,0,0,1,1.41,4,10.63,10.63,0,0,1-.62,3.49l-1.41,5.94q-1.46,5.94-2.87,12.51a50.42,50.42,0,0,0-1.3,9,7.7,7.7,0,0,0,.47,2.53,1.77,1.77,0,0,0,1.77,1.33l1-.11q4.76-.78,8.29-6,3.54-5,3.55-9.59a5.76,5.76,0,0,0-.94-3.24,2.66,2.66,0,0,1,.94-4.3,6.85,6.85,0,0,1,3.33-.91,5.35,5.35,0,0,1,4.54,2.32,8.73,8.73,0,0,1,1.41,4.87,15.78,15.78,0,0,1-1.93,7.41,35.94,35.94,0,0,1-4.38,6.51,39.9,39.9,0,0,1-6.75,6.28,23.91,23.91,0,0,1-8.21,4,13.21,13.21,0,0,1-3.65.53,9.58,9.58,0,0,1-6.26-2.09q-4-3.28-4-9.7V266A37.45,37.45,0,0,1,334,275.4Q331,279.11,327.23,279.1Zm3-8.34a1.38,1.38,0,0,0,.65-.44,6.37,6.37,0,0,0,.47-.63l.29-.44A24.23,24.23,0,0,0,335,263.2l.37-.83,1.35-4q1.41-4,3.13-9.07c1.15-3.4,2.12-6.43,2.92-9.07a2.74,2.74,0,0,1,1.41-2.19l-.26-.1a5.25,5.25,0,0,0-2.66-.84,4.94,4.94,0,0,0-3,1,11.2,11.2,0,0,0-2.45,2.5,17.82,17.82,0,0,0-1.75,3,52.64,52.64,0,0,0-5,22.26l.05,2.29c0,.11,0,.27,0,.47s0,.49.08.84a2.7,2.7,0,0,0,.23.91.62.62,0,0,0,.6.39Z"/><path class="cls-2" d="M411.31,278.84h-.88A9.8,9.8,0,0,1,404.9,277a10.48,10.48,0,0,1-3.7-6.16,21.27,21.27,0,0,1-.42-4.22c0-1,0-2.08.11-3.13a98.17,98.17,0,0,1,1.87-12c.87-3.95,1.83-7.86,2.87-11.76.31-1,.57-2,.78-3a14.83,14.83,0,0,0,.32-3V232c0-1.81.76-2.71,2.29-2.71a7.87,7.87,0,0,1,2.76.52l.42.15a7.49,7.49,0,0,1,4.79,3.34,6.78,6.78,0,0,1,.68,3,13.25,13.25,0,0,1-.62,4l-1.2,5q-2.36,8.91-3.86,17.93a20.19,20.19,0,0,0-.31,3.55,7.36,7.36,0,0,0,.6,3.36,1.84,1.84,0,0,0,1.69,1.12,3.69,3.69,0,0,0,2.71-1.67,33.49,33.49,0,0,0,4-5.81q1.68-3.1,3.13-6.34,1.1-2.45,2.3-4.84a4.34,4.34,0,0,1,1.46-1.88,2,2,0,0,1,1-.26,2.34,2.34,0,0,1,1.4.49,1.86,1.86,0,0,1,.79,1.28l.05.42a3.7,3.7,0,0,1-.58,2,144.27,144.27,0,0,1-9,17.62,16.33,16.33,0,0,1-4.75,5.32A10.52,10.52,0,0,1,411.31,278.84ZM413.87,227h-.32a3.31,3.31,0,0,1-1.46-.36,5.4,5.4,0,0,1-2.86-3.81,4.24,4.24,0,0,1-.11-.94,3.08,3.08,0,0,1,.86-2.13,4.39,4.39,0,0,1,2.14-1.28,8.66,8.66,0,0,1,1.9-.34h.21a3.78,3.78,0,0,1,2.74,1.15,5.85,5.85,0,0,1,1.59,2.71,3.44,3.44,0,0,1,.21,1.2,3.37,3.37,0,0,1-.52,1.77Q417.05,226.71,413.87,227Z"/><path class="cls-2" d="M430.18,279.15a24.72,24.72,0,0,1-4-.31,3.85,3.85,0,0,1-2.6-1.82,4.84,4.84,0,0,1-.53-2.19,9.88,9.88,0,0,1,.21-2q2.15-12.81,4.07-25.12l2.71-16.94a1.82,1.82,0,0,1,.65-1.41,2.61,2.61,0,0,1,1.49-.37,12.23,12.23,0,0,1,6.2,1.78,5.27,5.27,0,0,1,2.5,4.74,11.45,11.45,0,0,1-.15,1.85q-.16.92-2.45,15.14,1.71-4.78,3.83-9.38a38.84,38.84,0,0,1,5.29-8.45,15.6,15.6,0,0,1,3.31-3,7.13,7.13,0,0,1,4-1.2,7.85,7.85,0,0,1,6,2.92,11.36,11.36,0,0,1,1.93,6.93,94.47,94.47,0,0,1-1.93,13.87q-1,4.9-1.56,10.06a21,21,0,0,0-.21,3,14.6,14.6,0,0,0,.32,3,3,3,0,0,0,.49,1.19,1.5,1.5,0,0,0,1.07.58,1.76,1.76,0,0,0,1.3-.58,15.62,15.62,0,0,0,3.76-4.48,57.55,57.55,0,0,0,6-13q.88-3.54,3-3.54a2.16,2.16,0,0,1,2,2.29,5.85,5.85,0,0,1-.63,2.66q-1.71,4.59-3.78,9a45.43,45.43,0,0,1-5,8.34q-4.64,6.15-10,6.15a9.34,9.34,0,0,1-7.79-4.43,10.79,10.79,0,0,1-1.46-3.91,28.94,28.94,0,0,1-.29-4.22,50.09,50.09,0,0,1,.55-7.35c.37-2.44.79-4.89,1.28-7.35q.94-4.65,1.51-9.34c0-.34.06-.62.08-.83s0-.52,0-.94a2.75,2.75,0,0,0-.08-.7,1.91,1.91,0,0,0-.19-.47A.59.59,0,0,0,451,239a.56.56,0,0,0-.18-.08l-.11,0c-1,.17-1.86,1-2.55,2.5A135.41,135.41,0,0,0,437,272.06a16.82,16.82,0,0,1-1.2,3.81Q434.35,279.15,430.18,279.15Z"/><path class="cls-2" d="M479.29,279.36a8.83,8.83,0,0,1-3.8-.88q-6.06-3.28-6.05-11.84,0-1.67.15-3.33.69-8.55,5.32-32c.59-3,1.15-6,1.67-9h-6.15a2,2,0,0,1-1.56-.65,2.43,2.43,0,0,1-.68-1.64,2.08,2.08,0,0,1,.68-1.59,2.16,2.16,0,0,1,1.56-.65h7a71.48,71.48,0,0,0,1.15-7.09l.05-.32a20.27,20.27,0,0,0,.21-2.19l-.1-.57a2.09,2.09,0,0,1,.7-1.56,2.31,2.31,0,0,1,1.64-.68,1.82,1.82,0,0,1,.55.08l.5.13,3.18.83a7.51,7.51,0,0,1,4.64,4.8,6.56,6.56,0,0,1,.26,1.82,11.3,11.3,0,0,1-.42,3l-.31,1.72h5.31a2.11,2.11,0,0,1,1.59.67,2.48,2.48,0,0,1,.71,1.62,2.07,2.07,0,0,1-.71,1.59,2.26,2.26,0,0,1-1.59.65h-6.3q-1.16,5.53-2.4,11-1.72,7.77-3.13,15.54c-.49,3.06-.9,6.1-1.25,9.12q-.42,2.86-.63,5.74a24.48,24.48,0,0,0-.15,2.71c0,.38.06.8.08,1.25a4.18,4.18,0,0,0,.31,1.41,2.24,2.24,0,0,0,1,1.14,2.37,2.37,0,0,0,1.1.26,3.65,3.65,0,0,0,1.46-.31l1.62-.94a15.45,15.45,0,0,0,3.23-3.28q1.51-2,2.86-4.07a100.36,100.36,0,0,0,5.84-10.27,2.22,2.22,0,0,1,1.93-1.09,2.46,2.46,0,0,1,1.15.26,2.34,2.34,0,0,1,1.09,2,2.29,2.29,0,0,1-.31,1.3l-.16.21c-1.42,2.89-2.81,5.42-4.17,7.61a50.75,50.75,0,0,1-4.53,6.67,42.67,42.67,0,0,1-3.7,4.49Q484.29,279.36,479.29,279.36Z"/><path class="cls-2" d="M510.15,278.89a13.89,13.89,0,0,1-2.71-.26,14.49,14.49,0,0,1-7.66-4.48A20,20,0,0,1,494.57,260a33.07,33.07,0,0,1,2.08-11.47A32.69,32.69,0,0,1,503,236.77a18.46,18.46,0,0,1,11.52-6.41,12.92,12.92,0,0,1,1.62-.1,8.35,8.35,0,0,1,4.79,1.27,7.52,7.52,0,0,1,2.76,3.39,11.52,11.52,0,0,1,.89,4.56,15.71,15.71,0,0,1-3,9,27.3,27.3,0,0,1-6.21,5.63,72.57,72.57,0,0,1-7.35,4.28,2.12,2.12,0,0,0-.94.67,9.87,9.87,0,0,0-.41,3.44,19.78,19.78,0,0,0,1.82,8.24,6,6,0,0,0,4.12,1.62,10.88,10.88,0,0,0,6.1-2.45,33.61,33.61,0,0,0,7.27-7.64,69.37,69.37,0,0,0,5.4-9.25c.87-1.74,1.84-2.61,2.92-2.61a1.92,1.92,0,0,1,1.77,1.3,2.59,2.59,0,0,1,.26,1.15q0,2.15-5.26,10.37a68.92,68.92,0,0,1-4.33,6.16,25.43,25.43,0,0,1-10.58,8.34A16.25,16.25,0,0,1,510.15,278.89Zm-2.4-25.54a25.87,25.87,0,0,0,9.18-6.67,11.91,11.91,0,0,0,2.66-4.43,6.53,6.53,0,0,0,.21-1.78,6.94,6.94,0,0,0-.45-2.45,1.56,1.56,0,0,0-1.53-1.2,2.94,2.94,0,0,0-2.25,1.15,24.57,24.57,0,0,0-6.2,10.17Q508.44,250.74,507.75,253.35Z"/><path class="cls-2" d="M541,318.51a9,9,0,0,1-2.92-.47,9.78,9.78,0,0,1-5.26-4.71,15.11,15.11,0,0,1-1.77-7.12,23.46,23.46,0,0,1,5.05-13.76,46.15,46.15,0,0,1,10.27-9.7l.16-.15a6.68,6.68,0,0,0,1.56-1.41,6.85,6.85,0,0,0,.79-2.4l2.5-15.07c-.73,1.32-1.41,2.7-2,4.12a39.71,39.71,0,0,1-3.29,6.21,13.9,13.9,0,0,1-3.7,3.51,8.23,8.23,0,0,1-4.59,1.44,7.51,7.51,0,0,1-1.56-.16,8.54,8.54,0,0,1-5.48-4.48,18.87,18.87,0,0,1-1.82-7,41.59,41.59,0,0,1-.21-4.17,53.86,53.86,0,0,1,4.07-20q3.75-9.94,10.84-12.09a10.66,10.66,0,0,1,3-.42,21.78,21.78,0,0,1,9.18,2.51l0-.84c0-2.29.76-3.51,2.29-3.65a4.31,4.31,0,0,1,1.41.26,20.29,20.29,0,0,1,4.58,1.83,5.53,5.53,0,0,1,2.87,5.31,16.93,16.93,0,0,1-.31,3.24l-5.32,32.21a48.26,48.26,0,0,0,15.12-18,6.76,6.76,0,0,1,1.56-2.45,2.46,2.46,0,0,1,1.72-.73.85.85,0,0,0,.32.05,1.63,1.63,0,0,1,.62.21,2.13,2.13,0,0,1,.89,1.77,5.65,5.65,0,0,1-.73,2.66,56.36,56.36,0,0,1-18.25,21.22l-.31.21a5.49,5.49,0,0,0-1.77,1.72q-.63,1.29-2,10a130.15,130.15,0,0,1-3.13,15.48q-2.09,7.19-5.74,11.05A12,12,0,0,1,541,318.51Zm-2.08-8.29a2.44,2.44,0,0,0,1.09-.57,12.08,12.08,0,0,0,2.92-4.69q4.17-9.75,4.17-17a16.66,16.66,0,0,0-4.58,3.71,28.73,28.73,0,0,0-3.55,4.84,15.94,15.94,0,0,0-2.45,8.4,13,13,0,0,0,.42,3.28,3.57,3.57,0,0,0,.62,1.38,1.43,1.43,0,0,0,1.2.65ZM540.55,271a10.71,10.71,0,0,0,4.27-5.16,110.89,110.89,0,0,0,7-17.57l.94-2.61a22.46,22.46,0,0,0,1.87-6.51c0-1.39-.8-2.09-2.4-2.09a5.54,5.54,0,0,0-2.5.63,10.82,10.82,0,0,0-3.91,4.27,46.38,46.38,0,0,0-5.37,16.74,39.52,39.52,0,0,0-.57,6.67A25.71,25.71,0,0,0,540.55,271Z"/><path class="cls-2" d="M598.51,279.52a10.45,10.45,0,0,1-2.91-.42,9.79,9.79,0,0,1-5.22-3.8,10.75,10.75,0,0,1-1.61-5.58l.05-.31a65,65,0,0,1,1.56-10.27l2.92-12.88a52.16,52.16,0,0,0,.94-5.63,1.05,1.05,0,0,0-.83-1.15,7.3,7.3,0,0,0-1.78-.21H591l-1.83-.15-2.61-.26a106.05,106.05,0,0,1-5.26,15,2.31,2.31,0,0,1-1.93,1.09,2.21,2.21,0,0,1-1.82-.83,2.84,2.84,0,0,1-.47-1.3,5.08,5.08,0,0,1,.78-2.25,0,0,0,0,1,0-.05c.9-2.4,1.77-4.79,2.61-7.19l1.67-5.68-.42-.16q-4.38-2-4.59-5.94a10,10,0,0,1-.1-1.41,14.45,14.45,0,0,1,2-7.51,7,7,0,0,1,4.12-3.07,1.5,1.5,0,0,1,.93-.32l2.35-.1.78.05a4.12,4.12,0,0,1,2,.73,3.18,3.18,0,0,1,1.35,2.87,9.33,9.33,0,0,1-.62,3.34l-1.41,5.31h6.2a29.08,29.08,0,0,1,3.73.24,12.22,12.22,0,0,1,3.57,1,7,7,0,0,1,3.81,5.63l0,1.26a17.68,17.68,0,0,1-.32,3.28q-.78,4.17-2.86,12.51-2.36,9-2.35,13l.05,1.2.06.21q.25,1.77,1.35,1.77l.37-.05a8.19,8.19,0,0,0,4.17-2.81,44.11,44.11,0,0,0,3.18-4.33l.41-.63a49,49,0,0,0,4.7-9,14.09,14.09,0,0,1,.83-1.83c.8-1.63,1.74-2.45,2.81-2.45l.58,0a2.1,2.1,0,0,1,1.17.81,2.27,2.27,0,0,1,.5,1.38l-.11.58a71.64,71.64,0,0,1-8.91,17,34.51,34.51,0,0,1-6.83,7.2A10.73,10.73,0,0,1,598.51,279.52Z"/><path class="cls-2" d="M622,279.1h-.21a8.82,8.82,0,0,1-6.57-4.22,16.92,16.92,0,0,1-2.24-7.72c-.11-1.11-.16-2.24-.16-3.38a45.06,45.06,0,0,1,.57-7.12c.39-2.38.87-4.73,1.46-7.06a54.61,54.61,0,0,1,2.4-7.33,25.91,25.91,0,0,1,3.86-6.54,13.67,13.67,0,0,1,6.36-4.59,11.82,11.82,0,0,1,3.28-.47,21.92,21.92,0,0,1,9.65,2.77,6.88,6.88,0,0,1-.21-1.67,2.72,2.72,0,0,1,.89-2.09,2.5,2.5,0,0,1,1.4-.41,5.34,5.34,0,0,1,1.67.26,21.81,21.81,0,0,1,3.49,1.09,5.71,5.71,0,0,1,3.55,5.63q0,2.08-2.35,11.21-1.25,4.8-2.24,9.64a67.21,67.21,0,0,0-1.41,10.74,4.74,4.74,0,0,0,.26,1.57,2.56,2.56,0,0,0,1.78,1.72h.21a3,3,0,0,0,2.24-1.05A18.38,18.38,0,0,0,653,265.7a109.68,109.68,0,0,0,6.05-12.19,9.68,9.68,0,0,1,.78-1.54,3.53,3.53,0,0,1,1.23-1.2,2.6,2.6,0,0,1,1.27-.44c.84,0,1.39.5,1.67,1.51a3.6,3.6,0,0,1,.11.88,4,4,0,0,1-.21,1.26,111,111,0,0,1-9,17.93,18,18,0,0,1-4.64,5.42,10,10,0,0,1-5.42,1.62,10.53,10.53,0,0,1-6.1-2,10.94,10.94,0,0,1-3.31-4.07,11.72,11.72,0,0,1-1.17-5.11,10.26,10.26,0,0,1,.15-1.72c-.59,1.08-1.14,2.15-1.67,3.23a34.1,34.1,0,0,1-3,5.21,13.14,13.14,0,0,1-3.39,3.26A7.65,7.65,0,0,1,622,279.1Zm2.81-8.18a2.62,2.62,0,0,0,.91-.52,6.39,6.39,0,0,0,.71-.79l.47-.57a36.63,36.63,0,0,0,2.29-4,22,22,0,0,0,1.15-2.66h0v-.1a208.93,208.93,0,0,0,6.78-20.13l.62-2a1,1,0,0,0,.21-.73,2.09,2.09,0,0,1,1.2-1.41,12.75,12.75,0,0,1-1.2-.6,2.3,2.3,0,0,0-.39-.2.45.45,0,0,0-.16,0l-.28-.05a7.23,7.23,0,0,0-1.52-.11l-.62.16-.34.08a2.46,2.46,0,0,0-.55.28,8.34,8.34,0,0,0-1,.6.16.16,0,0,1-.15.08,11.29,11.29,0,0,0-1.93,2c0,.07-.05.13-.13.19a9.82,9.82,0,0,0-1,1.53c-.45.84-.87,1.71-1.25,2.61l-.58,1.25a54.64,54.64,0,0,0-3.44,12.56l-.15,1.62q-.31,3.07-.42,6.15l.16,2.76A10.22,10.22,0,0,0,624.84,270.92Z"/><path class="cls-2" d="M666.86,279.1a9.9,9.9,0,0,1-8.39-4.48,13.84,13.84,0,0,1-1.65-4.35,22.9,22.9,0,0,1-.49-4.57,36.5,36.5,0,0,1,.62-6.51q.67-3.7,1.41-7,2.14-10.74,3.7-17.72L665.61,218l.47-2.56q.93-4.17,1.4-7.77c0-.07,0-.1,0-.1s0,0,0-.05l.1-1.62,0-.57a2.16,2.16,0,0,1,.7-1.62,2.25,2.25,0,0,1,1.59-.68,3.06,3.06,0,0,1,1.2.24,7.33,7.33,0,0,0,1,.34,9.63,9.63,0,0,1,4.23,1.77,6.48,6.48,0,0,1,1.72,2.32,6.9,6.9,0,0,1,.57,2.74,10.48,10.48,0,0,1-.21,2.08q-2.61,12.57-5.68,26.38-4.74,21.32-5.11,23.72c-.14,1.11-.24,2.45-.31,4l.1,1.67c.11.35.18.66.24.94a5,5,0,0,0,.49,1.25,2.11,2.11,0,0,0,.18.24,1.07,1.07,0,0,0,.21.13,1,1,0,0,1,.21.1.33.33,0,0,0,.21,0,.82.82,0,0,1,.34.11,3.07,3.07,0,0,1,.57-.06,1.34,1.34,0,0,0,.52-.1,5.67,5.67,0,0,1,.68-.21l.37-.21a17.12,17.12,0,0,0,1.56-1h0c1-.83,1.75-1.54,2.32-2.13a26.76,26.76,0,0,0,2.06-2.46l.57-.72a92.51,92.51,0,0,0,6.47-10.9v0l.68-1.46a2.05,2.05,0,0,1,2-1.46,4.08,4.08,0,0,1,1.17.31,1.82,1.82,0,0,1,.78.78,2.4,2.4,0,0,1,.34,1.25,4.17,4.17,0,0,1-.18.84c0,.1-.15.31-.29.62a100,100,0,0,1-5.5,10.43,52.08,52.08,0,0,1-7.16,9.28,25.94,25.94,0,0,1-4.33,3.67A9,9,0,0,1,666.86,279.1Z"/><path class="cls-2" d="M687.21,273.29a6.38,6.38,0,0,1,6.41-6.73c3.74,0,6.3,2.78,6.3,6.73s-2.56,6.73-6.51,6.73C689.78,280,687.21,277.13,687.21,273.29Z"/><rect class="cls-1" x="17.86" y="384.89" width="406.33" height="69.09" rx="34.55"/><circle class="cls-3" cx="54.06" cy="419.69" r="18.76"/><path class="cls-3" d="M108.8,428.3H99.11l-1.56,4.59H90.93l9.4-26h7.33l9.4,26h-6.7Zm-1.63-4.88L104,413.91l-3.18,9.51Z"/><path class="cls-3" d="M131.58,412.83a6.53,6.53,0,0,1,2.54,2.33v-2.92h6.33v20.62a11.63,11.63,0,0,1-1.13,5.16,8.58,8.58,0,0,1-3.44,3.68,11.09,11.09,0,0,1-5.76,1.37,12,12,0,0,1-7.44-2.16,8.17,8.17,0,0,1-3.25-5.87h6.25a3,3,0,0,0,1.41,1.87,5.09,5.09,0,0,0,2.74.68,4.29,4.29,0,0,0,3.12-1.12,4.85,4.85,0,0,0,1.17-3.61v-2.93a7.06,7.06,0,0,1-2.55,2.35,7.68,7.68,0,0,1-3.82.91,8.49,8.49,0,0,1-4.62-1.31,9.09,9.09,0,0,1-3.28-3.74,13.67,13.67,0,0,1,0-11.2,8.91,8.91,0,0,1,3.28-3.7,8.57,8.57,0,0,1,4.62-1.3A7.94,7.94,0,0,1,131.58,412.83Zm1.23,6a4.46,4.46,0,0,0-6.41,0,5.13,5.13,0,0,0-1.31,3.72,5.28,5.28,0,0,0,1.31,3.76,4.43,4.43,0,0,0,6.41,0,6,6,0,0,0,0-7.48Z"/><path class="cls-3" d="M164.39,424.08H150.07a4.31,4.31,0,0,0,1.24,2.95,3.77,3.77,0,0,0,2.68,1,3.33,3.33,0,0,0,3.3-2H164a9.24,9.24,0,0,1-5.25,6.21,10.85,10.85,0,0,1-4.55.93,11,11,0,0,1-5.41-1.3,9.15,9.15,0,0,1-3.7-3.7,11.39,11.39,0,0,1-1.33-5.62,11.65,11.65,0,0,1,1.31-5.63,9.13,9.13,0,0,1,3.69-3.7,11.16,11.16,0,0,1,5.44-1.3,11,11,0,0,1,5.33,1.26,9,9,0,0,1,3.64,3.59,10.88,10.88,0,0,1,1.32,5.44A14.84,14.84,0,0,1,164.39,424.08ZM158,420.57a3.24,3.24,0,0,0-1.11-2.59,4.1,4.1,0,0,0-2.78-1,4,4,0,0,0-2.68.92,4.09,4.09,0,0,0-1.35,2.63Z"/><path class="cls-3" d="M186.21,414.37a9.15,9.15,0,0,1,2.17,6.46v12.06h-6.29V421.68a4.51,4.51,0,0,0-1.08-3.22,4.19,4.19,0,0,0-5.77,0,4.51,4.51,0,0,0-1.07,3.22v11.21h-6.33V412.24h6.33V415a6.75,6.75,0,0,1,2.59-2.17,8.2,8.2,0,0,1,3.66-.79A7.47,7.47,0,0,1,186.21,414.37Z"/><path class="cls-3" d="M192.73,416.94a9,9,0,0,1,3.27-3.7,8.62,8.62,0,0,1,4.63-1.3,8.08,8.08,0,0,1,3.72.86,6.82,6.82,0,0,1,2.65,2.29V405.5h6.33v27.39H207v-3a6.47,6.47,0,0,1-2.54,2.37,8,8,0,0,1-3.83.89,8.55,8.55,0,0,1-4.63-1.31,9.14,9.14,0,0,1-3.27-3.74,13.56,13.56,0,0,1,0-11.2Zm13,1.89a4.44,4.44,0,0,0-6.4,0,5.09,5.09,0,0,0-1.31,3.72,5.24,5.24,0,0,0,1.31,3.76,4.42,4.42,0,0,0,6.4,0,6,6,0,0,0,0-7.48Z"/><path class="cls-3" d="M217.86,416.94a9,9,0,0,1,3.27-3.7,8.62,8.62,0,0,1,4.63-1.3,8,8,0,0,1,3.83.89,6.53,6.53,0,0,1,2.54,2.33v-2.92h6.33v20.65h-6.33V430a6.86,6.86,0,0,1-2.58,2.33,7.94,7.94,0,0,1-3.83.89,8.49,8.49,0,0,1-4.59-1.31,9.14,9.14,0,0,1-3.27-3.74,13.67,13.67,0,0,1,0-11.2Zm12.95,1.89a4.44,4.44,0,0,0-6.4,0,5.09,5.09,0,0,0-1.31,3.72,5.24,5.24,0,0,0,1.31,3.76,4.42,4.42,0,0,0,6.4,0,6,6,0,0,0,0-7.48Z"/><path class="cls-3" d="M262.4,427.53v5.36h-3.22a7.88,7.88,0,0,1-5.36-1.68c-1.29-1.12-1.93-3-1.93-5.5V417.5h-2.52v-5.26h2.52v-5h6.33v5h4.15v5.26h-4.15v8.29a1.76,1.76,0,0,0,.44,1.33,2.19,2.19,0,0,0,1.49.41Z"/><path class="cls-3" d="M286.31,412.24v20.65H280v-2.81a6.9,6.9,0,0,1-2.61,2.2,7.87,7.87,0,0,1-3.64.84,8.17,8.17,0,0,1-4.18-1.06,7.13,7.13,0,0,1-2.82-3.05,10.5,10.5,0,0,1-1-4.7V412.24H272v11.22a4.52,4.52,0,0,0,1.07,3.22,3.77,3.77,0,0,0,2.89,1.14,3.83,3.83,0,0,0,2.92-1.14,4.52,4.52,0,0,0,1.07-3.22V412.24Z"/><path class="cls-3" d="M298.77,416.94a9.06,9.06,0,0,1,3.66-3.7,11,11,0,0,1,5.39-1.3,10.21,10.21,0,0,1,6.49,2,9.65,9.65,0,0,1,3.43,5.74H311a3.25,3.25,0,0,0-3.29-2.37,3.33,3.33,0,0,0-2.78,1.35,7.7,7.7,0,0,0,0,7.73,3.31,3.31,0,0,0,2.78,1.36,3.25,3.25,0,0,0,3.29-2.37h6.74a9.69,9.69,0,0,1-3.45,5.7,10.13,10.13,0,0,1-6.47,2.07,10.91,10.91,0,0,1-5.39-1.3,9,9,0,0,1-3.66-3.7,12.65,12.65,0,0,1,0-11.25Z"/><path class="cls-3" d="M321.57,409.11a3.15,3.15,0,0,1-1.06-2.42,3.19,3.19,0,0,1,1.06-2.46,3.8,3.8,0,0,1,2.72-1,3.75,3.75,0,0,1,2.68,1,3.22,3.22,0,0,1,1.06,2.46,3.18,3.18,0,0,1-1.06,2.42,3.75,3.75,0,0,1-2.68,1A3.8,3.8,0,0,1,321.57,409.11Zm5.86,3.13v20.65H321.1V412.24Z"/><path class="cls-3" d="M343.53,427.53v5.36h-3.22a7.88,7.88,0,0,1-5.36-1.68c-1.29-1.12-1.93-3-1.93-5.5V417.5h-2.51v-5.26H333v-5h6.33v5h4.15v5.26h-4.15v8.29a1.72,1.72,0,0,0,.45,1.33,2.15,2.15,0,0,0,1.48.41Z"/><path class="cls-3" d="M347,416.94a9,9,0,0,1,3.28-3.7,8.58,8.58,0,0,1,4.63-1.3,8,8,0,0,1,3.83.89,6.57,6.57,0,0,1,2.53,2.33v-2.92h6.33v20.65h-6.33V430a6.83,6.83,0,0,1-2.57,2.33,8,8,0,0,1-3.83.89,8.44,8.44,0,0,1-4.59-1.31,9.23,9.23,0,0,1-3.28-3.74,13.67,13.67,0,0,1,0-11.2Zm13,1.89a4.46,4.46,0,0,0-6.41,0,5.13,5.13,0,0,0-1.31,3.72,5.28,5.28,0,0,0,1.31,3.76,4.43,4.43,0,0,0,6.41,0,6,6,0,0,0,0-7.48Z"/></g></g></svg>