<?xml version="1.0" encoding="utf-8"?>
<!-- Generator: Adobe Illustrator 26.0.1, SVG Export Plug-In . SVG Version: 6.00 Build 0)  -->
<svg version="1.1" id="Capa_1" xmlns="http://www.w3.org/2000/svg" xmlns:xlink="http://www.w3.org/1999/xlink" x="0px" y="0px"
	 viewBox="0 0 882.2 376.3" style="enable-background:new 0 0 882.2 376.3;" xml:space="preserve">
<style type="text/css">
	.st0{fill:url(#SVGID_1_);}
	.st1{fill:url(#SVGID_00000134949886973948131270000015664345136811780020_);}
	.st2{fill:#FFFFFF;}
	.st3{fill:url(#SVGID_00000008135599775631754330000013745845393118756746_);}
	.st4{fill:#0C0C0C;}
	.st5{fill:url(#SVGID_00000169539968906974056820000017273535118299222173_);}
	.st6{fill:url(#SVGID_00000001625593504924050680000014262156622526419390_);}
	.st7{fill:url(#SVGID_00000059284652262250376450000002314242182558243246_);}
	.st8{fill:url(#SVGID_00000026847287652290002520000000386103157305706429_);}
	.st9{fill:url(#SVGID_00000012430044667993186770000014600151174637964464_);}
	.st10{fill:url(#SVGID_00000145745183777331556070000014979083042829017225_);}
	.st11{fill:url(#SVGID_00000124147170982886117710000012796643798977184644_);}
	.st12{fill:url(#SVGID_00000163052423880993265890000016576863942718942598_);}
	.st13{fill:url(#SVGID_00000178896575850728848800000011946518029499774909_);}
	.st14{fill:url(#SVGID_00000057134013117698639590000008307682284128534148_);}
	.st15{fill:url(#SVGID_00000110447053791088743480000012816522196041593489_);}
	.st16{fill:url(#SVGID_00000075152498292221006980000008061644034677217160_);}
	.st17{fill:url(#SVGID_00000036930806268188494650000006966771399346603440_);}
	.st18{fill:url(#SVGID_00000118366155981411443460000005020969315918532012_);}
	.st19{fill:url(#SVGID_00000173158315468645497130000016906064438738490783_);}
	.st20{fill:url(#SVGID_00000042704011591596630190000000770189079781991340_);}
	.st21{fill:url(#SVGID_00000146475298967397783780000004207430953694274236_);}
	.st22{fill:url(#SVGID_00000108291765183388747030000009532287780946524581_);}
</style>
<g id="Capa_2_00000127046539684323409910000009054572933331947914_">
	<g id="Capa_1-2">
		
			<linearGradient id="SVGID_1_" gradientUnits="userSpaceOnUse" x1="0.51" y1="15.6" x2="57.83" y2="15.6" gradientTransform="matrix(1 0 0 -1 0 378)">
			<stop  offset="2.000000e-02" style="stop-color:#AC6B46"/>
			<stop  offset="0.21" style="stop-color:#AC8056"/>
			<stop  offset="0.47" style="stop-color:#FEEAC9"/>
			<stop  offset="0.72" style="stop-color:#AC7B4F"/>
			<stop  offset="0.92" style="stop-color:#AC6F48"/>
			<stop  offset="1" style="stop-color:#AC6B45"/>
		</linearGradient>
		<circle class="st0" cx="18.6" cy="362.4" r="13.9"/>
		
			<linearGradient id="SVGID_00000015346380755635156610000010293379266402988426_" gradientUnits="userSpaceOnUse" x1="0.51" y1="54.68" x2="57.83" y2="54.68" gradientTransform="matrix(1 0 0 -1 0 378)">
			<stop  offset="2.000000e-02" style="stop-color:#AC6B46"/>
			<stop  offset="0.21" style="stop-color:#AC8056"/>
			<stop  offset="0.47" style="stop-color:#FEEAC9"/>
			<stop  offset="0.72" style="stop-color:#AC7B4F"/>
			<stop  offset="0.92" style="stop-color:#AC6F48"/>
			<stop  offset="1" style="stop-color:#AC6B45"/>
		</linearGradient>
		<circle style="fill:url(#SVGID_00000015346380755635156610000010293379266402988426_);" cx="18.6" cy="323.3" r="13.9"/>
		<path class="st2" d="M48.8,312.8c1.8-1.4,4-2.1,6.2-2c1.5,0,3.1,0.3,4.5,0.9c1.2,0.5,2.1,1.4,2.8,2.5c0.7,1.1,1,2.3,1,3.5
			c0.1,2.6-1.4,4.9-3.8,5.7v0.1c1.2,0.4,2.3,1.2,3.1,2.2c0.8,1.2,1.2,2.6,1.2,4c0,1.3-0.3,2.7-1,3.8c-0.7,1.1-1.7,2-2.9,2.6
			c-1.4,0.7-3,1-4.5,0.9c-2.4,0.1-4.8-0.7-6.7-2.2c-1.7-1.4-2.5-3.5-2.6-6.2h5.8c0,0.9,0.3,1.8,0.9,2.4c0.7,0.6,1.5,1,2.4,0.9
			c0.8,0,1.6-0.2,2.1-0.8c0.5-0.6,0.8-1.3,0.8-2.1c0.1-0.9-0.3-1.9-1.1-2.4c-1-0.6-2.2-0.8-3.4-0.8h-1.1v-4.9h1.1c1,0,2-0.2,2.9-0.6
			c0.8-0.5,1.2-1.3,1.1-2.2c0-0.7-0.2-1.4-0.7-2c-0.5-0.5-1.2-0.7-1.9-0.7c-0.8-0.1-1.5,0.2-2,0.8c-0.4,0.6-0.7,1.3-0.8,2h-5.8
			C46.3,316.4,47.2,314.3,48.8,312.8z"/>
		<path class="st2" d="M68.1,331.2c2.3-1.9,4.1-3.4,5.4-4.6c1.3-1.1,2.4-2.4,3.3-3.8c0.8-1.1,1.3-2.5,1.4-3.9c0-0.8-0.2-1.6-0.7-2.2
			c-1.1-1.1-2.8-1.1-3.9,0c-0.1,0.1-0.1,0.1-0.2,0.2c-0.6,0.8-0.8,1.8-0.8,2.8H67c0-1.7,0.4-3.5,1.3-5c0.7-1.3,1.9-2.3,3.2-2.9
			c1.4-0.6,2.9-1,4.4-0.9c2.8,0,4.9,0.7,6.3,2.1c1.4,1.5,2.2,3.5,2.1,5.5c0,2.5-0.9,5-2.6,6.9c-1.9,2.3-4.1,4.4-6.5,6.2h9.4v4.9
			H67.1v-4.4C67.8,331.5,68.2,331.2,68.1,331.2z"/>
		<path class="st2" d="M86.6,316.9v-5.5h9.7v25.5h-6.2v-20H86.6z"/>
		<path class="st2" d="M100.5,332.4v-4.8l11-15.8h6.7v15.4h2.9v5.2h-2.9v4.5h-6v-4.5H100.5z M112.7,318.3l-5.9,8.9h5.9V318.3z"/>
		<path class="st2" d="M126.7,312.8c1.8-1.4,4-2.1,6.2-2c1.5,0,3.1,0.3,4.5,0.9c1.2,0.5,2.1,1.4,2.8,2.5c0.7,1.1,1,2.3,1,3.5
			c0.1,2.6-1.4,4.9-3.8,5.7v0.1c1.3,0.4,2.3,1.2,3.1,2.2c0.8,1.2,1.2,2.6,1.2,4c0,1.3-0.3,2.7-1,3.8c-0.7,1.1-1.7,2-2.9,2.6
			c-1.4,0.7-3,1-4.5,0.9c-2.4,0.1-4.8-0.6-6.7-2.1c-1.7-1.4-2.5-3.5-2.6-6.2h5.8c0,0.9,0.3,1.8,0.9,2.4c0.7,0.6,1.5,1,2.4,0.9
			c0.8,0,1.6-0.2,2.1-0.8c0.5-0.6,0.8-1.3,0.8-2.1c0.1-0.9-0.3-1.9-1.1-2.4c-1-0.6-2.2-0.8-3.4-0.8h-1.2v-4.9h1.1c1,0,2-0.2,2.9-0.6
			c0.8-0.5,1.2-1.3,1.1-2.2c0-0.7-0.2-1.4-0.7-2c-0.5-0.5-1.2-0.7-1.9-0.7c-0.8-0.1-1.5,0.2-2,0.8c-0.4,0.6-0.7,1.3-0.8,2h-5.8
			C124.1,316.5,125,314.3,126.7,312.8z"/>
		<path class="st2" d="M156.8,316.3c-0.6-0.5-1.3-0.7-2-0.6c-1.2-0.1-2.3,0.6-2.9,1.7c-0.7,1.7-1,3.6-0.9,5.5
			c0.5-0.8,1.3-1.5,2.2-1.9c2.9-1.3,6.4-0.7,8.7,1.5c1.5,1.6,2.2,3.8,2.1,6c0,1.6-0.3,3.1-1,4.5c-0.7,1.3-1.7,2.3-3,3
			c-1.4,0.7-3,1.1-4.7,1.1c-3.6,0-6.1-1.1-7.5-3.4c-1.4-2.2-2.1-5.5-2.1-9.7c0-4.4,0.7-7.7,2.2-9.9s3.8-3.2,7.1-3.2
			c1.5-0.1,3.1,0.3,4.4,1c1.1,0.6,2.1,1.6,2.7,2.7c0.6,1.1,1,2.4,1.1,3.7h-5.6C157.7,317.5,157.3,316.8,156.8,316.3z M152.5,325.9
			c-0.7,0.7-1.1,1.6-1,2.5c-0.1,1,0.3,1.9,0.9,2.6c0.7,0.7,1.7,1,2.6,1c0.9,0,1.8-0.3,2.4-0.9c0.6-0.7,0.9-1.6,0.9-2.5
			c0.1-0.9-0.3-1.9-0.9-2.6c-0.7-0.7-1.6-1-2.5-1C154.1,325,153.2,325.3,152.5,325.9z"/>
		<path class="st2" d="M168.3,331.2c2.3-1.9,4.1-3.4,5.4-4.6c1.3-1.1,2.4-2.4,3.3-3.8c0.8-1.1,1.3-2.5,1.4-3.9
			c0-0.8-0.2-1.6-0.7-2.2c-1.1-1.1-2.8-1.1-3.9,0c-0.1,0.1-0.1,0.1-0.2,0.2c-0.6,0.8-0.8,1.8-0.8,2.8h-5.8c0-1.7,0.4-3.5,1.3-5
			c0.7-1.3,1.9-2.3,3.2-2.9c1.4-0.6,2.9-1,4.4-0.9c2.8,0,4.9,0.7,6.3,2.1c1.4,1.5,2.2,3.5,2.1,5.5c0,2.5-0.9,5-2.6,6.9
			c-1.9,2.3-4.1,4.4-6.5,6.2h9.4v4.9h-17.5v-4.4C168,331.5,168.4,331.2,168.3,331.2z"/>
		<path class="st2" d="M188.2,331.2c2.3-1.9,4.1-3.4,5.4-4.6c1.3-1.1,2.4-2.4,3.3-3.8c0.8-1.1,1.3-2.5,1.4-3.9
			c0-0.8-0.2-1.6-0.7-2.2c-1.1-1.1-2.8-1.1-3.9,0c-0.1,0.1-0.1,0.1-0.2,0.2c-0.6,0.8-0.8,1.8-0.8,2.8h-5.8c0-1.8,0.4-3.5,1.3-5
			c0.7-1.3,1.8-2.3,3.2-2.9c1.4-0.6,2.9-1,4.4-0.9c2.8,0,4.9,0.7,6.3,2.1c1.4,1.5,2.2,3.5,2.1,5.5c0,2.5-0.9,5-2.6,6.9
			c-1.9,2.3-4.1,4.4-6.5,6.2h9.4v4.9h-17.5v-4.4C187.9,331.5,188.3,331.2,188.2,331.2z"/>
		<path class="st2" d="M207.4,332.4v-4.8l11-15.8h6.7v15.4h2.9v5.2h-2.9v4.5h-6v-4.5H207.4z M219.6,318.3l-5.9,8.9h5.9V318.3z"/>
		<path class="st2" d="M233.3,314.3c1.6-2.3,4.1-3.5,7.5-3.5c3.4,0,5.9,1.2,7.5,3.5c1.6,2.3,2.3,5.5,2.3,9.5s-0.8,7.2-2.3,9.5
			s-4.1,3.5-7.5,3.5s-5.9-1.2-7.5-3.5s-2.3-5.5-2.3-9.5S231.7,316.6,233.3,314.3z M244,318.3c-0.9-1.8-3.1-2.4-4.9-1.5
			c-0.6,0.3-1.2,0.9-1.5,1.5c-0.6,1.7-0.8,3.6-0.8,5.4c0,1.3,0.1,2.6,0.3,3.9c0.1,0.9,0.5,1.8,1.1,2.5c1.4,1.3,3.6,1.3,5.1,0
			c0.6-0.7,1-1.6,1.1-2.5c0.2-1.3,0.3-2.6,0.3-3.9C244.8,321.9,244.6,320.1,244,318.3L244,318.3z"/>
		<path class="st2" d="M47.2,359.6c0.7-1.3,1.8-2.4,3.1-3.1c1.3-0.7,2.8-1.1,4.3-1.1c1.7,0,3.4,0.4,4.8,1.3c1.4,0.9,2.4,2.2,3,3.8
			h-2.6c-0.4-1-1.1-1.8-2-2.4c-1-0.6-2.1-0.9-3.2-0.8c-1.1,0-2.2,0.3-3.2,0.8c-0.9,0.6-1.7,1.4-2.2,2.4c-0.6,1.1-0.8,2.3-0.8,3.6
			c0,1.2,0.2,2.4,0.8,3.5c0.5,1,1.2,1.8,2.2,2.4c1,0.6,2.1,0.8,3.2,0.8c1.1,0,2.2-0.2,3.2-0.8c0.9-0.6,1.6-1.4,2-2.4h2.7
			c-0.6,1.5-1.6,2.9-3,3.8c-1.5,0.9-3.1,1.4-4.8,1.3c-1.5,0-3-0.4-4.3-1.1c-1.3-0.7-2.3-1.8-3.1-3.1
			C45.6,365.8,45.6,362.4,47.2,359.6L47.2,359.6z"/>
		<path class="st2" d="M69.6,359.6c0.8-0.4,1.7-0.6,2.6-0.6v2.3h-0.6c-2.5,0-3.7,1.4-3.7,4v7.3h-2.2v-13.3h2.2v2.2
			C68.3,360.6,68.8,360,69.6,359.6z"/>
		<path class="st2" d="M91.7,356.7L85,372.6h-2.3l6.9-15.7h-9.4V355h11.5V356.7z"/>
		<path class="st2" d="M98.8,359.8c0.9-0.5,1.9-0.8,3-0.8c1.1,0,2.3,0.3,3.2,0.9c1,0.6,1.8,1.4,2.3,2.4c0.6,1.1,0.9,2.3,0.8,3.6
			c0,1.2-0.3,2.5-0.8,3.6c-1.6,3.1-5.5,4.2-8.5,2.6c0,0,0,0,0,0c-0.8-0.4-1.5-1.1-2-1.9v2.5h-2.2v-18h2.2v7.2
			C97.3,360.9,97.9,360.2,98.8,359.8z M105.2,363.2c-0.4-0.7-0.9-1.3-1.6-1.7c-0.7-0.4-1.5-0.6-2.3-0.6c-0.8,0-1.6,0.2-2.2,0.6
			c-0.7,0.4-1.3,1-1.7,1.7c-0.4,0.8-0.6,1.7-0.6,2.6c0,0.9,0.2,1.8,0.6,2.6c0.4,0.7,1,1.3,1.7,1.7c0.7,0.4,1.5,0.6,2.2,0.6
			c0.8,0,1.6-0.2,2.3-0.6c0.7-0.4,1.3-1,1.6-1.7c0.4-0.8,0.6-1.7,0.6-2.7C105.9,364.9,105.7,364,105.2,363.2z"/>
		<path class="st2" d="M131,361.4l-0.9,4.4h3.4v2h-3.8l-1,4.9h-2.1l1-4.9h-5.1l-1,4.9h-2.1l1.1-4.9h-3.8v-2h4.2l0.9-4.4h-3.8v-2h4.1
			l1-4.9h2.1l-1,4.9h5.1l1.1-4.9h2.1l-1,4.9h3.4v2H131z M128.9,361.4h-5.1l-0.9,4.4h5.1L128.9,361.4z"/>
		<path class="st2" d="M137.1,357v-2h4.6v17.6h-2.2V357H137.1z"/>
		<path class="st2" d="M144.9,368.6V367l8.6-11.8h2.6v11.6h2.4v1.9h-2.4v3.9h-2.2v-3.9L144.9,368.6z M154,357.4l-6.6,9.3h6.6V357.4z
			"/>
		<path class="st2" d="M167.2,356.4c-1.3-0.1-2.5,0.6-3.2,1.7c-0.7,1.1-1.1,3-1.1,5.5c0.4-0.9,1-1.6,1.9-2c0.9-0.5,1.9-0.7,2.9-0.7
			c1.5-0.1,2.9,0.5,4,1.6c1,1.2,1.6,2.7,1.5,4.3c0,1-0.2,2.1-0.6,3c-0.4,0.9-1.1,1.6-2,2.1c-1,0.5-2,0.8-3.1,0.8
			c-1.4,0.1-2.8-0.3-3.9-1.1c-1-0.8-1.7-1.9-2-3.1c-0.4-1.6-0.6-3.2-0.6-4.9c0-6,2.1-8.9,6.2-8.9c2.7-0.2,5.1,1.8,5.4,4.6h-2.1
			C170.3,357.5,168.9,356.3,167.2,356.4z M165.2,363.2c-0.6,0.3-1.1,0.7-1.5,1.3c-0.4,0.6-0.6,1.4-0.6,2.1c0,1.1,0.3,2.2,1.1,3
			c0.8,0.8,1.9,1.2,3.1,1.2c1,0,2-0.3,2.7-1.1c0.7-0.8,1.1-1.8,1-2.9c0.1-1.1-0.3-2.2-1-3c-0.7-0.8-1.8-1.2-2.9-1.1
			C166.5,362.8,165.9,362.9,165.2,363.2L165.2,363.2z"/>
		<path class="st2" d="M185.9,362.7v1.9h-9.7v-1.9H185.9z"/>
		<path class="st2" d="M193.6,370c0.7,0.5,1.5,0.8,2.4,0.8c1.2,0.1,2.4-0.5,3-1.6c0.7-1,1-2.8,0.9-5.3c-0.4,0.7-1,1.4-1.7,1.7
			c-0.8,0.4-1.7,0.6-2.6,0.6c-1,0-2-0.2-2.9-0.7c-0.8-0.5-1.5-1.2-2-2c-0.5-1-0.8-2-0.7-3.1c-0.1-1.5,0.5-3.1,1.5-4.2
			c1.1-1.1,2.7-1.7,4.3-1.6c2.3,0,3.9,0.7,4.8,2.2c0.9,1.5,1.4,3.7,1.4,6.6c0,1.7-0.1,3.4-0.6,5.1c-0.3,1.2-0.9,2.3-1.9,3
			c-1,0.7-2.3,1.1-3.6,1c-1.4,0.1-2.8-0.4-3.9-1.3c-0.9-0.9-1.5-2.1-1.6-3.4h2.1C192.6,368.6,193,369.4,193.6,370z M198.6,363.3
			c0.7-0.7,1.1-1.7,1-2.7c0.1-1.1-0.3-2.1-1-3c-0.7-0.8-1.8-1.2-2.9-1.1c-1,0-2,0.3-2.7,1.1c-0.7,0.8-1.1,1.8-1,2.8
			c-0.1,1,0.3,2.1,1,2.9C194.6,364.6,197,364.7,198.6,363.3L198.6,363.3z"/>
		<path class="st2" d="M206.4,357c0.9-1.6,2.5-2.4,4.8-2.4c2.2,0,3.8,0.8,4.8,2.4c1,2,1.5,4.3,1.4,6.5c0.1,2.3-0.3,4.6-1.4,6.6
			c-0.9,1.6-2.5,2.4-4.8,2.4s-3.9-0.8-4.8-2.4c-1-2.1-1.5-4.3-1.4-6.6C204.9,361.3,205.3,359,206.4,357z M214.8,360
			c-0.1-0.9-0.5-1.7-1.1-2.4c-0.7-0.6-1.6-1-2.5-0.9c-0.9-0.1-1.8,0.3-2.5,0.9c-0.6,0.7-1,1.5-1.1,2.4c-0.2,1.2-0.3,2.4-0.3,3.6
			c0,1.2,0.1,2.5,0.3,3.7c0.1,0.9,0.5,1.7,1.1,2.4c0.7,0.6,1.6,1,2.5,0.9c0.9,0.1,1.8-0.3,2.5-0.9c0.6-0.7,1-1.5,1.1-2.4
			c0.2-1.2,0.3-2.4,0.3-3.7C215.1,362.4,215,361.2,214.8,360z"/>
		<path class="st2" d="M226.9,362.2c0.5-1,1.3-1.9,2.3-2.4c1-0.6,2.2-0.9,3.4-0.9c1.4-0.1,2.8,0.4,4,1.2c1.1,0.8,1.9,2,2.2,3.3h-3
			c-0.2-0.6-0.6-1.2-1.2-1.6c-0.6-0.4-1.3-0.6-2-0.6c-1,0-2,0.4-2.7,1.2c-1.3,2.1-1.3,4.7,0,6.8c0.7,0.8,1.7,1.3,2.7,1.2
			c1.4,0.1,2.8-0.8,3.2-2.1h3c-0.3,1.3-1.1,2.4-2.2,3.3c-1.2,0.8-2.6,1.2-4,1.2c-1.2,0-2.4-0.3-3.4-0.9c-1-0.6-1.8-1.4-2.3-2.4
			C225.7,367.2,225.7,364.5,226.9,362.2L226.9,362.2z"/>
		<path class="st2" d="M253.8,366.9h-10.2c0,1,0.5,1.9,1.2,2.6c0.7,0.7,1.7,1,2.6,1c1.3,0.1,2.6-0.7,3.2-1.9h3
			c-0.4,1.2-1.2,2.3-2.2,3c-1.2,0.8-2.6,1.2-4,1.2c-1.2,0-2.4-0.3-3.4-0.9c-1-0.6-1.8-1.4-2.4-2.4c-0.6-1.1-0.9-2.4-0.9-3.6
			c0-1.3,0.3-2.5,0.8-3.6c0.5-1,1.4-1.9,2.4-2.4c1.1-0.6,2.3-0.9,3.5-0.9c1.2,0,2.4,0.3,3.4,0.8c1,0.5,1.8,1.3,2.3,2.3
			c0.6,1.1,0.9,2.2,0.8,3.5C253.9,366,253.8,366.4,253.8,366.9z M251,364.6c0-0.9-0.4-1.8-1.1-2.5c-0.7-0.6-1.7-0.9-2.6-0.9
			c-0.9,0-1.8,0.3-2.5,0.9c-0.7,0.6-1.1,1.5-1.2,2.5H251z"/>
		<path class="st2" d="M256.5,362.2c1.6-2.9,5.1-4.1,8.1-2.7c0.8,0.3,1.5,0.9,2,1.5v-6.5h2.8v18h-2.8v-2c-0.5,0.7-1.1,1.2-1.9,1.6
			c-0.9,0.4-1.8,0.6-2.8,0.6c-1.1,0-2.2-0.3-3.2-0.9c-1-0.6-1.8-1.5-2.3-2.5c-0.6-1.1-0.9-2.4-0.8-3.6
			C255.6,364.5,255.9,363.3,256.5,362.2z M266.1,363.4c-0.7-1.3-2-2.1-3.5-2.1c-1.5,0-2.8,0.8-3.5,2.1c-0.4,0.7-0.6,1.6-0.6,2.4
			c0,0.8,0.2,1.7,0.6,2.4c0.4,0.7,0.9,1.2,1.5,1.6c0.6,0.4,1.3,0.6,2,0.5c1.5,0,2.8-0.8,3.5-2.1c0.4-0.7,0.6-1.6,0.6-2.4
			C266.7,365,266.5,364.2,266.1,363.4z"/>
		<path class="st2" d="M277.5,359.5c0.7-0.4,1.6-0.6,2.4-0.6v2.9h-0.7c-0.9-0.1-1.8,0.2-2.5,0.8c-0.6,0.8-0.9,1.8-0.8,2.9v7.1h-2.8
			v-13.4h2.8v2C276.3,360.4,276.8,359.9,277.5,359.5z"/>
		<path class="st2" d="M282.6,356.9c-0.7-0.7-0.7-1.8,0-2.5c0.7-0.7,1.8-0.7,2.5,0c0.7,0.7,0.7,1.8,0,2.5
			C284.4,357.5,283.3,357.5,282.6,356.9z M285.2,359.1v13.4h-2.8v-13.4H285.2z"/>
		<path class="st2" d="M292.1,361.4v7.4c0,0.4,0.1,0.8,0.4,1.1c0.3,0.3,0.8,0.4,1.2,0.3h1.7v2.3h-2.2c-1,0.1-2.1-0.2-2.9-0.9
			c-0.7-0.8-1.1-1.8-1-2.9v-7.4h-1.6v-2.3h1.6v-3.3h2.8v3.3h3.3v2.3H292.1z"/>
		<path class="st2" d="M300.4,371.9c-1-0.6-1.8-1.4-2.4-2.4c-0.6-1.1-0.9-2.4-0.9-3.6c0-1.3,0.3-2.5,0.9-3.6c0.6-1,1.4-1.9,2.5-2.4
			c2.2-1.1,4.8-1.1,7,0c1,0.6,1.9,1.4,2.5,2.4c0.6,1.1,0.9,2.4,0.9,3.6c0,1.3-0.3,2.5-0.9,3.6c-0.6,1-1.5,1.9-2.5,2.5
			c-1.1,0.6-2.3,0.9-3.5,0.9C302.6,372.8,301.4,372.5,300.4,371.9z M305.8,369.9c0.6-0.4,1.2-0.9,1.5-1.5c0.4-0.8,0.6-1.6,0.6-2.5
			c0-0.9-0.2-1.7-0.6-2.5c-0.3-0.6-0.9-1.2-1.5-1.5c-0.6-0.3-1.3-0.5-2-0.5c-0.7,0-1.4,0.2-2,0.5c-0.6,0.4-1.1,0.9-1.5,1.5
			c-0.4,0.8-0.6,1.6-0.5,2.5c-0.1,1.2,0.3,2.4,1.1,3.4c0.7,0.8,1.7,1.2,2.8,1.2C304.5,370.4,305.2,370.2,305.8,369.9L305.8,369.9z"
			/>
		<path class="st2" d="M315.5,372.2c-0.8-0.3-1.5-0.9-2-1.6c-0.5-0.6-0.8-1.4-0.8-2.2h2.9c0.1,0.6,0.4,1.1,0.8,1.4
			c0.5,0.4,1.2,0.6,1.9,0.6c0.6,0,1.3-0.1,1.8-0.5c0.4-0.2,0.6-0.7,0.6-1.2c0-0.5-0.3-0.9-0.7-1.1c-0.7-0.3-1.5-0.6-2.3-0.8
			c-0.8-0.2-1.7-0.5-2.5-0.8c-0.6-0.3-1.2-0.7-1.6-1.2c-0.5-0.6-0.7-1.4-0.7-2.1c0-0.7,0.2-1.4,0.6-2c0.5-0.6,1.1-1.1,1.8-1.4
			c0.9-0.4,1.8-0.5,2.7-0.5c1.3-0.1,2.6,0.3,3.7,1.2c0.9,0.8,1.5,1.9,1.5,3.1h-2.8c0-0.6-0.3-1.1-0.7-1.4c-0.5-0.4-1.1-0.6-1.8-0.5
			c-0.6,0-1.2,0.1-1.7,0.4c-0.4,0.2-0.6,0.7-0.6,1.1c0,0.3,0.1,0.7,0.4,0.9c0.3,0.2,0.6,0.4,1,0.6c0.4,0.1,0.9,0.3,1.7,0.5
			c0.8,0.2,1.6,0.5,2.4,0.8c0.6,0.3,1.2,0.7,1.6,1.2c0.5,0.6,0.7,1.3,0.7,2.1c0,0.7-0.2,1.4-0.6,2c-0.5,0.6-1.1,1.1-1.8,1.4
			c-0.9,0.4-1.8,0.5-2.7,0.5C317.4,372.8,316.4,372.6,315.5,372.2z"/>
		<path class="st2" d="M36.8,6.2c0-0.9-0.4-1.8-1-2.4c-0.6-0.6-1.4-1-2.3-1.1H22.6v34.5c0.1,2,1.7,3.6,3.7,3.6h0.7v0.6H14.5v-0.6
			h0.8c2,0,3.6-1.6,3.7-3.5V2.8H8c-0.9,0-1.8,0.4-2.4,1.1C5,4.5,4.7,5.3,4.7,6.2v1H4.1V0c1,0.3,2,0.6,3,0.7C8.4,0.9,9.7,1,11,1h19.5
			c1.6,0,3.1-0.1,4.7-0.4c0.8-0.2,1.5-0.4,2.3-0.6v7.3h-0.6V6.2z"/>
		<path class="st2" d="M52.5,8.6h-3v29.1c0,1.1,0.6,2.2,1.6,2.7c0.5,0.3,1.1,0.4,1.7,0.4h0.8v0.6H41.7v-0.6h0.8
			c0.8,0,1.7-0.3,2.3-0.9c0.6-0.6,1-1.3,1-2.2V10.4c0-0.8-0.3-1.6-1-2.1c-0.6-0.6-1.4-0.9-2.3-0.9h-0.8V6.9h14.4
			c3.6,0,6.5,0.8,8.5,2.5c2,1.5,3.2,4,3.1,6.5c0.1,2.5-0.8,4.9-2.5,6.8c-1.7,1.8-4,2.9-6.5,3.1c1.2,0.5,2.7,2,4.4,4.5
			c2.6,3.7,0.6,0.8,2,2.5c1.4,1.7,2.4,3,3.3,4c0.6,0.8,1.3,1.5,2,2.2c1.3,1.3,3.1,2,4.9,2v0.6h-1.7c-2.5,0.1-5-0.5-7.1-1.8
			c-1.3-0.9-2.5-2-3.5-3.3c-0.2-0.3-1.2-1.7-2.9-4.1l-2.7-3.8c-2.1-2.6-4-3.9-5.8-3.9V24c4.5,0,7.2-0.2,8.1-0.7
			c1-0.5,1.9-1.2,2.6-2.1c1-1.5,1.5-3.3,1.4-5.1c0.1-2-0.6-4-2.1-5.4c-1.6-1.3-3.6-2.1-5.6-2C55,8.7,53.8,8.6,52.5,8.6z"/>
		<path class="st2" d="M112.6,40.9h0.4v0.6h-11.8v-0.6h0.5c0.6,0,1.3-0.2,1.7-0.8c0.3-0.4,0.5-0.9,0.6-1.4c0-0.4-0.1-0.9-0.2-1.3
			l-3.2-7.7H86l-3.2,7.5c-0.2,0.4-0.3,0.9-0.3,1.4c0,0.5,0.2,1,0.6,1.4c0.4,0.5,1.1,0.8,1.7,0.8h0.5v0.6h-11v-0.6h0.5
			c0.9,0,1.7-0.3,2.5-0.9c0.9-0.6,1.6-1.5,2-2.5c8.4-18,12.8-27.4,13.1-28.2c0.5-1,0.8-2.1,1-3.2h0.5l14.2,31.5
			C109.3,39.8,110.7,40.9,112.6,40.9z M86.7,28h13.1l-6.4-15.8L86.7,28z"/>
		<path class="st2" d="M138.8,11.6c0.6,1.2,0.9,2.6,0.9,4c0,1.6-0.7,3.2-1.9,4.3c-1.2,1.3-2.7,2.2-4.4,2.6c2.6,0.2,5,1.3,6.9,3.1
			c1.7,1.4,2.7,3.5,2.8,5.7c0.1,1.7-0.3,3.5-1.2,5c-0.8,1.3-1.8,2.3-3.1,3c-2.6,1.4-5.5,2.1-8.5,2h-14.3v-0.6h0.7
			c0.9,0,1.7-0.2,2.4-0.8c0.6-0.6,1-1.4,1-2.2V10.6c0-1.2-0.6-2.2-1.7-2.7c-0.5-0.3-1.1-0.4-1.7-0.4h-0.7V6.9h11.7
			C133.4,6.9,137.1,8.5,138.8,11.6z M138.9,31.8c0-5.7-4.5-8.6-13.4-8.6v-0.6c6.8,0,10.1-2.4,10.1-7.1c0-4.6-2.7-6.9-8-6.9h-3.9
			v31.1h6.4c2.3,0.1,4.5-0.6,6.3-2C138.1,36.2,139,34,138.9,31.8z"/>
		<path class="st2" d="M183.5,40.9h0.5v0.6h-11.8v-0.6h0.5c0.6,0,1.3-0.2,1.7-0.8c0.3-0.4,0.6-0.9,0.6-1.4c0-0.4-0.1-0.9-0.2-1.3
			l-3.2-7.7h-14.6l-3.2,7.5c-0.2,0.4-0.3,0.9-0.3,1.4c0,0.5,0.2,1,0.6,1.4c0.4,0.5,1.1,0.8,1.7,0.8h0.5v0.6h-11v-0.6h0.5
			c0.9,0,1.7-0.3,2.4-0.8c0.9-0.6,1.6-1.5,2-2.5c8.4-18,12.8-27.4,13.1-28.2c0.5-1,0.8-2.1,1-3.2h0.5L179,37.5
			C180.2,39.8,181.7,40.9,183.5,40.9z M157.7,28h13.1l-6.4-15.8L157.7,28z"/>
		<path class="st2" d="M198.7,7.4c-1.3-0.1-2.5,0.5-3.2,1.6c-0.3,0.5-0.5,1-0.5,1.6v30.9c0,2.7-1.1,5.4-3.1,7.2c-2,2-4.6,3-7.4,3
			v-0.6c2-0.7,3.7-2,4.8-3.7c1.3-1.7,2-3.8,2-6V10.3c-0.1-0.8-0.5-1.6-1.2-2.1c-0.7-0.6-1.6-0.9-2.6-0.8h-0.7l-0.1-0.6h12.7v0.6
			L198.7,7.4z"/>
		<path class="st2" d="M239.4,40.9h0.5v0.6h-11.8v-0.6h0.5c0.6,0,1.3-0.2,1.7-0.8c0.3-0.4,0.5-0.9,0.6-1.4c0-0.4-0.1-0.9-0.2-1.3
			l-3.2-7.7h-14.6l-3.2,7.5c-0.2,0.4-0.3,0.9-0.3,1.4c0,0.5,0.2,1,0.6,1.4c0.4,0.5,1.1,0.8,1.7,0.8h0.5v0.6h-11v-0.6h0.5
			c0.9,0,1.7-0.3,2.4-0.8c0.9-0.6,1.6-1.5,2-2.5c8.4-18,12.8-27.4,13.1-28.2c0.5-1,0.8-2.1,1-3.2h0.5L235,37.5
			C236.1,39.8,237.6,40.9,239.4,40.9z M213.6,28h13.1l-6.4-15.8L213.6,28z"/>
		<path class="st2" d="M288.9,40.9h0.9v0.6h-12v-0.5h0.9c0.6,0,1.1-0.2,1.5-0.7c0.4-0.4,0.6-1,0.5-1.6l-3-23.8l-10.8,21.4
			c-0.9,1.9-1.6,3.8-2,5.9h-0.6l-13.9-26.8l-2.6,23.2c-0.1,0.6,0.1,1.2,0.5,1.6c0.4,0.4,1,0.7,1.6,0.7h0.8v0.5h-10.6v-0.6h0.9
			c1.3,0.1,2.5-0.5,3.2-1.5c0.4-0.5,0.6-1.1,0.7-1.8L249.3,6h0.6l15.2,29.3l14.7-29.3h0.5l4.7,31.7c0.1,0.9,0.6,1.7,1.3,2.3
			C287,40.6,287.9,40.9,288.9,40.9z"/>
		<path class="st2" d="M302.4,8.3c6.1-3,13.4-3,19.5,0c2.9,1.5,5.4,3.7,7.1,6.4c1.8,2.8,2.7,6.1,2.6,9.4c0.1,3.3-0.9,6.6-2.6,9.4
			c-1.7,2.8-4.2,5-7.1,6.4c-2.8,1.5-5.9,2.3-9.1,2.3c-2.8,0.1-5.6-0.4-8.2-1.3c-2.3-0.8-4.4-2.1-6.2-3.7c-1.8-1.6-3.2-3.6-4.1-5.8
			c-1.1-2.5-1.6-5.3-1.5-8c0-3.1,0.9-6.1,2.6-8.7C297.1,12,299.5,9.8,302.4,8.3z M301.3,35.9c5.7,6,15.2,6.1,21.2,0.4
			c0.1-0.1,0.3-0.3,0.4-0.4c3-3.2,4.6-7.4,4.4-11.8c0.2-4.4-1.4-8.6-4.4-11.8c-5.7-6-15.2-6.1-21.2-0.4c-0.1,0.1-0.3,0.3-0.4,0.4
			c-2.9,3.2-4.5,7.4-4.3,11.8C296.8,28.5,298.4,32.7,301.3,35.9L301.3,35.9z"/>
		<path class="st2" d="M337.7,39.5c-0.2-0.9-0.2-1.9-0.2-2.8c0-1.5,0.3-2.9,0.7-4.3h0.7c0,0.3-0.1,0.7-0.1,1c-0.1,1.9,0.6,3.8,2,5.1
			c1.5,1.4,3.6,2.1,5.7,2c2.1,0.1,4.2-0.5,5.9-1.8c1.4-1.1,2.2-2.8,2.1-4.6c0-1.8-0.7-3.5-2.1-4.6l-11.5-8.9
			c-1.8-1.6-2.9-3.9-2.8-6.3c0-1.5,0.4-2.9,1.2-4.1c0.9-1.3,2.1-2.3,3.5-3c1.6-0.8,3.4-1.2,5.2-1.1c1.8,0,3.6,0.2,5.3,0.5h1.9
			l0.1,6.3h-0.6c0.1-1.4-0.5-2.8-1.7-3.7c-1.4-1-3.1-1.4-4.8-1.3c-1.8-0.1-3.6,0.5-5.1,1.6c-1.3,1-2,2.5-2,4.1
			c0,1.7,0.9,3.3,2.2,4.4l11.6,9c1.8,1.5,2.8,3.8,2.6,6.1c0,2.5-1.1,5-3,6.6c-2,1.8-4.6,2.8-7.2,2.7c-1.9,0-3.8-0.2-5.6-0.7
			C340.4,41.2,339,40.5,337.7,39.5z"/>
		<path class="st2" d="M388.5,25.1c0.8,0.2,1.6,0.3,2.4,0.3c0.7,0,1.3,0,1.8-0.1c0.7-0.1,1.3-0.2,2-0.4c0.8-0.2,1.6-0.5,2.3-1
			c1.7-1.1,3-2.8,3.6-4.7c0.3-1,0.4-2.1,0.4-3.1c0.1-2.1-0.8-4.2-2.4-5.5c-1.9-1.4-4.3-2.1-6.7-2h-5.6v29.1c0,1.2,0.7,2.2,1.7,2.7
			c0.5,0.3,1.1,0.4,1.7,0.4h0.8v0.6h-12v-0.6h0.8c0.9,0,1.7-0.3,2.3-0.9c0.6-0.6,1-1.3,1-2.2V10.5c0-0.8-0.4-1.6-1-2.2
			c-0.6-0.6-1.5-0.9-2.3-0.9h-0.8V6.9H392c4,0,7.2,0.9,9.6,2.7c2.3,1.6,3.6,4.3,3.5,7.1c0,2-0.5,3.9-1.5,5.6c-2,3.1-5,4.7-9.1,4.7
			c-2.1,0-4.1-0.5-6-1.4L388.5,25.1z"/>
		<path class="st2" d="M442,40.9h0.5v0.6h-11.8v-0.6h0.5c0.6,0,1.3-0.2,1.7-0.8c0.3-0.4,0.6-0.9,0.6-1.4c0-0.4-0.1-0.9-0.2-1.3
			l-3.1-7.7h-14.6l-3.2,7.5c-0.2,0.4-0.3,0.9-0.3,1.4c0,0.5,0.2,1,0.6,1.4c0.4,0.5,1.1,0.8,1.7,0.8h0.5v0.6h-11v-0.6h0.5
			c0.9,0,1.7-0.3,2.4-0.8c0.9-0.6,1.6-1.5,2-2.5c8.4-18,12.8-27.4,13.1-28.2c0.5-1,0.8-2.1,1-3.2h0.5l14.2,31.5
			C438.6,39.8,440.1,40.9,442,40.9z M416.1,28h13.1l-6.4-15.8L416.1,28z"/>
		<path class="st2" d="M456.1,8.6h-3v29.1c0,1.1,0.6,2.2,1.6,2.7c0.5,0.3,1.1,0.4,1.7,0.4h0.8l0.1,0.6h-11.8v-0.6h0.8
			c0.8,0,1.7-0.3,2.3-0.9c0.6-0.6,1-1.3,1-2.2V10.4c0-0.8-0.3-1.6-1-2.1c-0.6-0.6-1.4-0.9-2.3-0.9h-0.8V6.9h14.4
			c3.6,0,6.4,0.8,8.5,2.5c2,1.5,3.2,4,3.1,6.5c0.1,2.5-0.8,4.9-2.5,6.8c-1.7,1.8-4,2.9-6.5,3.1c1.2,0.5,2.7,2,4.4,4.5
			c2.6,3.7,0.6,0.8,2,2.5c1.4,1.7,2.5,3,3.3,4c0.6,0.8,1.3,1.5,2,2.2c1.3,1.3,3.1,2,4.9,2v0.6h-1.8c-2.5,0.1-5-0.5-7.1-1.8
			c-1.3-0.9-2.5-2-3.6-3.3c-0.2-0.3-1.2-1.7-2.9-4.1l-2.7-3.8c-2.1-2.6-4-3.9-5.8-3.9V24c4.5,0,7.2-0.2,8.1-0.7
			c1-0.5,1.9-1.2,2.6-2.1c0.9-1.5,1.4-3.3,1.4-5.1c0.1-2-0.6-4-2.1-5.4c-1.6-1.3-3.5-2.1-5.6-2.1C458.6,8.7,457.4,8.6,456.1,8.6z"/>
		<path class="st2" d="M516.2,40.9h0.5v0.6h-11.8v-0.6h0.5c0.6,0,1.3-0.2,1.7-0.8c0.3-0.4,0.5-0.9,0.6-1.4c0-0.4-0.1-0.9-0.2-1.3
			l-3.2-7.7h-14.6l-3.2,7.5c-0.2,0.4-0.3,0.9-0.3,1.4c0,0.5,0.2,1,0.6,1.4c0.4,0.5,1.1,0.8,1.7,0.8h0.5v0.6h-11v-0.6h0.5
			c0.9,0,1.7-0.3,2.4-0.8c0.9-0.6,1.6-1.5,2-2.5c8.4-18,12.8-27.4,13.1-28.2c0.5-1,0.8-2.1,1-3.2h0.5l14.2,31.5
			C512.9,39.8,514.4,40.9,516.2,40.9z M490.4,28h13.1L497,12.2L490.4,28z"/>
		
			<linearGradient id="SVGID_00000103251851518283775780000011668178515402924451_" gradientUnits="userSpaceOnUse" x1="-69.84" y1="181.46" x2="583.0901" y2="181.46" gradientTransform="matrix(1 0 0 -1 0 378)">
			<stop  offset="0" style="stop-color:#D69C47"/>
			<stop  offset="0.1" style="stop-color:#8C5E1C"/>
			<stop  offset="0.13" style="stop-color:#9C6F27"/>
			<stop  offset="0.17" style="stop-color:#C59C43"/>
			<stop  offset="0.23" style="stop-color:#FEDB6B"/>
			<stop  offset="0.25" style="stop-color:#DFBA57"/>
			<stop  offset="0.29" style="stop-color:#8F6724"/>
			<stop  offset="0.31" style="stop-color:#704710"/>
			<stop  offset="0.38" style="stop-color:#986926"/>
			<stop  offset="0.48" style="stop-color:#D69C47"/>
			<stop  offset="0.5" style="stop-color:#E4BB71"/>
			<stop  offset="0.53" style="stop-color:#F0D596"/>
			<stop  offset="0.55" style="stop-color:#F8E8B0"/>
			<stop  offset="0.57" style="stop-color:#FDF4BF"/>
			<stop  offset="0.59" style="stop-color:#FFF8C5"/>
			<stop  offset="0.62" style="stop-color:#FFF4BA"/>
			<stop  offset="0.68" style="stop-color:#FFEB9C"/>
			<stop  offset="0.75" style="stop-color:#FEDB6B"/>
			<stop  offset="0.76" style="stop-color:#E0BC58"/>
			<stop  offset="0.77" style="stop-color:#B8923E"/>
			<stop  offset="0.78" style="stop-color:#99712A"/>
			<stop  offset="0.79" style="stop-color:#825A1C"/>
			<stop  offset="0.81" style="stop-color:#754C13"/>
			<stop  offset="0.81" style="stop-color:#704710"/>
			<stop  offset="0.84" style="stop-color:#7D5215"/>
			<stop  offset="0.89" style="stop-color:#A17023"/>
			<stop  offset="0.9" style="stop-color:#AB7927"/>
			<stop  offset="1" style="stop-color:#8C5E1C"/>
		</linearGradient>
		
			<rect x="3.2" y="171.5" style="fill:url(#SVGID_00000103251851518283775780000011668178515402924451_);" width="251.5" height="50"/>
		<path class="st4" d="M31.3,202.2h-7.7l-1.2,3.6h-5.2l7.5-20.6h5.8l7.5,20.6h-5.3L31.3,202.2z M30,198.3l-2.5-7.5l-2.5,7.5H30z"/>
		<path class="st4" d="M49.4,189.9c0.8,0.4,1.5,1.1,2,1.8v-2.3h5v16.3c0,1.4-0.3,2.8-0.9,4.1c-0.6,1.2-1.5,2.2-2.7,2.9
			c-1.4,0.8-3,1.1-4.6,1.1c-2.1,0.1-4.2-0.5-5.9-1.7c-1.5-1.1-2.4-2.8-2.6-4.6h5c0.2,0.6,0.6,1.1,1.1,1.5c0.7,0.4,1.4,0.6,2.2,0.6
			c0.9,0,1.8-0.3,2.5-0.9c0.7-0.8,1-1.8,0.9-2.9v-2.3c-0.5,0.8-1.2,1.4-2,1.9c-0.9,0.5-2,0.7-3,0.7c-1.3,0-2.6-0.3-3.7-1
			c-1.1-0.7-2-1.8-2.6-3c-1.3-2.8-1.3-6.1,0-8.9c0.6-1.2,1.5-2.2,2.6-2.9c1.1-0.7,2.4-1,3.7-1C47.4,189.2,48.5,189.5,49.4,189.9z
			 M50.4,194.7c-1.3-1.4-3.6-1.4-5-0.1c0,0-0.1,0.1-0.1,0.1c-0.7,0.8-1.1,1.9-1,3c-0.1,1.1,0.3,2.2,1,3c1.3,1.4,3.5,1.5,4.9,0.1
			c0,0,0.1-0.1,0.1-0.1C51.8,199,51.8,196.5,50.4,194.7L50.4,194.7z"/>
		<path class="st4" d="M75.4,198.9H64.1c0,0.9,0.4,1.7,1,2.3c0.6,0.5,1.3,0.8,2.1,0.8c1.1,0.1,2.2-0.6,2.6-1.6h5.3
			c-0.6,2.2-2.1,4-4.2,4.9c-1.1,0.5-2.4,0.8-3.6,0.7c-1.5,0-3-0.3-4.3-1c-1.2-0.7-2.3-1.7-2.9-2.9c-0.7-1.4-1.1-2.9-1.1-4.5
			c0-1.5,0.3-3.1,1-4.5c0.7-1.2,1.7-2.3,2.9-2.9c2.7-1.4,5.9-1.4,8.5,0c1.2,0.6,2.2,1.6,2.9,2.9c0.7,1.3,1,2.8,1,4.3
			C75.4,197.9,75.4,198.4,75.4,198.9z M70.4,196.1c0-0.8-0.3-1.5-0.9-2.1c-0.6-0.5-1.4-0.8-2.2-0.8c-1.7-0.1-3.1,1.2-3.2,2.8
			L70.4,196.1z"/>
		<path class="st4" d="M92.7,191.1c1.2,1.4,1.8,3.3,1.7,5.1v9.6h-5V197c0.1-0.9-0.2-1.8-0.8-2.6c-1.3-1.2-3.3-1.2-4.6,0
			c-0.6,0.7-0.9,1.6-0.8,2.6v8.9h-5v-16.4h5v2.2c0.5-0.7,1.2-1.3,2.1-1.7c0.9-0.4,1.9-0.6,2.9-0.6C89.8,189.2,91.5,189.9,92.7,191.1
			z"/>
		<path class="st4" d="M97.9,193.2c0.6-1.2,1.5-2.2,2.6-2.9c1.1-0.7,2.4-1,3.7-1c1,0,2.1,0.2,3,0.7c0.8,0.4,1.6,1,2.1,1.8v-7.6h5
			v21.7h-5v-2.4c-0.5,0.8-1.2,1.4-2,1.9c-0.9,0.5-2,0.7-3,0.7c-1.3,0-2.6-0.3-3.7-1c-1.1-0.7-2-1.8-2.6-3
			C96.7,199.3,96.7,196,97.9,193.2L97.9,193.2z M108.1,194.7c-1.4-1.4-3.6-1.4-5-0.1c0,0-0.1,0.1-0.1,0.1c-0.7,0.8-1.1,1.9-1,3
			c-0.1,1.1,0.3,2.2,1,3c1.3,1.4,3.5,1.5,4.9,0.1c0,0,0.1-0.1,0.1-0.1c0.7-0.8,1.1-1.9,1-3C109.2,196.6,108.9,195.5,108.1,194.7z"/>
		<path class="st4" d="M117.8,193.2c0.6-1.2,1.5-2.2,2.6-2.9c1.1-0.7,2.4-1,3.7-1c1,0,2.1,0.2,3,0.7c0.8,0.4,1.5,1.1,2,1.8v-2.3h5
			v16.4h-5v-2.3c-0.5,0.8-1.2,1.4-2,1.9c-0.9,0.5-2,0.7-3,0.7c-1.3,0-2.5-0.3-3.6-1c-1.1-0.7-2-1.8-2.6-3
			C116.5,199.3,116.5,196,117.8,193.2L117.8,193.2z M128.1,194.7c-1.4-1.4-3.6-1.4-5-0.1c0,0-0.1,0.1-0.1,0.1c-0.7,0.8-1.1,1.9-1,3
			c-0.1,1.1,0.3,2.2,1,3c1.3,1.4,3.5,1.5,4.9,0.1c0,0,0.1-0.1,0.1-0.1c0.7-0.8,1.1-1.9,1-3C129.1,196.6,128.8,195.5,128.1,194.7z"/>
		<path class="st4" d="M153.1,201.6v4.3h-2.6c-1.5,0.1-3.1-0.4-4.3-1.3c-1.1-1.2-1.7-2.7-1.5-4.4v-6.5h-2v-4.2h2v-4h5v4h3.3v4.2
			h-3.3v6.6c0,0.4,0.1,0.7,0.4,1c0.3,0.2,0.8,0.4,1.2,0.3L153.1,201.6z"/>
		<path class="st4" d="M172.1,189.5v16.4h-5v-2.2c-0.5,0.7-1.2,1.3-2.1,1.7c-0.9,0.4-1.9,0.7-2.9,0.7c-1.2,0-2.3-0.3-3.3-0.8
			c-1-0.6-1.7-1.4-2.2-2.4c-0.5-1.2-0.8-2.4-0.8-3.7v-9.6h5v8.9c-0.1,0.9,0.2,1.8,0.9,2.6c0.6,0.6,1.4,0.9,2.3,0.9
			c0.9,0,1.7-0.3,2.3-0.9c0.6-0.7,0.9-1.6,0.9-2.6v-8.9L172.1,189.5z"/>
		<path class="st4" d="M181.9,193.2c0.7-1.2,1.7-2.3,2.9-2.9c1.3-0.7,2.8-1,4.3-1c1.8-0.1,3.7,0.5,5.1,1.6c1.4,1.1,2.4,2.8,2.7,4.6
			h-5.3c-0.3-1.2-1.4-1.9-2.6-1.9c-0.9,0-1.7,0.4-2.2,1.1c-0.6,0.9-0.9,2-0.8,3.1c-0.1,1.1,0.2,2.2,0.8,3.1c0.5,0.7,1.3,1.1,2.2,1.1
			c1.2,0.1,2.3-0.7,2.6-1.9h5.4c-0.3,1.8-1.3,3.4-2.7,4.5c-1.5,1.1-3.3,1.7-5.1,1.6c-1.5,0-3-0.3-4.3-1c-1.2-0.7-2.2-1.7-2.9-2.9
			C180.6,199.3,180.6,196.1,181.9,193.2L181.9,193.2z"/>
		<path class="st4" d="M200,187c-0.5-0.5-0.8-1.2-0.8-1.9c0-0.7,0.3-1.4,0.8-1.9c0.6-0.5,1.4-0.8,2.2-0.8c0.8,0,1.5,0.2,2.1,0.8
			c0.5,0.5,0.9,1.2,0.8,1.9c0,0.7-0.3,1.4-0.8,1.9c-0.6,0.5-1.3,0.8-2.1,0.8C201.4,187.8,200.6,187.5,200,187z M204.7,189.5v16.4h-5
			v-16.4L204.7,189.5z"/>
		<path class="st4" d="M217.4,201.6v4.3h-2.6c-1.5,0.1-3.1-0.4-4.3-1.3c-1-0.9-1.5-2.3-1.5-4.4v-6.5h-2v-4.2h2v-4h5v4h3.3v4.2h-3.3
			v6.6c0,0.4,0.1,0.7,0.4,1c0.3,0.2,0.8,0.4,1.2,0.3L217.4,201.6z"/>
		<path class="st4" d="M220.2,193.2c0.6-1.2,1.5-2.2,2.6-2.9c1.1-0.7,2.4-1,3.7-1c1,0,2.1,0.2,3,0.7c0.8,0.4,1.5,1.1,2,1.8v-2.3h5
			v16.4h-5v-2.3c-0.5,0.8-1.2,1.4-2,1.9c-0.9,0.5-2,0.7-3,0.7c-1.3,0-2.5-0.3-3.6-1c-1.1-0.7-2-1.8-2.6-3
			C218.9,199.3,218.9,196,220.2,193.2L220.2,193.2z M230.4,194.7c-1.3-1.4-3.6-1.4-5-0.1c0,0-0.1,0.1-0.1,0.1
			c-0.7,0.8-1.1,1.9-1.1,3c-0.1,1.1,0.3,2.2,1.1,3c1.3,1.4,3.5,1.5,4.9,0.1c0,0,0.1-0.1,0.1-0.1C231.8,199,231.8,196.5,230.4,194.7
			L230.4,194.7z"/>
		<path class="st2" d="M20,76.3h-2.7v41c-0.1,1.2,0.4,2.4,1.4,3.2c0.8,0.8,2,1.2,3.1,1.2h0.9v0.8H0v-0.8h1c1.2,0,2.3-0.4,3.1-1.2
			c0.8-0.8,1.3-1.9,1.3-3.1V78.1c0-1.1-0.5-2.2-1.3-3c-0.8-0.8-1.9-1.2-3-1.2H0V73h25.3c4.3-0.1,8.6,0.8,12.4,2.9
			c3.7,2.2,5.6,5.7,5.6,10.7c0,3.1-1,6.2-2.9,8.6c-2.1,2.7-5.2,4.3-8.6,4.7c1.7,0.6,3.2,1.6,4.4,2.8c1.3,1.2,2.5,2.7,3.5,4.2
			c1.7,3,3.5,5.9,5.5,8.6c1.3,1.9,2.9,3.6,4.7,5c1.3,0.8,2.8,1.2,4.3,1.2v0.8h-6.9c-4.6,0-8.1-0.5-10.5-1.7c-2.8-1.4-5-3.6-6.5-6.3
			c-3-4.7-4.8-8.5-5.5-11.2c-0.5-1.4-1.3-2.7-2.4-3.7c-0.7-0.7-1.6-1.2-2.6-1.4v-0.7h2.1c4.7-0.1,7.5-2.8,8.6-8.3
			c0.2-0.7,0.3-1.4,0.3-2.1c0-0.6,0-1.4-0.1-2.5c-0.1-1.3-0.4-2.5-1-3.6c-0.5-1.2-1.4-2.2-2.4-2.9c-1.6-1-3.4-1.6-5.3-1.6
			C21.4,76.4,20.7,76.3,20,76.3z"/>
		<path class="st2" d="M92.4,122.5H53.6v-0.8h1c2.4,0.1,4.4-1.9,4.5-4.3V78.1c-0.1-2.4-2.1-4.3-4.5-4.3h-1v-0.8h29
			c1.6,0,3.3-0.2,4.9-0.4c1.3-0.2,2.5-0.4,3.7-0.8v13.1h-0.8v-0.7c0.1-2.1-0.6-4.1-2-5.7c-1.5-1.4-3.5-2.2-5.5-2.2H71v20.1h9.4
			c1.7,0,3.3-0.7,4.5-1.9c1.2-1.3,1.8-2.9,1.7-4.6v-0.6h0.8v17.5h-0.8v-0.6c0.2-2.3-0.9-4.4-2.9-5.6c-1-0.6-2.1-0.9-3.3-0.9H71v19.6
			h9.9c3.2,0,6.3-1.1,8.7-3.2c2.6-2.3,4.4-5.4,5.2-8.7h0.7L92.4,122.5z"/>
		<path class="st2" d="M101,115.7c-0.1-3.2,0.7-6.4,2.4-9.2h0.6c0,0.4-0.1,0.7-0.1,1.1c0,3.3,1.3,6.5,3.6,8.8
			c2.4,2.5,5.7,3.8,10,3.8c3.1,0,5.5-0.7,7.1-2.2c1.5-1.1,2.5-2.9,2.5-4.8c0.1-1.5-0.4-3.1-1.4-4.2c-1.4-1.4-3-2.7-4.7-3.8
			l-11.7-7.4c-4.9-3.1-7.4-7-7.4-11.9c0-0.5,0-1,0.1-1.6c0.2-3.6,1.8-6.9,4.5-9.2c2.7-2.2,6-3.4,9.5-3.3c3.9,0,7.7,0.3,11.6,0.7h4.4
			l-1.1,10.9h-0.7c0.1-2.3-0.9-4.6-2.7-6.1c-2-1.6-4.5-2.4-7.1-2.2c-2.5-0.1-4.9,0.5-7,1.9c-1.6,1.1-2.6,2.9-2.6,4.9
			c0.1,1.8,1,3.4,2.5,4.3c0.7,0.5,1.6,1.1,2.9,1.9l13.1,8.1c4.5,2.8,6.8,6.6,6.8,11.4c0,5.1-1.8,9.1-5.4,11.8
			c-3.6,2.8-8.3,4.1-14,4.1c-3.2,0.1-6.3-0.4-9.3-1.2c-2.2-0.6-4.2-1.6-5.9-3.1C101.1,118.1,100.9,116.9,101,115.7z"/>
		<path class="st2" d="M194,121.7h0.7v0.8h-24.2v-0.8h0.7c0.9,0.1,1.8-0.3,2.4-1c0.4-0.5,0.7-1.1,0.7-1.8c0-0.6-0.1-1.2-0.3-1.7
			l-3.2-7.6h-17.5l-3.3,7.7c-0.2,0.5-0.3,1.1-0.3,1.7c0,0.7,0.3,1.3,0.8,1.8c0.6,0.7,1.5,1.1,2.4,1h0.6v0.8h-16.5v-0.8h0.7
			c1.2,0,2.4-0.4,3.5-1.1c1.2-0.8,2.2-1.9,2.8-3.2l17.1-36.7c2.4-5.4,3.7-8.8,3.8-10.1h0.7l22.1,46.4c0.6,1.4,1.6,2.6,2.8,3.5
			C191.5,121.3,192.7,121.7,194,121.7z M154.6,106.3h14.7L162,89.1L154.6,106.3z"/>
		<path class="st2" d="M195,122.5v-0.8h1c1.2,0,2.3-0.4,3.2-1.2c0.8-0.8,1.3-1.9,1.3-3.1V78.1c0-1.2-0.5-2.3-1.3-3.1
			c-0.8-0.8-2-1.3-3.1-1.3h-1v-0.8h22.9v0.8h-1c-1.2,0-2.3,0.4-3.2,1.2c-0.9,0.8-1.4,1.9-1.3,3.1v41h9.9c3.2,0,6.3-1.1,8.7-3.2
			c2.5-2.3,4.3-5.4,5.2-8.7h0.9l-3.2,15.2L195,122.5z"/>
		<path class="st2" d="M278.8,84.7v-0.7c0.1-2.1-0.6-4.1-2-5.6c-1.5-1.4-3.5-2.2-5.5-2.2h-9.6v41.2c0,1.2,0.5,2.3,1.4,3.1
			c0.8,0.8,2,1.3,3.1,1.2h0.9v0.8h-22.7v-0.8h0.8c1.2,0,2.3-0.4,3.2-1.2c0.9-0.8,1.4-2,1.3-3.1V76.2h-9.5c-2.1-0.1-4.1,0.7-5.6,2.2
			c-1.4,1.5-2.1,3.6-2,5.6v0.7h-0.8v-13c1.3,0.4,2.5,0.7,3.8,0.8c1.6,0.3,3.2,0.4,4.8,0.4H271c2,0,4-0.1,6-0.5
			c0.9-0.2,1.8-0.4,2.7-0.7v13L278.8,84.7z"/>
		<path class="st2" d="M330.4,121.7h0.6v0.8h-24.2v-0.8h0.7c0.9,0.1,1.8-0.3,2.4-1c0.4-0.5,0.7-1.1,0.7-1.8c0-0.6-0.1-1.2-0.3-1.7
			l-3.2-7.6h-17.5l-3.3,7.7c-0.2,0.5-0.3,1.1-0.3,1.7c0,0.7,0.3,1.3,0.8,1.8c0.6,0.7,1.5,1.1,2.4,1h0.7v0.8h-16.5v-0.8h0.7
			c1.2,0,2.4-0.4,3.5-1.1c1.2-0.8,2.2-1.9,2.8-3.2l17-36.7c2.4-5.4,3.7-8.8,3.8-10.1h0.7l22.1,46.4c0.6,1.4,1.6,2.6,2.8,3.5
			C327.8,121.3,329.1,121.7,330.4,121.7z M290.9,106.3h14.7L298.4,89L290.9,106.3z"/>
		<path class="st2" d="M351.9,76.3h-2.6v41c-0.1,1.2,0.4,2.4,1.4,3.2c0.8,0.8,1.9,1.2,3.1,1.2h0.9v0.8h-22.7v-0.8h1
			c1.2,0,2.3-0.4,3.1-1.2c0.8-0.8,1.3-1.9,1.3-3.1V78.1c0-1.2-0.4-2.3-1.3-3.1c-0.8-0.8-1.9-1.2-3-1.2h-1.1v-0.8h25.3
			c4.3-0.1,8.6,0.8,12.5,2.9c3.7,2.2,5.6,5.7,5.6,10.7c0,3.1-1,6.2-2.9,8.6c-2.1,2.7-5.2,4.3-8.6,4.7c1.7,0.6,3.2,1.6,4.4,2.8
			c1.3,1.2,2.5,2.7,3.5,4.2c1.7,3,3.5,5.9,5.5,8.6c1.3,1.9,2.8,3.6,4.7,5.1c1.3,0.8,2.8,1.2,4.3,1.2v0.8h-6.9
			c-4.6,0-8.1-0.5-10.5-1.7c-2.8-1.4-5-3.6-6.6-6.3c-3-4.7-4.8-8.5-5.5-11.2c-0.5-1.4-1.3-2.7-2.4-3.7c-0.7-0.7-1.6-1.2-2.6-1.4
			v-0.7h2.1c4.7-0.1,7.5-2.8,8.6-8.3c0.2-0.7,0.3-1.4,0.3-2.1c0-0.6,0-1.4-0.1-2.5c-0.1-1.3-0.4-2.5-1-3.6c-0.5-1.2-1.4-2.2-2.4-2.9
			c-1.6-1-3.4-1.6-5.3-1.7C353.3,76.4,352.6,76.3,351.9,76.3z"/>
		<path class="st2" d="M451,84.7v-0.7c0.1-2.1-0.6-4.1-2-5.6c-1.5-1.4-3.5-2.2-5.5-2.2H434v41.2c0,1.2,0.5,2.3,1.4,3.1
			c0.8,0.8,2,1.3,3.1,1.2h0.9v0.8h-22.8v-0.8h0.8c1.2,0,2.4-0.4,3.2-1.2c0.9-0.8,1.3-2,1.3-3.1V76.2h-9.5c-2.1-0.1-4.1,0.7-5.6,2.2
			c-1.4,1.5-2.1,3.6-2,5.6v0.7h-0.8v-13c1.3,0.4,2.5,0.7,3.8,0.8c1.6,0.3,3.2,0.4,4.8,0.4h30.4c2,0,4-0.1,6-0.5
			c0.9-0.2,1.8-0.4,2.7-0.7v13L451,84.7z"/>
		<path class="st2" d="M509.7,73.8h-1.1c-1,0-1.9,0.3-2.6,1c-0.7,0.6-1.1,1.5-1.2,2.4v27.3c0,5.9-1.8,10.6-5.4,14
			c-3.6,3.4-9,5.1-16.2,5.1s-12.8-1.7-16.7-4.9c-4-3.3-6-8-6-14V77.2c0-1-0.4-1.9-1.1-2.5c-0.7-0.7-1.7-1-2.7-1h-1.2v-0.8h21.7v0.8
			h-1.2c-1,0-1.9,0.3-2.6,1c-0.7,0.6-1.1,1.5-1.1,2.5v26.8c0,5.1,1.2,9,3.5,11.9s5.6,4.3,9.9,4.3c4.2,0,7.6-1.3,10-4
			c2.4-2.7,3.7-6.4,3.7-11.3V77.2c0-1-0.4-1.9-1.1-2.5c-0.7-0.7-1.7-1-2.6-1h-1.1v-0.8h15.2L509.7,73.8z"/>
		<path class="st2" d="M575.5,85.2c0,1.9-0.4,3.7-1.3,5.4c-1.5,2.9-4.5,4.7-7.8,4.9c3.4,0.2,6.7,1.6,9.2,3.9c2.5,2.3,3.8,5.6,3.7,9
			c0,7.1-4.3,11.6-12.8,13.4c-2.6,0.5-5.3,0.8-7.9,0.8h-23.9v-0.8h0.9c1.2,0,2.3-0.4,3.2-1.2c0.9-0.8,1.3-2,1.4-3.1V78.1
			c0-1.8-1.1-3.4-2.8-4c-0.5-0.2-1.1-0.3-1.7-0.3h-0.9V73h22.1C569.3,73,575.5,77,575.5,85.2z M566.1,107.6c0.1-2.2-0.5-4.4-1.6-6.4
			c-1.9-3.3-5.3-5-10-5h-0.2v-0.8c2.4,0.1,4.7-0.7,6.4-2.3c1.6-1.5,2.5-3.9,2.5-7.2c0-6.6-3-9.9-9-9.9H552v43h3.3
			c2.9,0.1,5.7-0.9,7.8-2.8C565,114.5,566,111.6,566.1,107.6L566.1,107.6z"/>
		<path class="st2" d="M623.3,122.5h-38.8v-0.8h1c2.4,0.1,4.5-1.9,4.5-4.3V78.1c-0.1-2.4-2.1-4.3-4.5-4.3h-1v-0.8h29
			c1.6,0,3.3-0.2,4.9-0.4c1.3-0.2,2.5-0.4,3.7-0.8v13.1h-0.8v-0.7c0.1-2.1-0.6-4.1-2-5.7c-1.5-1.4-3.5-2.2-5.5-2.2h-11.8v20.1h9.4
			c1.7,0,3.3-0.7,4.5-1.9c1.2-1.3,1.8-2.9,1.7-4.6v-0.6h0.8v17.5h-0.8v-0.6c0.2-2.3-0.9-4.4-2.9-5.6c-1-0.6-2.1-0.9-3.3-0.9h-9.5
			v19.6h9.9c3.2,0,6.3-1.1,8.7-3.2c2.6-2.3,4.4-5.4,5.2-8.7h0.7L623.3,122.5z"/>
		<path class="st2" d="M630.5,122.5v-0.8h1c1.2,0,2.3-0.4,3.2-1.2c0.8-0.8,1.3-1.9,1.3-3.1V78.1c0-1.2-0.5-2.3-1.3-3.1
			c-0.8-0.8-2-1.3-3.1-1.3h-1v-0.8h22.9v0.8h-1c-1.2,0-2.3,0.4-3.2,1.2c-0.9,0.8-1.3,1.9-1.3,3.1v41h9.9c3.2,0,6.3-1.1,8.7-3.2
			c2.5-2.3,4.3-5.4,5.2-8.7h0.9l-3.2,15.2L630.5,122.5z"/>
		<path class="st2" d="M675,122.5v-0.8h1c1.2,0,2.3-0.4,3.2-1.2c0.8-0.8,1.3-1.9,1.3-3.1V78.1c0-1.2-0.5-2.3-1.3-3.1
			c-0.8-0.8-2-1.3-3.1-1.3h-1v-0.8h22.9v0.8h-1c-1.2,0-2.4,0.4-3.2,1.2c-0.9,0.8-1.4,1.9-1.3,3.1v41h9.9c3.2,0,6.3-1.1,8.7-3.2
			c2.5-2.3,4.3-5.4,5.2-8.7h0.9l-3.2,15.2L675,122.5z"/>
		<path class="st2" d="M758.2,122.5h-38.8v-0.8h1c2.4,0.1,4.5-1.9,4.5-4.3V78.1c-0.1-2.4-2.1-4.3-4.5-4.3h-1v-0.8h29
			c1.6,0,3.3-0.2,4.9-0.4c1.3-0.2,2.5-0.4,3.7-0.8v13.1h-0.8v-0.7c0.1-2.1-0.6-4.1-2-5.7c-1.5-1.4-3.5-2.2-5.5-2.2h-11.9v20.1h9.4
			c1.7,0,3.3-0.7,4.5-1.9c1.2-1.3,1.8-2.9,1.7-4.6v-0.6h0.8v17.5h-0.8v-0.6c0.2-2.3-0.9-4.4-2.9-5.6c-1-0.6-2.1-0.9-3.3-0.9h-9.5
			v19.6h9.9c3.2,0,6.3-1.1,8.7-3.2c2.6-2.3,4.4-5.4,5.2-8.7h0.7L758.2,122.5z"/>
		<path class="st2" d="M765.9,122.5v-0.7L793,76.2h-17.6c-2.1-0.1-4,0.7-5.5,2.2c-1.4,1.6-2.1,3.6-2,5.7v0.7H767v-13
			c1.2,0.4,2.5,0.7,3.8,0.8c1.7,0.3,3.4,0.4,5.2,0.4h24.2c1.7,0,3.4-0.1,5.1-0.3c1.2-0.1,2.3-0.3,3.4-0.7v0.7L782,119.3h14.3
			c7.3-0.1,12.3-4.1,14.8-12h0.9l-3.6,15.2L765.9,122.5z"/>
		<path class="st2" d="M867.9,121.7h0.7v0.8h-24.2v-0.8h0.7c0.9,0.1,1.8-0.3,2.4-1c0.4-0.5,0.7-1.1,0.7-1.8c0-0.6-0.1-1.2-0.3-1.7
			l-3.2-7.6h-17.5l-3.3,7.7c-0.2,0.5-0.3,1.1-0.3,1.7c0,0.7,0.3,1.3,0.8,1.8c0.6,0.7,1.5,1.1,2.4,1h0.7v0.8h-16.5v-0.8h0.7
			c1.2,0,2.4-0.4,3.5-1.1c1.2-0.8,2.2-1.9,2.8-3.2l17.1-36.7c2.4-5.4,3.7-8.8,3.8-10.1h0.8l22.1,46.4c0.6,1.4,1.6,2.6,2.8,3.5
			C865.3,121.3,866.6,121.6,867.9,121.7z M828.5,106.3h14.7L835.9,89L828.5,106.3z"/>
		<path class="st2" d="M880.4,121.6c-1.1,1.1-2.6,1.8-4.2,1.7c-3.3,0-5.9-2.6-5.9-5.9c0,0,0,0,0-0.1c0-1.6,0.6-3.1,1.7-4.3
			c1.1-1.2,2.6-1.8,4.2-1.8c1.6,0,3.1,0.6,4.2,1.8c1.2,1.1,1.8,2.7,1.8,4.3C882.2,119,881.6,120.5,880.4,121.6z"/>
		
			<linearGradient id="SVGID_00000078034633703743707820000014725206444977460389_" gradientUnits="userSpaceOnUse" x1="-127.34" y1="280.2424" x2="1301.12" y2="280.2424" gradientTransform="matrix(1 0 0 -1 0 378)">
			<stop  offset="0" style="stop-color:#D69C47"/>
			<stop  offset="0.1" style="stop-color:#8C5E1C"/>
			<stop  offset="0.13" style="stop-color:#9C6F27"/>
			<stop  offset="0.17" style="stop-color:#C59C43"/>
			<stop  offset="0.23" style="stop-color:#FEDB6B"/>
			<stop  offset="0.25" style="stop-color:#DFBA57"/>
			<stop  offset="0.29" style="stop-color:#8F6724"/>
			<stop  offset="0.31" style="stop-color:#704710"/>
			<stop  offset="0.38" style="stop-color:#986926"/>
			<stop  offset="0.48" style="stop-color:#D69C47"/>
			<stop  offset="0.5" style="stop-color:#E4BB71"/>
			<stop  offset="0.53" style="stop-color:#F0D596"/>
			<stop  offset="0.55" style="stop-color:#F8E8B0"/>
			<stop  offset="0.57" style="stop-color:#FDF4BF"/>
			<stop  offset="0.59" style="stop-color:#FFF8C5"/>
			<stop  offset="0.62" style="stop-color:#FFF4BA"/>
			<stop  offset="0.68" style="stop-color:#FFEB9C"/>
			<stop  offset="0.75" style="stop-color:#FEDB6B"/>
			<stop  offset="0.76" style="stop-color:#E0BC58"/>
			<stop  offset="0.77" style="stop-color:#B8923E"/>
			<stop  offset="0.78" style="stop-color:#99712A"/>
			<stop  offset="0.79" style="stop-color:#825A1C"/>
			<stop  offset="0.81" style="stop-color:#754C13"/>
			<stop  offset="0.81" style="stop-color:#704710"/>
			<stop  offset="0.84" style="stop-color:#7D5215"/>
			<stop  offset="0.89" style="stop-color:#A17023"/>
			<stop  offset="0.9" style="stop-color:#AB7927"/>
			<stop  offset="1" style="stop-color:#8C5E1C"/>
		</linearGradient>
		<path style="fill:url(#SVGID_00000078034633703743707820000014725206444977460389_);" d="M20,76.3h-2.7v41
			c-0.1,1.2,0.4,2.4,1.4,3.2c0.8,0.8,2,1.2,3.1,1.2h0.9v0.8H0v-0.8h1c1.2,0,2.3-0.4,3.1-1.2c0.8-0.8,1.3-1.9,1.3-3.1V78.1
			c0-1.1-0.5-2.2-1.3-3c-0.8-0.8-1.9-1.2-3-1.2H0V73h25.3c4.3-0.1,8.6,0.8,12.4,2.9c3.7,2.2,5.6,5.7,5.6,10.7c0,3.1-1,6.2-2.9,8.6
			c-2.1,2.7-5.2,4.3-8.6,4.7c1.7,0.6,3.2,1.6,4.4,2.8c1.3,1.2,2.5,2.7,3.5,4.2c1.7,3,3.5,5.9,5.5,8.6c1.3,1.9,2.9,3.6,4.7,5
			c1.3,0.8,2.8,1.2,4.3,1.2v0.8h-6.9c-4.6,0-8.1-0.5-10.5-1.7c-2.8-1.4-5-3.6-6.5-6.3c-3-4.7-4.8-8.5-5.5-11.2
			c-0.5-1.4-1.3-2.7-2.4-3.7c-0.7-0.7-1.6-1.2-2.6-1.4v-0.7h2.1c4.7-0.1,7.5-2.8,8.6-8.3c0.2-0.7,0.3-1.4,0.3-2.1
			c0-0.6,0-1.4-0.1-2.5c-0.1-1.3-0.4-2.5-1-3.6c-0.5-1.2-1.4-2.2-2.4-2.9c-1.6-1-3.4-1.6-5.3-1.6C21.4,76.4,20.7,76.3,20,76.3z"/>
		
			<linearGradient id="SVGID_00000038398615377060050840000011105361427635379353_" gradientUnits="userSpaceOnUse" x1="-127.34" y1="280.9" x2="1301.12" y2="280.9" gradientTransform="matrix(1 0 0 -1 0 378)">
			<stop  offset="0" style="stop-color:#D69C47"/>
			<stop  offset="0.1" style="stop-color:#8C5E1C"/>
			<stop  offset="0.13" style="stop-color:#9C6F27"/>
			<stop  offset="0.17" style="stop-color:#C59C43"/>
			<stop  offset="0.23" style="stop-color:#FEDB6B"/>
			<stop  offset="0.25" style="stop-color:#DFBA57"/>
			<stop  offset="0.29" style="stop-color:#8F6724"/>
			<stop  offset="0.31" style="stop-color:#704710"/>
			<stop  offset="0.38" style="stop-color:#986926"/>
			<stop  offset="0.48" style="stop-color:#D69C47"/>
			<stop  offset="0.5" style="stop-color:#E4BB71"/>
			<stop  offset="0.53" style="stop-color:#F0D596"/>
			<stop  offset="0.55" style="stop-color:#F8E8B0"/>
			<stop  offset="0.57" style="stop-color:#FDF4BF"/>
			<stop  offset="0.59" style="stop-color:#FFF8C5"/>
			<stop  offset="0.62" style="stop-color:#FFF4BA"/>
			<stop  offset="0.68" style="stop-color:#FFEB9C"/>
			<stop  offset="0.75" style="stop-color:#FEDB6B"/>
			<stop  offset="0.76" style="stop-color:#E0BC58"/>
			<stop  offset="0.77" style="stop-color:#B8923E"/>
			<stop  offset="0.78" style="stop-color:#99712A"/>
			<stop  offset="0.79" style="stop-color:#825A1C"/>
			<stop  offset="0.81" style="stop-color:#754C13"/>
			<stop  offset="0.81" style="stop-color:#704710"/>
			<stop  offset="0.84" style="stop-color:#7D5215"/>
			<stop  offset="0.89" style="stop-color:#A17023"/>
			<stop  offset="0.9" style="stop-color:#AB7927"/>
			<stop  offset="1" style="stop-color:#8C5E1C"/>
		</linearGradient>
		<path style="fill:url(#SVGID_00000038398615377060050840000011105361427635379353_);" d="M92.4,122.5H53.6v-0.8h1
			c2.4,0.1,4.4-1.9,4.5-4.3V78.1c-0.1-2.4-2.1-4.3-4.5-4.3h-1v-0.8h29c1.6,0,3.3-0.2,4.9-0.4c1.3-0.2,2.5-0.4,3.7-0.8v13.1h-0.8
			v-0.7c0.1-2.1-0.6-4.1-2-5.7c-1.5-1.4-3.5-2.2-5.5-2.2H71v20.1h9.4c1.7,0,3.3-0.7,4.5-1.9c1.2-1.3,1.8-2.9,1.7-4.6v-0.6h0.8v17.5
			h-0.8v-0.6c0.2-2.3-0.9-4.4-2.9-5.6c-1-0.6-2.1-0.9-3.3-0.9H71v19.6h9.9c3.2,0,6.3-1.1,8.7-3.2c2.6-2.3,4.4-5.4,5.2-8.7h0.7
			L92.4,122.5z"/>
		
			<linearGradient id="SVGID_00000154390385332266678070000002187940161947323020_" gradientUnits="userSpaceOnUse" x1="-127.34" y1="280.2787" x2="1301.12" y2="280.2787" gradientTransform="matrix(1 0 0 -1 0 378)">
			<stop  offset="0" style="stop-color:#D69C47"/>
			<stop  offset="0.1" style="stop-color:#8C5E1C"/>
			<stop  offset="0.13" style="stop-color:#9C6F27"/>
			<stop  offset="0.17" style="stop-color:#C59C43"/>
			<stop  offset="0.23" style="stop-color:#FEDB6B"/>
			<stop  offset="0.25" style="stop-color:#DFBA57"/>
			<stop  offset="0.29" style="stop-color:#8F6724"/>
			<stop  offset="0.31" style="stop-color:#704710"/>
			<stop  offset="0.38" style="stop-color:#986926"/>
			<stop  offset="0.48" style="stop-color:#D69C47"/>
			<stop  offset="0.5" style="stop-color:#E4BB71"/>
			<stop  offset="0.53" style="stop-color:#F0D596"/>
			<stop  offset="0.55" style="stop-color:#F8E8B0"/>
			<stop  offset="0.57" style="stop-color:#FDF4BF"/>
			<stop  offset="0.59" style="stop-color:#FFF8C5"/>
			<stop  offset="0.62" style="stop-color:#FFF4BA"/>
			<stop  offset="0.68" style="stop-color:#FFEB9C"/>
			<stop  offset="0.75" style="stop-color:#FEDB6B"/>
			<stop  offset="0.76" style="stop-color:#E0BC58"/>
			<stop  offset="0.77" style="stop-color:#B8923E"/>
			<stop  offset="0.78" style="stop-color:#99712A"/>
			<stop  offset="0.79" style="stop-color:#825A1C"/>
			<stop  offset="0.81" style="stop-color:#754C13"/>
			<stop  offset="0.81" style="stop-color:#704710"/>
			<stop  offset="0.84" style="stop-color:#7D5215"/>
			<stop  offset="0.89" style="stop-color:#A17023"/>
			<stop  offset="0.9" style="stop-color:#AB7927"/>
			<stop  offset="1" style="stop-color:#8C5E1C"/>
		</linearGradient>
		<path style="fill:url(#SVGID_00000154390385332266678070000002187940161947323020_);" d="M101,115.7c-0.1-3.2,0.7-6.4,2.4-9.2h0.6
			c0,0.4-0.1,0.7-0.1,1.1c0,3.3,1.3,6.5,3.6,8.8c2.4,2.5,5.7,3.8,10,3.8c3.1,0,5.5-0.7,7.1-2.2c1.5-1.1,2.5-2.9,2.5-4.8
			c0.1-1.5-0.4-3.1-1.4-4.2c-1.4-1.4-3-2.7-4.7-3.8l-11.7-7.4c-4.9-3.1-7.4-7-7.4-11.9c0-0.5,0-1,0.1-1.6c0.2-3.6,1.8-6.9,4.5-9.2
			c2.7-2.2,6-3.4,9.5-3.3c3.9,0,7.7,0.3,11.6,0.7h4.4l-1.1,10.9h-0.7c0.1-2.3-0.9-4.6-2.7-6.1c-2-1.6-4.5-2.4-7.1-2.2
			c-2.5-0.1-4.9,0.5-7,1.9c-1.6,1.1-2.6,2.9-2.6,4.9c0.1,1.8,1,3.4,2.5,4.3c0.7,0.5,1.6,1.1,2.9,1.9l13.1,8.1
			c4.5,2.8,6.8,6.6,6.8,11.4c0,5.1-1.8,9.1-5.4,11.8c-3.6,2.8-8.3,4.1-14,4.1c-3.2,0.1-6.3-0.4-9.3-1.2c-2.2-0.6-4.2-1.6-5.9-3.1
			C101.1,118.1,100.9,116.9,101,115.7z"/>
		
			<linearGradient id="SVGID_00000002368280040069778390000001040344490765028274_" gradientUnits="userSpaceOnUse" x1="-127.34" y1="281.415" x2="1301.12" y2="281.415" gradientTransform="matrix(1 0 0 -1 0 378)">
			<stop  offset="0" style="stop-color:#D69C47"/>
			<stop  offset="0.1" style="stop-color:#8C5E1C"/>
			<stop  offset="0.13" style="stop-color:#9C6F27"/>
			<stop  offset="0.17" style="stop-color:#C59C43"/>
			<stop  offset="0.23" style="stop-color:#FEDB6B"/>
			<stop  offset="0.25" style="stop-color:#DFBA57"/>
			<stop  offset="0.29" style="stop-color:#8F6724"/>
			<stop  offset="0.31" style="stop-color:#704710"/>
			<stop  offset="0.38" style="stop-color:#986926"/>
			<stop  offset="0.48" style="stop-color:#D69C47"/>
			<stop  offset="0.5" style="stop-color:#E4BB71"/>
			<stop  offset="0.53" style="stop-color:#F0D596"/>
			<stop  offset="0.55" style="stop-color:#F8E8B0"/>
			<stop  offset="0.57" style="stop-color:#FDF4BF"/>
			<stop  offset="0.59" style="stop-color:#FFF8C5"/>
			<stop  offset="0.62" style="stop-color:#FFF4BA"/>
			<stop  offset="0.68" style="stop-color:#FFEB9C"/>
			<stop  offset="0.75" style="stop-color:#FEDB6B"/>
			<stop  offset="0.76" style="stop-color:#E0BC58"/>
			<stop  offset="0.77" style="stop-color:#B8923E"/>
			<stop  offset="0.78" style="stop-color:#99712A"/>
			<stop  offset="0.79" style="stop-color:#825A1C"/>
			<stop  offset="0.81" style="stop-color:#754C13"/>
			<stop  offset="0.81" style="stop-color:#704710"/>
			<stop  offset="0.84" style="stop-color:#7D5215"/>
			<stop  offset="0.89" style="stop-color:#A17023"/>
			<stop  offset="0.9" style="stop-color:#AB7927"/>
			<stop  offset="1" style="stop-color:#8C5E1C"/>
		</linearGradient>
		<path style="fill:url(#SVGID_00000002368280040069778390000001040344490765028274_);" d="M194,121.7h0.7v0.8h-24.2v-0.8h0.7
			c0.9,0.1,1.8-0.3,2.4-1c0.4-0.5,0.7-1.1,0.7-1.8c0-0.6-0.1-1.2-0.3-1.7l-3.2-7.6h-17.5l-3.3,7.7c-0.2,0.5-0.3,1.1-0.3,1.7
			c0,0.7,0.3,1.3,0.8,1.8c0.6,0.7,1.5,1.1,2.4,1h0.6v0.8h-16.5v-0.8h0.7c1.2,0,2.4-0.4,3.5-1.1c1.2-0.8,2.2-1.9,2.8-3.2l17.1-36.7
			c2.4-5.4,3.7-8.8,3.8-10.1h0.7l22.1,46.4c0.6,1.4,1.6,2.6,2.8,3.5C191.5,121.3,192.7,121.7,194,121.7z M154.6,106.3h14.7L162,89.1
			L154.6,106.3z"/>
		
			<linearGradient id="SVGID_00000006683784126087350320000003059314560726138501_" gradientUnits="userSpaceOnUse" x1="-127.34" y1="280.28" x2="1301.12" y2="280.28" gradientTransform="matrix(1 0 0 -1 0 378)">
			<stop  offset="0" style="stop-color:#D69C47"/>
			<stop  offset="0.1" style="stop-color:#8C5E1C"/>
			<stop  offset="0.13" style="stop-color:#9C6F27"/>
			<stop  offset="0.17" style="stop-color:#C59C43"/>
			<stop  offset="0.23" style="stop-color:#FEDB6B"/>
			<stop  offset="0.25" style="stop-color:#DFBA57"/>
			<stop  offset="0.29" style="stop-color:#8F6724"/>
			<stop  offset="0.31" style="stop-color:#704710"/>
			<stop  offset="0.38" style="stop-color:#986926"/>
			<stop  offset="0.48" style="stop-color:#D69C47"/>
			<stop  offset="0.5" style="stop-color:#E4BB71"/>
			<stop  offset="0.53" style="stop-color:#F0D596"/>
			<stop  offset="0.55" style="stop-color:#F8E8B0"/>
			<stop  offset="0.57" style="stop-color:#FDF4BF"/>
			<stop  offset="0.59" style="stop-color:#FFF8C5"/>
			<stop  offset="0.62" style="stop-color:#FFF4BA"/>
			<stop  offset="0.68" style="stop-color:#FFEB9C"/>
			<stop  offset="0.75" style="stop-color:#FEDB6B"/>
			<stop  offset="0.76" style="stop-color:#E0BC58"/>
			<stop  offset="0.77" style="stop-color:#B8923E"/>
			<stop  offset="0.78" style="stop-color:#99712A"/>
			<stop  offset="0.79" style="stop-color:#825A1C"/>
			<stop  offset="0.81" style="stop-color:#754C13"/>
			<stop  offset="0.81" style="stop-color:#704710"/>
			<stop  offset="0.84" style="stop-color:#7D5215"/>
			<stop  offset="0.89" style="stop-color:#A17023"/>
			<stop  offset="0.9" style="stop-color:#AB7927"/>
			<stop  offset="1" style="stop-color:#8C5E1C"/>
		</linearGradient>
		<path style="fill:url(#SVGID_00000006683784126087350320000003059314560726138501_);" d="M195,122.5v-0.8h1c1.2,0,2.3-0.4,3.2-1.2
			c0.8-0.8,1.3-1.9,1.3-3.1V78.1c0-1.2-0.5-2.3-1.3-3.1c-0.8-0.8-2-1.3-3.1-1.3h-1v-0.8h22.9v0.8h-1c-1.2,0-2.3,0.4-3.2,1.2
			c-0.9,0.8-1.4,1.9-1.3,3.1v41h9.9c3.2,0,6.3-1.1,8.7-3.2c2.5-2.3,4.3-5.4,5.2-8.7h0.9l-3.2,15.2L195,122.5z"/>
		
			<linearGradient id="SVGID_00000113355545577838669730000008683408433707117727_" gradientUnits="userSpaceOnUse" x1="-127.34" y1="280.915" x2="1301.12" y2="280.915" gradientTransform="matrix(1 0 0 -1 0 378)">
			<stop  offset="0" style="stop-color:#D69C47"/>
			<stop  offset="0.1" style="stop-color:#8C5E1C"/>
			<stop  offset="0.13" style="stop-color:#9C6F27"/>
			<stop  offset="0.17" style="stop-color:#C59C43"/>
			<stop  offset="0.23" style="stop-color:#FEDB6B"/>
			<stop  offset="0.25" style="stop-color:#DFBA57"/>
			<stop  offset="0.29" style="stop-color:#8F6724"/>
			<stop  offset="0.31" style="stop-color:#704710"/>
			<stop  offset="0.38" style="stop-color:#986926"/>
			<stop  offset="0.48" style="stop-color:#D69C47"/>
			<stop  offset="0.5" style="stop-color:#E4BB71"/>
			<stop  offset="0.53" style="stop-color:#F0D596"/>
			<stop  offset="0.55" style="stop-color:#F8E8B0"/>
			<stop  offset="0.57" style="stop-color:#FDF4BF"/>
			<stop  offset="0.59" style="stop-color:#FFF8C5"/>
			<stop  offset="0.62" style="stop-color:#FFF4BA"/>
			<stop  offset="0.68" style="stop-color:#FFEB9C"/>
			<stop  offset="0.75" style="stop-color:#FEDB6B"/>
			<stop  offset="0.76" style="stop-color:#E0BC58"/>
			<stop  offset="0.77" style="stop-color:#B8923E"/>
			<stop  offset="0.78" style="stop-color:#99712A"/>
			<stop  offset="0.79" style="stop-color:#825A1C"/>
			<stop  offset="0.81" style="stop-color:#754C13"/>
			<stop  offset="0.81" style="stop-color:#704710"/>
			<stop  offset="0.84" style="stop-color:#7D5215"/>
			<stop  offset="0.89" style="stop-color:#A17023"/>
			<stop  offset="0.9" style="stop-color:#AB7927"/>
			<stop  offset="1" style="stop-color:#8C5E1C"/>
		</linearGradient>
		<path style="fill:url(#SVGID_00000113355545577838669730000008683408433707117727_);" d="M278.8,84.7v-0.7c0.1-2.1-0.6-4.1-2-5.6
			c-1.5-1.4-3.5-2.2-5.5-2.2h-9.6v41.2c0,1.2,0.5,2.3,1.4,3.1c0.8,0.8,2,1.3,3.1,1.2h0.9v0.8h-22.7v-0.8h0.8c1.2,0,2.3-0.4,3.2-1.2
			c0.9-0.8,1.4-2,1.3-3.1V76.2h-9.5c-2.1-0.1-4.1,0.7-5.6,2.2c-1.4,1.5-2.1,3.6-2,5.6v0.7h-0.8v-13c1.3,0.4,2.5,0.7,3.8,0.8
			c1.6,0.3,3.2,0.4,4.8,0.4H271c2,0,4-0.1,6-0.5c0.9-0.2,1.8-0.4,2.7-0.7v13L278.8,84.7z"/>
		
			<linearGradient id="SVGID_00000021800761411053281860000016520687762421491877_" gradientUnits="userSpaceOnUse" x1="-127.34" y1="281.415" x2="1301.12" y2="281.415" gradientTransform="matrix(1 0 0 -1 0 378)">
			<stop  offset="0" style="stop-color:#D69C47"/>
			<stop  offset="0.1" style="stop-color:#8C5E1C"/>
			<stop  offset="0.13" style="stop-color:#9C6F27"/>
			<stop  offset="0.17" style="stop-color:#C59C43"/>
			<stop  offset="0.23" style="stop-color:#FEDB6B"/>
			<stop  offset="0.25" style="stop-color:#DFBA57"/>
			<stop  offset="0.29" style="stop-color:#8F6724"/>
			<stop  offset="0.31" style="stop-color:#704710"/>
			<stop  offset="0.38" style="stop-color:#986926"/>
			<stop  offset="0.48" style="stop-color:#D69C47"/>
			<stop  offset="0.5" style="stop-color:#E4BB71"/>
			<stop  offset="0.53" style="stop-color:#F0D596"/>
			<stop  offset="0.55" style="stop-color:#F8E8B0"/>
			<stop  offset="0.57" style="stop-color:#FDF4BF"/>
			<stop  offset="0.59" style="stop-color:#FFF8C5"/>
			<stop  offset="0.62" style="stop-color:#FFF4BA"/>
			<stop  offset="0.68" style="stop-color:#FFEB9C"/>
			<stop  offset="0.75" style="stop-color:#FEDB6B"/>
			<stop  offset="0.76" style="stop-color:#E0BC58"/>
			<stop  offset="0.77" style="stop-color:#B8923E"/>
			<stop  offset="0.78" style="stop-color:#99712A"/>
			<stop  offset="0.79" style="stop-color:#825A1C"/>
			<stop  offset="0.81" style="stop-color:#754C13"/>
			<stop  offset="0.81" style="stop-color:#704710"/>
			<stop  offset="0.84" style="stop-color:#7D5215"/>
			<stop  offset="0.89" style="stop-color:#A17023"/>
			<stop  offset="0.9" style="stop-color:#AB7927"/>
			<stop  offset="1" style="stop-color:#8C5E1C"/>
		</linearGradient>
		<path style="fill:url(#SVGID_00000021800761411053281860000016520687762421491877_);" d="M330.4,121.7h0.6v0.8h-24.2v-0.8h0.7
			c0.9,0.1,1.8-0.3,2.4-1c0.4-0.5,0.7-1.1,0.7-1.8c0-0.6-0.1-1.2-0.3-1.7l-3.2-7.6h-17.5l-3.3,7.7c-0.2,0.5-0.3,1.1-0.3,1.7
			c0,0.7,0.3,1.3,0.8,1.8c0.6,0.7,1.5,1.1,2.4,1h0.7v0.8h-16.5v-0.8h0.7c1.2,0,2.4-0.4,3.5-1.1c1.2-0.8,2.2-1.9,2.8-3.2l17-36.7
			c2.4-5.4,3.7-8.8,3.8-10.1h0.7l22.1,46.4c0.6,1.4,1.6,2.6,2.8,3.5C327.8,121.3,329.1,121.7,330.4,121.7z M290.9,106.3h14.7
			L298.4,89L290.9,106.3z"/>
		
			<linearGradient id="SVGID_00000096765932656279538870000004796185441127414447_" gradientUnits="userSpaceOnUse" x1="-127.34" y1="280.2724" x2="1301.12" y2="280.2724" gradientTransform="matrix(1 0 0 -1 0 378)">
			<stop  offset="0" style="stop-color:#D69C47"/>
			<stop  offset="0.1" style="stop-color:#8C5E1C"/>
			<stop  offset="0.13" style="stop-color:#9C6F27"/>
			<stop  offset="0.17" style="stop-color:#C59C43"/>
			<stop  offset="0.23" style="stop-color:#FEDB6B"/>
			<stop  offset="0.25" style="stop-color:#DFBA57"/>
			<stop  offset="0.29" style="stop-color:#8F6724"/>
			<stop  offset="0.31" style="stop-color:#704710"/>
			<stop  offset="0.38" style="stop-color:#986926"/>
			<stop  offset="0.48" style="stop-color:#D69C47"/>
			<stop  offset="0.5" style="stop-color:#E4BB71"/>
			<stop  offset="0.53" style="stop-color:#F0D596"/>
			<stop  offset="0.55" style="stop-color:#F8E8B0"/>
			<stop  offset="0.57" style="stop-color:#FDF4BF"/>
			<stop  offset="0.59" style="stop-color:#FFF8C5"/>
			<stop  offset="0.62" style="stop-color:#FFF4BA"/>
			<stop  offset="0.68" style="stop-color:#FFEB9C"/>
			<stop  offset="0.75" style="stop-color:#FEDB6B"/>
			<stop  offset="0.76" style="stop-color:#E0BC58"/>
			<stop  offset="0.77" style="stop-color:#B8923E"/>
			<stop  offset="0.78" style="stop-color:#99712A"/>
			<stop  offset="0.79" style="stop-color:#825A1C"/>
			<stop  offset="0.81" style="stop-color:#754C13"/>
			<stop  offset="0.81" style="stop-color:#704710"/>
			<stop  offset="0.84" style="stop-color:#7D5215"/>
			<stop  offset="0.89" style="stop-color:#A17023"/>
			<stop  offset="0.9" style="stop-color:#AB7927"/>
			<stop  offset="1" style="stop-color:#8C5E1C"/>
		</linearGradient>
		<path style="fill:url(#SVGID_00000096765932656279538870000004796185441127414447_);" d="M351.9,76.3h-2.6v41
			c-0.1,1.2,0.4,2.4,1.4,3.2c0.8,0.8,1.9,1.2,3.1,1.2h0.9v0.8h-22.7v-0.8h1c1.2,0,2.3-0.4,3.1-1.2c0.8-0.8,1.3-1.9,1.3-3.1V78.1
			c0-1.2-0.4-2.3-1.3-3.1c-0.8-0.8-1.9-1.2-3-1.2h-1.1v-0.8h25.3c4.3-0.1,8.6,0.8,12.5,2.9c3.7,2.2,5.6,5.7,5.6,10.7
			c0,3.1-1,6.2-2.9,8.6c-2.1,2.7-5.2,4.3-8.6,4.7c1.7,0.6,3.2,1.6,4.4,2.8c1.3,1.2,2.5,2.7,3.5,4.2c1.7,3,3.5,5.9,5.5,8.6
			c1.3,1.9,2.8,3.6,4.7,5.1c1.3,0.8,2.8,1.2,4.3,1.2v0.8h-6.9c-4.6,0-8.1-0.5-10.5-1.7c-2.8-1.4-5-3.6-6.6-6.3
			c-3-4.7-4.8-8.5-5.5-11.2c-0.5-1.4-1.3-2.7-2.4-3.7c-0.7-0.7-1.6-1.2-2.6-1.4v-0.7h2.1c4.7-0.1,7.5-2.8,8.6-8.3
			c0.2-0.7,0.3-1.4,0.3-2.1c0-0.6,0-1.4-0.1-2.5c-0.1-1.3-0.4-2.5-1-3.6c-0.5-1.2-1.4-2.2-2.4-2.9c-1.6-1-3.4-1.6-5.3-1.7
			C353.3,76.4,352.6,76.3,351.9,76.3z"/>
		
			<linearGradient id="SVGID_00000111165682296629682720000011255767148545428926_" gradientUnits="userSpaceOnUse" x1="-127.34" y1="280.915" x2="1301.12" y2="280.915" gradientTransform="matrix(1 0 0 -1 0 378)">
			<stop  offset="0" style="stop-color:#D69C47"/>
			<stop  offset="0.1" style="stop-color:#8C5E1C"/>
			<stop  offset="0.13" style="stop-color:#9C6F27"/>
			<stop  offset="0.17" style="stop-color:#C59C43"/>
			<stop  offset="0.23" style="stop-color:#FEDB6B"/>
			<stop  offset="0.25" style="stop-color:#DFBA57"/>
			<stop  offset="0.29" style="stop-color:#8F6724"/>
			<stop  offset="0.31" style="stop-color:#704710"/>
			<stop  offset="0.38" style="stop-color:#986926"/>
			<stop  offset="0.48" style="stop-color:#D69C47"/>
			<stop  offset="0.5" style="stop-color:#E4BB71"/>
			<stop  offset="0.53" style="stop-color:#F0D596"/>
			<stop  offset="0.55" style="stop-color:#F8E8B0"/>
			<stop  offset="0.57" style="stop-color:#FDF4BF"/>
			<stop  offset="0.59" style="stop-color:#FFF8C5"/>
			<stop  offset="0.62" style="stop-color:#FFF4BA"/>
			<stop  offset="0.68" style="stop-color:#FFEB9C"/>
			<stop  offset="0.75" style="stop-color:#FEDB6B"/>
			<stop  offset="0.76" style="stop-color:#E0BC58"/>
			<stop  offset="0.77" style="stop-color:#B8923E"/>
			<stop  offset="0.78" style="stop-color:#99712A"/>
			<stop  offset="0.79" style="stop-color:#825A1C"/>
			<stop  offset="0.81" style="stop-color:#754C13"/>
			<stop  offset="0.81" style="stop-color:#704710"/>
			<stop  offset="0.84" style="stop-color:#7D5215"/>
			<stop  offset="0.89" style="stop-color:#A17023"/>
			<stop  offset="0.9" style="stop-color:#AB7927"/>
			<stop  offset="1" style="stop-color:#8C5E1C"/>
		</linearGradient>
		<path style="fill:url(#SVGID_00000111165682296629682720000011255767148545428926_);" d="M451,84.7v-0.7c0.1-2.1-0.6-4.1-2-5.6
			c-1.5-1.4-3.5-2.2-5.5-2.2H434v41.2c0,1.2,0.5,2.3,1.4,3.1c0.8,0.8,2,1.3,3.1,1.2h0.9v0.8h-22.8v-0.8h0.8c1.2,0,2.4-0.4,3.2-1.2
			c0.9-0.8,1.3-2,1.3-3.1V76.2h-9.5c-2.1-0.1-4.1,0.7-5.6,2.2c-1.4,1.5-2.1,3.6-2,5.6v0.7h-0.8v-13c1.3,0.4,2.5,0.7,3.8,0.8
			c1.6,0.3,3.2,0.4,4.8,0.4h30.4c2,0,4-0.1,6-0.5c0.9-0.2,1.8-0.4,2.7-0.7v13L451,84.7z"/>
		
			<linearGradient id="SVGID_00000171716053234406971810000008544936340321223343_" gradientUnits="userSpaceOnUse" x1="-127.34" y1="279.745" x2="1301.12" y2="279.745" gradientTransform="matrix(1 0 0 -1 0 378)">
			<stop  offset="0" style="stop-color:#D69C47"/>
			<stop  offset="0.1" style="stop-color:#8C5E1C"/>
			<stop  offset="0.13" style="stop-color:#9C6F27"/>
			<stop  offset="0.17" style="stop-color:#C59C43"/>
			<stop  offset="0.23" style="stop-color:#FEDB6B"/>
			<stop  offset="0.25" style="stop-color:#DFBA57"/>
			<stop  offset="0.29" style="stop-color:#8F6724"/>
			<stop  offset="0.31" style="stop-color:#704710"/>
			<stop  offset="0.38" style="stop-color:#986926"/>
			<stop  offset="0.48" style="stop-color:#D69C47"/>
			<stop  offset="0.5" style="stop-color:#E4BB71"/>
			<stop  offset="0.53" style="stop-color:#F0D596"/>
			<stop  offset="0.55" style="stop-color:#F8E8B0"/>
			<stop  offset="0.57" style="stop-color:#FDF4BF"/>
			<stop  offset="0.59" style="stop-color:#FFF8C5"/>
			<stop  offset="0.62" style="stop-color:#FFF4BA"/>
			<stop  offset="0.68" style="stop-color:#FFEB9C"/>
			<stop  offset="0.75" style="stop-color:#FEDB6B"/>
			<stop  offset="0.76" style="stop-color:#E0BC58"/>
			<stop  offset="0.77" style="stop-color:#B8923E"/>
			<stop  offset="0.78" style="stop-color:#99712A"/>
			<stop  offset="0.79" style="stop-color:#825A1C"/>
			<stop  offset="0.81" style="stop-color:#754C13"/>
			<stop  offset="0.81" style="stop-color:#704710"/>
			<stop  offset="0.84" style="stop-color:#7D5215"/>
			<stop  offset="0.89" style="stop-color:#A17023"/>
			<stop  offset="0.9" style="stop-color:#AB7927"/>
			<stop  offset="1" style="stop-color:#8C5E1C"/>
		</linearGradient>
		<path style="fill:url(#SVGID_00000171716053234406971810000008544936340321223343_);" d="M509.7,73.8h-1.1c-1,0-1.9,0.3-2.6,1
			c-0.7,0.6-1.1,1.5-1.2,2.4v27.3c0,5.9-1.8,10.6-5.4,14c-3.6,3.4-9,5.1-16.2,5.1s-12.8-1.7-16.7-4.9c-4-3.3-6-8-6-14V77.2
			c0-1-0.4-1.9-1.1-2.5c-0.7-0.7-1.7-1-2.7-1h-1.2v-0.8h21.7v0.8h-1.2c-1,0-1.9,0.3-2.6,1c-0.7,0.6-1.1,1.5-1.1,2.5v26.8
			c0,5.1,1.2,9,3.5,11.9s5.6,4.3,9.9,4.3c4.2,0,7.6-1.3,10-4c2.4-2.7,3.7-6.4,3.7-11.3V77.2c0-1-0.4-1.9-1.1-2.5
			c-0.7-0.7-1.7-1-2.6-1h-1.1v-0.8h15.2L509.7,73.8z"/>
		
			<linearGradient id="SVGID_00000046307369134716870220000003890532857172014225_" gradientUnits="userSpaceOnUse" x1="-127.34" y1="280.2395" x2="1301.12" y2="280.2395" gradientTransform="matrix(1 0 0 -1 0 378)">
			<stop  offset="0" style="stop-color:#D69C47"/>
			<stop  offset="0.1" style="stop-color:#8C5E1C"/>
			<stop  offset="0.13" style="stop-color:#9C6F27"/>
			<stop  offset="0.17" style="stop-color:#C59C43"/>
			<stop  offset="0.23" style="stop-color:#FEDB6B"/>
			<stop  offset="0.25" style="stop-color:#DFBA57"/>
			<stop  offset="0.29" style="stop-color:#8F6724"/>
			<stop  offset="0.31" style="stop-color:#704710"/>
			<stop  offset="0.38" style="stop-color:#986926"/>
			<stop  offset="0.48" style="stop-color:#D69C47"/>
			<stop  offset="0.5" style="stop-color:#E4BB71"/>
			<stop  offset="0.53" style="stop-color:#F0D596"/>
			<stop  offset="0.55" style="stop-color:#F8E8B0"/>
			<stop  offset="0.57" style="stop-color:#FDF4BF"/>
			<stop  offset="0.59" style="stop-color:#FFF8C5"/>
			<stop  offset="0.62" style="stop-color:#FFF4BA"/>
			<stop  offset="0.68" style="stop-color:#FFEB9C"/>
			<stop  offset="0.75" style="stop-color:#FEDB6B"/>
			<stop  offset="0.76" style="stop-color:#E0BC58"/>
			<stop  offset="0.77" style="stop-color:#B8923E"/>
			<stop  offset="0.78" style="stop-color:#99712A"/>
			<stop  offset="0.79" style="stop-color:#825A1C"/>
			<stop  offset="0.81" style="stop-color:#754C13"/>
			<stop  offset="0.81" style="stop-color:#704710"/>
			<stop  offset="0.84" style="stop-color:#7D5215"/>
			<stop  offset="0.89" style="stop-color:#A17023"/>
			<stop  offset="0.9" style="stop-color:#AB7927"/>
			<stop  offset="1" style="stop-color:#8C5E1C"/>
		</linearGradient>
		<path style="fill:url(#SVGID_00000046307369134716870220000003890532857172014225_);" d="M575.5,85.2c0,1.9-0.4,3.7-1.3,5.4
			c-1.5,2.9-4.5,4.7-7.8,4.9c3.4,0.2,6.7,1.6,9.2,3.9c2.5,2.3,3.8,5.6,3.7,9c0,7.1-4.3,11.6-12.8,13.4c-2.6,0.5-5.3,0.8-7.9,0.8
			h-23.9v-0.8h0.9c1.2,0,2.3-0.4,3.2-1.2c0.9-0.8,1.3-2,1.4-3.1V78.1c0-1.8-1.1-3.4-2.8-4c-0.5-0.2-1.1-0.3-1.7-0.3h-0.9V73h22.1
			C569.3,73,575.5,77,575.5,85.2z M566.1,107.6c0.1-2.2-0.5-4.4-1.6-6.4c-1.9-3.3-5.3-5-10-5h-0.2v-0.8c2.4,0.1,4.7-0.7,6.4-2.3
			c1.6-1.5,2.5-3.9,2.5-7.2c0-6.6-3-9.9-9-9.9H552v43h3.3c2.9,0.1,5.7-0.9,7.8-2.8C565,114.5,566,111.6,566.1,107.6L566.1,107.6z"/>
		
			<linearGradient id="SVGID_00000183238420076088936440000013419468465131056512_" gradientUnits="userSpaceOnUse" x1="-127.34" y1="280.9" x2="1301.12" y2="280.9" gradientTransform="matrix(1 0 0 -1 0 378)">
			<stop  offset="0" style="stop-color:#D69C47"/>
			<stop  offset="0.1" style="stop-color:#8C5E1C"/>
			<stop  offset="0.13" style="stop-color:#9C6F27"/>
			<stop  offset="0.17" style="stop-color:#C59C43"/>
			<stop  offset="0.23" style="stop-color:#FEDB6B"/>
			<stop  offset="0.25" style="stop-color:#DFBA57"/>
			<stop  offset="0.29" style="stop-color:#8F6724"/>
			<stop  offset="0.31" style="stop-color:#704710"/>
			<stop  offset="0.38" style="stop-color:#986926"/>
			<stop  offset="0.48" style="stop-color:#D69C47"/>
			<stop  offset="0.5" style="stop-color:#E4BB71"/>
			<stop  offset="0.53" style="stop-color:#F0D596"/>
			<stop  offset="0.55" style="stop-color:#F8E8B0"/>
			<stop  offset="0.57" style="stop-color:#FDF4BF"/>
			<stop  offset="0.59" style="stop-color:#FFF8C5"/>
			<stop  offset="0.62" style="stop-color:#FFF4BA"/>
			<stop  offset="0.68" style="stop-color:#FFEB9C"/>
			<stop  offset="0.75" style="stop-color:#FEDB6B"/>
			<stop  offset="0.76" style="stop-color:#E0BC58"/>
			<stop  offset="0.77" style="stop-color:#B8923E"/>
			<stop  offset="0.78" style="stop-color:#99712A"/>
			<stop  offset="0.79" style="stop-color:#825A1C"/>
			<stop  offset="0.81" style="stop-color:#754C13"/>
			<stop  offset="0.81" style="stop-color:#704710"/>
			<stop  offset="0.84" style="stop-color:#7D5215"/>
			<stop  offset="0.89" style="stop-color:#A17023"/>
			<stop  offset="0.9" style="stop-color:#AB7927"/>
			<stop  offset="1" style="stop-color:#8C5E1C"/>
		</linearGradient>
		<path style="fill:url(#SVGID_00000183238420076088936440000013419468465131056512_);" d="M623.3,122.5h-38.8v-0.8h1
			c2.4,0.1,4.5-1.9,4.5-4.3V78.1c-0.1-2.4-2.1-4.3-4.5-4.3h-1v-0.8h29c1.6,0,3.3-0.2,4.9-0.4c1.3-0.2,2.5-0.4,3.7-0.8v13.1h-0.8
			v-0.7c0.1-2.1-0.6-4.1-2-5.7c-1.5-1.4-3.5-2.2-5.5-2.2h-11.8v20.1h9.4c1.7,0,3.3-0.7,4.5-1.9c1.2-1.3,1.8-2.9,1.7-4.6v-0.6h0.8
			v17.5h-0.8v-0.6c0.2-2.3-0.9-4.4-2.9-5.6c-1-0.6-2.1-0.9-3.3-0.9h-9.5v19.6h9.9c3.2,0,6.3-1.1,8.7-3.2c2.6-2.3,4.4-5.4,5.2-8.7
			h0.7L623.3,122.5z"/>
		
			<linearGradient id="SVGID_00000101789932541992322970000015730688996337448893_" gradientUnits="userSpaceOnUse" x1="-127.34" y1="280.28" x2="1301.12" y2="280.28" gradientTransform="matrix(1 0 0 -1 0 378)">
			<stop  offset="0" style="stop-color:#D69C47"/>
			<stop  offset="0.1" style="stop-color:#8C5E1C"/>
			<stop  offset="0.13" style="stop-color:#9C6F27"/>
			<stop  offset="0.17" style="stop-color:#C59C43"/>
			<stop  offset="0.23" style="stop-color:#FEDB6B"/>
			<stop  offset="0.25" style="stop-color:#DFBA57"/>
			<stop  offset="0.29" style="stop-color:#8F6724"/>
			<stop  offset="0.31" style="stop-color:#704710"/>
			<stop  offset="0.38" style="stop-color:#986926"/>
			<stop  offset="0.48" style="stop-color:#D69C47"/>
			<stop  offset="0.5" style="stop-color:#E4BB71"/>
			<stop  offset="0.53" style="stop-color:#F0D596"/>
			<stop  offset="0.55" style="stop-color:#F8E8B0"/>
			<stop  offset="0.57" style="stop-color:#FDF4BF"/>
			<stop  offset="0.59" style="stop-color:#FFF8C5"/>
			<stop  offset="0.62" style="stop-color:#FFF4BA"/>
			<stop  offset="0.68" style="stop-color:#FFEB9C"/>
			<stop  offset="0.75" style="stop-color:#FEDB6B"/>
			<stop  offset="0.76" style="stop-color:#E0BC58"/>
			<stop  offset="0.77" style="stop-color:#B8923E"/>
			<stop  offset="0.78" style="stop-color:#99712A"/>
			<stop  offset="0.79" style="stop-color:#825A1C"/>
			<stop  offset="0.81" style="stop-color:#754C13"/>
			<stop  offset="0.81" style="stop-color:#704710"/>
			<stop  offset="0.84" style="stop-color:#7D5215"/>
			<stop  offset="0.89" style="stop-color:#A17023"/>
			<stop  offset="0.9" style="stop-color:#AB7927"/>
			<stop  offset="1" style="stop-color:#8C5E1C"/>
		</linearGradient>
		<path style="fill:url(#SVGID_00000101789932541992322970000015730688996337448893_);" d="M630.5,122.5v-0.8h1
			c1.2,0,2.3-0.4,3.2-1.2c0.8-0.8,1.3-1.9,1.3-3.1V78.1c0-1.2-0.5-2.3-1.3-3.1c-0.8-0.8-2-1.3-3.1-1.3h-1v-0.8h22.9v0.8h-1
			c-1.2,0-2.3,0.4-3.2,1.2c-0.9,0.8-1.3,1.9-1.3,3.1v41h9.9c3.2,0,6.3-1.1,8.7-3.2c2.5-2.3,4.3-5.4,5.2-8.7h0.9l-3.2,15.2
			L630.5,122.5z"/>
		
			<linearGradient id="SVGID_00000149370194476112497190000005048050222634692007_" gradientUnits="userSpaceOnUse" x1="-127.34" y1="280.28" x2="1301.12" y2="280.28" gradientTransform="matrix(1 0 0 -1 0 378)">
			<stop  offset="0" style="stop-color:#D69C47"/>
			<stop  offset="0.1" style="stop-color:#8C5E1C"/>
			<stop  offset="0.13" style="stop-color:#9C6F27"/>
			<stop  offset="0.17" style="stop-color:#C59C43"/>
			<stop  offset="0.23" style="stop-color:#FEDB6B"/>
			<stop  offset="0.25" style="stop-color:#DFBA57"/>
			<stop  offset="0.29" style="stop-color:#8F6724"/>
			<stop  offset="0.31" style="stop-color:#704710"/>
			<stop  offset="0.38" style="stop-color:#986926"/>
			<stop  offset="0.48" style="stop-color:#D69C47"/>
			<stop  offset="0.5" style="stop-color:#E4BB71"/>
			<stop  offset="0.53" style="stop-color:#F0D596"/>
			<stop  offset="0.55" style="stop-color:#F8E8B0"/>
			<stop  offset="0.57" style="stop-color:#FDF4BF"/>
			<stop  offset="0.59" style="stop-color:#FFF8C5"/>
			<stop  offset="0.62" style="stop-color:#FFF4BA"/>
			<stop  offset="0.68" style="stop-color:#FFEB9C"/>
			<stop  offset="0.75" style="stop-color:#FEDB6B"/>
			<stop  offset="0.76" style="stop-color:#E0BC58"/>
			<stop  offset="0.77" style="stop-color:#B8923E"/>
			<stop  offset="0.78" style="stop-color:#99712A"/>
			<stop  offset="0.79" style="stop-color:#825A1C"/>
			<stop  offset="0.81" style="stop-color:#754C13"/>
			<stop  offset="0.81" style="stop-color:#704710"/>
			<stop  offset="0.84" style="stop-color:#7D5215"/>
			<stop  offset="0.89" style="stop-color:#A17023"/>
			<stop  offset="0.9" style="stop-color:#AB7927"/>
			<stop  offset="1" style="stop-color:#8C5E1C"/>
		</linearGradient>
		<path style="fill:url(#SVGID_00000149370194476112497190000005048050222634692007_);" d="M675,122.5v-0.8h1c1.2,0,2.3-0.4,3.2-1.2
			c0.8-0.8,1.3-1.9,1.3-3.1V78.1c0-1.2-0.5-2.3-1.3-3.1c-0.8-0.8-2-1.3-3.1-1.3h-1v-0.8h22.9v0.8h-1c-1.2,0-2.4,0.4-3.2,1.2
			c-0.9,0.8-1.4,1.9-1.3,3.1v41h9.9c3.2,0,6.3-1.1,8.7-3.2c2.5-2.3,4.3-5.4,5.2-8.7h0.9l-3.2,15.2L675,122.5z"/>
		
			<linearGradient id="SVGID_00000122680051349179467490000006278220563946397624_" gradientUnits="userSpaceOnUse" x1="-127.34" y1="280.9" x2="1301.12" y2="280.9" gradientTransform="matrix(1 0 0 -1 0 378)">
			<stop  offset="0" style="stop-color:#D69C47"/>
			<stop  offset="0.1" style="stop-color:#8C5E1C"/>
			<stop  offset="0.13" style="stop-color:#9C6F27"/>
			<stop  offset="0.17" style="stop-color:#C59C43"/>
			<stop  offset="0.23" style="stop-color:#FEDB6B"/>
			<stop  offset="0.25" style="stop-color:#DFBA57"/>
			<stop  offset="0.29" style="stop-color:#8F6724"/>
			<stop  offset="0.31" style="stop-color:#704710"/>
			<stop  offset="0.38" style="stop-color:#986926"/>
			<stop  offset="0.48" style="stop-color:#D69C47"/>
			<stop  offset="0.5" style="stop-color:#E4BB71"/>
			<stop  offset="0.53" style="stop-color:#F0D596"/>
			<stop  offset="0.55" style="stop-color:#F8E8B0"/>
			<stop  offset="0.57" style="stop-color:#FDF4BF"/>
			<stop  offset="0.59" style="stop-color:#FFF8C5"/>
			<stop  offset="0.62" style="stop-color:#FFF4BA"/>
			<stop  offset="0.68" style="stop-color:#FFEB9C"/>
			<stop  offset="0.75" style="stop-color:#FEDB6B"/>
			<stop  offset="0.76" style="stop-color:#E0BC58"/>
			<stop  offset="0.77" style="stop-color:#B8923E"/>
			<stop  offset="0.78" style="stop-color:#99712A"/>
			<stop  offset="0.79" style="stop-color:#825A1C"/>
			<stop  offset="0.81" style="stop-color:#754C13"/>
			<stop  offset="0.81" style="stop-color:#704710"/>
			<stop  offset="0.84" style="stop-color:#7D5215"/>
			<stop  offset="0.89" style="stop-color:#A17023"/>
			<stop  offset="0.9" style="stop-color:#AB7927"/>
			<stop  offset="1" style="stop-color:#8C5E1C"/>
		</linearGradient>
		<path style="fill:url(#SVGID_00000122680051349179467490000006278220563946397624_);" d="M758.2,122.5h-38.8v-0.8h1
			c2.4,0.1,4.5-1.9,4.5-4.3V78.1c-0.1-2.4-2.1-4.3-4.5-4.3h-1v-0.8h29c1.6,0,3.3-0.2,4.9-0.4c1.3-0.2,2.5-0.4,3.7-0.8v13.1h-0.8
			v-0.7c0.1-2.1-0.6-4.1-2-5.7c-1.5-1.4-3.5-2.2-5.5-2.2h-11.9v20.1h9.4c1.7,0,3.3-0.7,4.5-1.9c1.2-1.3,1.8-2.9,1.7-4.6v-0.6h0.8
			v17.5h-0.8v-0.6c0.2-2.3-0.9-4.4-2.9-5.6c-1-0.6-2.1-0.9-3.3-0.9h-9.5v19.6h9.9c3.2,0,6.3-1.1,8.7-3.2c2.6-2.3,4.4-5.4,5.2-8.7
			h0.7L758.2,122.5z"/>
		
			<linearGradient id="SVGID_00000035514235079592602170000011775819797273088684_" gradientUnits="userSpaceOnUse" x1="-127.34" y1="280.915" x2="1301.12" y2="280.915" gradientTransform="matrix(1 0 0 -1 0 378)">
			<stop  offset="0" style="stop-color:#D69C47"/>
			<stop  offset="0.1" style="stop-color:#8C5E1C"/>
			<stop  offset="0.13" style="stop-color:#9C6F27"/>
			<stop  offset="0.17" style="stop-color:#C59C43"/>
			<stop  offset="0.23" style="stop-color:#FEDB6B"/>
			<stop  offset="0.25" style="stop-color:#DFBA57"/>
			<stop  offset="0.29" style="stop-color:#8F6724"/>
			<stop  offset="0.31" style="stop-color:#704710"/>
			<stop  offset="0.38" style="stop-color:#986926"/>
			<stop  offset="0.48" style="stop-color:#D69C47"/>
			<stop  offset="0.5" style="stop-color:#E4BB71"/>
			<stop  offset="0.53" style="stop-color:#F0D596"/>
			<stop  offset="0.55" style="stop-color:#F8E8B0"/>
			<stop  offset="0.57" style="stop-color:#FDF4BF"/>
			<stop  offset="0.59" style="stop-color:#FFF8C5"/>
			<stop  offset="0.62" style="stop-color:#FFF4BA"/>
			<stop  offset="0.68" style="stop-color:#FFEB9C"/>
			<stop  offset="0.75" style="stop-color:#FEDB6B"/>
			<stop  offset="0.76" style="stop-color:#E0BC58"/>
			<stop  offset="0.77" style="stop-color:#B8923E"/>
			<stop  offset="0.78" style="stop-color:#99712A"/>
			<stop  offset="0.79" style="stop-color:#825A1C"/>
			<stop  offset="0.81" style="stop-color:#754C13"/>
			<stop  offset="0.81" style="stop-color:#704710"/>
			<stop  offset="0.84" style="stop-color:#7D5215"/>
			<stop  offset="0.89" style="stop-color:#A17023"/>
			<stop  offset="0.9" style="stop-color:#AB7927"/>
			<stop  offset="1" style="stop-color:#8C5E1C"/>
		</linearGradient>
		<path style="fill:url(#SVGID_00000035514235079592602170000011775819797273088684_);" d="M765.9,122.5v-0.7L793,76.2h-17.6
			c-2.1-0.1-4,0.7-5.5,2.2c-1.4,1.6-2.1,3.6-2,5.7v0.7H767v-13c1.2,0.4,2.5,0.7,3.8,0.8c1.7,0.3,3.4,0.4,5.2,0.4h24.2
			c1.7,0,3.4-0.1,5.1-0.3c1.2-0.1,2.3-0.3,3.4-0.7v0.7L782,119.3h14.3c7.3-0.1,12.3-4.1,14.8-12h0.9l-3.6,15.2L765.9,122.5z"/>
		
			<linearGradient id="SVGID_00000068637335627700299210000000808442108086446479_" gradientUnits="userSpaceOnUse" x1="-127.34" y1="281.415" x2="1301.12" y2="281.415" gradientTransform="matrix(1 0 0 -1 0 378)">
			<stop  offset="0" style="stop-color:#D69C47"/>
			<stop  offset="0.1" style="stop-color:#8C5E1C"/>
			<stop  offset="0.13" style="stop-color:#9C6F27"/>
			<stop  offset="0.17" style="stop-color:#C59C43"/>
			<stop  offset="0.23" style="stop-color:#FEDB6B"/>
			<stop  offset="0.25" style="stop-color:#DFBA57"/>
			<stop  offset="0.29" style="stop-color:#8F6724"/>
			<stop  offset="0.31" style="stop-color:#704710"/>
			<stop  offset="0.38" style="stop-color:#986926"/>
			<stop  offset="0.48" style="stop-color:#D69C47"/>
			<stop  offset="0.5" style="stop-color:#E4BB71"/>
			<stop  offset="0.53" style="stop-color:#F0D596"/>
			<stop  offset="0.55" style="stop-color:#F8E8B0"/>
			<stop  offset="0.57" style="stop-color:#FDF4BF"/>
			<stop  offset="0.59" style="stop-color:#FFF8C5"/>
			<stop  offset="0.62" style="stop-color:#FFF4BA"/>
			<stop  offset="0.68" style="stop-color:#FFEB9C"/>
			<stop  offset="0.75" style="stop-color:#FEDB6B"/>
			<stop  offset="0.76" style="stop-color:#E0BC58"/>
			<stop  offset="0.77" style="stop-color:#B8923E"/>
			<stop  offset="0.78" style="stop-color:#99712A"/>
			<stop  offset="0.79" style="stop-color:#825A1C"/>
			<stop  offset="0.81" style="stop-color:#754C13"/>
			<stop  offset="0.81" style="stop-color:#704710"/>
			<stop  offset="0.84" style="stop-color:#7D5215"/>
			<stop  offset="0.89" style="stop-color:#A17023"/>
			<stop  offset="0.9" style="stop-color:#AB7927"/>
			<stop  offset="1" style="stop-color:#8C5E1C"/>
		</linearGradient>
		<path style="fill:url(#SVGID_00000068637335627700299210000000808442108086446479_);" d="M867.9,121.7h0.7v0.8h-24.2v-0.8h0.7
			c0.9,0.1,1.8-0.3,2.4-1c0.4-0.5,0.7-1.1,0.7-1.8c0-0.6-0.1-1.2-0.3-1.7l-3.2-7.6h-17.5l-3.3,7.7c-0.2,0.5-0.3,1.1-0.3,1.7
			c0,0.7,0.3,1.3,0.8,1.8c0.6,0.7,1.5,1.1,2.4,1h0.7v0.8h-16.5v-0.8h0.7c1.2,0,2.4-0.4,3.5-1.1c1.2-0.8,2.2-1.9,2.8-3.2l17.1-36.7
			c2.4-5.4,3.7-8.8,3.8-10.1h0.8l22.1,46.4c0.6,1.4,1.6,2.6,2.8,3.5C865.3,121.3,866.6,121.6,867.9,121.7z M828.5,106.3h14.7
			L835.9,89L828.5,106.3z"/>
		
			<linearGradient id="SVGID_00000056385953392038638100000002737749575110301852_" gradientUnits="userSpaceOnUse" x1="-127.34" y1="260.6649" x2="1301.12" y2="260.6649" gradientTransform="matrix(1 0 0 -1 0 378)">
			<stop  offset="0" style="stop-color:#D69C47"/>
			<stop  offset="0.1" style="stop-color:#8C5E1C"/>
			<stop  offset="0.13" style="stop-color:#9C6F27"/>
			<stop  offset="0.17" style="stop-color:#C59C43"/>
			<stop  offset="0.23" style="stop-color:#FEDB6B"/>
			<stop  offset="0.25" style="stop-color:#DFBA57"/>
			<stop  offset="0.29" style="stop-color:#8F6724"/>
			<stop  offset="0.31" style="stop-color:#704710"/>
			<stop  offset="0.38" style="stop-color:#986926"/>
			<stop  offset="0.48" style="stop-color:#D69C47"/>
			<stop  offset="0.5" style="stop-color:#E4BB71"/>
			<stop  offset="0.53" style="stop-color:#F0D596"/>
			<stop  offset="0.55" style="stop-color:#F8E8B0"/>
			<stop  offset="0.57" style="stop-color:#FDF4BF"/>
			<stop  offset="0.59" style="stop-color:#FFF8C5"/>
			<stop  offset="0.62" style="stop-color:#FFF4BA"/>
			<stop  offset="0.68" style="stop-color:#FFEB9C"/>
			<stop  offset="0.75" style="stop-color:#FEDB6B"/>
			<stop  offset="0.76" style="stop-color:#E0BC58"/>
			<stop  offset="0.77" style="stop-color:#B8923E"/>
			<stop  offset="0.78" style="stop-color:#99712A"/>
			<stop  offset="0.79" style="stop-color:#825A1C"/>
			<stop  offset="0.81" style="stop-color:#754C13"/>
			<stop  offset="0.81" style="stop-color:#704710"/>
			<stop  offset="0.84" style="stop-color:#7D5215"/>
			<stop  offset="0.89" style="stop-color:#A17023"/>
			<stop  offset="0.9" style="stop-color:#AB7927"/>
			<stop  offset="1" style="stop-color:#8C5E1C"/>
		</linearGradient>
		<path style="fill:url(#SVGID_00000056385953392038638100000002737749575110301852_);" d="M880.4,121.6c-1.1,1.1-2.6,1.8-4.2,1.7
			c-3.3,0-5.9-2.6-5.9-5.9c0,0,0,0,0-0.1c0-1.6,0.6-3.1,1.7-4.3c1.1-1.2,2.6-1.8,4.2-1.8c1.6,0,3.1,0.6,4.2,1.8
			c1.2,1.1,1.8,2.7,1.8,4.3C882.2,119,881.6,120.5,880.4,121.6z"/>
	</g>
	<path class="st4" d="M22.6,356.6c-0.7-0.7-1.6-1.1-2.6-1.2c-0.3,0-0.6,0-0.8-0.1h-1.4c-0.4,0-0.9,0-1.3,0.2c-2.4,0.9-4,3.2-4,5.7
		c0,1.2,0.3,2.4,0.8,3.6c1.1,2.1,2.5,4,4.3,5.5c0.3,0.2,0.6,0.4,0.9,0.5h0.5c0.2-0.1,0.5-0.2,0.7-0.4c0.5-0.5,1-0.9,1.4-1.4
		c0.9-1,1.8-2.2,2.5-3.4c0.8-1.2,1.2-2.6,1.3-4.1C24.9,359.6,24.1,357.7,22.6,356.6L22.6,356.6L22.6,356.6z M18.6,364.3
		c-1.7-0.1-2.9-1.6-2.8-3.3c0.1-1.5,1.3-2.7,2.8-2.8l0,0c1.7,0.2,2.9,1.7,2.7,3.4c-0.2,1.5-1.3,2.6-2.8,2.7H18.6z"/>
	<path class="st4" d="M23.5,316.6c0-0.9-0.7-1.7-1.6-1.7c-0.1,0-0.1,0-0.2,0h-6.4c-0.9-0.1-1.7,0.7-1.8,1.6c0,0.1,0,0.1,0,0.2V330
		c0,0.9,0.7,1.7,1.6,1.7c0.1,0,0.1,0,0.2,0h6.3c0.9,0.1,1.8-0.6,1.8-1.6c0-0.1,0-0.1,0-0.2v-6.7C23.5,321.1,23.5,318.9,23.5,316.6z
		 M17.3,315.8h2.6c0.2,0,0.4,0,0.4,0.3c0,0.3-0.2,0.3-0.4,0.3h-2.4c-0.2,0-0.4,0-0.4-0.3C17,315.9,17.1,315.8,17.3,315.8z
		 M19.2,330.9h-1.3c-0.3,0-0.5-0.3-0.5-0.6c0-0.3,0.2-0.5,0.5-0.5h1.2c0.3,0.1,0.5,0.4,0.4,0.7C19.6,330.7,19.4,330.8,19.2,330.9
		L19.2,330.9z M22.9,328.6c0,0.2,0,0.3-0.3,0.3c-2.7,0-5.4,0-8.1,0c-0.2,0-0.3,0-0.3-0.3v-11c0-0.2,0-0.3,0.3-0.3h8.1
		c0.2,0,0.3,0,0.3,0.3C22.9,321.3,22.9,325,22.9,328.6z"/>
</g>
</svg>
