<?xml version="1.0" encoding="utf-8"?>
<!-- Generator: Adobe Illustrator 26.0.1, SVG Export Plug-In . SVG Version: 6.00 Build 0)  -->
<svg version="1.1" id="Capa_1" xmlns="http://www.w3.org/2000/svg" xmlns:xlink="http://www.w3.org/1999/xlink" x="0px" y="0px"
	 viewBox="0 0 673.5 472" style="enable-background:new 0 0 673.5 472;" xml:space="preserve">
<style type="text/css">
	.st0{fill:#ED9594;}
	.st1{fill:#FFFFFF;}
	.st2{fill:#272727;}
</style>
<rect class="st0" width="192.5" height="52.5"/>
<path class="st1" d="M10.6,16.1c1.3-2.4,3.3-4.4,5.7-5.7c2.5-1.4,5.4-2.1,8.2-2.1c3.5-0.1,6.9,1,9.7,3c2.7,2,4.6,4.9,5.4,8.1H31
	c-0.6-1.2-1.5-2.3-2.7-3c-1.2-0.7-2.6-1-4-1c-2.2-0.1-4.3,0.8-5.8,2.5c-1.5,1.9-2.3,4.2-2.2,6.6c-0.1,2.4,0.7,4.8,2.2,6.6
	c1.5,1.6,3.6,2.6,5.8,2.5c1.4,0,2.7-0.3,4-1c1.2-0.7,2.1-1.8,2.7-3h8.5c-0.8,3.2-2.7,6.1-5.4,8.1c-2.8,2-6.2,3.1-9.7,3
	c-2.9,0-5.7-0.7-8.2-2.1c-2.4-1.3-4.3-3.3-5.7-5.7c-1.4-2.6-2.1-5.4-2-8.4C8.5,21.7,9.2,18.7,10.6,16.1z"/>
<path class="st1" d="M49,39.2c-1.9-1-3.6-2.6-4.7-4.5c-1.2-2.1-1.7-4.5-1.7-6.9c0-2.4,0.6-4.7,1.7-6.8c1.1-1.9,2.7-3.5,4.7-4.5
	c4.2-2.1,9.2-2.1,13.4,0c2,1,3.6,2.6,4.7,4.5c1.2,2.1,1.8,4.4,1.7,6.8c0,2.4-0.6,4.8-1.7,6.8c-1.1,1.9-2.8,3.5-4.7,4.5
	c-2.1,1.1-4.4,1.6-6.7,1.6C53.4,40.8,51.1,40.2,49,39.2z M59.4,32.4c1.1-1.3,1.7-2.9,1.6-4.6c0.1-1.7-0.4-3.4-1.5-4.6
	c-1.9-2.1-5.2-2.2-7.3-0.2c-0.1,0.1-0.1,0.1-0.2,0.2c-1.1,1.3-1.6,3-1.5,4.7c-0.1,1.7,0.4,3.3,1.5,4.6c0.9,1.1,2.3,1.7,3.7,1.6
	C57.1,34.1,58.5,33.5,59.4,32.4L59.4,32.4z"/>
<path class="st1" d="M95.3,17.8c1.8,1.9,2.7,4.5,2.7,7.9v14.7h-7.7V26.7c0.1-1.4-0.4-2.8-1.3-3.9c-2-1.8-5-1.8-7,0
	c-0.9,1.1-1.4,2.5-1.3,3.9v13.7H73V15.2h7.7v3.3c0.8-1.1,1.9-2,3.2-2.6c1.4-0.7,2.9-1,4.5-1C91,14.8,93.5,15.9,95.3,17.8z"/>
<path class="st1" d="M108.2,39.2c-1.9-1-3.6-2.6-4.6-4.5c-1.2-2.1-1.7-4.5-1.7-6.9c0-2.4,0.5-4.7,1.7-6.8c1.1-1.9,2.7-3.5,4.7-4.5
	c4.2-2.1,9.2-2.1,13.4,0c2,1,3.6,2.6,4.7,4.5c1.2,2.1,1.8,4.4,1.7,6.8c0,2.4-0.6,4.8-1.7,6.8c-1.1,1.9-2.8,3.5-4.7,4.5
	c-2.1,1.1-4.4,1.6-6.7,1.6C112.5,40.8,110.2,40.2,108.2,39.2z M118.6,32.4c1.1-1.3,1.7-3,1.6-4.6c0.1-1.7-0.4-3.4-1.5-4.6
	c-2-2.1-5.2-2.2-7.3-0.2c-0.1,0.1-0.1,0.1-0.2,0.2c-1.1,1.3-1.6,3-1.5,4.7c-0.1,1.7,0.4,3.3,1.5,4.6c0.9,1.1,2.3,1.7,3.7,1.6
	C116.3,34.1,117.6,33.5,118.6,32.4z"/>
<path class="st1" d="M132.2,20.9c1-1.9,2.6-3.5,4.5-4.5c2-1.1,4.3-1.6,6.6-1.6c2.8-0.1,5.6,0.8,7.9,2.5c2.2,1.8,3.7,4.2,4.2,7h-8.2
	c-0.5-1.8-2.2-3-4-2.9c-1.3,0-2.6,0.6-3.4,1.6c-0.9,1.4-1.4,3.1-1.3,4.7c-0.1,1.7,0.3,3.3,1.3,4.7c0.8,1.1,2.1,1.7,3.4,1.7
	c1.8,0.1,3.5-1.1,4-2.9h8.2c-0.5,2.8-2,5.2-4.2,7c-2.3,1.7-5.1,2.6-7.9,2.5c-2.3,0-4.5-0.5-6.6-1.6c-1.9-1-3.5-2.6-4.5-4.5
	c-1.1-2.1-1.7-4.5-1.6-6.9C130.5,25.4,131,23.1,132.2,20.9z"/>
<path class="st1" d="M183,29.6h-17.5c0,1.3,0.5,2.6,1.5,3.6c0.9,0.8,2.1,1.3,3.3,1.2c1.7,0.1,3.3-0.9,4-2.4h8.2
	c-0.9,3.4-3.2,6.2-6.4,7.6c-1.7,0.8-3.6,1.2-5.6,1.1c-2.3,0-4.5-0.5-6.5-1.6c-1.9-1-3.5-2.6-4.5-4.5c-1.1-2.1-1.7-4.5-1.6-6.9
	c-0.1-2.4,0.5-4.7,1.6-6.9c1-1.9,2.6-3.5,4.5-4.5c2-1.1,4.3-1.6,6.6-1.6c2.3,0,4.5,0.5,6.5,1.5c1.9,1,3.4,2.5,4.4,4.4
	c1.1,2,1.7,4.3,1.6,6.6C183.1,28.1,183.1,28.9,183,29.6z M175.2,25.3c0-1.2-0.4-2.4-1.4-3.2c-0.9-0.8-2.2-1.2-3.4-1.2
	c-1.2,0-2.4,0.4-3.3,1.1c-0.9,0.8-1.5,2-1.6,3.2L175.2,25.3z"/>
<path class="st2" d="M17,117.4v6.2H9.4v-0.9h1.7c1.5,0,2.9-0.5,4-1.6c1.1-1,1.7-2.3,1.7-3.8H17z M16.8,61.3l4,4.9l0.1,57.4h-4.2
	V72.2c-0.1-3.6-0.3-7.3-0.8-10.9L16.8,61.3z M16.8,61.3l53.3,54l0.8,9.5L17.6,70.9L16.8,61.3z M20.9,117.4c0,1.4,0.6,2.8,1.6,3.8
	c1.1,1,2.5,1.6,3.9,1.6h1.7v0.9h-7.6v-6.2H20.9z M59.4,62.7H67v6.2h-0.2c0-1.4-0.6-2.8-1.7-3.8c-1.1-1-2.5-1.6-4-1.5h-1.8V62.7z
	 M70.9,62.7v51c0,1.9,0.1,3.6,0.2,5.4s0.3,3.6,0.6,5.8h-0.8l-4.1-4.6V62.7H70.9z M78.2,62.7v0.9h-1.7c-1.5,0-2.9,0.5-3.9,1.5
	c-1.1,1-1.7,2.3-1.8,3.8h-0.3v-6.2H78.2z"/>
<path class="st2" d="M93.6,62.7v5.2h-0.3c0-1.2-0.5-2.4-1.4-3.1c-1-0.8-2.2-1.2-3.4-1.2H87v-0.9H93.6z M99.2,62.7V101
	c-0.1,3.8,0.8,7.6,2.4,11c1.5,3.1,3.9,5.7,6.8,7.4c3.1,1.8,6.6,2.7,10.2,2.6c3.7,0.1,7.4-0.8,10.7-2.5c3-1.6,5.5-4,7.1-7
	c1.8-3.2,2.7-6.8,2.6-10.5V62.7h4.3v39.4c0.1,4.2-1,8.3-3.1,11.9c-2.1,3.4-5.1,6.2-8.7,8c-4,2-8.5,3-13,2.9
	c-4.6,0.1-9.2-0.9-13.4-2.9c-3.7-1.7-6.7-4.5-8.9-7.9c-2.2-3.6-3.3-7.7-3.2-11.9V62.7H99.2z M105.6,62.7v0.9h-1.5
	c-1.3,0-2.5,0.4-3.4,1.2c-0.9,0.8-1.4,1.9-1.4,3.1h-0.2v-5.2H105.6z M139.4,62.7v5.2h-0.3c0-1.2-0.5-2.4-1.4-3.1
	c-1-0.8-2.2-1.2-3.4-1.2h-1.5v-0.9H139.4z M149.8,62.7v0.9h-1.5c-1.3,0-2.5,0.4-3.4,1.2c-0.9,0.8-1.4,1.9-1.4,3.1h-0.2v-5.2H149.8z"
	/>
<path class="st2" d="M166,69h-0.3c0-1.5-0.6-2.9-1.7-3.9c-1.1-1.1-2.6-1.6-4.1-1.6h-1.1l-0.1-0.9h7.3V69z M166,117.2v6.4h-7.3v-0.9
	h1.2c1.5,0,3-0.6,4.1-1.6c1.1-1,1.7-2.4,1.8-3.9L166,117.2z M171.7,62.6v60.9h-6V62.7L171.7,62.6z M196.4,62.6v2.7h-25v-2.7H196.4z
	 M192.5,92.2v2.6h-21.1v-2.6H192.5z M196.4,120.9v2.7h-25v-2.7H196.4z M202,109.5l-5.3,14.1h-15.2l3.3-2.7c2.7,0.1,5.4-0.4,7.9-1.4
	c2-0.9,3.7-2.3,5-4.1c1.3-1.8,2.5-3.8,3.4-5.9L202,109.5z M196.4,61.1v2.5l-11.2-1c1.4,0,2.9-0.1,4.3-0.3c1.5-0.2,2.9-0.4,4.2-0.6
	C194.6,61.6,195.6,61.4,196.4,61.1L196.4,61.1z M192.5,86.7v5.8h-5.3v-0.2c1.2,0,2.3-0.5,3.1-1.3c0.8-0.8,1.3-1.9,1.3-3v-1.2H192.5z
	 M192.5,94.7v5.8h-0.9v-1.3c0-1.1-0.5-2.2-1.3-3c-0.8-0.8-1.9-1.3-3.1-1.3v-0.2L192.5,94.7z M196.4,65.1v7h-0.9v-1.6
	c0-1.4-0.5-2.7-1.5-3.6c-1-1-2.4-1.6-3.9-1.6v-0.2L196.4,65.1z"/>
<path class="st2" d="M229.1,61.4c1.1,0,2.1,0.1,3.2,0.2c1.1,0.1,2.2,0.3,3.3,0.5s2,0.4,2.9,0.6c0.7,0.1,1.4,0.4,2.1,0.7V73h-0.8
	c0.1-2.5-1-5-3-6.6c-2.1-1.6-4.7-2.5-7.3-2.4c-3-0.1-6,0.9-8.2,3c-2,1.8-3.1,4.3-3.1,7c0,1.3,0.3,2.6,0.8,3.9c0.6,1.6,1.6,3,2.9,4.1
	l18.1,15.8c1.7,1.4,2.9,3.2,3.7,5.2c0.6,1.7,0.9,3.6,0.9,5.4c0.2,4.4-1.5,8.7-4.6,11.8c-3.1,3-7.3,4.5-12.5,4.5
	c-1.7,0-3.5-0.2-5.2-0.4c-2-0.3-3.9-0.8-5.8-1.5c-1.7-0.6-3.3-1.6-4.6-2.8c-0.2-1.1-0.3-2.3-0.3-3.5c0-1.5,0.1-2.9,0.4-4.4
	c0.2-1.4,0.6-2.8,1-4.2h0.8c-0.4,2.6,0.1,5.3,1.2,7.8c1,2.1,2.7,3.9,4.8,5c2.2,1.2,4.7,1.7,7.2,1.5c3.2-0.1,6.2-1.3,8.7-3.4
	c2.4-2.1,3.8-5.1,3.6-8.3c0-1.6-0.3-3.1-0.9-4.6c-0.6-1.4-1.5-2.6-2.7-3.5L218,86.9c-1.7-1.4-3-3.3-3.9-5.3
	c-0.7-1.7-1.1-3.6-1.1-5.4c0-2.5,0.6-4.9,1.8-7.1c1.3-2.3,3.2-4.2,5.5-5.5C223,62.1,226,61.3,229.1,61.4z M240.6,62.3v1.8h-7v-1.8
	L240.6,62.3z"/>
<path class="st2" d="M251.5,61c0.9,0.3,1.8,0.5,2.8,0.7c1.2,0.2,2.6,0.4,4.2,0.6c1.4,0.2,2.8,0.3,4.2,0.3l-11.2,1V61z M304.6,62.6
	v2.6h-53.1v-2.6H304.6z M257.8,64.9v0.3c-1.4,0-2.8,0.6-3.8,1.6c-1,0.9-1.6,2.3-1.6,3.7v1.5l-0.9,0.1v-7L257.8,64.9z M275.3,117.2
	v6.4H268v-0.9h1.2c1.5,0,3-0.5,4.1-1.6c1.1-1,1.7-2.4,1.8-3.9L275.3,117.2z M281,62.9v60.7h-6V62.9H281z M280.7,117.2h0.3
	c0,1.5,0.7,2.9,1.8,3.9c1.1,1.1,2.6,1.6,4.1,1.6h1.2v0.9h-7.3V117.2z M304.6,61v2.5l-11.2-1c1.4,0,2.9-0.1,4.3-0.3
	c1.5-0.2,2.9-0.4,4.2-0.6C302.8,61.5,303.7,61.3,304.6,61z M304.6,64.9v7l-0.9-0.1v-1.4c0-1.4-0.6-2.7-1.6-3.7c-1-1-2.4-1.5-3.8-1.6
	v-0.3H304.6z"/>
<path class="st2" d="M319.2,69h-0.3c0-1.5-0.7-2.9-1.8-3.9c-1.1-1.1-2.6-1.7-4.1-1.6h-1.2v-0.9h7.3L319.2,69z M319.2,117.2v6.4h-7.3
	v-0.9h1.1c1.5,0,3-0.5,4.1-1.6c1.1-1,1.7-2.4,1.8-3.9L319.2,117.2z M324.9,62.6v60.9h-6V62.7L324.9,62.6z M336.6,62.6
	c2.5,0,5.1,0.4,7.5,1.1c2.1,0.7,4,1.8,5.6,3.3c1.5,1.4,2.7,3.2,3.5,5.1c0.9,2.2,1.3,4.5,1.2,6.8c0,2.8-0.7,5.5-2.1,8
	c-1.3,2.5-3.2,4.6-5.6,6.2c-2.3,1.6-5.1,2.4-7.9,2.4c1.3,0.6,2.5,1.4,3.4,2.5c1.1,1.1,2.2,2.4,3.2,3.6c1.7,2.3,3.1,4.2,4.4,5.8
	c1.2,1.6,2.5,3.2,3.8,4.8c1.3,1.6,2.4,2.8,3.3,3.8c1.1,1.2,2.4,2.3,3.7,3.4c1.2,1,2.6,1.8,4,2.4c1.5,0.6,3.2,0.9,4.8,0.9v0.9h-5
	c-2.5,0.1-5-0.4-7.3-1.2c-1.9-0.7-3.6-1.7-5.2-3c-1.3-1.1-2.5-2.2-3.6-3.4c-0.2-0.2-0.7-0.9-1.5-2s-1.8-2.4-2.9-4l-3.4-4.6l-2.8-3.9
	c-0.8-1.1-1.2-1.7-1.4-1.9c-1.2-1.4-2.4-2.8-3.9-4c-1.2-1.2-2.9-1.8-4.6-1.8V93c1.9,0.1,3.5,0.1,4.9,0c1.8-0.1,3.5-0.3,5.2-0.7
	c1.9-0.4,3.8-1.3,5.3-2.5c1.8-1.5,3.1-3.5,3.8-5.8c0.2-0.8,0.4-1.6,0.5-2.4c0.1-0.9,0.2-1.9,0.1-2.8c-0.1-3.9-1.1-7.1-3.2-9.4
	c-2.1-2.4-5.1-3.7-8.2-3.8c-1.7-0.1-3.5-0.2-5.3-0.1s-3.9,0-6.4,0c-0.1-0.3-0.1-0.5-0.2-0.7c-0.2-0.4-0.4-1.1-0.7-2L336.6,62.6z
	 M324.6,117.2h0.3c0,1.5,0.6,2.9,1.7,3.9c1.1,1.1,2.6,1.6,4.1,1.6h1.1v0.9h-7.2V117.2z"/>
<path class="st2" d="M403.6,61.4c6-0.1,11.9,1.3,17.2,4c4.8,2.5,8.9,6.4,11.6,11.1c2.9,5.1,4.3,10.8,4.2,16.6
	c0.1,5.8-1.3,11.6-4.2,16.6c-2.7,4.7-6.8,8.6-11.6,11.1c-10.9,5.3-23.5,5.3-34.4,0c-4.8-2.5-8.9-6.4-11.6-11.1
	c-2.9-5.1-4.3-10.8-4.2-16.6c-0.1-5.8,1.3-11.6,4.2-16.6c2.7-4.7,6.8-8.6,11.6-11.1C391.8,62.7,397.7,61.3,403.6,61.4z M403.6,122.2
	c4.8,0.1,9.5-1.2,13.6-3.7c3.9-2.5,7.1-6,9.1-10.2c2.3-4.8,3.4-10,3.3-15.2c0.1-5.3-1-10.5-3.3-15.2c-2-4.2-5.2-7.7-9.1-10.2
	c-8.4-4.9-18.8-4.9-27.1,0c-3.9,2.5-7.1,6-9.1,10.2c-2.3,4.8-3.4,10-3.2,15.2c-0.1,5.3,1,10.5,3.2,15.2
	C385.1,117,394,122.5,403.6,122.2L403.6,122.2z"/>
<path class="st2" d="M464.2,61.4c1.1,0,2.1,0.1,3.2,0.2c1.1,0.1,2.2,0.3,3.3,0.5c1.1,0.2,2,0.4,2.9,0.6c0.7,0.1,1.4,0.4,2.1,0.7V73
	h-0.8c0.1-2.5-1-5-3-6.6c-2.1-1.6-4.7-2.5-7.3-2.4c-3-0.1-6,0.9-8.2,3c-2,1.8-3.1,4.3-3.1,7c0,1.3,0.3,2.6,0.8,3.9
	c0.6,1.6,1.6,3,2.9,4.1l18.1,15.8c1.7,1.4,2.9,3.2,3.7,5.2c0.6,1.7,0.9,3.6,0.9,5.4c0.2,4.4-1.5,8.7-4.6,11.8
	c-3.1,3-7.3,4.5-12.5,4.5c-1.7,0-3.5-0.2-5.2-0.4c-2-0.3-3.9-0.8-5.8-1.5c-1.7-0.6-3.3-1.6-4.6-2.8c-0.2-1.1-0.3-2.3-0.3-3.5
	c0-1.5,0.1-2.9,0.4-4.4c0.2-1.4,0.5-2.9,1-4.2h0.8c-0.4,2.6,0.1,5.3,1.2,7.8c1,2.1,2.7,3.9,4.8,5c2.2,1.2,4.7,1.7,7.2,1.5
	c3.2-0.1,6.2-1.3,8.7-3.4c2.4-2.1,3.8-5.1,3.6-8.3c0-1.6-0.3-3.1-0.9-4.6c-0.6-1.4-1.5-2.6-2.7-3.5L453,86.9c-1.7-1.4-3-3.3-3.9-5.3
	c-0.7-1.7-1.1-3.6-1.1-5.4c0-2.5,0.6-4.9,1.8-7.1c1.3-2.3,3.2-4.2,5.5-5.5C458,62.1,461.1,61.3,464.2,61.4z M475.6,62.3v1.8h-7v-1.8
	L475.6,62.3z"/>
<path class="st2" d="M33.6,142c1.6,0,3.6,0.1,6,0.2s4.9,0.4,7.4,0.7s4.8,0.6,6.7,0.9c1.3,0.1,2.7,0.5,4,0.9l-1.4,16.4H55
	c0.1-3.9-1.6-7.7-4.7-10.1c-3.1-2.5-7.3-3.8-12.5-3.8c-4.7,0-8.5,1.1-11.4,3.4c-2.7,1.9-4.4,5-4.6,8.3c-0.1,2.3,0.7,4.6,2.3,6.3
	c1.8,2,3.9,3.6,6.2,5l23.2,15.1c7.4,3.9,11.7,11.9,10.9,20.2c-0.4,7.9-3.4,14.1-9.1,18.5c-5.7,4.4-13.4,6.6-23.1,6.6
	c-3.5,0-6.9-0.3-10.4-0.9c-3.1-0.5-6.1-1.4-9-2.6c-2.3-0.9-4.4-2.2-6.2-3.9c-0.7-2.1-0.9-4.3-0.8-6.4c0.1-2.6,0.5-5.2,1.1-7.7
	c0.6-2.3,1.4-4.4,2.6-6.4h1.1c-0.4,4,0.4,8,2.2,11.5c1.8,3.5,4.6,6.4,8,8.4c3.8,2.2,8.2,3.2,12.6,3c5.3-0.1,9.5-1.4,12.4-4.1
	c2.8-2.4,4.4-5.9,4.4-9.6c0-2.5-0.8-4.8-2.2-6.8c-2-2.4-4.5-4.4-7.4-5.8l-21.2-14.1c-4-2.1-7.3-5.4-9.4-9.4
	c-1.9-3.8-2.7-8.1-2.2-12.4c0.2-4,1.5-7.8,3.6-11.1c2.2-3.2,5.2-5.8,8.7-7.5C24.5,142.8,29,141.9,33.6,142z M57.8,143.2l-0.2,2.6
	H43.2v-2.6H57.8z"/>
<path class="st2" d="M84.3,152.6h-0.4c-0.1-2-0.9-4-2.4-5.4c-1.4-1.5-3.4-2.3-5.4-2.2h-1.6v-1.2h9.7V152.6z M84.3,219.9v8.9h-9.7
	v-1.2h1.6c2,0,4-0.8,5.4-2.2c1.5-1.4,2.3-3.3,2.4-5.4L84.3,219.9z M102.2,143.7v85.1H83.9v-85.1H102.2z M135.7,143.7v5.3h-33.9v-5.2
	L135.7,143.7z M129.7,184.3v5.1h-28v-5.1H129.7z M134.2,223.6l2.9,5.2h-35.3v-5.2H134.2z M143.1,204l-5.6,24.8h-23.8l4.4-5.2
	c3.7,0.1,7.4-0.7,10.7-2.4c3.1-1.6,5.8-4,7.9-6.8c2.3-3.2,4.1-6.7,5.2-10.4L143.1,204z M129.8,172.9v11.7h-11.6v-0.2
	c2.8,0,5.5-1.1,7.4-3.1c1.9-2,3-4.6,2.9-7.4v-1L129.8,172.9z M129.8,189.2v11.7h-1.2v-1.1c0.1-2.7-1-5.4-2.9-7.3c-2-1.9-4.6-3-7.4-3
	v-0.2L129.8,189.2z M135.8,141.5v3.5l-14.8-1.3c1.9,0,3.8-0.1,5.7-0.4c2-0.2,3.8-0.5,5.5-0.9C133.3,142.3,134.5,142,135.8,141.5
	L135.8,141.5z M135.8,148.6v14.2h-1.2v-1.5c0.1-3.3-1.1-6.6-3.3-9c-2.4-2.3-5.7-3.6-9.1-3.5v-0.2L135.8,148.6z"/>
<path class="st2" d="M161,152.6h-0.4c-0.1-2-0.9-4-2.4-5.4c-1.4-1.5-3.4-2.3-5.4-2.2h-1.6v-1.2h9.7V152.6z M161,220v8.9h-9.7v-1.2
	h1.6c2,0,4-0.8,5.4-2.2c1.5-1.4,2.3-3.4,2.4-5.4H161z M178.9,143.8v85.1h-18.2v-85.2L178.9,143.8z M193,143.8
	c3.6,0,7.2,0.4,10.7,1.2c3.3,0.7,6.5,2.1,9.3,3.9c2.7,1.8,4.9,4.2,6.5,7c1.7,3.3,2.6,7.1,2.4,10.8c0,3.5-0.7,6.9-2.1,10.1
	c-1.4,3.4-3.7,6.3-6.5,8.6c-3.3,2.5-7.2,4-11.3,4.3c2.7,0.9,5.1,2.4,7.1,4.4c2,1.9,3.8,4,5.3,6.3c0.1,0.2,0.5,0.9,1.4,2.2l3.2,4.8
	c1.2,1.9,2.6,3.8,3.9,5.8s2.6,3.6,3.8,5.1c1.5,1.9,3.1,3.6,4.9,5.3c1.3,1.3,2.9,2.3,4.6,2.9c1.8,0.6,3.7,1,5.6,1v1.2h-11.9
	c-4,0-8-0.4-11.9-1.2c-3.4-0.7-6.6-2.1-9.5-4c-2.9-2-5.3-4.5-7.2-7.5c-0.8-1.2-1.5-2.4-2.1-3.7c-0.8-1.5-1.6-3.1-2.4-4.8
	c-0.8-1.7-1.6-3.3-2.4-4.9c-0.8-1.6-1.4-3-2-4.3c-0.6-1.3-1-2.3-1.2-3c-0.8-2.2-2.1-4.2-3.7-5.8c-1.3-1.2-2.8-2-4.6-2.3V186h3.8
	c2.2,0,4.4-0.5,6.4-1.3c2.2-1,4.1-2.5,5.5-4.4c1.8-2.5,3-5.3,3.4-8.4c0.2-0.7,0.3-1.6,0.4-2.6c0.1-1.1,0.1-2.2,0.1-3.3
	c-0.2-5.8-1.7-10.1-4.4-12.8c-2.6-2.7-6.2-4.2-10-4.2c-1.1-0.1-2.4-0.1-3.7-0.1s-2.6,0.1-3.6,0.1h-2.2c0-0.1-0.1-0.6-0.3-1.4
	s-0.5-2.2-0.9-3.9L193,143.8z M178.5,220h0.4c0,2,0.8,4,2.3,5.4c1.4,1.5,3.4,2.3,5.5,2.2h1.5v1.2h-9.6V220z"/>
<path class="st2" d="M259.4,152.6H238c-1-2.4-2.8-4.5-5-5.9c-1.7-1.1-3.7-1.7-5.8-1.8h-1v-1.2H265v1.2h-1.1c-1.6,0-3.1,0.8-4.1,2
	C258.6,148.3,258.4,150.2,259.4,152.6z M274.4,231.3l-40.2-86.8H256l25.9,63.3L274.4,231.3z M274.4,231.3l-0.4-14.8l30.9-72.3h8.8
	l-32.2,71.2c-0.2,0.5-0.5,1.4-1.2,2.7s-1.3,2.9-2,4.6s-1.4,3.4-1.9,4.9c-0.4,1.2-0.7,2.4-0.9,3.7H274.4z M301.3,152.6
	c1-2.4,0.9-4.3-0.4-5.6c-1.1-1.2-2.6-2-4.2-2h-1.1v-1.2h26v1.2h-1.1c-2,0.1-4,0.7-5.7,1.8c-2.2,1.4-3.9,3.5-4.9,5.9L301.3,152.6z"/>
<path class="st2" d="M333,152.6h-0.4c-0.1-2-0.9-4-2.4-5.4c-1.4-1.5-3.4-2.3-5.4-2.2h-1.6v-1.2h9.7V152.6z M333,220v8.9h-9.7v-1.2
	h1.6c2,0,4-0.8,5.4-2.2c1.5-1.4,2.3-3.4,2.4-5.4H333z M350.9,143.8v85.1h-18.2v-85.2L350.9,143.8z M350.5,152.6v-8.9h9.7v1.2h-1.6
	c-2,0-4,0.8-5.4,2.2c-1.5,1.4-2.3,3.4-2.4,5.4L350.5,152.6z M350.5,220h0.4c0.1,2,0.9,4,2.4,5.4c1.4,1.5,3.4,2.3,5.4,2.2h1.6v1.2
	h-9.7L350.5,220z"/>
<path class="st2" d="M450.6,193.3l1.1,20.9c-1.9,3.1-4.3,5.9-7.2,8.1c-3.3,2.6-7.1,4.6-11.2,5.9c-5.1,1.6-10.5,2.4-15.8,2.2
	c-9.9-0.1-18.6-1.9-26-5.4c-7.1-3.2-13-8.5-17.2-15.1c-4.1-6.6-6.1-14.5-6.1-23.8c0-9.1,2-16.9,6-23.5c4-6.7,10-12,17.1-15.2
	c7.4-3.6,16.2-5.4,26.5-5.4c5.9,0,11.7,0.6,17.4,2c4.5,1,8.8,2.6,12.8,4.7l0.2,20.8h-1.1c-2.2-8-5.8-13.7-10.7-17.2
	c-5.1-3.5-11.2-5.3-17.4-5.2c-5.9-0.2-11.7,1.5-16.7,4.7c-4.8,3.3-8.5,8-10.7,13.4c-2.5,5.8-3.8,12.6-3.8,20.7s1.2,15,3.6,20.8
	c2.1,5.4,5.6,10.1,10.2,13.6c4.5,3.3,10,5.1,15.6,5.1c6.2,0,11.5-1,15.8-3c4.4-2.2,8.1-5.7,10.4-10.1c2.6-4.7,4.6-11,5.9-19
	L450.6,193.3z"/>
<path class="st2" d="M472.1,152.6h-0.4c-0.1-2-0.9-4-2.4-5.4c-1.4-1.5-3.4-2.3-5.4-2.2h-1.6v-1.2h9.7L472.1,152.6z M472.1,219.9v8.9
	h-9.7v-1.2h1.6c2,0,4-0.8,5.4-2.2c1.5-1.4,2.3-3.4,2.4-5.4L472.1,219.9z M490,143.7v85.1h-18.2v-85.1H490z M489.6,152.6v-8.9h9.7
	v1.2h-1.6c-2,0-4,0.8-5.4,2.2c-1.5,1.4-2.3,3.4-2.4,5.4L489.6,152.6z M489.6,219.9h0.4c0.1,2,0.9,4,2.4,5.4c1.4,1.5,3.4,2.3,5.4,2.2
	h1.6v1.2h-9.7L489.6,219.9z"/>
<path class="st2" d="M555.7,142c9.7,0,18.2,1.8,25.3,5.4c6.9,3.4,12.7,8.7,16.7,15.3c3.9,6.6,5.9,14.4,5.9,23.6s-2,17-5.9,23.5
	c-3.9,6.6-9.7,12-16.7,15.3c-7.2,3.6-15.6,5.4-25.3,5.4c-9.7,0-18.2-1.8-25.3-5.4c-6.9-3.4-12.7-8.7-16.6-15.3
	c-3.9-6.6-5.8-14.4-5.8-23.6c0-9.2,1.9-17,5.8-23.5c3.9-6.6,9.7-12,16.6-15.3C537.5,143.8,545.9,142,555.7,142z M555.7,225.4
	c5.4,0.1,10.6-1.6,14.9-4.8c4.4-3.5,7.7-8.2,9.6-13.6c2.4-6.7,3.5-13.7,3.3-20.8c0.2-7.1-1-14.1-3.3-20.8c-1.9-5.3-5.2-10-9.6-13.6
	c-8.9-6.4-20.8-6.4-29.7,0c-4.4,3.5-7.8,8.2-9.7,13.6c-2.4,6.7-3.6,13.7-3.4,20.8c0,8,1.1,14.9,3.4,20.8c1.9,5.3,5.2,10,9.7,13.6
	C545.1,223.8,550.3,225.5,555.7,225.4L555.7,225.4z"/>
<path class="st2" d="M642.5,142c1.6,0,3.6,0.1,6,0.2c2.4,0.2,4.9,0.4,7.4,0.7s4.8,0.6,6.7,0.9c1.3,0.1,2.7,0.5,4,0.9l-1.5,16.4h-1.2
	c0.1-3.9-1.6-7.6-4.7-10.1c-3.1-2.5-7.3-3.8-12.5-3.8c-4.7,0-8.5,1.1-11.4,3.4c-2.7,1.9-4.4,5-4.6,8.3c-0.1,2.3,0.7,4.6,2.3,6.3
	c1.8,1.9,3.9,3.6,6.2,5l23.2,15.1c7.4,3.9,11.7,11.9,10.9,20.2c-0.4,7.9-3.5,14.1-9.1,18.5c-5.7,4.4-13.4,6.6-23.1,6.6
	c-3.5,0-7-0.3-10.4-0.9c-3.1-0.5-6.1-1.4-8.9-2.6c-2.3-0.9-4.4-2.2-6.2-3.9c-0.7-2.1-1-4.3-0.8-6.4c0.1-2.6,0.5-5.2,1.1-7.7
	c0.6-2.3,1.4-4.4,2.6-6.4h1.1c-0.3,4,0.5,8,2.3,11.5c1.8,3.5,4.6,6.4,8,8.4c3.8,2.2,8.2,3.2,12.6,3c5.3-0.1,9.5-1.4,12.4-4.1
	c2.8-2.4,4.4-5.9,4.4-9.6c0-2.5-0.8-4.8-2.2-6.8c-2-2.4-4.5-4.4-7.4-5.8l-21.3-14.1c-4-2.1-7.2-5.4-9.4-9.4
	c-1.9-3.8-2.7-8.1-2.2-12.4c0.2-4,1.5-7.8,3.7-11.1c2.2-3.2,5.2-5.8,8.7-7.5C633.4,142.8,637.9,141.9,642.5,142z M666.7,143.2
	l-0.2,2.6h-14.4v-2.6H666.7z"/>
<path class="st2" d="M10.4,290.8v-2.6h5.8v22.3h-2.8v-19.7H10.4z"/>
<path class="st2" d="M21,310.2c-0.7-0.8-0.7-2,0-2.7c0.4-0.4,0.8-0.6,1.3-0.6c0.5,0,1,0.2,1.3,0.6c0.7,0.8,0.7,1.9,0,2.7
	c-0.3,0.4-0.8,0.6-1.3,0.6C21.8,310.8,21.4,310.6,21,310.2z"/>
<path class="st2" d="M48.7,299.8c-1.2,1.2-3.1,1.8-5.6,1.8H39v9h-2.8v-21.5h6.9c2-0.1,4,0.5,5.5,1.8
	C51.2,293.3,51.2,297.4,48.7,299.8C48.7,299.9,48.7,299.9,48.7,299.8L48.7,299.8z M46.6,298.3c0.8-0.8,1.2-1.8,1.1-2.9
	c0-2.7-1.5-4-4.6-4H39v7.9h4.1C44.4,299.4,45.6,299,46.6,298.3z"/>
<path class="st2" d="M69.4,303.2H55.9c0,2.9,2.4,5.3,5.3,5.3c0.1,0,0.1,0,0.2,0c1.1,0,2.1-0.3,3-0.8c0.8-0.6,1.4-1.4,1.7-2.3h3
	c-0.4,1.6-1.4,3-2.7,4c-1.5,1.1-3.3,1.6-5.1,1.5c-1.5,0-3-0.3-4.3-1.1c-1.3-0.7-2.3-1.8-3-3.1c-0.7-1.4-1.1-3-1-4.7
	c0-1.6,0.3-3.2,1-4.6c0.7-1.3,1.7-2.3,2.9-3c1.3-0.7,2.8-1.1,4.4-1.1c1.5,0,3,0.3,4.3,1c1.2,0.7,2.2,1.7,2.8,2.9
	c0.7,1.3,1,2.7,1,4.1C69.5,302.1,69.4,302.6,69.4,303.2z M65.9,298.2c-0.5-0.8-1.1-1.4-1.9-1.8c-0.8-0.4-1.8-0.6-2.7-0.6
	c-1.3,0-2.6,0.5-3.6,1.4c-1,1-1.7,2.3-1.7,3.8h10.7C66.6,299.9,66.4,299,65.9,298.2L65.9,298.2z"/>
<path class="st2" d="M75.7,310.2c-1-0.4-1.8-1-2.4-1.9c-0.6-0.8-0.9-1.7-1-2.7h2.9c0.1,0.8,0.5,1.6,1.2,2.1c0.8,0.6,1.8,0.9,2.8,0.8
	c0.9,0.1,1.8-0.2,2.5-0.7c0.6-0.4,0.9-1.1,0.9-1.8c0-0.7-0.4-1.4-1-1.7c-1-0.5-2-0.8-3-1.1c-1-0.3-2.1-0.6-3.1-1
	c-0.8-0.3-1.5-0.9-2-1.5c-1.1-1.5-1.1-3.5-0.1-5c0.5-0.8,1.3-1.4,2.1-1.7c1-0.4,2.1-0.7,3.2-0.6c1.6-0.1,3.2,0.4,4.5,1.4
	c1.2,1,1.8,2.4,1.8,3.9h-2.8c0-0.8-0.4-1.6-1.1-2.1c-0.7-0.6-1.7-0.8-2.6-0.8c-0.8,0-1.7,0.2-2.4,0.6c-0.6,0.4-0.9,1-0.9,1.7
	c0,0.5,0.2,1,0.5,1.4c0.4,0.4,0.9,0.7,1.4,0.9c0.5,0.2,1.3,0.5,2.3,0.7c1,0.3,2,0.6,3,1c0.8,0.3,1.5,0.8,2,1.4
	c0.6,0.7,0.9,1.6,0.8,2.5c0,0.9-0.3,1.8-0.8,2.5c-0.6,0.8-1.3,1.4-2.2,1.8c-1,0.4-2.1,0.7-3.2,0.6C78,310.9,76.8,310.7,75.7,310.2z"
	/>
<path class="st2" d="M92.7,296v10c-0.1,0.6,0.1,1.3,0.5,1.8c0.5,0.4,1.2,0.6,1.8,0.5h2.1v2.4h-2.5c-1.3,0.1-2.5-0.3-3.5-1.1
	c-0.9-1-1.3-2.3-1.2-3.5v-10h-2.2v-2.3h2.2v-4.3h2.8v4.3h4.4v2.3H92.7z"/>
<path class="st2" d="M100.5,297.5c0.7-1.2,1.7-2.3,2.9-3c1.2-0.7,2.7-1.1,4.1-1.1c1.4,0,2.7,0.3,3.8,1c1,0.6,1.9,1.4,2.4,2.4v-3.1
	h2.8v16.9h-2.8v-3.1c-0.6,1-1.4,1.9-2.5,2.5c-1.2,0.7-2.5,1-3.8,1c-1.4,0-2.8-0.4-4.1-1.1c-1.2-0.8-2.2-1.8-2.9-3.1
	c-0.7-1.4-1.1-3-1.1-4.6C99.4,300.6,99.8,298.9,100.5,297.5z M113,298.8c-0.5-0.9-1.2-1.7-2.1-2.2c-0.9-0.5-1.9-0.8-2.9-0.8
	c-1,0-2,0.2-2.9,0.7c-0.9,0.5-1.6,1.3-2.1,2.2c-0.5,1-0.8,2.2-0.8,3.3c0,1.2,0.2,2.3,0.8,3.4c0.5,0.9,1.2,1.7,2.1,2.2
	c0.9,0.5,1.9,0.8,2.9,0.8c1,0,2-0.2,2.9-0.8c0.9-0.5,1.6-1.3,2.1-2.2c0.5-1,0.8-2.2,0.8-3.4C113.8,300.9,113.5,299.8,113,298.8z"/>
<path class="st2" d="M134.6,295.2c1.4,1.5,2,3.4,1.9,5.4v10h-2.8V301c0.1-1.4-0.4-2.8-1.3-3.9c-0.9-0.9-2.2-1.4-3.5-1.3
	c-1.3-0.1-2.6,0.4-3.5,1.4c-0.9,1.1-1.4,2.6-1.3,4v9.3h-2.8v-16.9h2.8v2.4c0.6-0.9,1.3-1.6,2.3-2c1-0.5,2.1-0.7,3.2-0.7
	C131.4,293.3,133.2,294,134.6,295.2z M125.4,289.4c0.5-0.5,1.2-0.8,2-0.8c0.3,0,0.7,0.1,1,0.2c0.3,0.1,0.6,0.3,1,0.6
	c0.2,0.2,0.5,0.3,0.8,0.5c0.2,0.1,0.5,0.2,0.7,0.2c0.3,0,0.7-0.1,0.9-0.3c0.3-0.3,0.4-0.6,0.5-1h1.6c-0.1,0.9-0.4,1.7-1,2.4
	c-0.5,0.5-1.3,0.8-2.1,0.8c-0.3,0-0.7-0.1-1-0.2c-0.4-0.2-0.7-0.4-1-0.6c-0.3-0.2-0.6-0.4-0.8-0.5c-0.2-0.1-0.4-0.2-0.7-0.2
	c-0.3,0-0.6,0.1-0.9,0.3c-0.3,0.3-0.4,0.6-0.4,1h-1.6C124.5,290.9,124.8,290.1,125.4,289.4z"/>
<path class="st2" d="M141.1,297.5c0.7-1.3,1.7-2.3,2.9-3c1.2-0.7,2.7-1.1,4.1-1.1c1.4,0,2.7,0.3,3.9,1c1,0.6,1.9,1.4,2.4,2.4v-3.1
	h2.8v16.9h-2.8v-3.1c-0.6,1-1.5,1.9-2.5,2.5c-1.2,0.7-2.5,1-3.9,1c-2.9,0-5.6-1.6-6.9-4.2c-0.7-1.4-1-3-1-4.6
	C140,300.6,140.4,299,141.1,297.5z M153.6,298.8c-0.5-0.9-1.2-1.7-2.1-2.2c-1.8-1-4-1-5.8,0c-0.9,0.5-1.6,1.3-2.1,2.2
	c-0.5,1-0.8,2.2-0.8,3.3c0,1.2,0.2,2.3,0.8,3.4c0.5,0.9,1.2,1.7,2.1,2.2c1.8,1,4,1,5.8,0c0.9-0.5,1.6-1.3,2.1-2.2
	c0.5-1,0.8-2.2,0.8-3.4C154.4,300.9,154.1,299.8,153.6,298.8L153.6,298.8z"/>
<path class="st2" d="M164.4,310.2c-1-0.4-1.8-1-2.4-1.9c-0.6-0.8-0.9-1.7-1-2.7h2.9c0.1,0.8,0.5,1.6,1.2,2.1
	c0.8,0.6,1.8,0.9,2.8,0.8c0.9,0.1,1.8-0.2,2.5-0.7c0.6-0.4,0.9-1.1,0.9-1.8c0-0.7-0.4-1.4-1-1.7c-1-0.5-2-0.8-3.1-1.1
	c-1-0.3-2.1-0.6-3.1-1c-0.8-0.3-1.5-0.9-2-1.5c-0.6-0.7-0.9-1.7-0.9-2.6c0-0.9,0.3-1.7,0.8-2.4c0.6-0.8,1.3-1.4,2.2-1.7
	c1-0.4,2.1-0.7,3.2-0.6c1.6-0.1,3.2,0.4,4.5,1.4c1.2,1,1.8,2.4,1.9,3.9h-2.8c0-0.8-0.4-1.6-1.1-2.1c-0.7-0.6-1.7-0.9-2.6-0.8
	c-0.9,0-1.7,0.2-2.4,0.6c-0.6,0.4-0.9,1-0.9,1.7c0,0.5,0.2,1,0.5,1.4c0.4,0.4,0.8,0.7,1.4,0.9c0.6,0.2,1.3,0.5,2.3,0.7
	c1,0.3,2,0.6,3,1c0.8,0.3,1.5,0.8,2,1.4c0.6,0.7,0.9,1.6,0.9,2.5c0,0.9-0.3,1.8-0.8,2.5c-0.6,0.8-1.3,1.4-2.2,1.8
	c-1,0.4-2.1,0.7-3.2,0.6C166.8,310.9,165.6,310.7,164.4,310.2z"/>
<path class="st2" d="M191.6,294.4c1.2-0.7,2.5-1,3.8-1c1.4,0,2.8,0.4,4.1,1.1c1.2,0.7,2.2,1.7,2.9,3c0.7,1.4,1.1,3,1.1,4.5
	c0,1.6-0.3,3.1-1.1,4.6c-1.3,2.6-4,4.3-7,4.2c-1.3,0-2.7-0.3-3.8-1c-1-0.6-1.9-1.4-2.5-2.4v11.1h-2.8v-24.8h2.8v3.1
	C189.7,295.8,190.5,294.9,191.6,294.4z M199.8,298.7c-0.5-0.9-1.2-1.7-2.1-2.2c-0.9-0.5-1.9-0.8-2.9-0.7c-1,0-2,0.3-2.9,0.8
	c-0.9,0.5-1.6,1.3-2.1,2.2c-1,2.1-1,4.6,0,6.7c0.5,0.9,1.2,1.7,2.1,2.2c0.9,0.5,1.9,0.8,2.9,0.8c1,0,2-0.2,2.9-0.8
	c0.9-0.5,1.6-1.3,2.1-2.2c0.5-1,0.8-2.2,0.8-3.4C200.6,300.9,200.3,299.8,199.8,298.7L199.8,298.7z"/>
<path class="st2" d="M222.5,303.2H209c0,2.9,2.4,5.3,5.3,5.3c0.1,0,0.1,0,0.2,0c1.1,0,2.1-0.3,3-0.8c0.8-0.6,1.4-1.4,1.7-2.3h3
	c-0.4,1.6-1.4,3-2.7,4c-1.5,1.1-3.3,1.6-5.1,1.5c-1.5,0-3-0.3-4.3-1.1c-1.3-0.7-2.3-1.8-3-3.1c-0.7-1.4-1.1-3-1.1-4.6
	c-0.1-1.6,0.3-3.2,1-4.6c0.7-1.3,1.7-2.3,2.9-3c1.3-0.7,2.8-1.1,4.4-1.1c1.5,0,3,0.3,4.2,1c1.2,0.7,2.2,1.7,2.9,2.9
	c0.7,1.3,1,2.7,1,4.1C222.5,302.1,222.5,302.6,222.5,303.2z M218.9,298.2c-0.5-0.8-1.1-1.4-1.9-1.8c-0.8-0.4-1.8-0.6-2.7-0.6
	c-1.3,0-2.6,0.5-3.6,1.4c-1,1-1.7,2.3-1.7,3.8h10.7C219.7,299.9,219.4,299,218.9,298.2L218.9,298.2z"/>
<path class="st2" d="M229.1,287.8v22.8h-2.8v-22.8H229.1z"/>
<path class="st2" d="M236.9,309.8c-1.3-0.7-2.3-1.8-3-3.1c-0.8-1.4-1.1-3-1.1-4.6c0-1.6,0.4-3.2,1.1-4.6c0.7-1.3,1.8-2.3,3.1-3
	c2.7-1.4,6-1.4,8.7,0c1.3,0.7,2.3,1.7,3.1,3c0.8,1.4,1.2,3,1.1,4.6c0,1.6-0.4,3.2-1.1,4.6c-0.7,1.3-1.8,2.4-3.1,3.1
	c-1.3,0.7-2.9,1.1-4.4,1.1C239.7,310.9,238.2,310.5,236.9,309.8z M244.1,307.7c0.9-0.5,1.6-1.2,2.1-2.1c1.1-2.2,1.1-4.7,0-6.9
	c-0.5-0.9-1.2-1.6-2.1-2.1c-0.9-0.5-1.8-0.7-2.8-0.7c-1,0-2,0.2-2.8,0.7c-0.9,0.5-1.6,1.2-2,2.1c-0.5,1.1-0.8,2.3-0.8,3.5
	c0,1.2,0.2,2.4,0.8,3.5c0.4,0.9,1.1,1.6,2,2.1c0.9,0.5,1.8,0.7,2.8,0.7C242.2,308.4,243.2,308.1,244.1,307.7L244.1,307.7z"/>
<path class="st2" d="M261.8,297.5c0.7-1.2,1.7-2.3,2.9-3c1.2-0.7,2.7-1.1,4.1-1.1c1.4,0,2.7,0.3,3.9,1c1,0.6,1.9,1.4,2.4,2.4v-3.1
	h2.8v16.9h-2.8v-3.1c-0.6,1-1.4,1.9-2.5,2.5c-1.2,0.7-2.5,1-3.8,1c-1.4,0-2.8-0.4-4.1-1.1c-1.2-0.8-2.2-1.8-2.9-3.1
	c-0.7-1.4-1.1-3-1-4.6C260.7,300.6,261.1,298.9,261.8,297.5z M274.3,298.8c-0.5-0.9-1.2-1.7-2.1-2.2c-0.9-0.5-1.9-0.8-2.9-0.8
	c-1,0-2,0.2-2.9,0.7c-0.9,0.5-1.6,1.3-2.1,2.2c-0.5,1-0.8,2.2-0.8,3.3c0,1.2,0.2,2.3,0.8,3.4c0.5,0.9,1.2,1.7,2.1,2.2
	c0.9,0.5,1.9,0.8,2.9,0.8c1,0,2-0.2,2.9-0.8c0.9-0.5,1.6-1.3,2.1-2.2c0.5-1,0.8-2.2,0.8-3.4C275.1,300.9,274.8,299.8,274.3,298.8z"
	/>
<path class="st2" d="M296.2,294.4c1.2-0.7,2.5-1,3.8-1c1.4,0,2.9,0.4,4.1,1.1c1.2,0.7,2.2,1.8,2.9,3c0.7,1.4,1.1,3,1,4.5
	c0,1.6-0.3,3.1-1,4.6c-1.3,2.6-4,4.3-7,4.2c-1.3,0-2.7-0.3-3.8-1c-1-0.6-1.9-1.4-2.5-2.4v11.1h-2.8v-24.8h2.8v3.1
	C294.3,295.8,295.1,294.9,296.2,294.4z M304.4,298.7c-0.5-0.9-1.2-1.7-2.1-2.2c-1.8-1-4-1-5.7,0c-0.9,0.5-1.6,1.3-2.1,2.2
	c-1.1,2.1-1.1,4.6,0,6.7c0.5,0.9,1.2,1.7,2.1,2.2c1.8,1,4,1,5.7,0c0.9-0.5,1.6-1.3,2.1-2.2c0.5-1,0.8-2.2,0.8-3.4
	C305.2,300.9,304.9,299.8,304.4,298.7L304.4,298.7z"/>
<path class="st2" d="M327.1,303.2h-13.5c0,1.5,0.6,2.9,1.7,3.9c1,0.9,2.4,1.4,3.8,1.4c1.1,0,2.1-0.3,3-0.8c0.8-0.6,1.4-1.4,1.7-2.3
	h3c-0.4,1.6-1.4,3-2.7,4c-1.5,1.1-3.3,1.6-5.1,1.5c-1.5,0-3-0.3-4.3-1.1c-1.3-0.7-2.3-1.8-3-3.1c-0.7-1.4-1.1-3-1.1-4.6
	c0-1.6,0.3-3.2,1-4.6c0.7-1.3,1.7-2.3,3-3c1.3-0.7,2.8-1.1,4.4-1.1c1.5,0,3,0.3,4.3,1c1.2,0.7,2.2,1.7,2.9,2.9c0.7,1.3,1,2.7,1,4.1
	C327.1,302.1,327.1,302.6,327.1,303.2z M323.6,298.2c-0.5-0.8-1.1-1.4-1.9-1.8c-0.8-0.4-1.8-0.6-2.7-0.6c-1.3,0-2.6,0.5-3.6,1.4
	c-1,1-1.7,2.3-1.7,3.8h10.7C324.3,299.9,324.1,299,323.6,298.2L323.6,298.2z"/>
<path class="st2" d="M333.7,287.8v22.8h-2.8v-22.8H333.7z"/>
<path class="st2" d="M341.5,309.8c-1.3-0.7-2.3-1.8-3-3.1c-0.8-1.4-1.1-3-1.1-4.6c0-1.6,0.4-3.2,1.1-4.6c0.7-1.3,1.8-2.3,3.1-3
	c2.7-1.4,6-1.4,8.7,0c1.3,0.7,2.3,1.7,3.1,3c0.8,1.4,1.2,3,1.1,4.6c0,1.6-0.4,3.2-1.2,4.6c-0.7,1.3-1.8,2.4-3.1,3.1
	c-1.3,0.7-2.9,1.1-4.4,1.1C344.3,310.9,342.8,310.5,341.5,309.8z M348.7,307.7c0.9-0.5,1.6-1.2,2.1-2.1c0.6-1.1,0.9-2.2,0.8-3.5
	c0-1.2-0.2-2.4-0.8-3.5c-0.5-0.9-1.2-1.6-2.1-2.1c-1.8-0.9-3.9-0.9-5.6,0c-0.9,0.5-1.5,1.2-2,2.1c-1,2.2-1,4.7,0,6.9
	c0.4,0.9,1.1,1.6,2,2.1c0.8,0.5,1.8,0.7,2.8,0.7C346.8,308.4,347.8,308.1,348.7,307.7L348.7,307.7z"/>
<path class="st2" d="M376.9,281.5l-8.5,34.3h-2.8l8.4-34.3H376.9z"/>
<path class="st2" d="M407.1,289.1l-8.1,21.5h-3.2l-8.1-21.5h3l6.8,18.5l6.8-18.5H407.1z"/>
<path class="st2" d="M413.3,309.8c-1.3-0.7-2.3-1.8-3-3.1c-0.8-1.4-1.1-3-1.1-4.6c0-1.6,0.4-3.2,1.1-4.6c0.7-1.3,1.8-2.3,3.1-3
	c2.7-1.4,6-1.4,8.7,0c1.3,0.7,2.3,1.7,3.1,3c0.8,1.4,1.2,3,1.1,4.6c0,1.6-0.4,3.2-1.2,4.6c-0.7,1.3-1.8,2.4-3.1,3.1
	c-1.3,0.7-2.9,1.1-4.4,1.1C416.1,310.9,414.6,310.5,413.3,309.8z M420.4,307.7c0.9-0.5,1.6-1.2,2.1-2.1c0.6-1.1,0.9-2.2,0.8-3.5
	c0-1.2-0.2-2.4-0.8-3.5c-0.5-0.9-1.2-1.6-2.1-2.1c-1.8-0.9-3.9-0.9-5.6,0c-0.9,0.5-1.6,1.2-2,2.1c-1,2.2-1,4.7,0,6.9
	c0.4,0.9,1.1,1.6,2,2.1c0.8,0.5,1.8,0.7,2.8,0.7C418.5,308.4,419.5,308.1,420.4,307.7L420.4,307.7z"/>
<path class="st2" d="M432.7,287.8v22.8h-2.8v-22.8H432.7z"/>
<path class="st2" d="M452.5,293.7v16.9h-2.8v-2.5c-0.5,0.9-1.3,1.6-2.2,2c-1,0.5-2.1,0.7-3.2,0.7c-1.2,0-2.4-0.3-3.5-0.8
	c-1.1-0.5-1.9-1.4-2.5-2.5c-0.6-1.2-1-2.6-0.9-4v-9.9h2.8v9.5c-0.1,1.4,0.4,2.8,1.3,3.8c2,1.8,5,1.8,7,0c0.9-1.1,1.4-2.5,1.3-4v-9.3
	H452.5z"/>
<path class="st2" d="M481.1,294.2c1,0.6,1.9,1.4,2.4,2.5c0.6,1.2,0.9,2.6,0.9,4v10h-2.8V301c0.1-1.4-0.3-2.8-1.2-3.9
	c-0.9-0.9-2.1-1.4-3.4-1.3c-1.3-0.1-2.6,0.4-3.5,1.4c-0.9,1.1-1.4,2.6-1.3,4.1v9.3h-2.8V301c0.1-1.4-0.4-2.8-1.2-3.9
	c-0.9-0.9-2.1-1.4-3.4-1.3c-1.3-0.1-2.6,0.4-3.5,1.4c-0.9,1.1-1.4,2.6-1.3,4.1v9.3h-2.8v-16.9h2.8v2.4c0.5-0.9,1.3-1.6,2.2-2
	c1-0.5,2-0.7,3.1-0.7c1.3,0,2.6,0.3,3.8,1c1.1,0.6,2,1.6,2.4,2.8c0.4-1.2,1.3-2.1,2.3-2.8c1.1-0.7,2.4-1,3.6-1
	C478.8,293.4,480,293.6,481.1,294.2z"/>
<path class="st2" d="M504.4,303.2h-13.5c0,1.5,0.6,2.9,1.7,3.9c1,0.9,2.4,1.4,3.8,1.4c1.1,0,2.1-0.3,3-0.8c0.8-0.6,1.4-1.4,1.7-2.3
	h3c-0.4,1.6-1.4,3-2.7,4c-1.5,1.1-3.3,1.6-5.1,1.5c-1.5,0-3-0.3-4.3-1.1c-1.3-0.7-2.3-1.8-3-3.1c-0.7-1.4-1.1-3-1.1-4.6
	c-0.1-1.6,0.3-3.2,1-4.6c0.7-1.3,1.7-2.3,3-3c1.3-0.7,2.8-1.1,4.4-1.1c1.5,0,3,0.3,4.3,1c1.2,0.7,2.2,1.7,2.9,2.9
	c0.7,1.3,1,2.7,1,4.1C504.4,302.1,504.4,302.6,504.4,303.2z M500.8,298.2c-0.5-0.8-1.1-1.4-1.9-1.8c-0.8-0.4-1.8-0.6-2.7-0.6
	c-1.3,0-2.6,0.5-3.6,1.4c-1,1-1.7,2.3-1.7,3.8h10.7C501.6,299.9,501.3,299,500.8,298.2L500.8,298.2z"/>
<path class="st2" d="M521.4,295.2c1.4,1.5,2,3.4,1.9,5.4v10h-2.8V301c0.1-1.4-0.4-2.8-1.3-3.9c-0.9-0.9-2.2-1.4-3.5-1.3
	c-1.3-0.1-2.6,0.4-3.5,1.4c-0.9,1.1-1.4,2.6-1.3,4v9.3h-2.8v-16.9h2.9v2.4c0.6-0.9,1.3-1.6,2.3-2c1-0.5,2.1-0.7,3.2-0.7
	C518.3,293.3,520,294,521.4,295.2z"/>
<path class="st2" d="M541,294.2c1-0.6,2.2-0.8,3.3-0.8v2.9h-0.8c-3.1,0-4.7,1.7-4.7,5.1v9.2h-2.8v-16.9h2.8v2.7
	C539.4,295.5,540.1,294.7,541,294.2z"/>
<path class="st2" d="M562.6,293.7v16.9h-2.8v-2.5c-0.5,0.9-1.3,1.6-2.2,2c-1,0.5-2.1,0.7-3.2,0.7c-1.2,0-2.5-0.3-3.5-0.8
	c-1.1-0.5-1.9-1.4-2.5-2.5c-0.6-1.2-1-2.6-0.9-4v-9.9h2.8v9.5c-0.1,1.4,0.4,2.8,1.3,3.8c0.9,0.9,2.2,1.4,3.5,1.3
	c1.3,0.1,2.6-0.4,3.5-1.4c0.9-1.1,1.4-2.5,1.3-4v-9.3L562.6,293.7z"/>
<path class="st2" d="M569.9,310.2c-1-0.4-1.8-1-2.4-1.9c-0.6-0.8-0.9-1.7-1-2.7h2.9c0.1,0.8,0.5,1.6,1.2,2.1
	c0.8,0.6,1.8,0.9,2.8,0.8c0.9,0.1,1.8-0.2,2.5-0.7c0.6-0.4,0.9-1.1,0.9-1.8c0-0.7-0.4-1.4-1-1.7c-1-0.5-2-0.8-3-1.1
	c-1-0.3-2.1-0.6-3.1-1c-0.8-0.3-1.5-0.9-2-1.5c-1.1-1.5-1.1-3.5-0.1-5c0.6-0.8,1.3-1.4,2.2-1.7c1-0.4,2.1-0.7,3.2-0.6
	c1.6-0.1,3.2,0.4,4.5,1.4c1.2,1,1.8,2.4,1.8,3.9h-2.8c0-0.8-0.4-1.6-1.1-2.1c-0.7-0.6-1.7-0.8-2.6-0.8c-0.8,0-1.7,0.2-2.4,0.6
	c-0.6,0.4-0.9,1-0.9,1.7c0,0.5,0.2,1,0.5,1.4c0.4,0.4,0.9,0.7,1.4,0.9c0.5,0.2,1.3,0.5,2.3,0.7c1,0.3,2,0.6,3,1
	c0.8,0.3,1.5,0.8,2,1.4c0.6,0.7,0.9,1.6,0.8,2.5c0,0.9-0.3,1.8-0.8,2.5c-0.6,0.8-1.3,1.4-2.2,1.8c-1,0.4-2.1,0.7-3.2,0.6
	C572.2,310.9,571,310.7,569.9,310.2z"/>
<path class="st2" d="M586.5,309.8c-1.3-0.7-2.3-1.8-3-3.1c-0.8-1.4-1.1-3-1.1-4.6c0-1.6,0.4-3.2,1.1-4.6c0.7-1.3,1.8-2.3,3.1-3
	c2.7-1.4,6-1.4,8.7,0c1.3,0.7,2.3,1.7,3.1,3c0.8,1.4,1.2,3,1.1,4.6c0,1.6-0.4,3.2-1.2,4.6c-0.7,1.3-1.8,2.4-3.1,3.1
	c-1.3,0.7-2.9,1.1-4.4,1.1C589.3,310.9,587.9,310.5,586.5,309.8z M593.7,307.7c0.9-0.5,1.6-1.2,2.1-2.1c0.6-1.1,0.9-2.2,0.8-3.5
	c0-1.2-0.2-2.4-0.8-3.5c-0.5-0.9-1.2-1.6-2.1-2.1c-1.8-0.9-3.9-0.9-5.6,0c-0.9,0.5-1.6,1.2-2,2.1c-1,2.2-1,4.7,0,6.9
	c0.4,0.9,1.1,1.6,2,2.1c0.8,0.5,1.8,0.7,2.8,0.7C591.8,308.4,592.8,308.1,593.7,307.7L593.7,307.7z"/>
<path class="st2" d="M17,340.2c1.4-1.3,2.7-2.7,3.7-4.2c0.9-1.3,1.5-2.8,1.5-4.3c0.1-1.1-0.3-2.3-1-3.2c-0.8-0.8-2-1.3-3.1-1.1
	c-1.2-0.1-2.4,0.4-3.2,1.3c-0.8,1-1.3,2.2-1.2,3.5h-2.7c0-2,0.7-3.9,2.1-5.3c1.4-1.3,3.2-2,5.1-1.9c1.8-0.1,3.6,0.5,5,1.8
	c1.3,1.3,2,3,1.9,4.8c0,1.8-0.5,3.5-1.5,5c-1,1.6-2.1,3-3.5,4.2c-1.3,1.2-3,2.6-5,4.3h10.6v2.3H10.8v-2
	C13.4,343.2,15.5,341.5,17,340.2z"/>
<path class="st2" d="M28.9,347.2c-0.7-0.8-0.7-2,0-2.7c0.4-0.4,0.8-0.6,1.4-0.6c0.5,0,1,0.2,1.3,0.6c0.7,0.8,0.7,1.9,0,2.7
	c-0.3,0.4-0.8,0.6-1.3,0.6C29.7,347.8,29.2,347.6,28.9,347.2z"/>
<path class="st2" d="M46.9,345.3h7.5v2.3H44.1v-21.5h2.8V345.3z"/>
<path class="st2" d="M57.5,327.4c-0.7-0.8-0.7-2,0-2.7c0.4-0.4,0.8-0.6,1.4-0.6c0.5,0,1,0.2,1.3,0.6c0.7,0.8,0.7,1.9,0,2.7
	c-0.3,0.4-0.8,0.6-1.3,0.6C58.3,327.9,57.8,327.7,57.5,327.4z M60.2,330.7v16.9h-2.8v-16.9H60.2z"/>
<path class="st2" d="M71.9,333h-3.6v14.6h-2.8V333h-2.2v-2.3h2.2v-1.2c-0.1-1.5,0.4-3.1,1.5-4.2c1-0.9,2.5-1.3,4.7-1.3v2.3
	c-0.9-0.1-1.9,0.2-2.6,0.7c-0.6,0.7-0.8,1.5-0.8,2.4v1.2h3.6L71.9,333z"/>
<path class="st2" d="M78.6,333v10c-0.1,0.6,0.1,1.3,0.5,1.7c0.5,0.4,1.2,0.6,1.8,0.5H83v2.4h-2.6c-1.3,0.1-2.5-0.3-3.5-1.1
	c-0.9-1-1.3-2.2-1.2-3.5v-10h-2.2v-2.3h2.2v-4.3h2.8v4.3H83v2.3H78.6z"/>
<path class="st2" d="M86.4,327.4c-0.7-0.8-0.7-2,0-2.7c0.4-0.4,0.8-0.6,1.4-0.6c0.5,0,1,0.2,1.3,0.6c0.7,0.8,0.7,1.9,0,2.7
	c-0.3,0.4-0.8,0.6-1.3,0.6C87.3,327.9,86.8,327.7,86.4,327.4z M89.2,330.7v16.9h-2.8v-16.9H89.2z"/>
<path class="st2" d="M107.2,332.2c1.4,1.5,2,3.4,1.9,5.4v10h-2.8V338c0.1-1.4-0.4-2.8-1.3-3.9c-0.9-0.9-2.2-1.4-3.4-1.3
	c-1.3-0.1-2.6,0.4-3.5,1.4c-0.9,1.1-1.4,2.5-1.3,4v9.3h-2.8v-16.9h2.8v2.4c0.6-0.9,1.3-1.6,2.3-2c1-0.5,2.1-0.7,3.2-0.7
	C104,330.3,105.8,330.9,107.2,332.2z"/>
<path class="st2" d="M124.5,331.4c1,0.6,1.9,1.4,2.4,2.4v-3.1h2.8V348c0,1.4-0.3,2.9-1,4.1c-0.7,1.2-1.6,2.2-2.8,2.8
	c-1.3,0.7-2.8,1-4.3,1c-2,0.1-3.9-0.5-5.6-1.6c-1.4-1-2.4-2.6-2.6-4.3h2.8c0.3,1,1,1.9,1.9,2.5c1,0.6,2.3,1,3.5,0.9
	c1.4,0.1,2.8-0.5,3.8-1.5c1-1.1,1.6-2.6,1.5-4.1v-3.6c-0.6,1-1.4,1.9-2.5,2.5c-1.2,0.7-2.5,1-3.8,1c-3,0.1-5.7-1.6-7-4.2
	c-0.7-1.4-1.1-3-1.1-4.6c0-1.6,0.3-3.1,1.1-4.5c0.7-1.3,1.7-2.3,2.9-3c1.2-0.7,2.7-1.1,4.1-1.1C122,330.4,123.3,330.7,124.5,331.4z
	 M126.2,335.8c-0.5-0.9-1.2-1.7-2.1-2.2c-0.9-0.5-1.9-0.8-2.9-0.8c-1,0-2,0.2-2.9,0.7c-0.9,0.5-1.6,1.3-2.1,2.2
	c-0.5,1-0.8,2.2-0.8,3.3c0,1.2,0.2,2.3,0.8,3.4c0.5,0.9,1.2,1.7,2.1,2.2c0.9,0.5,1.9,0.8,2.9,0.8c1,0,2-0.2,2.9-0.8
	c0.9-0.5,1.6-1.3,2.1-2.2c0.5-1,0.8-2.2,0.8-3.4C127,337.9,126.7,336.8,126.2,335.8z"/>
<path class="st2" d="M142.8,334.5c0.7-1.2,1.7-2.3,2.9-3c1.3-0.7,2.7-1.1,4.1-1.1c1.3,0,2.5,0.3,3.7,0.9c1.1,0.5,1.9,1.4,2.6,2.4
	v-8.9h2.8v22.8H156v-3.2c-0.6,1-1.4,1.9-2.5,2.5c-1.2,0.7-2.5,1-3.8,1c-3,0.1-5.7-1.6-7-4.2c-0.7-1.4-1-3-1-4.6
	C141.7,337.5,142,335.9,142.8,334.5z M155.2,335.8c-0.5-0.9-1.2-1.7-2.1-2.2c-0.9-0.5-1.9-0.8-2.9-0.8c-1,0-2,0.2-2.9,0.7
	c-0.9,0.5-1.6,1.3-2.1,2.2c-0.5,1-0.8,2.2-0.8,3.3c0,1.2,0.2,2.3,0.8,3.4c0.5,0.9,1.2,1.7,2.1,2.2c0.9,0.5,1.9,0.8,2.9,0.8
	c1,0,2-0.2,2.9-0.8c0.9-0.5,1.6-1.3,2.1-2.2c0.5-1,0.8-2.2,0.8-3.4C156,337.9,155.8,336.8,155.2,335.8z"/>
<path class="st2" d="M178.9,340.2h-13.5c0,2.9,2.4,5.3,5.3,5.3c0.1,0,0.1,0,0.2,0c1.1,0,2.1-0.3,3-0.8c0.8-0.6,1.4-1.3,1.7-2.3h3
	c-0.4,1.6-1.4,3-2.7,4c-1.5,1.1-3.3,1.6-5.1,1.5c-1.5,0-3-0.3-4.3-1.1c-1.3-0.7-2.3-1.8-3-3.1c-0.7-1.4-1.1-3-1.1-4.6
	c0-1.6,0.3-3.2,1.1-4.6c0.7-1.3,1.7-2.3,2.9-3c1.3-0.7,2.8-1.1,4.4-1.1c1.5,0,3,0.3,4.3,1c1.2,0.7,2.2,1.7,2.9,2.9
	c0.7,1.3,1,2.7,1,4.1C179,339.1,179,339.6,178.9,340.2z M175.4,335.2c-0.5-0.8-1.1-1.4-1.9-1.8c-0.8-0.4-1.8-0.6-2.7-0.6
	c-1.3,0-2.6,0.5-3.6,1.4c-1,1-1.7,2.3-1.7,3.8h10.7C176.2,337,175.9,336,175.4,335.2L175.4,335.2z"/>
<path class="st2" d="M196.3,331.4c1.2-0.7,2.5-1,3.8-1c1.4,0,2.8,0.4,4.1,1.1c1.2,0.7,2.2,1.7,2.9,3c0.7,1.4,1,3,1,4.5
	c0,1.6-0.3,3.1-1,4.6c-1.3,2.6-4,4.3-7,4.2c-1.3,0-2.7-0.3-3.8-1c-1-0.6-1.9-1.4-2.5-2.4v11.2H191v-24.9h2.8v3.1
	C194.4,332.8,195.2,332,196.3,331.4z M204.5,335.7c-0.5-0.9-1.2-1.7-2.1-2.2c-0.9-0.5-1.9-0.7-2.9-0.7c-1,0-2,0.3-2.9,0.8
	c-0.9,0.5-1.6,1.3-2.1,2.2c-1.1,2.1-1.1,4.6,0,6.7c0.5,0.9,1.2,1.7,2.1,2.2c0.9,0.5,1.9,0.8,2.9,0.8c1,0,2-0.2,2.9-0.8
	c0.9-0.5,1.6-1.3,2.1-2.2c0.5-1,0.8-2.2,0.8-3.4C205.3,337.9,205,336.8,204.5,335.7z"/>
<path class="st2" d="M227.1,340.2h-13.5c0,1.5,0.6,2.9,1.7,3.9c1,0.9,2.4,1.4,3.8,1.4c1.1,0,2.1-0.3,3-0.8c0.8-0.5,1.4-1.3,1.7-2.3
	h3c-0.4,1.6-1.4,3-2.7,4c-1.5,1.1-3.2,1.6-5.1,1.5c-1.5,0-3-0.3-4.3-1.1c-1.3-0.7-2.3-1.8-3-3.1c-0.7-1.4-1.1-3-1.1-4.6
	c-0.1-1.6,0.3-3.2,1-4.6c0.7-1.3,1.7-2.3,2.9-3c1.3-0.7,2.8-1.1,4.4-1.1c1.5,0,3,0.3,4.2,1c1.2,0.7,2.2,1.7,2.9,2.9
	c0.7,1.3,1,2.7,1,4.1C227.1,339.1,227.2,339.6,227.1,340.2z M223.6,335.2c-0.5-0.8-1.1-1.4-1.9-1.8c-0.8-0.4-1.8-0.6-2.7-0.6
	c-1.3,0-2.6,0.5-3.6,1.4c-1,1-1.7,2.3-1.7,3.8h10.7C224.4,337,224.1,336,223.6,335.2L223.6,335.2z"/>
<path class="st2" d="M233.4,347.2c-1-0.4-1.8-1-2.4-1.9c-0.6-0.8-0.9-1.7-1-2.7h2.9c0.1,0.8,0.5,1.6,1.2,2.1
	c0.8,0.6,1.8,0.9,2.8,0.8c0.9,0.1,1.8-0.2,2.5-0.7c0.6-0.4,0.9-1.1,0.9-1.8c0-0.7-0.4-1.4-1-1.6c-1-0.5-2-0.8-3.1-1.1
	c-1-0.3-2.1-0.6-3.1-1c-0.8-0.3-1.5-0.9-2-1.5c-0.6-0.7-0.9-1.7-0.9-2.6c0-0.9,0.3-1.7,0.8-2.4c0.6-0.8,1.3-1.3,2.2-1.7
	c1-0.4,2.1-0.7,3.2-0.6c1.6-0.1,3.2,0.4,4.5,1.4c1.2,1,1.8,2.4,1.9,3.9h-2.8c0-0.8-0.4-1.6-1.1-2.1c-0.7-0.6-1.7-0.8-2.6-0.8
	c-0.9,0-1.7,0.2-2.4,0.6c-0.6,0.4-0.9,1-0.9,1.7c0,0.5,0.2,1,0.5,1.4c0.4,0.4,0.9,0.7,1.4,0.9c0.7,0.3,1.5,0.5,2.3,0.7
	c1,0.3,2,0.6,3,1c0.8,0.3,1.5,0.8,2,1.4c0.6,0.7,0.9,1.6,0.9,2.5c0,0.9-0.3,1.8-0.8,2.5c-0.6,0.8-1.3,1.4-2.2,1.8
	c-1,0.4-2.1,0.7-3.2,0.6C235.8,347.9,234.6,347.7,233.4,347.2z"/>
<path class="st2" d="M250.5,333v10c-0.1,0.6,0.1,1.3,0.5,1.7c0.5,0.4,1.2,0.6,1.8,0.5h2.1v2.4h-2.5c-1.3,0.1-2.5-0.3-3.5-1.1
	c-0.9-1-1.3-2.2-1.2-3.5v-10h-2.2v-2.3h2.2v-4.3h2.8v4.3h4.4v2.3H250.5z"/>
<path class="st2" d="M258.3,334.5c0.7-1.3,1.7-2.3,2.9-3c1.2-0.7,2.6-1.1,4.1-1.1c1.4,0,2.7,0.3,3.9,1c1,0.6,1.9,1.4,2.4,2.4v-3.1
	h2.8v16.9h-2.8v-3.1c-0.6,1-1.5,1.9-2.5,2.5c-1.2,0.7-2.5,1-3.8,1c-1.4,0-2.8-0.4-4.1-1.1c-1.2-0.8-2.2-1.8-2.9-3.1
	c-0.7-1.4-1.1-3-1-4.6C257.2,337.6,257.5,336,258.3,334.5z M270.8,335.8c-0.5-0.9-1.2-1.7-2.1-2.2c-0.9-0.5-1.9-0.8-2.9-0.8
	c-1,0-2,0.2-2.9,0.7c-0.9,0.5-1.6,1.3-2.1,2.2c-0.5,1-0.8,2.2-0.8,3.3c0,1.2,0.2,2.3,0.8,3.4c1,1.8,2.9,3,4.9,2.9c1,0,2-0.2,2.9-0.8
	c0.9-0.5,1.6-1.3,2.1-2.2c0.5-1,0.8-2.2,0.8-3.4C271.6,337.9,271.3,336.8,270.8,335.8z"/>
<path class="st2" d="M292.3,332.2c1.4,1.4,2.1,3.4,1.9,5.4v10h-2.8V338c0.1-1.4-0.4-2.8-1.3-3.9c-0.9-0.9-2.2-1.4-3.5-1.3
	c-1.3-0.1-2.6,0.4-3.5,1.4c-0.9,1.1-1.4,2.5-1.3,4v9.3h-2.8v-16.9h2.8v2.4c0.6-0.9,1.3-1.6,2.3-2c1-0.5,2.1-0.7,3.2-0.7
	C289.2,330.3,291,330.9,292.3,332.2z M283.2,326.5c0.5-0.6,1.3-0.9,2-0.8c0.3,0,0.7,0.1,1,0.2c0.3,0.1,0.6,0.3,1,0.6
	c0.2,0.2,0.5,0.3,0.8,0.5c0.2,0.1,0.5,0.2,0.7,0.2c0.3,0,0.6-0.1,0.9-0.3c0.3-0.3,0.4-0.6,0.5-1h1.6c-0.1,0.9-0.4,1.7-1,2.4
	c-0.5,0.5-1.3,0.8-2.1,0.8c-0.3,0-0.7-0.1-1-0.2c-0.4-0.2-0.7-0.4-1-0.6c-0.3-0.2-0.6-0.4-0.8-0.5c-0.2-0.1-0.5-0.2-0.7-0.2
	c-0.3,0-0.6,0.1-0.9,0.3c-0.3,0.3-0.4,0.6-0.5,1h-1.6C282.2,328,282.6,327.1,283.2,326.5L283.2,326.5z"/>
<path class="st2" d="M298.9,334.5c0.7-1.3,1.7-2.3,2.9-3c1.2-0.7,2.6-1.1,4.1-1.1c1.4,0,2.7,0.3,3.9,1c1,0.6,1.9,1.4,2.4,2.4v-3.1
	h2.9v16.9h-2.8v-3.1c-0.6,1-1.4,1.9-2.5,2.5c-1.2,0.7-2.5,1-3.8,1c-1.4,0-2.8-0.4-4.1-1.1c-1.2-0.8-2.2-1.8-2.9-3.1
	c-0.7-1.4-1.1-3-1-4.6C297.8,337.6,298.1,336,298.9,334.5z M311.3,335.8c-0.5-0.9-1.2-1.7-2.1-2.2c-0.9-0.5-1.9-0.8-2.9-0.8
	c-1,0-2,0.2-2.9,0.7c-0.9,0.5-1.6,1.3-2.1,2.2c-0.5,1-0.8,2.2-0.8,3.3c0,1.2,0.2,2.3,0.8,3.4c1,1.8,2.9,3,4.9,2.9c1,0,2-0.2,2.9-0.8
	c0.9-0.5,1.6-1.3,2.1-2.2c0.5-1,0.8-2.2,0.8-3.4C312.1,337.9,311.9,336.8,311.3,335.8z"/>
<path class="st2" d="M322.2,347.2c-1-0.4-1.8-1-2.4-1.9c-0.6-0.8-0.9-1.7-1-2.7h2.9c0.1,0.8,0.5,1.6,1.2,2.1
	c0.8,0.6,1.8,0.9,2.8,0.8c0.9,0.1,1.8-0.2,2.5-0.7c0.6-0.4,0.9-1.1,0.9-1.8c0-0.7-0.4-1.3-1-1.6c-1-0.5-2-0.8-3-1.1
	c-1-0.3-2.1-0.6-3.1-1c-0.8-0.3-1.5-0.9-2-1.5c-1.1-1.5-1.1-3.5-0.1-5c0.6-0.8,1.3-1.4,2.2-1.7c1-0.4,2.1-0.7,3.2-0.6
	c1.6-0.1,3.2,0.4,4.5,1.4c1.2,1,1.8,2.4,1.9,3.9h-2.8c0-0.8-0.4-1.6-1.1-2.1c-1.5-1-3.4-1.1-5-0.2c-0.6,0.4-0.9,1-0.9,1.7
	c0,0.5,0.2,1,0.5,1.4c0.4,0.4,0.9,0.7,1.4,0.9c0.7,0.3,1.5,0.5,2.3,0.7c1,0.3,2,0.6,3,1c0.8,0.3,1.4,0.8,2,1.4
	c0.6,0.7,0.9,1.6,0.9,2.5c0,0.9-0.3,1.8-0.8,2.5c-0.5,0.8-1.3,1.4-2.2,1.8c-1,0.4-2.1,0.7-3.2,0.6
	C324.5,347.9,323.3,347.7,322.2,347.2z"/>
<path class="st2" d="M335.3,347.2c-0.7-0.8-0.7-2,0-2.7c0.4-0.4,0.8-0.6,1.3-0.6c0.5,0,1,0.2,1.3,0.6c0.7,0.8,0.7,1.9,0,2.7
	c-0.3,0.4-0.8,0.6-1.3,0.6C336.2,347.8,335.7,347.6,335.3,347.2z"/>
<path class="st2" d="M13.3,363.5c1.5-1.1,3.3-1.7,5.1-1.6c1.2,0,2.5,0.2,3.6,0.8c1,0.4,1.8,1.2,2.3,2c0.5,0.9,0.8,1.9,0.8,2.9
	c0,1.2-0.4,2.4-1.1,3.3c-0.7,0.9-1.7,1.5-2.9,1.8v0.1c1.3,0.3,2.4,1,3.2,2c0.8,1.1,1.2,2.4,1.2,3.8c0,1.1-0.3,2.2-0.8,3.2
	c-0.6,1-1.4,1.7-2.4,2.2c-1.2,0.6-2.5,0.8-3.9,0.8c-1.9,0-3.8-0.6-5.3-1.8c-1.4-1.2-2.3-3-2.3-4.9h2.7c0.1,1.2,0.7,2.2,1.5,3
	c1,0.8,2.2,1.2,3.5,1.2c1.2,0.1,2.4-0.3,3.3-1.1c0.8-0.8,1.2-1.8,1.1-2.9c0.1-1.3-0.5-2.5-1.5-3.3c-1.4-0.8-3-1.1-4.7-1h-0.7v-2.3
	h0.7c1.5,0.1,3-0.3,4.3-1c1-0.6,1.5-1.7,1.5-2.8c0-1-0.4-1.9-1.1-2.6c-0.8-0.7-1.9-1.1-3-1c-1.1,0-2.2,0.3-3.1,1
	c-0.8,0.7-1.3,1.6-1.4,2.7h-2.8C11.2,366.2,12,364.6,13.3,363.5z"/>
<path class="st2" d="M29.3,384.2c-0.7-0.8-0.7-2,0-2.7c0.4-0.4,0.8-0.6,1.4-0.6c0.5,0,1,0.2,1.3,0.6c0.7,0.8,0.7,1.9,0,2.7
	c-0.3,0.4-0.8,0.6-1.3,0.6C30.2,384.8,29.7,384.6,29.3,384.2z"/>
<path class="st2" d="M57.3,364.4c1.7,0.8,3,2.1,4,3.7c0.9,1.8,1.4,3.7,1.4,5.7c0.1,2-0.4,4-1.4,5.7c-0.9,1.6-2.3,2.9-4,3.7
	c-1.9,0.9-4,1.3-6.1,1.3h-6.7v-21.5h6.7C53.3,363,55.4,363.5,57.3,364.4z M57.5,380.1c1.5-1.7,2.3-3.9,2.2-6.2
	c0.1-2.3-0.7-4.6-2.2-6.3c-1.7-1.6-4-2.4-6.3-2.2h-3.9v16.9h3.9C54,382.3,56.1,381.5,57.5,380.1z"/>
<path class="st2" d="M81.6,377.2H68.1c0,1.5,0.6,2.9,1.7,3.9c1,0.9,2.4,1.4,3.8,1.4c1.1,0,2.1-0.3,3-0.9c0.8-0.6,1.4-1.3,1.7-2.3h3
	c-0.4,1.6-1.4,3-2.7,4c-1.5,1.1-3.3,1.6-5.1,1.5c-1.5,0-3-0.3-4.3-1.1c-1.3-0.7-2.3-1.8-3-3.1c-0.7-1.4-1.1-3-1.1-4.6
	c-0.1-1.6,0.3-3.2,1-4.6c0.7-1.3,1.7-2.3,3-3c1.3-0.7,2.8-1.1,4.4-1.1c1.5,0,3,0.3,4.3,1c1.2,0.7,2.2,1.7,2.8,2.9
	c0.7,1.3,1,2.7,1,4.1C81.7,376.1,81.7,376.6,81.6,377.2z M78.1,372.2c-0.5-0.8-1.1-1.4-1.9-1.8c-0.8-0.4-1.8-0.6-2.7-0.6
	c-1.3,0-2.6,0.5-3.6,1.4c-1,1-1.7,2.3-1.7,3.8h10.7C78.9,374,78.6,373,78.1,372.2L78.1,372.2z"/>
<path class="st2" d="M90.7,368.4c1.2-0.7,2.5-1,3.8-1c1.4,0,2.8,0.4,4.1,1.1c1.2,0.7,2.2,1.8,2.9,3c0.7,1.4,1,3,1,4.5
	c0,1.6-0.3,3.1-1,4.6c-1.3,2.6-4,4.3-7,4.2c-1.3,0-2.7-0.3-3.8-1c-1-0.6-1.9-1.4-2.5-2.4v11.1h-2.8v-24.8h2.8v3.1
	C88.8,369.8,89.7,369,90.7,368.4z M98.9,372.8c-0.5-0.9-1.2-1.7-2.1-2.2c-0.9-0.5-1.9-0.7-2.9-0.7c-1,0-2,0.3-2.8,0.8
	c-0.9,0.5-1.6,1.3-2.1,2.2c-0.5,1-0.8,2.2-0.8,3.3c0,1.2,0.2,2.3,0.8,3.4c0.5,0.9,1.2,1.7,2.1,2.2c0.9,0.5,1.9,0.8,2.8,0.8
	c1,0,2-0.2,2.9-0.8c0.9-0.5,1.6-1.3,2.1-2.2c0.5-1,0.8-2.2,0.8-3.4C99.7,374.9,99.5,373.8,98.9,372.8z"/>
<path class="st2" d="M106.4,364.4c-0.7-0.8-0.7-2,0-2.7c0.4-0.4,0.8-0.6,1.3-0.6c0.5,0,1,0.2,1.3,0.6c0.7,0.8,0.7,1.9,0,2.7
	c-0.3,0.4-0.8,0.6-1.3,0.6C107.2,365,106.7,364.8,106.4,364.4z M109.1,367.7v16.9h-2.8v-16.9H109.1z"/>
<path class="st2" d="M116.7,361.8v22.8h-2.8v-22.8H116.7z"/>
<path class="st2" d="M121.4,371.5c0.7-1.2,1.7-2.3,2.9-3c1.2-0.7,2.7-1.1,4.1-1.1c1.4,0,2.7,0.3,3.9,1c1,0.6,1.9,1.4,2.4,2.4v-3.1
	h2.8v16.9h-2.8v-3.1c-0.6,1-1.4,1.9-2.5,2.5c-1.2,0.7-2.5,1-3.8,1c-1.4,0-2.8-0.4-4.1-1.1c-1.2-0.8-2.2-1.8-2.9-3.1
	c-0.7-1.4-1-3-1-4.6C120.4,374.6,120.7,373,121.4,371.5z M133.9,372.8c-0.5-0.9-1.2-1.7-2.1-2.2c-1.8-1-4-1-5.8,0
	c-0.9,0.5-1.6,1.3-2.1,2.2c-0.5,1-0.8,2.2-0.8,3.3c0,1.2,0.2,2.3,0.8,3.4c0.5,0.9,1.2,1.7,2.1,2.2c0.9,0.5,1.9,0.8,2.9,0.8
	c1,0,2-0.2,2.9-0.8c0.9-0.5,1.6-1.3,2.1-2.2c0.5-1,0.8-2.2,0.8-3.4C134.7,375,134.5,373.8,133.9,372.8z"/>
<path class="st2" d="M142.3,371.5c0.7-1.3,1.7-2.3,2.9-3c3-1.6,6.6-1.4,9.4,0.4c1.4,1,2.3,2.5,2.7,4.2h-3c-0.3-1-0.8-1.9-1.7-2.4
	c-0.9-0.6-2-0.9-3.1-0.9c-1.5,0-2.9,0.6-3.9,1.6c-1.1,1.3-1.6,3-1.5,4.7c-0.1,1.7,0.4,3.4,1.5,4.7c1,1.1,2.4,1.7,3.9,1.7
	c1.1,0,2.2-0.3,3.1-0.9c0.8-0.6,1.4-1.5,1.7-2.5h3c-0.4,1.7-1.4,3.1-2.7,4.1c-1.5,1.1-3.3,1.6-5.1,1.6c-1.5,0-3-0.3-4.3-1.1
	c-1.2-0.7-2.2-1.8-2.9-3c-0.7-1.4-1.1-3-1.1-4.6C141.2,374.5,141.6,373,142.3,371.5z"/>
<path class="st2" d="M161.1,364.4c-0.7-0.8-0.7-2,0-2.7c0.4-0.4,0.8-0.6,1.3-0.6c0.5,0,1,0.2,1.3,0.6c0.7,0.8,0.7,1.9,0,2.7
	c-0.3,0.4-0.8,0.6-1.3,0.6C162,365,161.5,364.8,161.1,364.4z M163.8,367.7v16.9H161v-16.9H163.8z"/>
<path class="st2" d="M171.7,383.8c-1.3-0.7-2.3-1.8-3-3.1c-0.8-1.4-1.1-3-1.1-4.6c0-1.6,0.4-3.2,1.1-4.6c0.7-1.3,1.8-2.3,3.1-3
	c2.7-1.4,6-1.4,8.7,0c1.3,0.7,2.3,1.7,3.1,3c1.5,2.9,1.5,6.3,0,9.2c-0.7,1.3-1.8,2.4-3.1,3.1c-1.3,0.7-2.9,1.1-4.4,1.1
	C174.5,384.9,173,384.5,171.7,383.8z M178.8,381.7c0.9-0.5,1.6-1.2,2.1-2.1c1.1-2.2,1.1-4.7,0-6.9c-0.5-0.9-1.2-1.6-2.1-2.1
	c-0.9-0.5-1.8-0.7-2.8-0.7c-1,0-2,0.2-2.8,0.7c-0.9,0.5-1.6,1.2-2.1,2.1c-0.6,1.1-0.8,2.3-0.8,3.5c0,1.2,0.2,2.4,0.8,3.5
	c0.4,0.9,1.1,1.6,2,2.1c0.9,0.5,1.8,0.7,2.8,0.7C176.9,382.4,177.9,382.2,178.8,381.7z M179.1,362.7l-6.6,3.5v-2.1l6.6-3.9V362.7z"
	/>
<path class="st2" d="M201.6,369.2c1.4,1.5,2,3.4,1.9,5.4v10h-2.8V375c0.1-1.4-0.4-2.8-1.3-3.9c-0.9-0.9-2.2-1.4-3.5-1.3
	c-1.3-0.1-2.6,0.4-3.5,1.4c-0.9,1.1-1.4,2.5-1.3,4v9.3h-2.8v-16.9h2.8v2.4c0.6-0.9,1.3-1.6,2.3-2c1-0.5,2.1-0.7,3.2-0.7
	C198.4,367.3,200.2,368,201.6,369.2z"/>
<path class="st2" d="M216.3,371.5c0.7-1.3,1.7-2.3,2.9-3c3-1.6,6.6-1.4,9.4,0.4c1.4,1,2.3,2.5,2.7,4.2h-3c-0.3-1-0.9-1.9-1.7-2.4
	c-0.9-0.6-2-0.9-3.1-0.9c-1.5,0-2.9,0.6-3.9,1.6c-1.1,1.3-1.6,3-1.5,4.7c-0.1,1.7,0.4,3.4,1.5,4.7c1,1.1,2.4,1.7,3.9,1.7
	c1.1,0,2.2-0.3,3.1-0.9c0.8-0.6,1.4-1.5,1.7-2.5h3c-0.4,1.7-1.4,3.1-2.7,4.1c-1.5,1.1-3.3,1.6-5.1,1.6c-1.5,0-3-0.3-4.3-1.1
	c-1.2-0.7-2.2-1.8-2.9-3c-0.7-1.4-1.1-3-1-4.6C215.3,374.6,215.6,373,216.3,371.5z"/>
<path class="st2" d="M238.1,383.8c-1.3-0.7-2.3-1.8-3-3.1c-0.8-1.4-1.1-3-1.1-4.6c0-1.6,0.4-3.2,1.1-4.6c0.7-1.3,1.8-2.3,3.1-3
	c2.7-1.4,6-1.4,8.7,0c1.3,0.7,2.3,1.7,3.1,3c1.5,2.9,1.5,6.3,0,9.2c-0.7,1.3-1.8,2.4-3.1,3.1c-1.3,0.7-2.9,1.1-4.4,1.1
	C240.9,384.9,239.4,384.5,238.1,383.8z M245.2,381.7c0.9-0.5,1.6-1.2,2.1-2.1c0.6-1.1,0.9-2.3,0.8-3.5c0-1.2-0.2-2.4-0.8-3.5
	c-0.5-0.9-1.2-1.6-2.1-2.1c-1.8-0.9-3.9-0.9-5.6,0c-0.9,0.5-1.6,1.2-2.1,2.1c-0.5,1.1-0.8,2.3-0.8,3.5c0,1.2,0.2,2.4,0.8,3.5
	c0.4,0.9,1.1,1.6,2,2.1c0.9,0.5,1.8,0.7,2.8,0.7C243.4,382.4,244.4,382.2,245.2,381.7z"/>
<path class="st2" d="M268,369.2c1.4,1.5,2,3.4,1.9,5.4v10h-2.8V375c0.1-1.4-0.4-2.8-1.3-3.9c-0.9-0.9-2.2-1.4-3.5-1.3
	c-1.3-0.1-2.6,0.4-3.5,1.4c-0.9,1.1-1.4,2.5-1.3,4v9.3h-2.8v-16.9h2.8v2.4c0.6-0.9,1.3-1.6,2.3-2c1-0.5,2.1-0.7,3.2-0.7
	C264.9,367.3,266.7,368,268,369.2z"/>
<path class="st2" d="M294.6,368.2c1,0.6,1.9,1.4,2.4,2.5c0.6,1.2,0.9,2.6,0.9,4v10h-2.8V375c0.1-1.4-0.4-2.8-1.3-3.9
	c-0.9-0.9-2.2-1.4-3.5-1.3c-1.3-0.1-2.6,0.4-3.5,1.4c-0.9,1.1-1.4,2.5-1.3,4v9.3h-2.8v-22.8h2.8v8.3c0.6-0.9,1.4-1.6,2.3-2
	c1-0.5,2.1-0.7,3.3-0.7C292.3,367.4,293.5,367.7,294.6,368.2z"/>
<path class="st2" d="M302.6,364.4c-0.7-0.8-0.7-2,0-2.7c0.4-0.4,0.8-0.6,1.4-0.6c0.5,0,1,0.2,1.3,0.6c0.7,0.8,0.7,1.9,0,2.7
	c-0.3,0.4-0.8,0.6-1.3,0.6C303.4,365,302.9,364.8,302.6,364.4z M305.3,367.7v16.9h-2.8v-16.9H305.3z"/>
<path class="st2" d="M312.9,361.8v22.8h-2.8v-22.8H312.9z"/>
<path class="st2" d="M320.7,383.8c-1.3-0.7-2.3-1.8-3-3.1c-0.8-1.4-1.1-3-1.1-4.6c0-1.6,0.4-3.2,1.1-4.6c0.7-1.3,1.8-2.3,3.1-3
	c2.7-1.4,6-1.4,8.7,0c1.3,0.7,2.3,1.7,3.1,3c1.5,2.9,1.5,6.3,0,9.2c-0.7,1.3-1.8,2.4-3.1,3.1c-1.3,0.7-2.9,1.1-4.4,1.1
	C323.6,384.9,322.1,384.5,320.7,383.8z M327.9,381.7c0.9-0.5,1.6-1.2,2.1-2.1c1.1-2.2,1.1-4.7,0-6.9c-0.5-0.9-1.2-1.6-2.1-2.1
	c-0.9-0.5-1.8-0.7-2.8-0.7c-1,0-2,0.2-2.8,0.7c-0.9,0.5-1.6,1.2-2,2.1c-0.6,1.1-0.8,2.3-0.8,3.5c0,1.2,0.2,2.4,0.8,3.5
	c0.4,0.9,1.1,1.6,2,2.1c0.9,0.5,1.8,0.7,2.8,0.7C326,382.4,327,382.2,327.9,381.7L327.9,381.7z"/>
<path class="st2" d="M336.9,384.2c-0.7-0.8-0.7-2,0.1-2.7c0.3-0.3,0.8-0.5,1.2-0.5c0.5,0,1,0.2,1.3,0.6c0.7,0.8,0.7,1.9,0,2.7
	c-0.3,0.4-0.8,0.6-1.3,0.6C337.8,384.8,337.3,384.6,336.9,384.2z"/>
<path class="st2" d="M10.5,416.6v-2.1l10.8-15h3.4v14.7h3.1v2.4h-3.1v5h-2.8v-5H10.5z M22,402.5l-8.3,11.8H22V402.5z"/>
<path class="st2" d="M30.6,421.2c-0.7-0.8-0.7-2,0.1-2.7c0.3-0.3,0.8-0.5,1.3-0.5c0.5,0,1,0.2,1.3,0.6c0.7,0.8,0.7,1.9,0,2.7
	c-0.3,0.4-0.8,0.6-1.3,0.6C31.4,421.8,30.9,421.6,30.6,421.2z"/>
<path class="st2" d="M46.1,405.2c0.9-1.6,2.3-3,3.9-3.9c1.7-1,3.5-1.4,5.5-1.4c2.2-0.1,4.3,0.5,6.1,1.7c1.8,1.1,3.1,2.8,3.8,4.8H62
	c-0.5-1.2-1.4-2.3-2.6-3c-1.2-0.7-2.6-1.1-4-1c-1.4,0-2.8,0.3-4,1c-1.2,0.7-2.2,1.8-2.8,3c-1.4,2.8-1.4,6.2,0,9
	c0.6,1.2,1.6,2.3,2.8,3c1.2,0.7,2.6,1.1,4,1c1.4,0,2.8-0.3,4-1c1.1-0.7,2-1.8,2.6-3h3.4c-0.7,2-2.1,3.6-3.8,4.8
	c-1.8,1.1-4,1.7-6.1,1.7c-1.9,0-3.8-0.5-5.5-1.4c-1.6-0.9-3-2.3-3.9-3.9c-1-1.7-1.4-3.7-1.4-5.6C44.6,408.9,45.1,406.9,46.1,405.2z"
	/>
<path class="st2" d="M84.9,414.2H71.4c0,2.9,2.4,5.3,5.3,5.3c0.1,0,0.1,0,0.2,0c1.1,0,2.1-0.3,3-0.9c0.8-0.6,1.4-1.3,1.7-2.3h3
	c-0.4,1.6-1.4,3-2.7,4c-1.5,1.1-3.3,1.6-5.1,1.5c-1.5,0-3-0.3-4.3-1.1c-1.3-0.7-2.3-1.8-3-3.1c-0.7-1.4-1.1-3-1.1-4.6
	c0-1.6,0.3-3.2,1.1-4.6c0.7-1.3,1.7-2.3,2.9-3c1.3-0.7,2.8-1.1,4.4-1.1c1.5,0,3,0.3,4.3,1c1.2,0.6,2.3,1.6,3,2.8
	c0.7,1.3,1,2.7,1,4.1C85,413.1,84.9,413.6,84.9,414.2z M81.4,409.2c-0.5-0.8-1.1-1.4-1.9-1.8c-0.8-0.4-1.8-0.6-2.7-0.6
	c-1.3,0-2.6,0.5-3.6,1.4c-1,1-1.6,2.3-1.7,3.8h10.7C82.1,411,81.9,410,81.4,409.2L81.4,409.2z"/>
<path class="st2" d="M91.6,425.3c0.1,1.2-0.3,2.4-1.1,3.3c-0.9,0.8-2.1,1.1-3.3,1h-1.6v-2.4h1.2c0.6,0.1,1.2-0.1,1.7-0.5
	c0.4-0.4,0.5-1,0.5-1.6v-20.5h2.8L91.6,425.3z M88.8,401.4c-0.7-0.8-0.7-1.9,0-2.7c0.7-0.7,1.9-0.7,2.7,0c0,0,0,0,0,0
	c0.7,0.8,0.7,1.9,0,2.7C90.8,402.1,89.6,402.1,88.8,401.4C88.8,401.4,88.8,401.4,88.8,401.4z"/>
<path class="st2" d="M96.3,408.5c0.7-1.2,1.7-2.3,2.9-3c1.2-0.7,2.6-1.1,4.1-1.1c1.4,0,2.7,0.3,3.9,1c1,0.6,1.9,1.4,2.4,2.4v-3.2
	h2.8v16.9h-2.8v-3.1c-0.6,1-1.5,1.9-2.5,2.5c-1.2,0.7-2.5,1-3.8,1c-1.4,0-2.8-0.4-4.1-1.1c-1.2-0.8-2.2-1.8-2.9-3.1
	c-0.7-1.4-1-3-1-4.6C95.3,411.5,95.6,410,96.3,408.5z M108.8,409.8c-0.5-0.9-1.2-1.7-2.1-2.2c-0.9-0.5-1.9-0.8-2.9-0.8
	c-1,0-2,0.2-2.9,0.7c-0.9,0.5-1.6,1.3-2.1,2.2c-0.5,1-0.8,2.2-0.8,3.3c0,1.2,0.2,2.3,0.8,3.4c1,1.8,2.9,3,4.9,2.9c1,0,2-0.2,2.9-0.8
	c0.9-0.5,1.6-1.3,2.1-2.2c0.5-1,0.8-2.2,0.8-3.4C109.6,412,109.3,410.8,108.8,409.8z"/>
<path class="st2" d="M119.7,421.2c-1-0.4-1.8-1-2.4-1.9c-0.6-0.8-0.9-1.7-1-2.7h2.9c0.1,0.8,0.5,1.6,1.2,2.1
	c0.8,0.6,1.8,0.9,2.8,0.8c0.9,0,1.8-0.2,2.5-0.7c0.6-0.4,0.9-1.1,0.9-1.8c0-0.7-0.4-1.3-1-1.6c-1-0.5-2-0.8-3-1.1
	c-1-0.3-2.1-0.6-3.1-1c-0.8-0.3-1.5-0.9-2-1.5c-1.1-1.5-1.1-3.5-0.1-5c0.6-0.8,1.3-1.4,2.2-1.7c1-0.4,2.1-0.7,3.2-0.6
	c1.6-0.1,3.2,0.4,4.5,1.4c1.2,1,1.8,2.4,1.8,3.9h-2.8c0-0.8-0.4-1.6-1.1-2.1c-1.5-1-3.4-1.1-5-0.1c-0.6,0.4-0.9,1-0.9,1.7
	c0,0.5,0.2,1,0.5,1.4c0.4,0.4,0.9,0.7,1.4,0.9c0.7,0.3,1.5,0.5,2.3,0.7c1,0.3,2,0.6,3,1c0.8,0.3,1.5,0.8,2,1.4
	c0.6,0.7,0.9,1.6,0.8,2.5c0,0.9-0.3,1.8-0.8,2.5c-0.5,0.8-1.3,1.4-2.2,1.7c-1,0.4-2.1,0.7-3.2,0.6
	C122.1,421.9,120.8,421.7,119.7,421.2z"/>
<path class="st2" d="M165.3,405.2c1,0.6,1.9,1.4,2.4,2.5c0.6,1.2,0.9,2.6,0.9,4v10h-2.8V412c0.1-1.4-0.4-2.8-1.2-3.9
	c-0.9-0.9-2.1-1.4-3.4-1.3c-1.3-0.1-2.6,0.4-3.5,1.4c-0.9,1.1-1.4,2.6-1.3,4.1v9.3h-2.8V412c0.1-1.4-0.4-2.8-1.2-3.9
	c-0.9-0.9-2.1-1.4-3.4-1.3c-1.3-0.1-2.6,0.5-3.5,1.4c-0.9,1.1-1.4,2.6-1.3,4.1v9.3h-2.8v-16.9h2.8v2.4c0.5-0.9,1.3-1.6,2.2-2
	c1-0.5,2-0.7,3.1-0.7c1.3,0,2.6,0.3,3.8,1c1.1,0.6,2,1.6,2.4,2.8c0.4-1.2,1.3-2.1,2.3-2.8c1.1-0.7,2.4-1,3.6-1
	C163,404.4,164.2,404.7,165.3,405.2z"/>
<path class="st2" d="M173.4,401.4c-0.7-0.8-0.7-2,0-2.7c0.4-0.4,0.8-0.6,1.3-0.6c0.5,0,1,0.2,1.3,0.6c0.7,0.8,0.7,1.9,0,2.7
	c-0.3,0.4-0.8,0.6-1.3,0.6C174.2,402,173.7,401.8,173.4,401.4z M176.1,404.7v16.9h-2.8v-16.9L176.1,404.7z"/>
<path class="st2" d="M180.9,408.5c0.7-1.3,1.7-2.3,2.9-3c3-1.6,6.6-1.4,9.4,0.4c1.4,1,2.3,2.5,2.7,4.2h-3c-0.3-1-0.9-1.8-1.7-2.4
	c-0.9-0.6-2-0.9-3.1-0.9c-1.5-0.1-2.9,0.6-3.9,1.6c-1.1,1.3-1.6,3-1.5,4.7c-0.1,1.7,0.4,3.4,1.5,4.7c1,1.1,2.4,1.7,3.9,1.7
	c1.1,0,2.2-0.3,3.1-0.9c0.8-0.6,1.4-1.5,1.7-2.5h3c-0.4,1.6-1.4,3.1-2.7,4.1c-1.5,1.1-3.3,1.6-5.1,1.6c-1.5,0-3-0.3-4.3-1.1
	c-1.2-0.7-2.3-1.8-2.9-3c-0.7-1.4-1.1-3-1-4.6C179.8,411.6,180.1,410,180.9,408.5z"/>
<path class="st2" d="M204.5,405.2c1-0.6,2.2-0.8,3.4-0.8v2.9h-0.7c-3.1,0-4.7,1.7-4.7,5.1v9.2h-2.8v-16.9h2.8v2.8
	C202.8,406.5,203.6,405.7,204.5,405.2z"/>
<path class="st2" d="M214.1,420.8c-1.3-0.7-2.3-1.8-3-3.1c-0.8-1.4-1.1-3-1.1-4.6c0-1.6,0.4-3.2,1.1-4.6c0.7-1.3,1.8-2.3,3.1-3
	c2.7-1.4,6-1.4,8.7,0c1.3,0.7,2.3,1.7,3.1,3c1.5,2.9,1.5,6.3,0,9.2c-0.7,1.3-1.8,2.4-3.1,3.1c-1.3,0.7-2.9,1.1-4.4,1.1
	C217,421.9,215.5,421.5,214.1,420.8z M221.3,418.7c0.9-0.5,1.6-1.2,2.1-2.1c1.1-2.2,1.1-4.7,0-6.9c-0.5-0.9-1.2-1.6-2.1-2.1
	c-0.9-0.5-1.8-0.7-2.8-0.7c-1,0-2,0.2-2.8,0.7c-0.9,0.5-1.6,1.2-2.1,2.1c-0.5,1.1-0.8,2.3-0.8,3.5c0,1.2,0.2,2.4,0.8,3.5
	c0.4,0.9,1.1,1.6,2,2.1c0.9,0.5,1.8,0.7,2.8,0.7C219.4,419.4,220.4,419.2,221.3,418.7L221.3,418.7z"/>
<path class="st2" d="M236.1,405.4c1.2-0.7,2.5-1,3.8-1c1.4,0,2.9,0.4,4.1,1.1c1.2,0.7,2.2,1.8,2.9,3c0.7,1.4,1.1,3,1.1,4.5
	c0,1.6-0.3,3.2-1.1,4.6c-1.3,2.6-4,4.3-7,4.2c-1.3,0-2.7-0.3-3.8-1c-1-0.6-1.9-1.4-2.5-2.4v3.1h-2.8v-22.7h2.8v9.1
	C234.2,406.8,235.1,406,236.1,405.4z M244.3,409.8c-0.5-0.9-1.2-1.7-2.1-2.2c-0.9-0.5-1.9-0.7-2.9-0.7c-1,0-2,0.3-2.9,0.8
	c-0.9,0.5-1.6,1.3-2.1,2.2c-0.5,1-0.8,2.2-0.8,3.3c0,1.2,0.2,2.3,0.8,3.4c0.5,0.9,1.2,1.7,2.1,2.2c0.9,0.5,1.9,0.8,2.9,0.8
	c1,0,2-0.2,2.9-0.8c0.9-0.5,1.6-1.3,2.1-2.2c0.5-1,0.8-2.2,0.8-3.4C245.1,411.9,244.9,410.8,244.3,409.8L244.3,409.8z"/>
<path class="st2" d="M254.5,398.8v22.8h-2.8v-22.8H254.5z"/>
<path class="st2" d="M259.2,408.5c0.7-1.2,1.7-2.3,2.9-3c1.2-0.7,2.7-1.1,4.1-1.1c1.4,0,2.7,0.3,3.9,1c1,0.6,1.9,1.4,2.4,2.4v-3.2
	h2.8v16.9h-2.8v-3.1c-0.6,1-1.4,1.9-2.5,2.5c-1.2,0.7-2.5,1-3.8,1c-1.4,0-2.8-0.4-4.1-1.1c-1.2-0.8-2.2-1.8-2.9-3.1
	c-0.7-1.4-1.1-3-1-4.6C258.2,411.5,258.5,410,259.2,408.5z M271.7,409.8c-0.5-0.9-1.2-1.7-2.1-2.2c-0.9-0.5-1.9-0.8-2.9-0.8
	c-1,0-2,0.2-2.9,0.7c-0.9,0.5-1.6,1.3-2.1,2.2c-0.5,1-0.8,2.2-0.8,3.3c0,1.2,0.2,2.3,0.8,3.4c0.5,0.9,1.2,1.7,2.1,2.2
	c0.9,0.5,1.9,0.8,2.9,0.8c1,0,2-0.2,2.9-0.8c0.9-0.5,1.6-1.3,2.1-2.2c0.5-1,0.8-2.2,0.8-3.4C272.5,412,272.3,410.8,271.7,409.8z"/>
<path class="st2" d="M280.1,408.5c0.7-1.2,1.7-2.3,2.9-3c1.3-0.7,2.7-1.1,4.1-1.1c1.3,0,2.5,0.3,3.7,0.9c1.1,0.5,2,1.4,2.6,2.4v-8.9
	h2.8v22.8h-2.8v-3.2c-0.6,1-1.4,1.9-2.5,2.5c-1.2,0.7-2.5,1-3.8,1c-3,0.1-5.7-1.6-7-4.2c-0.7-1.4-1.1-3-1-4.6
	C279,411.5,279.4,410,280.1,408.5z M292.6,409.8c-0.5-0.9-1.2-1.7-2.1-2.2c-0.9-0.5-1.9-0.8-2.9-0.8c-1,0-2,0.2-2.9,0.7
	c-0.9,0.5-1.6,1.3-2.1,2.2c-0.5,1-0.8,2.2-0.8,3.3c0,1.2,0.2,2.3,0.8,3.4c0.5,0.9,1.2,1.7,2.1,2.2c0.9,0.5,1.9,0.8,2.9,0.8
	c1,0,2-0.2,2.9-0.8c0.9-0.5,1.6-1.3,2.1-2.2c0.5-1,0.8-2.2,0.8-3.4C293.4,412,293.1,410.8,292.6,409.8z"/>
<path class="st2" d="M301,401.4c-0.7-0.8-0.7-2,0-2.7c0.4-0.4,0.8-0.6,1.3-0.6c0.5,0,1,0.2,1.3,0.6c0.7,0.8,0.7,1.9,0,2.7
	c-0.3,0.4-0.8,0.6-1.3,0.6C301.8,402,301.4,401.8,301,401.4z M303.7,404.7v16.9H301v-16.9L303.7,404.7z"/>
<path class="st2" d="M321.8,406.3c1.4,1.5,2,3.4,1.9,5.4v10h-2.8V412c0.1-1.4-0.4-2.8-1.3-3.9c-0.9-0.9-2.2-1.4-3.5-1.3
	c-1.3-0.1-2.6,0.4-3.5,1.4c-0.9,1.1-1.4,2.5-1.3,4v9.3h-2.8v-16.8h2.8v2.4c0.6-0.9,1.3-1.6,2.3-2c1-0.5,2.1-0.7,3.2-0.7
	C318.6,404.3,320.4,405,321.8,406.3z"/>
<path class="st2" d="M339.1,405.4c1,0.6,1.9,1.4,2.5,2.4v-3.1h2.8V422c0,1.4-0.3,2.9-1,4.1c-0.6,1.2-1.6,2.2-2.8,2.8
	c-1.3,0.7-2.8,1-4.3,1c-2,0.1-3.9-0.5-5.5-1.6c-1.4-1-2.4-2.6-2.6-4.3h2.8c0.3,1,1,1.9,1.9,2.5c1,0.6,2.3,1,3.5,0.9
	c1.4,0.1,2.8-0.5,3.8-1.4c1-1.1,1.6-2.6,1.5-4.1v-3.5c-0.6,1-1.4,1.9-2.5,2.5c-1.2,0.7-2.5,1-3.8,1c-1.4,0-2.9-0.4-4.1-1.1
	c-1.2-0.8-2.2-1.8-2.9-3.1c-0.7-1.4-1-3-1-4.6c0-1.6,0.3-3.1,1-4.5c0.7-1.2,1.7-2.3,2.9-3c1.2-0.7,2.7-1.1,4.1-1.1
	C336.6,404.4,337.9,404.7,339.1,405.4z M340.8,409.8c-0.5-0.9-1.2-1.7-2.1-2.2c-0.9-0.5-1.9-0.8-2.9-0.8c-1,0-2,0.2-2.9,0.7
	c-0.9,0.5-1.6,1.3-2.1,2.2c-0.5,1-0.8,2.2-0.8,3.3c0,1.2,0.2,2.3,0.8,3.4c0.5,0.9,1.2,1.7,2.1,2.2c1.8,1,4,1,5.8,0
	c0.9-0.5,1.6-1.3,2.1-2.2c0.5-1,0.8-2.2,0.8-3.4C341.6,412,341.3,410.8,340.8,409.8z"/>
<path class="st2" d="M348.7,421.2c-0.7-0.8-0.7-2,0.1-2.7c0.3-0.3,0.8-0.5,1.2-0.5c0.5,0,1,0.2,1.3,0.6c0.7,0.8,0.7,1.9,0,2.7
	c-0.3,0.4-0.8,0.6-1.3,0.6C349.5,421.8,349,421.6,348.7,421.2z"/>
<path class="st2" d="M25.4,438.8H14.6v7c0.5-0.7,1.3-1.3,2.1-1.6c0.9-0.4,2-0.7,3-0.6c1.5-0.1,2.9,0.3,4.2,1.1
	c1,0.7,1.8,1.6,2.3,2.7c0.5,1.1,0.7,2.3,0.7,3.6c0,1.4-0.3,2.7-0.8,4c-0.5,1.2-1.4,2.1-2.5,2.8c-1.3,0.7-2.8,1.1-4.2,1
	c-1.9,0.1-3.8-0.5-5.3-1.6c-1.3-1.1-2.2-2.7-2.4-4.4h2.7c0.2,1.1,0.8,2.1,1.7,2.7c0.9,0.7,2.1,1,3.3,1c1.4,0.1,2.7-0.4,3.7-1.5
	c0.9-1.1,1.3-2.5,1.2-3.8c0.1-1.4-0.4-2.7-1.2-3.7c-1-0.9-2.3-1.4-3.6-1.3c-1,0-2,0.2-2.9,0.8c-0.8,0.5-1.4,1.3-1.8,2.1H12v-12.6
	h13.4V438.8z"/>
<path class="st2" d="M30.5,458.2c-0.7-0.8-0.7-2,0-2.7c0.4-0.3,0.8-0.5,1.3-0.5c0.5,0,1,0.2,1.3,0.5c0.7,0.8,0.7,1.9,0,2.7
	c-0.3,0.4-0.8,0.6-1.3,0.6C31.4,458.8,30.9,458.6,30.5,458.2z"/>
<path class="st2" d="M58.6,448.5c0.6,0.5,1.2,1.2,1.5,1.9c0.8,1.7,0.7,3.8-0.3,5.4c-0.6,0.9-1.4,1.6-2.4,2.1
	c-1.2,0.5-2.5,0.8-3.8,0.8h-8v-21.5h7.7c1.3,0,2.6,0.2,3.7,0.7c1,0.4,1.8,1.1,2.3,2c0.5,0.8,0.8,1.8,0.8,2.8c0.1,1.1-0.3,2.3-1,3.2
	c-0.7,0.9-1.7,1.5-2.7,1.8C57.3,447.7,58,448,58.6,448.5z M48.5,446.4h4.7c1.1,0.1,2.2-0.3,3-0.9c1.4-1.4,1.4-3.6,0.1-5
	c0,0,0,0-0.1-0.1c-0.9-0.7-2-1-3.1-0.9h-4.7L48.5,446.4z M56.7,455.3c0.8-0.7,1.2-1.7,1.2-2.7c0-1.1-0.4-2.1-1.2-2.8
	c-0.9-0.7-2.1-1.1-3.3-1h-4.9v7.6h5C54.7,456.4,55.8,456,56.7,455.3z"/>
<path class="st2" d="M69.9,442.4c1.2-0.6,2.5-1,3.8-1c1.4,0,2.9,0.4,4.1,1.1c1.2,0.7,2.2,1.8,2.9,3c0.7,1.4,1.1,3,1.1,4.5
	c0,1.6-0.3,3.2-1.1,4.6c-1.3,2.6-4.1,4.3-7,4.2c-1.3,0-2.7-0.3-3.8-1c-1-0.6-1.9-1.4-2.5-2.4v3.1h-2.8v-22.8h2.8v9.1
	C68,443.8,68.9,443,69.9,442.4z M78.1,446.8c-0.5-0.9-1.2-1.7-2.1-2.2c-0.9-0.5-1.9-0.7-2.9-0.7c-1,0-2,0.3-2.8,0.8
	c-0.9,0.5-1.6,1.3-2.1,2.2c-0.5,1-0.8,2.2-0.8,3.3c0,1.2,0.2,2.3,0.8,3.4c0.5,0.9,1.2,1.7,2.1,2.2c0.9,0.5,1.9,0.8,2.8,0.8
	c1,0,2-0.2,2.9-0.8c0.9-0.5,1.6-1.3,2.1-2.2c0.5-1,0.8-2.2,0.8-3.4C78.9,448.9,78.6,447.8,78.1,446.8L78.1,446.8z"/>
<path class="st2" d="M96.5,456.3h7.5v2.3H93.7v-21.5h2.8V456.3z"/>
<path class="st2" d="M107.1,438.4c-0.7-0.8-0.7-2,0-2.7c0.4-0.4,0.8-0.6,1.3-0.6c0.5,0,1,0.2,1.3,0.6c0.7,0.8,0.7,1.9,0,2.7
	c-0.3,0.4-0.8,0.6-1.3,0.6C108,439,107.5,438.8,107.1,438.4z M109.8,441.7v16.9H107v-16.9H109.8z"/>
<path class="st2" d="M119.9,442.4c1.2-0.7,2.5-1,3.8-1c1.4,0,2.8,0.4,4.1,1.1c1.2,0.7,2.2,1.8,2.9,3c0.7,1.4,1.1,3,1.1,4.5
	c0,1.6-0.3,3.2-1.1,4.6c-1.3,2.6-4,4.3-7,4.2c-1.3,0-2.7-0.3-3.8-1c-1-0.6-1.9-1.4-2.5-2.4v11.1h-2.8v-24.8h2.8v3.1
	C118,443.8,118.9,443,119.9,442.4z M128.1,446.8c-0.5-0.9-1.2-1.7-2.1-2.2c-0.9-0.5-1.9-0.7-2.9-0.7c-2.1,0-4,1.1-5,3
	c-0.5,1-0.8,2.2-0.8,3.3c0,1.2,0.2,2.3,0.8,3.4c0.5,0.9,1.2,1.7,2.1,2.2c0.9,0.5,1.9,0.8,2.8,0.8c1,0,2-0.2,2.9-0.8
	c0.9-0.5,1.6-1.3,2.1-2.2c0.5-1,0.8-2.2,0.8-3.4C128.9,448.9,128.6,447.8,128.1,446.8z"/>
<path class="st2" d="M138,458.2c-1-0.4-1.8-1-2.4-1.9c-0.6-0.8-0.9-1.7-1-2.7h2.9c0.1,0.8,0.5,1.6,1.2,2.1c0.8,0.6,1.8,0.8,2.8,0.8
	c0.9,0,1.8-0.2,2.5-0.7c0.6-0.4,0.9-1.1,0.9-1.8c0-0.7-0.4-1.3-1-1.6c-1-0.5-2-0.8-3.1-1.1c-1-0.3-2.1-0.6-3.1-1
	c-0.8-0.3-1.5-0.9-2-1.5c-1.1-1.5-1.1-3.5-0.1-5c0.6-0.8,1.3-1.4,2.2-1.7c1-0.4,2.1-0.7,3.2-0.6c1.6-0.1,3.2,0.4,4.5,1.4
	c1.2,1,1.8,2.4,1.9,3.9h-2.8c0-0.8-0.4-1.6-1.1-2.1c-1.5-1-3.4-1.1-5-0.1c-0.6,0.4-0.9,1-0.9,1.7c0,0.5,0.2,1,0.5,1.4
	c0.4,0.4,0.9,0.7,1.4,0.9c0.7,0.3,1.5,0.5,2.3,0.7c1,0.3,2,0.6,3,1c0.8,0.3,1.4,0.8,1.9,1.4c0.6,0.7,0.9,1.6,0.9,2.5
	c0,0.9-0.3,1.8-0.8,2.5c-0.5,0.8-1.3,1.4-2.2,1.7c-1,0.4-2.1,0.7-3.2,0.6C140.3,458.9,139.1,458.7,138,458.2z"/>
</svg>
